<svg xmlns="http://www.w3.org/2000/svg" xmlns:xlink="http://www.w3.org/1999/xlink" viewBox="0 0 800 487.1">
  <defs>
    <clipPath id="clip-path">
      <circle cx="1334.61" cy="241.86" r="384.85" style="fill: none"/>
    </clipPath>
    <clipPath id="clip-path-2">
      <circle cx="252.28" cy="241.86" r="241.86" style="fill: none"/>
    </clipPath>
    <linearGradient id="linear-gradient" x1="-330.73" y1="2431.36" x2="1672.87" y2="1161.98" gradientTransform="matrix(0.99, 0.16, -0.17, 1.06, 785.08, -1262.31)" gradientUnits="userSpaceOnUse">
      <stop offset="0.84" stop-color="#d33f33"/>
      <stop offset="1" stop-color="#e64c3c"/>
    </linearGradient>
    <linearGradient id="linear-gradient-2" x1="272.04" y1="99.37" x2="268.9" y2="295.71" gradientUnits="userSpaceOnUse">
      <stop offset="0.1" stop-color="#85161f"/>
      <stop offset="0.81" stop-color="#be202e"/>
    </linearGradient>
    <linearGradient id="linear-gradient-3" x1="271.16" y1="277.63" x2="271.16" y2="100.65" gradientUnits="userSpaceOnUse">
      <stop offset="0.19" stop-color="#8d1721"/>
      <stop offset="0.9" stop-color="#5c0c12"/>
    </linearGradient>
  </defs>
  <title>Artboard 1 copy 19</title>
  <g id="OptionIcons">
    <g style="clip-path: url(#clip-path)">
      <path d="M1000.94,941.85c-196.42,4.12-395.16,8-585.63-38.81S40.46,752.76-68.75,581.08c-123.81-194.63-135.5-445.69-143.18-683-4.67-144.32-9-291.46,28.21-431.26C-145.86-675.2-67.18-801.37,15.05-921c125.29-182.34,263.67-358,434.84-491.27,315.58-245.64,712.45-326.09,1094.46-398.64q80.18-15.22,160.37-30.38c196.66-37.16,394.4-74.11,593.42-77,230.73-3.37,459,39.09,683.14,92.48,209.35,49.87,418.61,110.28,606.82,218,47.28,27.06,93.78,57.34,145.93,71.68,38.9,10.69,79.83,12.17,118.6,23.37,85.23,24.62,151.47,93.08,213.83,159.09l389.35,412.14c60.47,64,121.85,129.31,161.64,209.87C4642.83-680.3,4658.72-624,4682-571.45c44.36,100.35,114.25,184.66,167.82,279.6s91.09,210,61.43,318c61.44,126,34.33,270.32,95.76,396.3,22.92,47,46.15,95,54.14,147.56s.25,106.7-10.23,159.18c-53.16,266.26-116.6,522.26-362.89,594.29-115.94,33.92-237.92,18.78-356.29,3.39L3879.12,1268c-153.33-19.93-313.31-39.15-460.22,16.61-49.28,18.71-96.11,45.59-146.86,58.63-139.86,35.92-279.76-37.73-421.74-54.18-340.5-39.45-645.36,247.49-985.73,303.68-379.41,62.65-777.28-213.17-867.45-608-21.59-94.51-25.81-200,19.73-285.85,50.44-95.07,150.24-146.61,220.42-226.38,84.5-96,125.16-232.17,221.63-314.31C1623,18.49,1870.17,92.6,2058.26-5.83c53-27.75,103.28-69.82,161.86-71.95,37.39-1.37,73.12,14.07,110.19,18.47,174.18,20.69,354.62-196.84,502.91-99.67" style="fill: #e64c3c"/>
    </g>
    <g>
      <g>
        <g style="clip-path: url(#clip-path-2)">
          <path d="M462.48-4.85a2.75,2.75,0,0,1,2.26.93,5.31,5.31,0,0,1,1.15,2.25c.23.82.35,1.64.61,2.42a8.83,8.83,0,0,0,1,2.24h0a.22.22,0,0,1-.06.31.24.24,0,0,1-.32-.06h0a9.33,9.33,0,0,1-.93-2.39c-.24-.81-.32-1.66-.51-2.46a5.08,5.08,0,0,0-1-2.23A2.68,2.68,0,0,0,462.48-4.85Z" style="fill: #b5282b"/>
          <path d="M456.5-3.11a10.69,10.69,0,0,0-1.93,2.94,17.81,17.81,0,0,0-1.16,3.31.13.13,0,0,1-.14.09.11.11,0,0,1-.09-.13h0a18.43,18.43,0,0,1,1.28-3.31A10.85,10.85,0,0,1,456.5-3.11Z" style="fill: #b5282b"/>
          <g>
            <path d="M-97.63,824.43c-178.61,3.74-359.35,7.27-532.55-35.3s-340.88-136.66-440.19-292.78c-112.6-177-123.23-405.29-130.21-621.06-4.25-131.25-8.23-265.06,25.65-392.19,34.43-129.18,106-243.91,180.76-352.73,113.94-165.81,239.77-325.58,395.43-446.74,287-223.38,647.89-296.54,995.28-362.51q72.91-13.84,145.84-27.63c178.84-33.8,358.65-67.39,539.64-70,209.82-3.07,417.42,35.55,621.23,84.1,190.38,45.35,380.67,100.28,551.83,198.25,43,24.61,85.28,52.14,132.71,65.18,35.37,9.73,72.59,11.07,107.84,21.25,77.51,22.39,137.75,84.65,194.46,144.68L3044.16-888.3c55,58.21,110.8,117.59,147,190.85,23.08,46.74,37.53,97.91,58.67,145.72,40.34,91.25,103.9,167.92,152.61,254.26s82.84,191,55.87,289.14c55.86,114.56,31.21,245.83,87.08,360.39,20.84,42.74,42,86.38,49.23,134.19s.23,97-9.3,144.75c-48.34,242.13-106,474.93-330,540.44-105.44,30.84-216.37,17.07-324,3.08L2519.73,1121c-139.44-18.13-284.92-35.6-418.52,15.11-44.81,17-87.4,41.45-133.55,53.31-127.18,32.67-254.4-34.31-383.52-49.27-309.64-35.87-586.88,225.07-896.4,276.17-345,57-706.84-193.86-788.84-552.91-19.63-85.94-23.47-181.85,17.95-259.94C-37.29,517,53.47,470.16,117.29,397.63c76.84-87.34,113.82-211.14,201.55-285.84,149.21-127,374-59.65,545-149.16,48.23-25.24,93.92-63.49,147.19-65.43,34-1.25,66.49,12.79,100.2,16.8,158.4,18.81,322.49-179,457.33-90.64" style="fill: #e64c3c"/>
            <path d="M2518.86,1120.88c-140.63-5.52-284.92-35.6-418.52,15.11-44.81,17-87.4,41.45-133.55,53.31C1839.6,1222,1712.38,1155,1583.27,1140c-309.64-35.87-586.88,225.06-896.4,276.17-345,57-706.85-193.86-788.85-552.91-19.62-85.94-23.47-181.86,18-259.94C-38.17,516.89,52.59,470,116.41,397.48,193.25,310.15,230.24,186.35,318,111.65,467.18-15.4,692,52,863-37.51c48.24-25.24,93.93-63.49,147.2-65.43,34-1.25,66.49,12.79,100.2,16.8,158.39,18.81,322.48-179,457.33-90.64,116.6,72.16,200,162.32,229.69,281.58,218.52,138.06,387.51,342,493.28,630.05C2335.36,719.75,2692.32,1127.69,2518.86,1120.88Z" style="fill: url(#linear-gradient)"/>
          </g>
          <g>
            <path d="M854.62,3413.7a49.51,49.51,0,0,1-48.69-42.12l-.09-.65c-8.57-64.08-18.76-132.24-32.07-214.52q-4.21-26.17-8.51-52.42c-8.72-53.54-17.74-108.9-25.7-163.91-11.42-79.15-19.35-151.15-24.25-220.15-5.1-71.3-7.5-145.82-7.12-221.49,0-2.09,0-4.37,0-6.57l.11-7.6c.07-4.69.2-9.41.33-14V2470c.29-9.07.71-18.58,1.24-28.28,1-17.82,2.33-36.11,4.11-55.93,3-32.69,6.91-67.68,12.45-110.12,5.44-41.6,11.48-83.53,17.33-124.09,4.37-30.27,8.89-61.59,13.08-92.28,5.73-42,9.94-76,13.25-107.09,4.25-39.91,7-74.66,8.36-106.26,1.7-39.75,1.26-73.75-1.34-103.91a419.78,419.78,0,0,0-7-49.39,242.49,242.49,0,0,0-13.6-44.93,156.71,156.71,0,0,0-9.82-19.49,119.67,119.67,0,0,0-12-16.56A92,92,0,0,0,704,1588.64l-.21-.1c-.77-.39-1.66-.76-2.61-1.15l-1.8-.76c-.88-.36-1.79-.69-2.7-1l-1.88-.7-2-.64c-.93-.31-1.85-.62-2.79-.89l-2.56-.71-1.2-.35L685,1582a140.34,140.34,0,0,0-21.24-3.48l-2.77-.25-2.78-.15-2.82-.16-5.77-.13-3.35,0-7-.08c-9.92-.12-19.1-.34-28.09-.65-20.35-.71-38.88-1.86-56.64-3.52-20.77-2-39.59-4.62-57.54-8.06l-7.26-1.5-3.74-.78-6.06-1.41c-1.61-.38-3.22-.75-4.83-1.16l-7.25-1.9c-11.3-3.12-20.62-6.13-29.42-9.5a243.38,243.38,0,0,1-29.19-13.39,188.11,188.11,0,0,1-28.05-18.62,159.79,159.79,0,0,1-24.71-24.76,156.13,156.13,0,0,1-18.68-29.8,173.6,173.6,0,0,1-11.64-32,216.64,216.64,0,0,1-5.67-32,272.38,272.38,0,0,1-1.48-31.1c.1-10.88.56-20.71,1.42-30,0,0,.31-3.68.31-3.73l.38-3.61s.8-7.34.8-7.38c.18-1.39.36-2.78.53-4.16.43-3.38.87-6.87,1.41-10.3,0,0,1.07-7.13,1.08-7.16l1.19-7c.51-3.2,1.11-6.41,1.7-9.51.29-1.53.58-3.06.86-4.59,3.29-17,7.43-35.09,12.68-55.33,4.41-17,9.38-34.56,15.22-53.8,1.29-4.27,2.67-8.82,4.09-13.31l.85-2.74c1.1-3.51,2.19-7,3.32-10.5l1.47-4.59c.92-2.87,1.84-5.74,2.78-8.59l4.26-13a388,388,0,0,0,13-48.54,211.84,211.84,0,0,0,3.23-23.34c.27-3.43.42-7,.45-11.1,0-3.55-.2-7-.53-10.25a57.33,57.33,0,0,0-4-16.83,30.65,30.65,0,0,0-7.64-11,42,42,0,0,0-13.24-7.88,93.55,93.55,0,0,0-19.63-5,188.17,188.17,0,0,0-23.28-2c-3.11-.1-6.39-.15-9.75-.15-4.83,0-9.86.1-15.35.31-16.74.62-33.65,2-51.56,3.49l-3.86.32c-17.3,1.42-35.2,2.9-53.58,3.5-5.24.17-10,.25-14.63.25-5.25,0-10.17-.11-15-.32a219.48,219.48,0,0,1-31.5-3.48,130.72,130.72,0,0,1-33.83-11,96.41,96.41,0,0,1-16.89-10.77,84.35,84.35,0,0,1-14.7-15,85.92,85.92,0,0,1-5.8-8.66c-.39-.64-.67-1.15-1-1.66l-1.82-3.36q-.7-1.3-1.38-2.61a159.52,159.52,0,0,1-6.81-15.53,154.89,154.89,0,0,1-8.4-32.62,169.89,169.89,0,0,1-1.41-33.15,185.93,185.93,0,0,1,4.76-32.14,218.73,218.73,0,0,1,23.45-58.28,263.5,263.5,0,0,1,36.6-49.1,286.21,286.21,0,0,1,99.34-68.16,264.31,264.31,0,0,1,58.68-16.37,254.07,254.07,0,0,1,30.46-2.88c1.75-.09,3.47-.1,5.12-.11.84,0,1.67,0,2.5,0l6.56-.08h.24c1.18,0,2.41-.07,3.71-.14q.84-.06,1.68-.09c1.5,0,2.95-.2,4.49-.35l1.18-.11a139.16,139.16,0,0,0,43.81-11.75A141.5,141.5,0,0,0,395,586.83a139.1,139.1,0,0,0,15.42-16.89c2.44-3.11,4.68-6.41,6.55-9.24,1.93-3.09,4-6.38,5.6-9.65l.05-.09a103.93,103.93,0,0,0,8.07-20.08,86.76,86.76,0,0,0,2.12-10,66.06,66.06,0,0,0,.66-9.55,51.12,51.12,0,0,0-.9-8.65,32,32,0,0,0-2.35-7.22,26,26,0,0,0-3.57-5.77,28.89,28.89,0,0,0-5.17-4.76,43.22,43.22,0,0,0-15.4-6.44l-2.52-.48-1.16-.23-1.17-.16-2.76-.37c-.42-.06-.9-.09-1.37-.13l-1.1-.08-1.1-.09c-.48-.05-1-.09-1.46-.11l-10-.3a164.57,164.57,0,0,1-32-4.48,194.89,194.89,0,0,1-29.75-9.88c-17.4-7.35-34.46-17.17-52.16-30a403.85,403.85,0,0,1-44.19-37.64c-12.65-12.3-25.31-25.93-38.69-41.67-22-26-43.87-55.36-66.76-89.71C101.49,235.5,83,205.61,61.85,169.11c-4.18-7.19-8.65-15-13.69-23.8l-3.39-5.94-3.27-5.64-3.35-5.6-3.45-5.61c-8.67-13.93-18-28.17-27-41.94L5.44,77.17C-33.31,18.37-74-44.64-108.55-111.38c-18.67-36.09-33.62-69.37-45.7-101.72-14.48-38.9-24.11-74.54-29.45-109-.42-2.38-.72-4.75-1-7.05l-.93-7.14c-.38-3.21-.68-6.38-1-9.45-.15-1.6-.31-3.19-.47-4.79,0-.08,0-.16,0-.24-.09-1.47-.18-2.94-.28-4.42-.21-3.21-.42-6.53-.56-9.84l-.28-10.74c0-.87,0-1.71,0-2.54,0-.4,0-.8,0-1.2a295.85,295.85,0,0,1,5.78-57.95l.32-1.68a2.56,2.56,0,0,1,.05-.27l1.25-5.24,1.69-7c0-.09.05-.18.08-.27l2-6.91c.2-.67.38-1.29.56-1.91.5-1.72,1-3.5,1.69-5.31l2.35-6.74c.16-.44.29-.8.41-1.17.27-.77.57-1.65.94-2.54l1.35-3.3,2.73-6.68c.69-1.63,1.41-3.13,2.1-4.58.35-.73.7-1.46,1-2.19A244.27,244.27,0,0,1-132.45-543c2.7-3.21,5.42-6.34,8-9.36L-123-554a2.09,2.09,0,0,1,.2-.22l3.13-3.26c2.23-2.33,4.53-4.73,6.85-7.08l.07-.07a259.13,259.13,0,0,1,22-19.22,443.06,443.06,0,0,1,47.08-31.77c14.91-8.85,31-17.53,49.17-26.52,15.06-7.47,31.53-15.05,50.37-23.17,31.71-13.63,65.38-26.58,103-39.58,33.28-11.51,68.55-22.65,104.83-33.11,67.33-19.4,139-36.9,213.1-52,71-14.47,143.69-26.67,216.1-36.27,73.27-9.7,146.63-16.8,218-21.11,55.3-3.33,110-5,162.66-5,18.85,0,37.82.22,56.36.64,77.68,1.82,149.16,7.12,218.53,16.23,17.61,2.32,35.86,5,54.24,8.05,18,2.94,36.13,6.28,54,9.91,18.35,3.73,36.37,7.74,53.54,11.94,18.06,4.44,35.89,9.24,53,14.26a1017.56,1017.56,0,0,1,103.64,36.28,807.86,807.86,0,0,1,98.57,48.58,5.91,5.91,0,0,1,2.13,8.06,5.89,5.89,0,0,1-5.12,3,5.84,5.84,0,0,1-2.92-.78,796.11,796.11,0,0,0-97.62-46.62,1007.59,1007.59,0,0,0-102.67-34.51c-17-4.75-34.67-9.27-52.55-13.44-17-3.93-34.87-7.68-53.08-11.15-17.69-3.37-35.68-6.44-53.48-9.13-18.26-2.78-36.36-5.23-53.79-7.3-68.83-8.17-139.72-12.55-216.73-13.39-8.38-.09-16.91-.13-25.36-.13-61.8,0-126.33,2.41-191.81,7.16-70.8,5.16-143.49,13.11-216.05,23.64-71.68,10.4-143.62,23.39-213.81,38.61-73.13,15.87-143.84,34.06-210.17,54.07-35.63,10.75-70.23,22.15-102.84,33.89-36.65,13.19-69.44,26.26-100.22,40-18.19,8.11-34,15.64-48.46,23-17.28,8.81-32.51,17.27-46.54,25.84a408.77,408.77,0,0,0-43,29.75,225.66,225.66,0,0,0-18.82,16.79c-1.78,1.85-3.55,3.74-5.31,5.63l-3.4,3.63-2.18,2.57c-2,2.36-4,4.72-6,7.11A208.12,208.12,0,0,0-145.6-430.1,258.26,258.26,0,0,0-150-379.59v1.25c0,.62,0,1.24,0,1.86l.38,9.77c.14,2.71.37,5.59.58,8.38.12,1.46.23,2.92.34,4.38l.51,4.68c.29,2.68.59,5.45.94,8.14l1,6.73c.29,2.08.56,4,.93,6,0,0,0,.07,0,.11,5.32,31.72,14.7,64.73,28.69,100.9,11.88,30.67,26.57,62.29,44.9,96.67,15.5,29.06,33.28,59.42,54.36,92.8C1.89-7.46,21.87,22.29,42.35,52.62L45,56.55c9.17,13.61,18.66,27.69,27.82,42l3.74,5.93,3.73,6.05L84,116.69l3.46,5.9c5.1,8.69,9.62,16.32,13.8,23.33,21.14,35.4,39.47,64.29,57.7,90.91,9.17,13.41,18.36,26.26,27.3,38.2A17.17,17.17,0,0,0,205,281.22c11.7-3.57,25.81-7.82,25.81-7.82,12-3.48,24.43-7,36.92-10.45,25.33-7,50.28-13.62,74.16-19.6,28.63-7.14,52.52-12.65,75.19-17.36,4.62-1,9.36-1.92,13.95-2.83l5.07-1,9.62-1.8c2.86-.54,5.94-1.09,9.69-1.72,14.14-2.48,27-4.36,39.35-5.75l5.11-.58,6.2-.55c3-.27,6.1-.54,9.33-.68l1.74-.1c2.87-.16,5.84-.33,9-.33l8.73-.11a78.34,78.34,0,0,0,13.43-1.88c4.68-1,9.76-2.4,15.51-4.23,9.46-3,19.85-7,32.66-12.49,10.42-4.51,21.29-9.53,33.24-15.34,20.12-9.77,40.67-20.36,60.54-30.59l6.52-3.36c23-11.86,45.56-23.42,68.29-34.48,26.66-13,49.14-23.12,70.75-31.94,28.06-11.41,51.89-19.54,75-25.6a378.76,378.76,0,0,1,39.87-8.26c7.65-1,14.05-1.83,20.67-2.27,3.1-.26,6.21-.39,9.22-.5l1.27-.06c1.24-.06,2.53-.07,3.78-.08h6.71c5,0,10,.08,14.79.08,20.44,0,40.54-.44,59.75-1.31a1223.27,1223.27,0,0,0,148-15.62,1070.16,1070.16,0,0,0,144.5-34.82A949.23,949.23,0,0,0,1497-68c3.53-1.78,7.06-3.61,10.59-5.44l6-3.1c1.9-1,3.72-2,5.64-3l2.49-1.36,12.3-6.72,8.9-4.74c1.11-.58,2.17-1.07,3.2-1.55l1.51-.72,1.84-.87c2.47-1.17,5-2.38,7.69-3.43.87-.35,1.77-.73,2.68-1.11,2.17-.92,4.42-1.86,6.79-2.67a233.32,233.32,0,0,1,80-14.54l2.52,0c24.53,0,50.37,3.59,76.79,10.65a419.32,419.32,0,0,1,73.6,27.83,574.86,574.86,0,0,1,67.36,38.92A716.77,716.77,0,0,1,1928.6,6.7a785.25,785.25,0,0,1,107.48,110.16c8.25,10.39,16,20.81,23.1,31,7.85,11.25,14.68,22,20.88,32.74,1.4,2.46,2.81,4.83,4.18,7.11l.55.93c.57.94,1.15,1.92,1.73,2.9,1,1.7,2,3.31,3,4.88l7,10.44,6.43,8.53c.82,1.1,1.6,2.14,2.4,3l6.18,7.34c.8,1,1.72,2,2.7,3l6.51,6.95c.56.59,1.21,1.21,1.9,1.87.42.4.85.81,1.26,1.22a240.48,240.48,0,0,0,27.91,23.64,281.93,281.93,0,0,0,31,19.75c4.49,2.56,9.2,4.94,13.74,7.24l2.67,1.35,8.45,4c1.76.85,3.51,1.61,5.37,2.42l3.14,1.39c11.14,4.84,22.84,9.48,34.71,13.75,14.49,5.26,29.41,10.19,43.85,15,9.15,3,18.6,6.14,27.89,9.32,14.59,5,25.67,9.16,35.91,13.42a275,275,0,0,1,34.79,17.1,5.91,5.91,0,0,1-5.91,10.24,261.61,261.61,0,0,0-33.62-15.53c-10.09-3.91-21-7.7-35.45-12.29-9.27-2.93-18.75-5.82-27.92-8.6-14.65-4.45-29.8-9.06-44.62-14-12.27-4.1-24.4-8.57-36-13.31l-3.13-1.29c-1.92-.78-3.9-1.59-5.87-2.48l-8.83-3.92-2.73-1.3c-4.82-2.3-9.8-4.67-14.65-7.29a297.27,297.27,0,0,1-33.36-20.16,257.71,257.71,0,0,1-30.55-24.66l-1.14-1c-.81-.74-1.64-1.49-2.48-2.33l-6.84-7c-1.14-1.15-2.32-2.34-3.46-3.68l-6.32-7.16c-1.15-1.26-2.16-2.53-3.13-3.77l-6.9-8.72-.18-.24-7.74-10.94c-1.22-1.81-2.37-3.65-3.49-5.43q-.87-1.41-1.77-2.82l-.52-.83c-1.54-2.44-3.13-5-4.6-7.41-6-9.92-13-20.25-20.62-30.68-7-9.62-14.77-19.48-23-29.3A759.4,759.4,0,0,0,1911.92,27a689,689,0,0,0-60.39-43.36,545.64,545.64,0,0,0-64.75-35.4,387.11,387.11,0,0,0-68.68-24.15,269.7,269.7,0,0,0-63.21-8c-2.53,0-5.08,0-7.58.12a199.64,199.64,0,0,0-68.1,14l-.2.08c-1.7.61-3.4,1.38-5.19,2.19-.9.4-1.8.81-2.71,1.2-2,.84-3.94,1.81-6,2.84l-1.78.9-1.46.72c-.81.41-1.58.79-2.29,1.18l-7.78,4.38L1539.4-49.1l-2.46,1.43c-2,1.13-4,2.31-6.06,3.42s-3.87,2.12-5.83,3.19c-3.67,2-7.35,4-11,6a988.26,988.26,0,0,1-141.9,61.46,1112.87,1112.87,0,0,1-149.36,39.77,1268.62,1268.62,0,0,1-153.17,19.87c-24.62,1.7-50.58,2.75-77.17,3.12l-2.18.06-2.11.07-1.45,0c-.9,0-1.75.05-2.55.11l-1.68.11c-2.35.15-4.57.3-6.8.55h-.14c-5.68.5-11.5,1.4-17,2.27a331.55,331.55,0,0,0-34.12,7.95c-20.44,5.88-42.65,14.07-67.89,25.05-20.29,8.85-41.51,19-66.76,32.09-22,11.33-43.89,23.26-66.32,35.49l-7,3.85c-19.62,10.7-39.9,21.77-60.42,32.34-12.58,6.49-24.1,12.14-35.22,17.28-9.92,4.54-23.17,10.39-37.82,15.46-7.56,2.6-14.41,4.64-20.95,6.23a138,138,0,0,1-23.94,3.8l-10.38.41c-2,0-4.07.2-6.31.38l-1.78.14c-.47.05-1,.09-1.57.13-.85.06-1.65.12-2.44.22l-8.76,1-4.36.61c-11.05,1.51-22.67,3.49-35.55,6.07-3.49.67-6.32,1.25-8.95,1.81l-9.07,1.92-5,1.11c-4.26.95-8.67,1.93-13,3-21.74,5.05-44.69,10.94-72.26,18.51-23.19,6.4-47.43,13.42-72,20.89-3.47,1.05-9.43,2.89-16.13,5a17.15,17.15,0,0,0-6.48,29c16,14.64,28.58,25.46,34.58,29.7A214.49,214.49,0,0,0,341,415.61c15.21,6.21,30.05,9.53,44.1,9.87l6.44.11,3.95.08c1,0,2,.1,3,.17l1.26.08,1.36.09c.94.07,1.91.13,2.94.25l4.09.49,2.05.26.29,0,2,.36,4.3.79c1,.22,2.07.48,3.11.73l3.21.79c.62.16,1.18.33,1.73.5l4.79,1.5a2.42,2.42,0,0,1,.35.12l4.24,1.63a83.9,83.9,0,0,1,17.07,9.17,80.54,80.54,0,0,1,15,13.52,77.41,77.41,0,0,1,11.05,17.09,83.93,83.93,0,0,1,6.36,18.59,103,103,0,0,1,2.2,18.4,119.28,119.28,0,0,1-1,17.66,137,137,0,0,1-3.29,16.7,157.72,157.72,0,0,1-11.81,30.67c-2.47,5-5.35,9.84-7.84,13.91l-.06.11c-3.37,5.26-6.24,9.42-9,13.09a192.55,192.55,0,0,1-21,23.61,195.76,195.76,0,0,1-52,35.64,193.51,193.51,0,0,1-60.86,17.15l-1,.11c-2.25.25-4.57.5-6.95.63l-1.67.11c-2,.14-4.1.28-6.24.3l-7.15.18c-.73,0-1.52,0-2.31.06-1.25,0-2.44,0-3.58.12H290a196.94,196.94,0,0,0-23.75,2.55,207.87,207.87,0,0,0-46,13.48,227.46,227.46,0,0,0-78.56,55.36,204,204,0,0,0-28,38.53A158.94,158.94,0,0,0,97,833a126,126,0,0,0-3,21.81A109,109,0,0,0,95.14,876a95.53,95.53,0,0,0,5.43,20,99,99,0,0,0,4.31,9.49c.19.37.44.8.68,1.23l1.58,2.84c.19.28.36.57.54.86a4.5,4.5,0,0,0,.27.43l.2.27c.3.43.57.82.79,1.08l.15.19a29.09,29.09,0,0,0,10.58,8.12,71.26,71.26,0,0,0,18,5.39,160.3,160.3,0,0,0,22.73,2.16c2.69.09,5.53.13,8.43.13,5.08,0,10.47-.13,16.46-.4,16.85-.76,33.9-2.37,52-4.09l3.67-.35c17.13-1.63,34.84-3.31,53-4.21,8.12-.4,15.49-.6,22.52-.6,2.3,0,4.6,0,6.92.07A253.76,253.76,0,0,1,354.39,921a157.49,157.49,0,0,1,33.2,8.22A105.48,105.48,0,0,1,421,949a92.69,92.69,0,0,1,13.9,15.36A99.84,99.84,0,0,1,445,981.92a121.84,121.84,0,0,1,9.49,35.79c.63,5.47,1,11,1.09,16.92.05,5.72-.09,11.17-.43,16.25a279.34,279.34,0,0,1-3.82,30.7,450.36,450.36,0,0,1-14.4,57l-4.07,13c-.88,2.77-1.72,5.52-2.57,8.27-.46,1.52-.93,3.05-1.4,4.58-1,3.35-2,6.71-3.05,10.06l-.82,2.76c-1.3,4.31-2.58,8.7-3.77,12.83-11.54,40-19.46,72.56-24.93,102.59-.24,1.41-.5,2.9-.76,4.39-.48,2.72-1,5.54-1.38,8.25l-1,6.42-.87,6.34c-.42,2.86-.74,5.75-1.06,8.55-.15,1.34-.31,2.69-.47,4l-.88,9.38-.22,3.07c-.6,7.53-.88,15.52-.86,24.5A203.8,203.8,0,0,0,390.2,1391c1.85,15.81,5.63,29.51,11.24,40.7a85.45,85.45,0,0,0,24.4,29.8c9.91,7.8,22.7,14.63,38,20.31,6.46,2.39,13.87,4.67,22.64,7l5.93,1.48c1.18.28,2.42.55,3.66.83l2.31.51,3,.65,9.22,1.79c15.55,2.77,32.1,4.87,50.49,6.4,16.29,1.32,33.39,2.16,52.27,2.58,8.44.19,17.1.29,26.48.29h10.08l3.93,0,4.08,0,3.91.16,4.11.18,3.94.3a216,216,0,0,1,32.67,5l2.16.5,6,1.6c2,.55,4,1.17,5.85,1.76l2.29.72.25.08,2,.73c2,.68,4,1.39,6,2.18l.09,0,2.19.88c1.89.76,3.84,1.54,5.81,2.47a166,166,0,0,1,30.39,17.62,171,171,0,0,1,26,23.51A195.68,195.68,0,0,1,812,1588.27a233.66,233.66,0,0,1,15.14,29,316.53,316.53,0,0,1,18.83,59.07A498.13,498.13,0,0,1,855,1734.8c3.35,34,4.29,70.27,3,114.12-1.06,33.76-3.39,69.15-7.35,111.39-3,31.94-6.88,66.78-12.19,109.65-3.87,31.25-8,62.85-12.05,93.41-5.31,40.32-10.79,82-15.61,122.81-4.87,41.32-8.28,75.28-10.74,106.87-1.47,18.81-2.53,36.13-3.24,52.94-.38,9-.66,17.84-.82,26.25v.48c-.07,4.12-.13,8.39-.15,12.55v7.14c0,1.92,0,3.85,0,5.87.55,73.49,3.76,145.67,9.56,214.63,5.57,66.75,14.14,136.52,26.19,213.31,8.48,53.87,18.15,108.9,27.5,162.11q4.57,26.09,9.14,52.24c14.43,82.7,25.57,151.34,35,216,3.94,26.86-14.32,52.2-40.69,56.5A49.86,49.86,0,0,1,854.62,3413.7Z" style="fill: #be202e"/>
            <path d="M1073.62-846.53q28.11,0,56.23.64c72.84,1.7,145.64,6.7,217.89,16.18q27.09,3.57,54,8t53.74,9.87q26.78,5.45,53.32,11.89t52.75,14.19a1009.62,1009.62,0,0,1,103,36.07,797.79,797.79,0,0,1,97.84,48.23,798.46,798.46,0,0,0-98.35-47,1006.72,1006.72,0,0,0-103.28-34.72q-26.24-7.33-52.78-13.49t-53.32-11.2q-26.76-5.11-53.7-9.18t-54-7.32c-72.14-8.56-144.75-12.64-217.36-13.43q-12.72-.13-25.44-.13c-64.14,0-128.27,2.53-192.23,7.18Q803.41-822.8,695.57-807T481.36-768.34c-70.9,15.38-141.25,33.25-210.62,54.18q-52,15.7-103.14,34C133.57-667.93,99.91-654.7,67-640c-16.46,7.34-32.76,15-48.75,23.16s-31.71,16.77-46.92,26.06a416.24,416.24,0,0,0-43.59,30.17,232.34,232.34,0,0,0-19.35,17.28c-3,3.11-5.92,6.31-8.9,9.45-2.78,3.3-5.59,6.59-8.33,9.92a213.5,213.5,0,0,0-42.54,92.81,263.63,263.63,0,0,0-4.47,51.66c0,1.09,0,2.17,0,3.26l.12,3.27.25,6.53c.24,4.36.63,8.71.94,13.07.5,4.35.91,8.71,1.48,13.06l.94,6.51c.3,2.17.6,4.35,1,6.51,5.82,34.7,16.16,68.83,29,102.06s28.31,65.63,45.2,97.31S-41.61-65.3-22.34-34.78,17.09,25.78,37.45,55.93C47.62,71,57.84,86.13,67.83,101.75l3.73,5.9,3.69,6,3.62,6.08,3.44,5.87Q89.2,137.31,96.14,149c18.54,31,37.62,61.61,57.89,91.22q13.35,19.52,27.45,38.4a23.14,23.14,0,0,0,18.52,9.3,22.88,22.88,0,0,0,6.71-1c11.68-3.56,25.79-7.81,25.79-7.81q18.36-5.31,36.79-10.42,36.85-10.22,74-19.56c24.8-6.18,49.72-12.07,74.95-17.3,6.29-1.35,12.64-2.56,19-3.82l9.55-1.79c3.18-.6,6.38-1.16,9.59-1.7,12.81-2.25,25.76-4.21,39-5.71l5-.56,5.06-.45c3.37-.3,6.72-.62,10.21-.77s6.87-.42,10.49-.42l8.85-.11a83.8,83.8,0,0,0,14.55-2c5.19-1.13,10.58-2.63,16-4.36,10.92-3.48,22.08-7.92,33.21-12.7s22.32-10,33.49-15.45c22.35-10.85,44.69-22.44,67.19-34s45.15-23.22,68.17-34.42S814,91.5,838,81.7s48.63-18.64,74.27-25.35a372.21,372.21,0,0,1,39.24-8.14c6.7-.92,13.42-1.77,20.26-2.21,3.39-.3,6.84-.41,10.27-.55,1.71-.09,3.45-.06,5.17-.09h5.08q7.4.07,14.79.08,30,0,60-1.32a1225.72,1225.72,0,0,0,148.7-15.69,1071.76,1071.76,0,0,0,145.3-35,951,951,0,0,0,138.51-56.1c5.56-2.82,11.08-5.72,16.62-8.58,2.79-1.4,5.5-2.94,8.24-4.42l8.21-4.49,4.12-2.25,4.41-2.35,4.42-2.35c1.48-.77,3-1.44,4.51-2.17,3-1.42,6-2.9,9.13-4.12s6.13-2.64,9.3-3.71a228.4,228.4,0,0,1,78.09-14.2l2.47,0c25.61,0,50.92,3.94,75.27,10.45a411.13,411.13,0,0,1,72.54,27.43A566.88,566.88,0,0,1,1863.6-35a707.14,707.14,0,0,1,61.19,46.18,776.68,776.68,0,0,1,106.66,109.32q11.9,15,22.88,30.66c7.3,10.47,14.22,21.22,20.61,32.32,1.59,2.81,3.19,5.46,4.78,8.12s3.14,5.37,4.82,8l5.21,7.74,1.3,1.93.65,1,.7.93,2.81,3.73,2.81,3.72c.93,1.25,1.86,2.5,2.88,3.67l6,7.14c1,1.22,2.05,2.34,3.12,3.48l3.19,3.41,3.19,3.41c1.07,1.13,2.23,2.17,3.34,3.26a248.79,248.79,0,0,0,28.54,24.18A287,287,0,0,0,2180,287.36c5.45,3.11,11.08,5.89,16.68,8.74l8.52,4c2.83,1.36,5.74,2.56,8.61,3.85q17.31,7.51,35.14,13.92c23.72,8.62,47.88,16.1,71.82,24.31,12,4.12,23.87,8.43,35.56,13.29a269.16,269.16,0,0,1,34,16.72A269.39,269.39,0,0,0,2356,356.34c-11.78-4.57-23.76-8.58-35.8-12.41-24.08-7.63-48.42-14.53-72.44-22.62q-18-6-35.7-13.17c-2.93-1.24-5.9-2.37-8.79-3.68l-8.72-3.87c-5.74-2.75-11.52-5.43-17.12-8.46a294.07,294.07,0,0,1-32.76-19.78,255.66,255.66,0,0,1-29.87-24.11c-1.17-1.1-2.39-2.15-3.52-3.28l-3.37-3.43-3.37-3.44c-1.13-1.14-2.26-2.28-3.3-3.51l-6.37-7.22c-1.09-1.18-2.07-2.45-3.07-3.71l-3-3.77-3-3.78-.75-.95-.69-1-1.39-2-5.57-7.86c-1.8-2.67-3.45-5.42-5.18-8.13s-3.44-5.45-5-8.1c-6.48-10.67-13.51-21-20.92-31.13s-15.16-20-23.19-29.6a764.85,764.85,0,0,0-107.43-105,694.56,694.56,0,0,0-60.91-43.73,547.9,547.9,0,0,0-65.47-35.79,390.78,390.78,0,0,0-69.75-24.52,274.87,274.87,0,0,0-64.6-8.15c-2.59,0-5.19,0-7.78.13A206,206,0,0,0,1577-75.24c-2.81,1-5.49,2.34-8.23,3.52s-5.4,2.54-8.07,3.87c-1.33.69-2.68,1.31-4,2l-3.9,2.2-3.9,2.19-4.15,2.4-8.32,4.81c-2.79,1.59-5.53,3.24-8.36,4.75-5.62,3.06-11.22,6.18-16.87,9.21a979.46,979.46,0,0,1-141,61.08,1103.09,1103.09,0,0,1-148.56,39.56,1257.46,1257.46,0,0,1-152.46,19.78q-38.36,2.64-76.83,3.1l-2.25.06-2.15.07c-1.43.06-2.86,0-4.3.17-2.88.19-5.76.35-8.65.67-5.78.51-11.59,1.4-17.39,2.33a336.26,336.26,0,0,0-34.82,8.1c-23.15,6.65-46,15.48-68.62,25.31s-44.92,20.8-67.11,32.26-44.26,23.45-66.44,35.55-44.46,24.34-67.34,36.13c-11.43,5.9-23.06,11.65-35,17.16S594.06,251.8,581,256.33c-6.55,2.25-13.29,4.33-20.41,6.07A133.56,133.56,0,0,1,537.67,266l-10.11.4c-2.7,0-5.59.32-8.44.54-1.44.13-2.83.19-4.3.37l-4.38.49-4.38.5-4.44.61c-11.82,1.62-23.84,3.72-35.89,6.13-3,.58-6,1.18-9,1.84l-9,1.91c-6,1.35-12.08,2.66-18.12,4.1-24.17,5.62-48.34,11.93-72.46,18.56s-48.18,13.65-72.19,20.93c-3.48,1.06-9.45,2.9-16.17,5a23.05,23.05,0,0,0-8.71,39c13.51,12.37,28,25.12,35.16,30.16a219.82,219.82,0,0,0,43.64,24.5c15.11,6.16,30.73,9.93,46.19,10.3l6.48.11,3.94.08c1.31,0,2.65.16,4,.24s2.66.16,4,.31l4,.49,2,.25,2,.36,4.08.75c1.37.29,2.74.64,4.11,1l2.05.51c.68.17,1.37.41,2,.61l4.11,1.29,4.1,1.57a79.34,79.34,0,0,1,15.91,8.53A74.74,74.74,0,0,1,461.82,460,72.2,72.2,0,0,1,472,475.8a78.42,78.42,0,0,1,5.91,17.27A96.36,96.36,0,0,1,480,510.42a113,113,0,0,1-.91,16.76,134.22,134.22,0,0,1-3.15,16,151.36,151.36,0,0,1-11.34,29.43c-2.31,4.67-4.93,9.12-7.62,13.52s-5.65,8.61-8.76,12.69a185.67,185.67,0,0,1-20.38,22.91,188.47,188.47,0,0,1-109.42,51.21c-2.55.27-5.1.57-7.65.71s-5.11.38-7.66.4l-7.24.18c-2,.07-4.09,0-6.14.19A201.12,201.12,0,0,0,265.27,677a214,214,0,0,0-47.35,13.86,233.27,233.27,0,0,0-80.61,56.81,210.05,210.05,0,0,0-28.83,39.65,165.27,165.27,0,0,0-17.3,44.35,132.07,132.07,0,0,0-3.11,22.84,115,115,0,0,0,1.23,22.4,100.82,100.82,0,0,0,5.76,21.25,104.72,104.72,0,0,0,4.54,10c.43.82.9,1.61,1.34,2.42l.67,1.21c.22.38.46.86.62,1.08.36.53.67,1.12,1.06,1.62a17.26,17.26,0,0,0,1.13,1.53,34.88,34.88,0,0,0,12.64,9.8,76.85,76.85,0,0,0,19.54,5.91A167.41,167.41,0,0,0,160.17,934q4.26.13,8.62.13c5.49,0,11.08-.15,16.73-.4,17.26-.78,35-2.48,53.11-4.2s36.53-3.51,55.54-4.46c7.31-.36,14.71-.59,22.23-.59q3.39,0,6.81.07a247.69,247.69,0,0,1,30.34,2.28,152.41,152.41,0,0,1,32,7.9,100.79,100.79,0,0,1,31.57,18.68,87.72,87.72,0,0,1,13,14.39,94.09,94.09,0,0,1,9.48,16.53,117,117,0,0,1,9,34.07c.63,5.54.95,11,1.05,16.34s-.08,10.59-.42,15.75a273.2,273.2,0,0,1-3.74,30.07,451,451,0,0,1-14.22,56.28l-4.07,13c-1.37,4.29-2.65,8.58-4,12.87s-2.6,8.58-3.88,12.87-2.55,8.59-3.79,12.89c-9.92,34.35-18.82,68.84-25.06,103.17-.73,4.28-1.55,8.57-2.18,12.85l-1,6.41-.87,6.4c-.63,4.27-1,8.5-1.55,12.75l-.61,6.34-.29,3.17-.22,3.15c-.68,8.43-.9,16.73-.88,24.94a209.48,209.48,0,0,0,1.43,24c1.82,15.6,5.57,30.19,11.83,42.67a91.61,91.61,0,0,0,26,31.8c11.13,8.77,24.76,15.7,39.61,21.21,7.44,2.74,15.24,5,23.19,7.15l6,1.5c2,.48,4.07.9,6.1,1.36l3.06.68,3.09.6,6.2,1.2c16.66,3,33.78,5,51.13,6.49s34.95,2.21,52.63,2.6q13.26.3,26.61.29h10.08l3.88,0,3.88,0,3.92.16,3.91.17,3.94.29a208.81,208.81,0,0,1,31.76,4.83l2,.45,2,.53,4,1.07c2.65.73,5.29,1.6,7.93,2.42s5.26,1.82,7.86,2.84,5.21,2,7.76,3.25a160.89,160.89,0,0,1,29.38,17,165.87,165.87,0,0,1,25.08,22.7,189.08,189.08,0,0,1,19.76,26.42,225.7,225.7,0,0,1,14.75,28.24,311.81,311.81,0,0,1,18.47,58,491.93,491.93,0,0,1,9,57.77c3.77,38.28,4.07,76,3,113.36s-3.89,74.29-7.33,111-7.67,73.17-12.16,109.47c-9,72.59-19.21,144.59-27.67,216.25-4.22,35.83-8,71.56-10.77,107.11-1.38,17.78-2.5,35.5-3.25,53.14q-.55,13.23-.82,26.39c-.07,4.38-.14,8.76-.16,13.13v6.54c0,2.18,0,4.34.05,6.62.54,71.9,3.58,143.59,9.58,215s15.07,142.53,26.24,213.73,24.17,142.59,36.66,214.44c12.49,71.59,24.43,143.59,35,215.84,3.45,23.54-12.31,46-35.79,49.8a43.33,43.33,0,0,1-49.88-36.5c0-.1,0-.2,0-.3l0-.28c-9.58-71.59-20.51-143-32.09-214.67s-23.68-143.57-34.2-216.24-19-146.07-24.2-219.72-7.48-147.45-7.11-221c0-2.27,0-4.65,0-7l.1-7.1c.07-4.73.21-9.44.34-14.15q.45-14.11,1.23-28.13c1-18.69,2.43-37.25,4.1-55.72,3.34-36.94,7.68-73.52,12.42-109.88,9.5-72.72,20.62-144.66,30.4-216.34,4.9-35.83,9.48-71.59,13.28-107.26s6.84-71.27,8.38-106.63,1.6-70.5-1.35-104.68a428.63,428.63,0,0,0-7.11-50.09,247.81,247.81,0,0,0-13.93-46,161.32,161.32,0,0,0-10.21-20.22,124.63,124.63,0,0,0-12.63-17.4,97.35,97.35,0,0,0-32.72-24.55c-1.54-.78-3.2-1.38-4.79-2.09s-3.3-1.23-4.94-1.86-3.37-1.13-5.1-1.63L689,1577l-1.3-.37-1.33-.31a145.41,145.41,0,0,0-22.07-3.62l-2.86-.25-2.9-.16-2.9-.16-2.94-.07-2.93-.07-3.41,0-7-.08c-9.3-.12-18.61-.32-27.95-.65-18.67-.65-37.43-1.73-56.3-3.49s-37.87-4.33-57-8l-7.18-1.49-3.58-.75-3.6-.83c-2.4-.57-4.79-1.1-7.19-1.71l-7.2-1.89c-9.6-2.65-19.22-5.64-28.8-9.3a238.5,238.5,0,0,1-28.48-13.06,181.27,181.27,0,0,1-27.17-18,154.13,154.13,0,0,1-23.79-23.84,150.5,150.5,0,0,1-18-28.68,167.45,167.45,0,0,1-11.25-31,215.31,215.31,0,0,1-5.52-31.11,265.68,265.68,0,0,1-1.44-30.42c.09-10,.5-19.86,1.4-29.56l.3-3.65.38-3.62.78-7.22c.63-4.78,1.17-9.59,1.92-14.31l1.07-7.1,1.18-7c.76-4.72,1.7-9.35,2.55-14,3.6-18.6,7.91-36.85,12.59-54.9s9.79-35.89,15.15-53.58c1.34-4.42,2.68-8.84,4.07-13.24s2.74-8.81,4.16-13.19,2.8-8.79,4.24-13.15l4.27-13a397.52,397.52,0,0,0,13.16-49.27,222.45,222.45,0,0,0,3.32-24c.31-3.92.43-7.75.46-11.51s-.2-7.38-.56-10.88a63.71,63.71,0,0,0-4.49-18.57,36.53,36.53,0,0,0-9.1-13,47.68,47.68,0,0,0-15.08-9,100,100,0,0,0-20.85-5.34,196,196,0,0,0-24-2.07q-4.92-.17-9.94-.16c-5.13,0-10.33.12-15.57.31-17.34.64-35.14,2.13-53.27,3.63s-36.62,3.06-55.71,3.68c-4.77.15-9.58.25-14.44.25s-9.77-.1-14.75-.32a215.08,215.08,0,0,1-30.66-3.38,124.66,124.66,0,0,1-32.3-10.51,91.14,91.14,0,0,1-15.83-10.09,79.17,79.17,0,0,1-13.68-14,80.06,80.06,0,0,1-5.45-8.13c-.46-.75-.72-1.28-1.06-1.89l-1-1.78c-.64-1.2-1.29-2.38-1.91-3.59a154.17,154.17,0,0,1-6.53-14.9,149.93,149.93,0,0,1-8.1-31.4,164.45,164.45,0,0,1-1.36-32A179.31,179.31,0,0,1,45,821a212.34,212.34,0,0,1,22.83-56.7,256,256,0,0,1,35.78-48,278.43,278.43,0,0,1,97.26-66.75,258.62,258.62,0,0,1,57.36-16A245.49,245.49,0,0,1,288,630.74c2.49-.13,5-.09,7.49-.14l6.4-.08h.28c1.9,0,3.79-.15,5.68-.24s4-.29,5.94-.47a145.53,145.53,0,0,0,45.7-12.26A148.25,148.25,0,0,0,399,591.16a143.86,143.86,0,0,0,16.07-17.6c2.45-3.12,4.68-6.38,6.86-9.67s4.14-6.69,5.9-10.16a110.87,110.87,0,0,0,8.54-21.27,93.05,93.05,0,0,0,2.27-10.74,73.55,73.55,0,0,0,.72-10.45,55.9,55.9,0,0,0-1-9.71,38.24,38.24,0,0,0-2.77-8.53,31.92,31.92,0,0,0-4.43-7.12,35.14,35.14,0,0,0-6.21-5.74,49,49,0,0,0-17.66-7.45l-2.63-.5-1.31-.26-1.36-.18-2.73-.37c-.91-.12-1.86-.16-2.79-.24s-1.87-.18-2.82-.22l-2.88-.08-7.16-.22a157.48,157.48,0,0,1-30.75-4.32A188.38,188.38,0,0,1,324,456.75a258.43,258.43,0,0,1-51-29.35,399.56,399.56,0,0,1-43.54-37.1c-13.56-13.18-26.21-27-38.3-41.26-24.13-28.49-45.91-58.49-66.35-89.16S85.33,197.78,67,166.14q-6.88-11.87-13.67-23.76l-3.38-5.94-3.29-5.68-3.39-5.66-3.49-5.68c-9.43-15.14-19.4-30.29-29.36-45.49-40-60.75-79.84-122.58-113.68-188-16.92-32.72-32.43-66.32-45.41-101.08s-23.4-70.73-29.16-107.89c-.41-2.31-.7-4.64-1-7l-.92-7c-.55-4.67-.94-9.38-1.42-14.06-.28-4.72-.64-9.43-.83-14.15l-.19-7.1-.09-3.55c0-1.18,0-2.37,0-3.56a289.45,289.45,0,0,1,5.65-56.8l.33-1.76.42-1.75.83-3.49,1.69-7,2-6.9c.69-2.3,1.29-4.62,2.13-6.88l2.37-6.8c.42-1.12.77-2.27,1.23-3.38l1.36-3.34,2.73-6.67c.93-2.21,2-4.35,3-6.53a238.4,238.4,0,0,1,30.64-48.55c3.07-3.66,6.22-7.25,9.35-10.85,3.31-3.43,6.57-6.89,9.93-10.29A254.74,254.74,0,0,1-87-579.22a441.18,441.18,0,0,1,46.45-31.35c16-9.47,32.27-18.13,48.78-26.3s33.24-15.78,50.09-23c33.72-14.5,68-27.47,102.54-39.43s69.45-22.89,104.54-33c70.18-20.22,141.17-37.32,212.64-51.9s143.43-26.62,215.7-36.2,144.86-16.68,217.61-21.07q81.06-4.89,162.3-5m0-11.82c-52.75,0-107.6,1.69-163,5-71.55,4.31-145.05,11.43-218.45,21.15-72.55,9.61-145.39,21.84-216.51,36.34-74.23,15.14-146.08,32.68-213.56,52.12C225.71-733.22,190.34-722,157-710.51c-37.71,13-71.52,26-103.35,39.74C34.69-662.61,18.11-655,2.94-647.46c-18.3,9.05-34.51,17.8-49.55,26.73A450.52,450.52,0,0,0-94.3-588.54a265.93,265.93,0,0,0-22.56,19.65l-.14.15c-2.36,2.39-4.69,4.82-6.94,7.17l-3.08,3.21-.41.45-1.4,1.6c-2.65,3-5.4,6.21-8.08,9.4l-.13.15a250.79,250.79,0,0,0-32.15,51,.36.36,0,0,1,0,.09c-.33.7-.66,1.41-1,2.11-.72,1.52-1.48,3.09-2.19,4.8l-.05.1L-175.2-482l-1.34,3.29h0c-.43,1.06-.76,2-1.06,2.88-.11.33-.22.66-.34,1l-.06.15-2.33,6.69c-.74,2-1.31,3.95-1.81,5.68-.17.59-.34,1.19-.52,1.78l0,.1-2,6.91c-.05.18-.1.36-.14.54l-1.69,7-.84,3.53-.42,1.75c0,.18-.08.36-.11.54l-.32,1.68a302.37,302.37,0,0,0-5.88,59c0,.35,0,.72,0,1.09,0,.83,0,1.76,0,2.74v.07L-194-372l.19,7.1v.18c.14,3.39.36,6.76.58,10,.09,1.46.19,2.91.27,4.37,0,.16,0,.32,0,.48.16,1.58.31,3.16.46,4.74.3,3.11.6,6.32,1,9.53a.69.69,0,0,1,0,.13l.91,7,0,.12c.3,2.35.61,4.76,1,7.25,5.41,34.82,15.14,70.84,29.75,110.09,12.17,32.6,27.21,66.08,46,102.39C-79.16-41.68-38.34,21.49.51,80.44l2.21,3.38c9,13.72,18.31,27.91,27,41.79h0l3.45,5.63,3.3,5.51,3.24,5.58L43,148.24c5,8.8,9.51,16.6,13.72,23.83C78,208.68,96.5,238.67,115,266.43c23,34.55,45,64.07,67.17,90.25,13.51,15.9,26.29,29.67,39.08,42.09A410.1,410.1,0,0,0,266.08,437c18.07,13.12,35.52,23.15,53.33,30.68a201.05,201.05,0,0,0,30.67,10.18,169.42,169.42,0,0,0,33.06,4.64h.12l7.15.21,2.85.09c.28,0,.68.05,1.1.08l1.14.1,1.16.09,1.06.09,2.67.36h.06l1,.13.92.19h.09l2.4.46A37.48,37.48,0,0,1,418,489.75a22.58,22.58,0,0,1,4.1,3.78,19.73,19.73,0,0,1,2.74,4.47,26.08,26.08,0,0,1,1.9,5.83,44.5,44.5,0,0,1,.79,7.67,59.8,59.8,0,0,1-.62,8.65,79.41,79.41,0,0,1-1.95,9.17,98.6,98.6,0,0,1-7.59,18.87c0,.07-.07.13-.1.19-1.53,3-3.38,6-5.3,9.12-1.8,2.72-3.94,5.87-6.2,8.75l-.05.06A132.65,132.65,0,0,1,391,582.47a135.87,135.87,0,0,1-36.37,24.31A133.48,133.48,0,0,1,312.7,618h0l-1.2.12c-1.45.14-2.81.27-4,.31h-.17l-1.75.1c-1.21.07-2.35.13-3.37.13h-.43l-6.4.08h-.07l-2.41,0c-1.72,0-3.49,0-5.36.11a259,259,0,0,0-31.11,3,269.92,269.92,0,0,0-60,16.73A292,292,0,0,0,95,708.18a268.9,268.9,0,0,0-37.43,50.21,224.18,224.18,0,0,0-24.08,59.88,191.55,191.55,0,0,0-4.91,33.14A175.75,175.75,0,0,0,30,885.75a161.67,161.67,0,0,0,8.7,33.82h0a164,164,0,0,0,7,16l.06.11c.49,1,1,1.87,1.45,2.73l.57,1.08,0,.06,1,1.78a.56.56,0,0,0,0,.08l.2.37c.26.48.6,1.13,1.09,1.92A92.06,92.06,0,0,0,72.09,969,103.47,103.47,0,0,0,90,980.41l.06,0A136.35,136.35,0,0,0,125.34,992a224.81,224.81,0,0,0,32.35,3.58c4.95.22,9.95.33,15.29.33,4.66,0,9.51-.08,14.82-.25,18.52-.61,36.47-2.09,53.83-3.51l2.47-.21,1.45-.12c17.83-1.47,34.68-2.86,51.28-3.48,5.44-.2,10.39-.3,15.14-.3,3.29,0,6.5,0,9.56.15a184.17,184.17,0,0,1,22.55,1.94,88.18,88.18,0,0,1,18.37,4.67,36.19,36.19,0,0,1,11.43,6.74,24.65,24.65,0,0,1,6.22,9,52.88,52.88,0,0,1,3.57,15.07c.3,3,.47,6.25.49,9.68,0,3.87-.16,7.33-.42,10.57a205.62,205.62,0,0,1-3.15,22.75,382.3,382.3,0,0,1-12.77,47.77l-4.27,13c-.95,2.85-1.88,5.77-2.78,8.6q-.74,2.29-1.48,4.59c-1.13,3.51-2.25,7.09-3.33,10.54l-.86,2.76c-1.45,4.59-2.88,9.3-4.1,13.35-5.85,19.31-10.85,37-15.28,54-5.28,20.37-9.45,38.57-12.75,55.64l0,.12c-.27,1.52-.56,3-.85,4.55-.59,3.12-1.2,6.35-1.73,9.65l-1.18,7,0,.2-1.07,7.1c-.55,3.49-1,7-1.42,10.39-.17,1.38-.35,2.76-.53,4.14l0,.27-.78,7.23-.38,3.65,0,.24-.3,3.65c-.87,9.48-1.34,19.44-1.44,30.44a279.18,279.18,0,0,0,1.51,31.75,224.18,224.18,0,0,0,5.82,32.85,180,180,0,0,0,12.05,33.12,161.74,161.74,0,0,0,19.39,30.93,165.36,165.36,0,0,0,25.61,25.68,194.71,194.71,0,0,0,28.93,19.2,248.21,248.21,0,0,0,29.89,13.71c9,3.45,18.5,6.52,29.9,9.67l.15,0,7.2,1.89.11,0c1.7.42,3.36.81,5,1.19l2.37.55,3.64.85.27.06,3.59.75,7.2,1.48.17,0c18.12,3.47,37.12,6.13,58.07,8.14,17.9,1.67,36.54,2.83,57,3.53,9,.32,18.24.54,28.21.66l7,.08,3.35,0,2.84.07,2.75.06,2.7.15,2.72.15,2.64.24a134,134,0,0,1,20.3,3.31l.12,0,1.07.26,1,.29.05,0,2.53.71c.8.23,1.65.51,2.56.81l1.92.62,1.8.67c.86.31,1.67.61,2.4.91l1.88.79c.83.34,1.62.66,2.18,1l.41.2a86.11,86.11,0,0,1,28.78,21.61,114.67,114.67,0,0,1,11.41,15.73,149.66,149.66,0,0,1,9.42,18.71,236.87,236.87,0,0,1,13.25,43.82,412.57,412.57,0,0,1,6.9,48.7c2.58,29.9,3,63.65,1.32,103.16-1.37,31.46-4.09,66.09-8.33,105.88-3.3,31-7.51,65-13.23,106.91-4.19,30.67-8.7,62-13.07,92.24-5.85,40.57-11.9,82.53-17.34,124.17-5.55,42.5-9.51,77.56-12.47,110.34-1.8,19.88-3.15,38.24-4.14,56.14-.52,9.73-.94,19.28-1.24,28.4-.13,4.71-.27,9.54-.35,14.34l-.1,7.12v.59c0,2.18,0,4.43,0,6.61-.38,75.8,2,150.45,7.14,221.88,4.9,69.12,12.85,141.27,24.29,220.56,8,55.07,17,110.47,25.72,164,2.8,17.18,5.7,34.95,8.5,52.39,13.31,82.24,23.49,150.35,32.05,214.36l0,.32,0,.08,0,.32a55.18,55.18,0,0,0,54.54,47.19,56.05,56.05,0,0,0,8.94-.73,54.37,54.37,0,0,0,35.72-22.31,56,56,0,0,0,9.87-40.87c-9.48-64.73-20.63-133.41-35.07-216.16-3-17.43-6.13-35.12-9.14-52.22-9.34-53.19-19-108.2-27.48-162-12-76.64-20.58-146.28-26.14-212.87-5.78-68.82-9-140.86-9.54-214.11v-.17c0-2,0-3.82,0-5.8v-7.08c0-4.11.08-8.35.15-12.46v-.5c.16-8.37.44-17.15.81-26.08.72-16.75,1.77-34,3.23-52.72,2.45-31.5,5.86-65.38,10.72-106.64,4.81-40.76,10.3-82.43,15.6-122.73,4-30.57,8.18-62.19,12.06-93.46,5.31-42.92,9.19-77.82,12.2-109.82,4-42.36,6.32-77.87,7.38-111.74,1.32-44.14.37-80.64-3-114.89a506.65,506.65,0,0,0-9.2-59.17,323.31,323.31,0,0,0-19.19-60.16A239.34,239.34,0,0,0,817,1585.17a202.57,202.57,0,0,0-21-28.08,176.31,176.31,0,0,0-26.88-24.33,171.64,171.64,0,0,0-31.43-18.22c-2.11-1-4.12-1.8-6.08-2.59-.71-.28-1.42-.56-2.13-.86l-.18-.07c-2.11-.83-4.17-1.55-6.16-2.25l-2-.73-.5-.16-2.26-.71c-1.93-.61-3.92-1.23-6-1.81l-.1,0-4-1.07-2-.53-.39-.1-2-.45a221.11,221.11,0,0,0-33.55-5.09l-4-.3-.36,0-3.92-.17-3.94-.17h-.34l-3.88,0-3.92,0H639.81c-9.32,0-17.94-.1-26.32-.29-18.77-.41-35.76-1.25-51.94-2.56-18.14-1.51-34.48-3.58-49.91-6.33l-6.12-1.19-2.94-.57-2.91-.64-2.31-.51c-1.24-.27-2.41-.52-3.54-.79L488,1483c-8.56-2.26-15.78-4.49-22.06-6.81-14.73-5.46-27-12-36.39-19.4A79.6,79.6,0,0,1,406.75,1429c-5.33-10.61-8.91-23.65-10.68-38.78a198.58,198.58,0,0,1-1.35-22.68c0-8.83.25-16.67.84-24,0,0,0-.08,0-.12l.21-3,.28-3,.59-6.18c.16-1.33.31-2.65.46-4,.33-2.89.63-5.61,1-8.33,0,0,0-.07,0-.11l.86-6.29,1-6.3a.52.52,0,0,0,0-.11c.39-2.63.85-5.28,1.35-8.08.26-1.5.53-3,.78-4.48,5.42-29.79,13.3-62.17,24.77-101.89,1.19-4.11,2.45-8.47,3.74-12.74l.84-2.8c1-3.28,2-6.69,3-10q.72-2.29,1.41-4.59c.83-2.69,1.68-5.48,2.54-8.19l4.09-13a458.63,458.63,0,0,0,14.58-57.74,285.72,285.72,0,0,0,3.9-31.39c.34-5.2.49-10.8.44-16.61v-.11c-.11-6.12-.48-11.83-1.13-17.48a127.58,127.58,0,0,0-10-37.52,104.65,104.65,0,0,0-10.7-18.65,97.85,97.85,0,0,0-14.77-16.32,111.32,111.32,0,0,0-35.27-20.9,163.58,163.58,0,0,0-34.41-8.53,259.87,259.87,0,0,0-31.81-2.4c-2.29-.05-4.66-.07-7-.07-7.13,0-14.59.2-22.81.61-18.3.9-36.08,2.59-53.28,4.23l-2.8.26-.82.08c-18,1.71-35,3.33-51.7,4.08-5.91.26-11.21.39-16.21.39-2.84,0-5.61,0-8.23-.13a154.13,154.13,0,0,1-21.88-2.07,65.79,65.79,0,0,1-16.43-4.9,23.41,23.41,0,0,1-8.49-6.42c-.09-.13-.2-.26-.3-.38s-.26-.36-.41-.58l0-.05-.2-.28a.57.57,0,0,1-.08-.13c-.17-.28-.35-.56-.53-.84l0-.06-.22-.4h0l-.65-1.17-.59-1c-.2-.35-.4-.7-.59-1.06a94.33,94.33,0,0,1-4-8.81l0-.09A89.69,89.69,0,0,1,101,875.13,103.87,103.87,0,0,1,99.88,855a120.06,120.06,0,0,1,2.84-20.75,153.11,153.11,0,0,1,16.09-41.17,197.84,197.84,0,0,1,27.2-37.4,221.64,221.64,0,0,1,76.5-53.92,203,203,0,0,1,44.72-13.1,193,193,0,0,1,23-2.46l.27,0c1-.06,2.1-.08,3.28-.1.8,0,1.61,0,2.41-.06l7.12-.18c2.26,0,4.39-.17,6.46-.31l1.63-.11c2.51-.13,4.89-.39,7.19-.64l1.05-.12A199.32,199.32,0,0,0,382.45,667,201.74,201.74,0,0,0,436,630.26,197.93,197.93,0,0,0,457.62,606h0c2.9-3.79,5.86-8.08,9.32-13.49a1.37,1.37,0,0,1,.13-.2c2.54-4.17,5.49-9.14,8.09-14.38a163.85,163.85,0,0,0,12.19-31.66c0-.05,0-.11,0-.17a145.41,145.41,0,0,0,3.42-17.38v-.06a124.21,124.21,0,0,0,1-18.51v-.05a107.79,107.79,0,0,0-2.32-19.47,90.29,90.29,0,0,0-6.79-19.87,83.68,83.68,0,0,0-11.92-18.41,86.31,86.31,0,0,0-16.1-14.53A90,90,0,0,0,436.51,428l-.29-.11-4.1-1.57c-.22-.09-.46-.17-.69-.24l-4.11-1.29-.16-.05-.55-.17c-.53-.16-1.18-.37-1.91-.56l-.14,0-2.05-.51-.07,0-1.1-.26c-1-.26-2.13-.52-3.27-.77l-.38-.07-4.08-.75h-.06l-2-.36-.58-.08-2-.26h-.05l-4-.49h-.12c-1.16-.13-2.24-.2-3.2-.26l-1.19-.09h-.2l-1.2-.08c-1-.07-2-.15-3.17-.18h-.1l-3.94-.08-6.46-.11c-13.32-.32-27.44-3.5-42-9.43A208.64,208.64,0,0,1,302,386.94c-5.72-4-18.43-15-34-29.22a11.25,11.25,0,0,1,4.25-19c7.57-2.35,13-4,16.08-5,24.56-7.44,48.76-14.46,71.91-20.84,27.48-7.55,50.36-13.42,72-18.45h.07c4.27-1,8.65-2,12.89-2.94,1.66-.37,3.33-.73,5-1.11l9-1.9c2.64-.57,5.43-1.13,8.83-1.79l.08,0c12.76-2.55,24.26-4.51,35.17-6l4.31-.6,4.23-.48,4.38-.49.17,0c.62-.08,1.31-.13,2.12-.19l1.7-.13,1.7-.14c2.14-.17,4.16-.33,5.93-.36H528l10.11-.39.29,0a143.22,143.22,0,0,0,24.93-3.95c6.75-1.64,13.77-3.73,21.49-6.38,14.91-5.17,28.32-11.09,38.35-15.68,11.22-5.18,22.82-10.87,35.49-17.4,20.59-10.61,40.9-21.7,60.55-32.42l7-3.84c22.38-12.21,44.29-24.11,66.2-35.43,25.14-13,46.24-23.12,66.42-31.92,25-10.88,47-19,67.16-24.79a327.34,327.34,0,0,1,33.48-7.8c5.35-.86,11-1.73,16.49-2.21l.29,0c2.08-.23,4.23-.37,6.5-.52l1.61-.1.21,0c.62,0,1.38-.07,2.19-.09l1.53-.05,2.1-.06,2.13-.06c26.67-.37,52.72-1.42,77.41-3.13a1276.45,1276.45,0,0,0,153.9-20A1117.87,1117.87,0,0,0,1374,32a993.48,993.48,0,0,0,142.74-61.81c3.77-2,7.52-4.09,11.15-6.08,1.94-1.06,3.87-2.13,5.81-3.18,2.15-1.15,4.2-2.34,6.18-3.49l2.41-1.39,0,0,8.32-4.81,4.1-2.36,3.83-2.16,3.92-2.2c.57-.32,1.25-.65,2-1l1.57-.79,1.74-.87c1.94-1,3.77-1.9,5.52-2.63l.11,0,2.8-1.24c1.69-.76,3.29-1.48,4.77-2l.41-.15a193.58,193.58,0,0,1,66.08-13.6c2.46-.08,4.94-.12,7.39-.12a263.8,263.8,0,0,1,61.82,7.82,381.17,381.17,0,0,1,67.63,23.78,540.56,540.56,0,0,1,64,35,684.6,684.6,0,0,1,59.84,43A753.61,753.61,0,0,1,2014,135c8.1,9.71,15.75,19.47,22.72,29,7.55,10.29,14.39,20.47,20.35,30.27,1.5,2.51,3.12,5.08,4.69,7.56l.45.72,0,.07c.59.91,1.16,1.84,1.74,2.76,1.14,1.82,2.32,3.71,3.6,5.61l.15.21,5.56,7.87,1.4,2,.71,1,.36.49.75.94,3,3.78,3,3.78.15.19c1,1.26,2.1,2.68,3.4,4.1l6.21,7c1.27,1.5,2.58,2.82,3.73,4l.1.1,3.34,3.4,3.38,3.44.06.07c.93.93,1.86,1.77,2.67,2.51l1.1,1A263.27,263.27,0,0,0,2137.82,282a304.83,304.83,0,0,0,34,20.54c5,2.67,10,5.07,14.87,7.39l2.71,1.3.31.14,8.67,3.85c2.06.93,4.09,1.76,6.05,2.56l3,1.23.13.06c11.77,4.78,24,9.3,36.41,13.44,14.89,5,30.08,9.62,44.77,14.09,9.16,2.78,18.62,5.65,27.85,8.58,14.31,4.55,25.13,8.3,35.09,12.16a256.67,256.67,0,0,1,32.87,15.17,11.82,11.82,0,0,0,11.82-20.48,282.63,282.63,0,0,0-35.53-17.47c-10.38-4.3-21.56-8.48-36.26-13.54-9.33-3.2-18.8-6.33-28-9.35-14.4-4.76-29.29-9.67-43.68-14.9-11.75-4.23-23.32-8.82-34.4-13.63-1-.47-2.07-.92-3.11-1.37-1.81-.79-3.52-1.53-5.14-2.32l-.08,0-8.37-4-2.62-1.32c-4.68-2.37-9.1-4.61-13.39-7.06l-.12-.07a274.39,274.39,0,0,1-30.36-19.32,233.19,233.19,0,0,1-27.21-23l-.09-.09-1.33-1.27c-.62-.6-1.22-1.17-1.7-1.68l-3.16-3.37-3.19-3.41-.15-.16c-.89-.95-1.74-1.84-2.39-2.65l-.16-.2-6-7.14-.17-.2c-.65-.74-1.36-1.69-2.12-2.7l-.18-.24-2.83-3.76-2.81-3.72-.51-.69-.48-.7-1.29-1.92-5.12-7.62c-1-1.48-1.87-3-2.84-4.67-.58-1-1.17-2-1.76-3l-.55-.91c-1.4-2.35-2.73-4.58-4.07-6.94l0-.06c-6.28-10.92-13.2-21.77-21.16-33.18-7.15-10.26-15-20.77-23.31-31.25a790.57,790.57,0,0,0-108.29-111,723.43,723.43,0,0,0-62.23-47,580.22,580.22,0,0,0-68.07-39.34,423.69,423.69,0,0,0-74.66-28.22c-26.93-7.21-53.28-10.86-78.33-10.86l-2.59,0a239.11,239.11,0,0,0-82,14.88c-2.53.87-4.85,1.84-7.1,2.79l-2.63,1.09c-2.83,1.12-5.45,2.36-8,3.56l-1.76.83-.13.06-1.44.68c-1,.49-2.21,1-3.41,1.66l-.05,0-4.42,2.35-4.43,2.36-.11.06L1527-90.58l-8.17,4.47h0l-2.52,1.37c-1.88,1-3.65,2-5.42,2.9l-.09,0-6,3.12c-3.45,1.79-7,3.64-10.53,5.42a943,943,0,0,1-136.76,55.39,1065.34,1065.34,0,0,1-143.69,34.62,1215.37,1215.37,0,0,1-147.26,15.54c-19.12.87-39.13,1.31-59.47,1.31-4.83,0-9.76,0-14.67-.08h-6.86c-1.23,0-2.63,0-4.08.09l-1.17,0c-3,.12-6.21.25-9.42.52-6.77.44-13.29,1.24-21,2.29l-.15,0a382.27,382.27,0,0,0-40.48,8.39C885.92,51,861.86,59.24,833.56,70.75c-21.75,8.88-44.34,19.08-71.12,32.1-22.78,11.09-45.36,22.67-68.41,34.54l-6.56,3.38c-19.83,10.22-40.33,20.78-60.37,30.51-11.88,5.78-22.68,10.76-33,15.24-12.61,5.41-22.82,9.32-32.11,12.28-5.56,1.77-10.45,3.1-15,4.08a72.85,72.85,0,0,1-12.31,1.75l-8.69.11c-3.29,0-6.32.17-9.25.34l-1.71.09c-3.34.15-6.49.43-9.54.7l-1.13.1-5.07.45-.29,0-5,.57c-12.43,1.4-25.43,3.3-39.73,5.8-3.75.63-6.86,1.19-9.76,1.74l-9.51,1.78-.14,0-5.05,1c-4.6.91-9.35,1.85-14,2.85-22.75,4.72-46.7,10.25-75.39,17.4-23.93,6-48.93,12.6-74.32,19.64-12.48,3.46-24.9,7-36.92,10.45l-.12,0c-.14,0-14.26,4.29-25.83,7.82a11,11,0,0,1-3.26.49,11.37,11.37,0,0,1-9.06-4.56c-8.89-11.87-18-24.65-27.15-38-18.15-26.52-36.42-55.32-57.5-90.61-4.22-7.06-8.73-14.68-13.79-23.29l-3.43-5.86,0-.07-3.62-6.08-.09-.15-3.69-6a.75.75,0,0,0-.07-.12l-3.73-5.9,0-.05C68.58,81,59.08,66.88,49.88,53.23l-2.62-3.91C26.79,19,6.84-10.69-12.34-41.09c-21-33.27-38.72-63.5-54.15-92.43-18.22-34.17-32.81-65.58-44.6-96-13.84-35.78-23.12-68.41-28.37-99.73,0-.08,0-.16,0-.24-.34-1.8-.61-3.68-.89-5.67l0-.3-.93-6.47c-.34-2.6-.62-5.19-.91-7.93-.17-1.54-.33-3.08-.51-4.62s-.21-2.86-.32-4.3c-.22-2.84-.43-5.52-.58-8.21l-.24-6.44-.13-3.21h0c0-.48,0-1,0-1.64,0-.44,0-.88,0-1.32A252.52,252.52,0,0,1-139.79-429a202.19,202.19,0,0,1,40.1-87.59c2-2.36,4-4.77,6-7.1l2-2.38,3.31-3.54c1.72-1.83,3.49-3.73,5.22-5.54a222.68,222.68,0,0,1,18.28-16.3,404.17,404.17,0,0,1,42.35-29.31c13.91-8.5,29-16.88,46.15-25.62,14.35-7.35,30.11-14.83,48.19-22.89,30.64-13.64,63.29-26.66,99.81-39.8,32.51-11.7,67-23.07,102.55-33.79,66.18-20,136.74-38.12,209.71-53.95,70.06-15.19,141.86-28.16,213.41-38.54,72.42-10.51,145-18.45,215.63-23.59,65.33-4.75,129.72-7.15,191.37-7.15,8.42,0,16.93,0,25.31.13,76.79.84,147.48,5.21,216.1,13.35,17.38,2.06,35.41,4.51,53.59,7.27,17.73,2.68,35.64,5.74,53.26,9.1,18.15,3.45,35.93,7.19,52.87,11.1,17.78,4.15,35.38,8.65,52.27,13.37a999.91,999.91,0,0,1,102.07,34.31,790.9,790.9,0,0,1,96.9,46.27,11.74,11.74,0,0,0,5.83,1.55,11.81,11.81,0,0,0,10.25-5.92,11.82,11.82,0,0,0-4.27-16.11,813.71,813.71,0,0,0-99.28-48.94,1025.55,1025.55,0,0,0-104.25-36.5c-17.2-5-35.11-9.85-53.24-14.32-17.26-4.21-35.35-8.25-53.8-12-17.91-3.64-36.14-7-54.18-10-18.45-3-36.76-5.75-54.42-8.07-69.57-9.13-141.26-14.46-219.16-16.28-18.61-.42-37.62-.64-56.5-.64Z" style="fill: #8e1922"/>
          </g>
          <circle cx="207.14" cy="189.21" r="349.97" style="fill: none"/>
          <g>
            <path d="M300.07,254.53c-52.35,13.08-10.27-34.3,4.29-46.54s21.76-24,21.76-49.36c0-29.41-24.64-53.24-55-53.24s-55,23.83-55,53.24c0,14.13,15,36.5,15,36.5,12.45,21.56,16.2,74,0,77.9" style="fill: url(#linear-gradient-2)"/>
            <path d="M301.22,259.12a77.65,77.65,0,0,1-14.22,1.8,27.11,27.11,0,0,1-7.9-.89,12.77,12.77,0,0,1-4.3-2.1,9.53,9.53,0,0,1-3.23-4.38,11.2,11.2,0,0,1-.57-4.85,19.16,19.16,0,0,1,.84-4.07,35.55,35.55,0,0,1,3.08-6.77A86.14,86.14,0,0,1,283,226.43q4.39-5.33,9.17-10.21a133.33,133.33,0,0,1,10-9.38c1.78-1.44,3.44-2.8,5.07-4.28a65.09,65.09,0,0,0,4.62-4.63,45.75,45.75,0,0,0,7.28-10.66c3.81-7.78,5.22-16.67,5.51-25.52.08-2.23.11-4.43,0-6.61-.07-1.09-.15-2.18-.3-3.27s-.32-2.16-.5-3.25a50.77,50.77,0,0,0-11.33-23.5,53.16,53.16,0,0,0-9.77-8.88,55,55,0,0,0-24.47-9.56,55.29,55.29,0,0,0-26.16,2.84,54.25,54.25,0,0,0-21.8,14.66,50.1,50.1,0,0,0-4.1,5.2,50.81,50.81,0,0,0-3.37,5.68,49.84,49.84,0,0,0-4.44,12.39c-.27,1.07-.4,2.17-.61,3.24s-.3,2.18-.36,3.28-.17,2.19-.16,3.28a23,23,0,0,0,.08,3.23A45.42,45.42,0,0,0,220.94,173a111.59,111.59,0,0,0,5.91,11.9q1.65,2.9,3.42,5.71c.59.94,1.19,1.88,1.81,2.79l.48.72.47.8c.31.54.57,1,.86,1.55a76.09,76.09,0,0,1,5.2,12.81,120.17,120.17,0,0,1,3.32,13.33,123.23,123.23,0,0,1,2.43,27.46,57.3,57.3,0,0,1-2,14.19,24.68,24.68,0,0,1-3.25,7.22,15.29,15.29,0,0,1-3.08,3.35,12.46,12.46,0,0,1-4.47,2.28l-2-8.24a5.17,5.17,0,0,0,3.16-2.07,17.64,17.64,0,0,0,2.65-4.84,51,51,0,0,0,2.58-12.3,113.7,113.7,0,0,0-.83-26.23A115.56,115.56,0,0,0,235,210.52a72.32,72.32,0,0,0-4.39-12.34c-.24-.48-.48-1-.72-1.43a13.51,13.51,0,0,0-.79-1.37c-.61-1-1.19-1.94-1.77-2.92-1.15-2-2.26-4-3.31-6a113.21,113.21,0,0,1-5.7-12.41,49.65,49.65,0,0,1-3.37-13.4,25.63,25.63,0,0,1,0-3.5c0-1.15.13-2.29.23-3.44s.3-2.28.44-3.41.4-2.27.69-3.38A53.61,53.61,0,0,1,229,123a56.08,56.08,0,0,1,22.55-15,57.27,57.27,0,0,1,13.3-3,60.41,60.41,0,0,1,13.64.13,56.18,56.18,0,0,1,43.23,30.11,53.85,53.85,0,0,1,4.57,13c.22,1.13.46,2.26.6,3.4s.3,2.28.39,3.43c.18,2.31.2,4.6.16,6.86a93.66,93.66,0,0,1-1.13,13.65,54.07,54.07,0,0,1-3.92,13.31,49.62,49.62,0,0,1-7.48,11.78,94.14,94.14,0,0,1-9.75,9.72,128.89,128.89,0,0,0-9.24,9.45c-2.94,3.31-5.77,6.71-8.36,10.26a79.65,79.65,0,0,0-6.86,11,29.12,29.12,0,0,0-2.19,5.61,6.88,6.88,0,0,0,0,4.32,2.06,2.06,0,0,0,.83.88,5.6,5.6,0,0,0,1.8.65,18.87,18.87,0,0,0,5.48.16,69.23,69.23,0,0,0,12.33-2.64Z" style="fill: url(#linear-gradient-3)"/>
          </g>
          <path d="M240.52,270.1s-4.47,8.8-17.44,12.72,98.54-27.4,81.41-23.73-19.12,3-25.33.93" style="fill: #be202e"/>
        </g>
        <path d="M252.28,16.56A225.37,225.37,0,0,1,340,449.47,225.3,225.3,0,0,1,93,82.55a224.56,224.56,0,0,1,159.31-66m0-16.56C118.71,0,10.42,108.29,10.42,241.86S118.71,483.73,252.28,483.73,494.15,375.44,494.15,241.86,385.86,0,252.28,0Z" style="fill: #ffe100"/>
      </g>
      <text transform="translate(547.05 297.55)" style="font-size: 36.86349868774414px;font-family: Roboto-Medium, Roboto;font-weight: 500">Blood <tspan x="104.99" y="0" style="letter-spacing: -0.022954723137316585em">V</tspan><tspan x="127.55" y="0">essels</tspan><tspan x="0" y="44.24">(A</tspan><tspan x="36.27" y="44.24" style="letter-spacing: 0.010252138319840183em">r</tspan><tspan x="49.41" y="44.24">teries)</tspan></text>
      <text transform="translate(547.05 176.41)" style="font-size: 36.86349868774414px;font-family: Roboto-Medium, Roboto;font-weight: 500">Aneu<tspan x="85.03" y="0" style="letter-spacing: 0.010742227619367427em">r</tspan><tspan x="98.19" y="0" style="letter-spacing: 0.000013245656743979565em">ysm</tspan></text>
      <g>
        <line x1="535.42" y1="164.24" x2="271.12" y2="164.24" style="fill: none;stroke: #000;stroke-linecap: round;stroke-miterlimit: 10;stroke-width: 5.0846209526062px"/>
        <path d="M271.12,154.68a9.56,9.56,0,1,0,9.56,9.56A9.56,9.56,0,0,0,271.12,154.68Z"/>
      </g>
      <g>
        <line x1="541.13" y1="285.19" x2="319.19" y2="285.19" style="fill: none;stroke: #000;stroke-linecap: round;stroke-miterlimit: 10;stroke-width: 5.0846209526062px"/>
        <path d="M319.19,275.63a9.56,9.56,0,1,0,9.56,9.56A9.56,9.56,0,0,0,319.19,275.63Z"/>
      </g>
      <g>
        <polyline points="422.45 285.19 422.45 407.8 280.2 407.8" style="fill: none;stroke: #000;stroke-linecap: round;stroke-miterlimit: 10;stroke-width: 5.0846209526062px"/>
        <path d="M280.68,398.24a9.56,9.56,0,1,0,9.55,9.56A9.56,9.56,0,0,0,280.68,398.24Z"/>
      </g>
    </g>
  </g>
</svg>
