<svg xmlns="http://www.w3.org/2000/svg" xmlns:xlink="http://www.w3.org/1999/xlink" viewBox="0 0 293.95 230.42">
  <defs>
    <clipPath id="clip-path">
      <path d="M152.82,226.18c0-6.89-.83-25.36-20.4-21.23s-28.13,3-32.54-4.68-3.15-13.85,0-19.3-1.33-10.15-2.85-11-2.27-8.11,2.18-10.36c-3.81-2.21-7.29-4.36-3-11.7s-17.73-4.07-14.27-15.33c2.84-9.22,16.11-28.38,21.3-37.36s1.22-18.49,1.22-22.63,5.12-36,26.9-54S206.48-7.35,241.69,8.64s63.05,68.93,48.16,99.81-29.23,57.63-29.23,77.75,2.21,42.42,2.21,42.42" style="fill: none"/>
    </clipPath>
    <linearGradient id="linear-gradient" x1="-387.65" y1="993.28" x2="-319.19" y2="949.91" gradientTransform="matrix(0.99, 0.16, -0.17, 1.06, 713.2, -877.65)" gradientUnits="userSpaceOnUse">
      <stop offset="0.84" stop-color="#d33f33"/>
      <stop offset="1" stop-color="#e64c3c"/>
    </linearGradient>
    <linearGradient id="linear-gradient-2" x1="167.67" y1="75.83" x2="167.67" y2="70.57" gradientTransform="matrix(0.97, 0.24, -0.24, 0.97, 22.16, -37.1)" gradientUnits="userSpaceOnUse">
      <stop offset="0" stop-color="#b5282b"/>
      <stop offset="0.27" stop-color="#a91b1b"/>
      <stop offset="0.7" stop-color="#9a0c09"/>
      <stop offset="1" stop-color="#950702"/>
    </linearGradient>
  </defs>
  <title>Asset 11@4x</title>
  <g id="Layer_2" data-name="Layer 2">
    <g id="OptionIcons">
      <g style="clip-path: url(#clip-path)">
        <path d="M152.82,226.18c0-6.89-.83-25.36-20.4-21.23s-28.13,3-32.54-4.68-3.15-13.85,0-19.3-1.33-10.15-2.85-11-2.27-8.11,2.18-10.36c-3.81-2.21-7.29-4.36-3-11.7s-17.73-4.07-14.27-15.33c2.84-9.22,16.11-28.38,21.3-37.36s1.22-18.49,1.22-22.63,5.12-36,26.9-54S206.48-7.35,241.69,8.64s63.05,68.93,48.16,99.81-29.23,57.63-29.23,77.75,2.21,42.42,2.21,42.42" style="fill: #c6c6c6"/>
        <g>
          <path d="M194.71,111.15c-.92,4.53.52,12.28,5.56,14.41a20.68,20.68,0,0,1,9.55,9.05c1.82,3.25,2.16,7.21,3.19,10.85s15.26,83.46,18.77,84.17a22,22,0,0,0,5.37-1.11c.75-1-14.56-82.05-15-83.27-2.22-5.71-12.57-38-14.8-43.72" style="fill: #ff5d0a"/>
          <path d="M200.23,106.19c.32,3,2.93,10.11,3.72,13a7.67,7.67,0,0,0,1.27,2.9,7.4,7.4,0,0,0,2.08,1.61l12.95,7.77a25.51,25.51,0,0,0,6.13,3,18.52,18.52,0,0,0,5.35.55,37.49,37.49,0,0,0,16.17-4.27,26,26,0,0,0,4.75-3.06c2.1-1.76,3.81-4,5.79-5.9s4-3.38,5.54-5.56,2.18-9.69.91-12" style="fill: #a84038"/>
          <path d="M156.24,96.06c-6.1.13-12.28.25-18.19-1.21s-11.65-4.67-15-10c-3.85-6-4.21-13.85-4.45-21.22-.15-4.49-.28-9.06.87-13.4s3.62-8.33,6.18-12c3.89-5.67,8.19-11.13,13.51-15.27,9.81-7.63,22.14-10.13,34-12.38l5-.95c6.11-1.15,12.25-2.3,18.44-2.39,7.17-.1,14.26,1.21,21.22,2.87,6.51,1.55,13,3.43,18.86,6.78a20,20,0,0,0,4.53,2.22c1.21.34,2.48.38,3.69.73,2.64.77,4.7,2.89,6.64,4.94l12.1,12.81a27.74,27.74,0,0,1,5,6.52c.79,1.6,1.28,3.35,2,5,1.38,3.12,3.55,5.74,5.22,8.69s2.83,6.52,1.91,9.88c1.91,3.91,1.06,8.39,3,12.31a16,16,0,0,1,1.69,4.58,14.76,14.76,0,0,1-.32,5c-1.65,8.27-3.63,16.23-11.28,18.47-3.6,1-7.39.58-11.07.1l-14.06-1.83c-4.76-.62-9.74-1.21-14.3.52a46.55,46.55,0,0,1-4.56,1.82c-4.35,1.12-8.7-1.17-13.11-1.68-10.58-1.23-20,7.69-30.62,9.43-11.79,2-24.16-6.62-27-18.89-.67-2.94-.8-6.21.62-8.88,1.56-3,4.66-4.56,6.84-7,2.63-3,3.89-7.22,6.89-9.77,5.1-4.34,12.78-2,18.62-5.1,1.65-.86,3.21-2.17,5-2.23a22.73,22.73,0,0,1,3.43.57c5.41.64,11-6.11,15.62-3.1" style="fill: #e64c3c"/>
          <path d="M245.64,106.19c-4.8-.19-9.73-1.22-14.3.51a46.64,46.64,0,0,1-4.56,1.83c-4.35,1.11-8.7-1.18-13.11-1.69-10.58-1.22-20,7.69-30.62,9.44-11.79,1.94-24.16-6.63-27-18.89-.67-2.94-.8-6.22.62-8.89,1.56-3,4.66-4.55,6.84-7,2.63-3,3.89-7.21,6.89-9.77,5.1-4.34,12.78-2,18.62-5.09,1.65-.86,3.21-2.17,5-2.24a22.76,22.76,0,0,1,3.43.58c5.41.64,11-6.12,15.62-3.1,4,2.47,6.84,5.55,7.85,9.62,7.47,4.72,13.24,11.69,16.85,21.53C239.37,92.48,251.57,106.42,245.64,106.19Z" style="fill: url(#linear-gradient)"/>
        </g>
        <path d="M112.4,103.92c4.78-4.79,8.23-4.79,8.23-4.79s-9.32-4.22-8.23-6.11l1.09-1.89" style="fill: none;stroke: #fff;stroke-linecap: round;stroke-linejoin: round;stroke-width: 1.77450658312717px"/>
        <path d="M220.73,44.09c-5.2-2.89-11.17-4-17-4.46a88.78,88.78,0,0,0-17.7.62A101.76,101.76,0,0,0,168.69,44a47.63,47.63,0,0,0-8.16,3.32,12.58,12.58,0,0,0-3.46,2.52,7.28,7.28,0,0,0-1.78,3.75c-.42,2.81.5,5.7,1.7,8.33a55,55,0,0,0,4.46,7.57l1.24,1.86c.42.64.78,1.29,1.16,1.92.76,1.26,1.55,2.5,2.39,3.69A25.46,25.46,0,0,0,169,80.27a9.31,9.31,0,0,0,3.41,2.31,3.83,3.83,0,0,0,.94.19l1.15.11a2.41,2.41,0,0,1,.66.18l.33.12.31.21.3.23a3.36,3.36,0,0,1,.24.29l.22.32c0,.11.09.23.14.34a3.82,3.82,0,0,1-.17,2.66,6.55,6.55,0,0,1-1.42,2,6.65,6.65,0,0,1-4.52,1.81,7.6,7.6,0,0,0-3.8,1.17,7.45,7.45,0,0,0-2.71,2.92,4.31,4.31,0,0,0-.32,3.62l.19.41a1.37,1.37,0,0,0,.2.26,1.66,1.66,0,0,0,.62.35,6.22,6.22,0,0,0,1.93.16c1.41,0,2.88-.29,4.45-.31a7.09,7.09,0,0,1,2.51.34,3.24,3.24,0,0,1,2,2.14,5.86,5.86,0,0,1,.07,2.59,16.44,16.44,0,0,1-.56,2.3c-.43,1.39-.85,2.8-1.15,4.2a14,14,0,0,0-.42,4.11,3.58,3.58,0,0,0,1.6,3,8.91,8.91,0,0,0,3.78,1.11c.69.08,1.41.12,2.12.15l1.09,0h.55l.63,0a6.09,6.09,0,0,1,2.55.72,5.68,5.68,0,0,1,2,1.84,10.58,10.58,0,0,1,1.52,4.67,29.9,29.9,0,0,1,.15,4.62c-.13,3-.5,6-.88,8.95s-.79,5.87-1.05,8.77c-.12,1.45-.2,2.88-.19,4.32s.06,2.92.15,4.38a146.6,146.6,0,0,0,2.42,17.45c1,5.89,1.63,11.81,2.35,17.69l2,17.67,1,8.84.45,4.44.2,2.23c.06.75.13,1.5.15,2.35a1.73,1.73,0,1,1-3.46.12h0v-.11c0-.62-.06-1.35-.11-2.08l-.18-2.19-.39-4.42-.85-8.83-1.8-17.68c-.65-5.89-1.18-11.77-2.11-17.57A148.49,148.49,0,0,1,185,158.08c-.07-1.5-.09-3-.09-4.51s.1-3,.25-4.55c.3-3,.75-5.94,1.17-8.87s.81-5.83,1-8.72a28.72,28.72,0,0,0-.07-4.26,8.56,8.56,0,0,0-1.13-3.72,3.59,3.59,0,0,0-2.91-1.66l-.47,0h-.56l-1.14,0c-.76,0-1.52-.09-2.3-.2A10.77,10.77,0,0,1,174.1,120a9.31,9.31,0,0,1-1-.87,7.07,7.07,0,0,1-.76-1.14,6.47,6.47,0,0,1-.64-2.51,16,16,0,0,1,.52-4.69c.34-1.49.79-2.92,1.25-4.35a15.66,15.66,0,0,0,.52-2,4.4,4.4,0,0,0,0-1.81,1.39,1.39,0,0,0-.91-1,5.68,5.68,0,0,0-1.87-.26c-1.39,0-2.86.22-4.42.26a7.73,7.73,0,0,1-2.47-.27,3.09,3.09,0,0,1-1.28-.76,2.69,2.69,0,0,1-.46-.62l-.28-.6a5.93,5.93,0,0,1,.43-5,9.25,9.25,0,0,1,7.9-4.84,5,5,0,0,0,4.68-2.92,2.54,2.54,0,0,0,.16-1.67,1.34,1.34,0,0,0-1.14-.84l-1.07-.11a5,5,0,0,1-1.22-.27,10.48,10.48,0,0,1-3.87-2.65,26.05,26.05,0,0,1-2.87-3.53c-.86-1.23-1.65-2.5-2.4-3.79-.38-.65-.73-1.3-1.11-1.9l-1.21-1.86a55.62,55.62,0,0,1-4.45-7.77c-1.2-2.73-2.16-5.76-1.67-8.87a8.2,8.2,0,0,1,2-4.15,13.28,13.28,0,0,1,3.71-2.65,48.55,48.55,0,0,1,8.32-3.27,101.89,101.89,0,0,1,17.45-3.55,89.44,89.44,0,0,1,17.77-.41C209.59,39.94,215.56,41.14,220.73,44.09Z" style="fill: #b5282b"/>
        <path d="M163,24A4.29,4.29,0,0,0,161,26.22a8.84,8.84,0,0,0-.66,3L160,35.33l-.55,12.31a.5.5,0,0,1-1,0v0l1.05-12.28.54-6.14a8.89,8.89,0,0,1,.79-3A4.41,4.41,0,0,1,163,24Z" style="fill: #b5282b"/>
        <path d="M193.43,21a6.34,6.34,0,0,0-3.36,4.26,24,24,0,0,0-.63,5.57,11.6,11.6,0,0,1-1.36,5.53,15.5,15.5,0,0,1-3.82,4.29.37.37,0,0,1-.45-.59h0a14.58,14.58,0,0,0,3.77-4,11.08,11.08,0,0,0,1.47-5.27,23.7,23.7,0,0,1,.83-5.6A6.41,6.41,0,0,1,193.43,21Z" style="fill: #b5282b"/>
        <path d="M184,22a3,3,0,0,1,2.45,1,5.74,5.74,0,0,1,1.25,2.44c.25.89.38,1.79.66,2.64a10,10,0,0,0,1.06,2.43h0a.25.25,0,1,1-.41.27h0a10.26,10.26,0,0,1-1-2.6c-.25-.88-.34-1.8-.54-2.67a5.5,5.5,0,0,0-1.09-2.42A2.89,2.89,0,0,0,184,22Z" style="fill: #b5282b"/>
        <path d="M218.56,28.72a15,15,0,0,1-4.31,7.17,16.45,16.45,0,0,1-7.32,4.22.24.24,0,0,1-.3-.18.26.26,0,0,1,.18-.3h0a16.22,16.22,0,0,0,7.27-3.92A14.86,14.86,0,0,0,218.56,28.72Z" style="fill: #b5282b"/>
        <path d="M242.25,80.78A31,31,0,0,0,237.38,79a12,12,0,0,1-4.54-2.5,9.54,9.54,0,0,1-1.64-2.05,16.84,16.84,0,0,0-1.51-2.07A25.87,25.87,0,0,0,226,68.83a21,21,0,0,0-4.33-2.71,11,11,0,0,0-4.85-1.1,7.23,7.23,0,0,0-2.39.49c-.37.18-.73.33-1.11.53l-1.14.65a34.18,34.18,0,0,1-4.82,2.08,40.12,40.12,0,0,1-10.29,2c-.87.06-1.75.09-2.62.11a9.41,9.41,0,0,0-2.38.4,25.5,25.5,0,0,0-4.63,2l-4.58,2.44a20.72,20.72,0,0,1-2.47,1.11,6.42,6.42,0,0,1-1.49.32l-.62,0c-.19,0-.4,0-.6.06a69.17,69.17,0,0,0-9.85,2.6h0a1,1,0,0,1-.6-1.89h0a69.41,69.41,0,0,1,10.24-2.43c.23,0,.45-.06.69-.06s.54,0,.67,0a4.4,4.4,0,0,0,1-.2,19.23,19.23,0,0,0,2.28-1l4.62-2.33A27.67,27.67,0,0,1,191.75,70a10.71,10.71,0,0,1,2.73-.39c.85,0,1.7,0,2.55,0a38.09,38.09,0,0,0,10.05-1.73,32.26,32.26,0,0,0,4.73-1.91l1.13-.6c.38-.2.82-.38,1.23-.56a7.87,7.87,0,0,1,2.67-.48A11.62,11.62,0,0,1,222,65.56a21,21,0,0,1,4.37,2.89A27.3,27.3,0,0,1,230,72.18a18.71,18.71,0,0,1,1.49,2.15,9.29,9.29,0,0,0,1.54,2,11.69,11.69,0,0,0,4.41,2.56A32.11,32.11,0,0,1,242.25,80.78Z" style="fill: #b5282b"/>
        <path d="M167.56,25.46a22.4,22.4,0,0,1,6.17,4.6,11.69,11.69,0,0,1,2.06,3.29,12.43,12.43,0,0,1,.87,3.8,43.34,43.34,0,0,0,.66,7.61,9.14,9.14,0,0,0,1.43,3.37,6,6,0,0,0,2.82,2.14c.54.2,1.19.39,1.82.65a8.92,8.92,0,0,1,1.78,1,7.08,7.08,0,0,1,2.53,3.27,8.32,8.32,0,0,1,.38,4.1,14.17,14.17,0,0,1-1.14,3.87c-.25.63-.59,1.19-.88,1.79l-.92,1.69L183.3,70l-3.67,6.76v0a1,1,0,0,1-1.74-1l0,0,3.9-6.66,1.95-3.33c.65-1.13,1.31-2.2,1.84-3.3,1-2.2,1.7-4.72.95-6.95a5.93,5.93,0,0,0-2-2.79,8,8,0,0,0-1.54-.93c-.55-.25-1.13-.44-1.78-.7A6.91,6.91,0,0,1,178,48.63a9.87,9.87,0,0,1-1.44-3.72,42.86,42.86,0,0,1-.43-7.73,12.33,12.33,0,0,0-.72-3.7,11.4,11.4,0,0,0-1.91-3.26A22.16,22.16,0,0,0,167.56,25.46Z" style="fill: #b5282b"/>
        <path d="M177.55,23.92a12.08,12.08,0,0,0-2.1,3.19,20.23,20.23,0,0,0-1.26,3.6.12.12,0,0,1-.14.1.13.13,0,0,1-.1-.15h0a20.52,20.52,0,0,1,1.39-3.59A12,12,0,0,1,177.55,23.92Z" style="fill: #b5282b"/>
        <path d="M222,23.92c0,2.31.11,4.63-.06,7a13.25,13.25,0,0,1-2,6.67,13.82,13.82,0,0,1-1.16,1.33c-.38.43-.75.87-1.1,1.32-.71.9-1.38,1.84-2,2.79a44,44,0,0,1-4.41,5.45c-3.15,3.34-6.12,6.91-8.93,10.55-1.4,1.83-2.75,3.69-4,5.6-.62,1-1.21,1.93-1.72,2.92a12,12,0,0,0-1.17,2.94l0,.09a1,1,0,0,1-1.93-.43v0A13.86,13.86,0,0,1,195,66.62c.6-1.05,1.25-2,1.92-3,1.35-1.92,2.79-3.76,4.27-5.56,3-3.59,6.07-7.05,9.39-10.33a43,43,0,0,0,4.51-5.19c.7-.92,1.4-1.85,2.16-2.75.38-.44.77-.87,1.18-1.3a16.77,16.77,0,0,0,1.17-1.24,12.88,12.88,0,0,0,2.16-6.4C222,28.55,222,26.23,222,23.92Z" style="fill: #b5282b"/>
        <path d="M229.91,41.74a16.77,16.77,0,0,1,0,3.68,6,6,0,0,1-1.65,3.29,9.84,9.84,0,0,1-3.11,2c-.59.23-1.14.49-1.67.74a4.07,4.07,0,0,0-.77.47,6.07,6.07,0,0,0-.73.52,17.25,17.25,0,0,0-4.26,5.79,34.07,34.07,0,0,0-2.45,6.82v0a.49.49,0,1,1-.95-.23v0A35.24,35.24,0,0,1,217,57.92a17.83,17.83,0,0,1,4.62-5.84,5.88,5.88,0,0,1,.78-.52,3.91,3.91,0,0,1,.82-.46c.59-.26,1.16-.5,1.72-.7a9.33,9.33,0,0,0,3.08-1.87,5.75,5.75,0,0,0,1.71-3.13A17.21,17.21,0,0,0,229.91,41.74Z" style="fill: #b5282b"/>
        <path d="M232.89,44a18.52,18.52,0,0,1-1,1.64,14.81,14.81,0,0,1-1.21,1.51,12,12,0,0,1-1.44,1.32,7.7,7.7,0,0,1-1.71,1,.25.25,0,0,1-.32-.13.24.24,0,0,1,.13-.32h0a7.37,7.37,0,0,0,1.64-.86A11.18,11.18,0,0,0,230.49,47a14.38,14.38,0,0,0,1.29-1.41A17.11,17.11,0,0,0,232.89,44Z" style="fill: #b5282b"/>
        <path d="M258.36,51.68a2.58,2.58,0,0,1-.84-1.14c-.19-.44-.36-.88-.52-1.33a5,5,0,0,0-1.44-2.38,1.41,1.41,0,0,0-1.31,0,4.45,4.45,0,0,0-1.18.75c-.37.29-.67.65-1,1l-.55.47c-.19.15-.41.26-.61.39a10.39,10.39,0,0,1-5.61,1.1c-.95,0-1.9,0-2.83.06a7,7,0,0,0-2.63.76c-1.6.93-2.35,2.75-3.31,4.39s-1.87,3.32-2.9,5a32.57,32.57,0,0,1-3.43,4.65,12.61,12.61,0,0,1-2.22,1.95,5.72,5.72,0,0,1-2.92,1,.48.48,0,0,1-.5-.47.49.49,0,0,1,.48-.51h0c1.69,0,3.25-1.26,4.51-2.58A30.76,30.76,0,0,0,233,60.2c1-1.58,2-3.21,3-4.85.49-.81.93-1.64,1.48-2.45a5.77,5.77,0,0,1,.94-1.15,5.54,5.54,0,0,1,1.18-.91,7.45,7.45,0,0,1,2.83-.76c1-.06,1.93,0,2.88,0a10.1,10.1,0,0,0,5.47-.94c.2-.13.41-.23.6-.37l.54-.45c.37-.28.7-.65,1.08-.94a4.85,4.85,0,0,1,1.24-.74,1.57,1.57,0,0,1,1.43.09C257.2,48,256.94,50.35,258.36,51.68Z" style="fill: #b5282b"/>
        <path d="M268.4,70.26a4.65,4.65,0,0,0-2.78,1.54c-.8.74-1.52,1.55-2.25,2.36a62.89,62.89,0,0,1-4.56,4.68,27.46,27.46,0,0,1-5.33,3.8,23.15,23.15,0,0,1-3,1.36c-1,.36-2.08.67-3.12,1-4.15,1.29-8.31,2.6-12.56,3.6-2.13.5-4.28.91-6.46,1.2a42.61,42.61,0,0,1-6.59.32,34.37,34.37,0,0,1-6.52-.91,13.11,13.11,0,0,0-6.19.36,22.46,22.46,0,0,0-5.7,2.73c-1.82,1.14-3.51,2.48-5.47,3.63a9.46,9.46,0,0,1-1.64.73,3.31,3.31,0,0,1-2,.06,5.27,5.27,0,0,1-2.89-2.38c-.62-1-1-2.1-1.52-2.79A1.39,1.39,0,0,0,189,91a2.05,2.05,0,0,0-.55,0l-.3,0-.45.08a25.06,25.06,0,0,1-6.78-.18c-2.19-.29-4.34-.67-6.51-1.15a1,1,0,0,1-.76-1.17,1,1,0,0,1,1.18-.76h0c2.08.5,4.2.92,6.32,1.24a24,24,0,0,0,6.22.31l.86-.13a3.6,3.6,0,0,1,1.08,0,3.07,3.07,0,0,1,1.8,1.25c.74,1.09,1,2.1,1.55,3a3.75,3.75,0,0,0,2,1.73,3.56,3.56,0,0,0,2.5-.62c1.82-1,3.58-2.35,5.47-3.48a24,24,0,0,1,6.09-2.77,14.45,14.45,0,0,1,6.73-.26c1.13.24,2.1.5,3.17.67l1.59.22,1.6.13a42.05,42.05,0,0,0,6.44-.2c2.14-.24,4.28-.61,6.39-1.06,4.24-.92,8.41-2.14,12.59-3.35,1.05-.31,2.1-.59,3.12-.93a22.86,22.86,0,0,0,3-1.27,26.66,26.66,0,0,0,5.34-3.67,58.71,58.71,0,0,0,4.62-4.58c.75-.79,1.49-1.59,2.3-2.32A4.76,4.76,0,0,1,268.4,70.26Z" style="fill: #b5282b"/>
        <path d="M267.47,95.19a58.11,58.11,0,0,0-8.2-7.18,17.54,17.54,0,0,0-10-3.35.51.51,0,0,1-.51-.48.5.5,0,0,1,.48-.51h0a15.47,15.47,0,0,1,5.47,1.19,22.44,22.44,0,0,1,4.81,2.75A57.88,57.88,0,0,1,267.47,95.19Z" style="fill: #b5282b"/>
        <path d="M190.51,91.13c4.52,2.61,3.28,24.55,4.31,30.21s2.87,5,8.49,8.21,10.11,17.52,11,21.14.45,15.52.45,23.28c0,10.63,6,54.65,6,54.65" style="fill: none;stroke: #b5282b;stroke-linecap: round;stroke-miterlimit: 10;stroke-width: 1.97478655155245px"/>
        <path d="M166.46,78.21c0-2.37-.8-2.41-1.42-4.34s.43-2.64,1.42-3.5,4.15.49,4.63,2-1.61,3.62-2.45,4.45a2,2,0,0,0-.3,2A2.5,2.5,0,0,1,166.46,78.21Z" style="fill: url(#linear-gradient-2)"/>
      </g>
      <path d="M111.46,104.09c4.84-4.84,8.33-4.84,8.33-4.84s-9.44-4.29-8.33-6.2l1.1-1.91" style="fill: none;stroke: #fff;stroke-linecap: round;stroke-linejoin: round;stroke-width: 1.79716292045048px"/>
      <circle cx="167.32" cy="74.28" r="12.11" style="fill: none;stroke: #ffe100;stroke-miterlimit: 10;stroke-width: 2px"/>
      <g>
        <line x1="94.5" y1="37.74" x2="147.28" y2="64.22" style="fill: none;stroke: #ffe100;stroke-miterlimit: 10;stroke-width: 2px"/>
        <polygon points="143.74 68.03 153.69 67.44 148.21 59.11 143.74 68.03" style="fill: #ffe100"/>
      </g>
      <text transform="translate(0 45.77)" style="font-size: 20px;font-family: Roboto-Bold, Roboto;font-weight: 700">Aneu<tspan x="45.97" y="0" style="letter-spacing: 0.013671875em">r</tspan><tspan x="53.24" y="0">ysm</tspan></text>
    </g>
  </g>
</svg>
