<svg id="Layer_1" data-name="Layer 1" xmlns="http://www.w3.org/2000/svg" xmlns:xlink="http://www.w3.org/1999/xlink" viewBox="0 0 520.95 398.76">
  <defs>
    <clipPath id="clip-path">
      <path d="M472.28,357.55s-4.64-34.87-4.64-66.34,23.61-73.31,46.9-121.6S494.27,38.52,439.21,13.51,300.66.84,266.6,29s-42.08,78-42.08,84.44,6.21,21.34-1.9,35.38-28.87,44-33.31,58.44c-5.42,17.61,28.95,12.48,22.32,24s-1.2,14.84,4.77,18.29c-7,3.52-5.81,14.83-3.42,16.21s9.38,8.72,4.46,17.24-6.89,18.24,0,30.19,20.07,12.74,50.88,7.33c47.08-8.28,31.91,38.51,31.91,49.29l-2.11,28.81,182.78.13Z" style="fill: none"/>
    </clipPath>
    <linearGradient id="linear-gradient" x1="-57.09" y1="1081.38" x2="49.98" y2="1013.55" gradientTransform="matrix(0.99, 0.16, -0.17, 1.06, 553.95, -960.97)" gradientUnits="userSpaceOnUse">
      <stop offset="0.84" stop-color="#d33f33"/>
      <stop offset="1" stop-color="#e64c3c"/>
    </linearGradient>
    <radialGradient id="radial-gradient" cx="364.02" cy="141.46" r="5.72" gradientUnits="userSpaceOnUse">
      <stop offset="0" stop-color="#950702"/>
      <stop offset="0.29" stop-color="#9b0b09"/>
      <stop offset="0.69" stop-color="#ad151b"/>
      <stop offset="1" stop-color="#be202e"/>
    </radialGradient>
  </defs>
  <title>Artboard 1 copy 16</title>
  <g style="clip-path: url(#clip-path)">
    <g>
      <path d="M472.28,357.55s-4.64-34.87-4.64-66.34,23.61-73.31,46.9-121.6S494.27,38.52,439.21,13.51,300.66.84,266.6,29s-42.08,78-42.08,84.44,6.21,21.34-1.9,35.38-28.87,44-33.31,58.44c-5.42,17.61,28.95,12.48,22.32,24s-1.2,14.84,4.77,18.29c-7,3.52-5.81,14.83-3.42,16.21s9.38,8.72,4.46,17.24-6.89,18.24,0,30.19,20.07,12.74,50.88,7.33c47.08-8.28,31.91,38.51,31.91,49.29l-2.11,28.81,182.78.13Z" style="fill: #c7ccd1"/>
      <g>
        <path d="M365.74,173.82c-1.43,7.09.82,19.21,8.71,22.55,6.25,2.64,11.48,8,14.92,14.14,2.86,5.1,3.39,11.28,5,17s29.81,173.19,35.31,174.3c.77.16,8.05-1.26,8.4-1.74,1.16-1.62-28.72-171-29.47-172.9-3.47-8.92-19.66-59.44-23.14-68.37" style="fill: #ff5d0a"/>
        <path d="M374.37,166.06c.51,4.68,4.59,15.82,5.82,20.33a12.32,12.32,0,0,0,2,4.54,11.75,11.75,0,0,0,3.26,2.51l20.25,12.15a40.07,40.07,0,0,0,9.59,4.65,28.65,28.65,0,0,0,8.36.85,58.54,58.54,0,0,0,25.29-6.68,39.92,39.92,0,0,0,7.42-4.78c3.29-2.75,6-6.22,9.07-9.22,2.94-2.85,6.29-5.3,8.66-8.71s3.41-15.15,1.43-18.73" style="fill: #a84038"/>
        <path d="M305.59,150.23c-9.55.2-19.2.38-28.46-1.89s-18.21-7.3-23.52-15.64c-6-9.46-6.59-21.66-7-33.19-.23-7-.44-14.16,1.37-21s5.67-13,9.66-18.84c6.09-8.86,12.81-17.4,21.13-23.88C294.14,23.9,313.43,20,332,16.46l7.8-1.47c9.55-1.81,19.16-3.6,28.83-3.75,11.21-.16,22.31,1.9,33.2,4.5C412,18.16,422.16,21.1,431.3,26.33a31.77,31.77,0,0,0,7.09,3.49c1.89.51,3.88.59,5.77,1.13,4.14,1.2,7.36,4.52,10.39,7.73l18.92,20c2.93,3.11,5.92,6.28,7.85,10.2,1.23,2.49,2,5.23,3.13,7.78,2.16,4.88,5.56,9,8.16,13.59s4.43,10.2,3,15.45c3,6.12,1.67,13.13,4.66,19.26a25.32,25.32,0,0,1,2.63,7.17,22.44,22.44,0,0,1-.5,7.73c-2.58,12.94-5.66,25.38-17.63,28.88-5.64,1.65-11.56.91-17.31.16l-22-2.86c-7.45-1-15.22-1.9-22.36.81-2.39.91-4.67,2.22-7.14,2.85-6.79,1.75-13.59-1.83-20.49-2.63-16.54-1.92-31.36,12-47.9,14.75-18.43,3.05-37.77-10.35-42.15-29.54-1-4.59-1.25-9.72,1-13.89,2.45-4.62,7.3-7.12,10.71-11,4.11-4.67,6.08-11.28,10.77-15.27,8-6.79,20-3.19,29.12-8,2.58-1.35,5-3.4,7.87-3.5,1.82-.07,3.55.68,5.35.9,8.47,1,17.24-9.57,24.44-4.85" style="fill: #e64c3c"/>
        <path d="M445.4,166.07c-7.52-.3-15.23-1.91-22.37.8-2.39.91-4.67,2.22-7.13,2.85-6.8,1.75-13.6-1.83-20.5-2.63-16.54-1.92-31.36,12-47.89,14.76-18.44,3-37.77-10.36-42.16-29.55-1-4.59-1.25-9.71,1-13.89,2.45-4.62,7.3-7.12,10.71-11,4.11-4.66,6.09-11.28,10.77-15.27,8-6.79,20-3.19,29.13-8,2.57-1.35,5-3.39,7.86-3.5,1.82-.06,3.56.69,5.36.9,8.46,1,17.23-9.56,24.43-4.84,6.23,3.85,10.69,8.67,12.28,15,11.67,7.38,20.7,18.28,26.36,33.67C435.59,144.63,454.67,166.43,445.4,166.07Z" style="fill: url(#linear-gradient)"/>
      </g>
      <path d="M237,162.51C244.51,155,249.9,155,249.9,155s-14.57-6.62-12.87-9.57l1.7-2.95" style="fill: none;stroke: #fff;stroke-linecap: round;stroke-linejoin: round;opacity: 0.5"/>
      <path d="M406.45,69a53.52,53.52,0,0,0-14.51-5.29,90,90,0,0,0-15.34-1.91,150.16,150.16,0,0,0-30.83,2.09q-7.63,1.27-15.12,3.26a103.17,103.17,0,0,0-14.59,5,39.85,39.85,0,0,0-6.72,3.63,12.62,12.62,0,0,0-1.47,1.15,11.39,11.39,0,0,0-3.17,4.48,14.15,14.15,0,0,0-.64,7.31,29.65,29.65,0,0,0,2.2,7.24A82.86,82.86,0,0,0,314,109.16c.72,1.08,1.45,2.14,2.14,3.27l2,3.33a70.49,70.49,0,0,0,4.31,6.33,28.3,28.3,0,0,0,5.22,5.37,12.13,12.13,0,0,0,3.13,1.75,7.65,7.65,0,0,0,1.67.35c.49.08,1.28,0,2,.2a4.33,4.33,0,0,1,2.17,1.12,4,4,0,0,1,1.09,2.25,6.79,6.79,0,0,1-1,4.32,10,10,0,0,1-6.89,4.73c-.36,0-.71.11-1.07.12l-.54,0-.45,0-.88.07c-.3,0-.58.11-.87.16a11.7,11.7,0,0,0-3.33,1.22,12.16,12.16,0,0,0-4.92,5,6.74,6.74,0,0,0-.24,6.38,1.93,1.93,0,0,0,.88.86,4.77,4.77,0,0,0,1.48.41,18.29,18.29,0,0,0,3.62,0c1.26-.11,2.55-.25,3.88-.34a16.4,16.4,0,0,1,4.17.14,6.31,6.31,0,0,1,2.23.82,4.7,4.7,0,0,1,1.74,1.93,8.11,8.11,0,0,1,.47,4.52,23.38,23.38,0,0,1-1,4c-.38,1.22-.75,2.45-1.08,3.67a37.53,37.53,0,0,0-1.39,7.33c-.15,2.4.24,4.73,1.74,6.11s3.91,2.05,6.31,2.38c1.21.17,2.46.24,3.72.29s2.42,0,4,.12a9.26,9.26,0,0,1,4.31,1.5,9.6,9.6,0,0,1,3,3.45,20.82,20.82,0,0,1,1.9,8.12,60.26,60.26,0,0,1-.11,8c-.37,5.24-1.11,10.38-1.78,15.49a137.27,137.27,0,0,0-1.39,15.22,134.29,134.29,0,0,0,.84,15.26c.57,5.06,1.44,10.11,2.34,15.21s1.74,10.23,2.41,15.4c2.54,20.56,4.87,41.07,7,61.68.25,2.58.51,5.15.73,7.76,0,.67.11,1.29.14,2l0,1.06,0,1,.1,3.87.42,15.49.84,31a2.72,2.72,0,1,1-5.43.15v0l-.5-31L363,362.37l-.06-3.88,0-1,0-.89c0-.57-.08-1.24-.12-1.86-.18-2.54-.41-5.12-.63-7.68-1.91-20.54-4-41.14-6.33-61.63-.6-5.09-1.38-10.16-2.22-15.26s-1.67-10.25-2.2-15.46a137,137,0,0,1-.69-15.7,137.45,137.45,0,0,1,1.59-15.62c.73-5.13,1.51-10.22,1.93-15.29a59.46,59.46,0,0,0,.19-7.53,18.06,18.06,0,0,0-1.48-6.9,6.73,6.73,0,0,0-2-2.37,6.35,6.35,0,0,0-2.93-1c-1-.11-2.48-.07-3.77-.14s-2.66-.17-4-.36a21.15,21.15,0,0,1-4-1,10.25,10.25,0,0,1-3.83-2.28,8.18,8.18,0,0,1-2.21-4,14.08,14.08,0,0,1-.28-4.26,41.09,41.09,0,0,1,1.56-7.87c.36-1.26.76-2.51,1.16-3.75a21.79,21.79,0,0,0,.9-3.53,5.85,5.85,0,0,0-.21-3.09,2.75,2.75,0,0,0-2.19-1.43,14.7,14.7,0,0,0-3.55-.14c-1.25.07-2.53.2-3.85.29a20.22,20.22,0,0,1-4.11,0,7,7,0,0,1-2.23-.67,4.26,4.26,0,0,1-1.82-1.82,8.18,8.18,0,0,1-.92-4.35,10.05,10.05,0,0,1,1.21-4.13,14.33,14.33,0,0,1,5.87-5.83,13.66,13.66,0,0,1,3.93-1.4c.34-.06.68-.14,1-.18l1.05-.06.95,0a8.36,8.36,0,0,0,.86-.09,8,8,0,0,0,5.54-3.71,5.06,5.06,0,0,0,.8-3.06,2,2,0,0,0-1.77-1.82c-.51-.11-1-.09-1.82-.18a9.27,9.27,0,0,1-2.1-.47,13.51,13.51,0,0,1-3.59-2.05,29.66,29.66,0,0,1-5.5-5.76,75.43,75.43,0,0,1-4.34-6.53l-2-3.35c-.65-1.07-1.37-2.15-2.07-3.23A84.75,84.75,0,0,1,305,96.42a31.31,31.31,0,0,1-2.21-7.58,15.38,15.38,0,0,1,.8-7.94,12.62,12.62,0,0,1,2.1-3.46A12,12,0,0,1,307.13,76a13.07,13.07,0,0,1,1.58-1.22,41.45,41.45,0,0,1,6.94-3.65,103.56,103.56,0,0,1,14.79-4.86q7.53-1.92,15.22-3.11a150.65,150.65,0,0,1,31-1.76A90.35,90.35,0,0,1,392,63.51,53.52,53.52,0,0,1,406.45,69Z" style="fill: #be202e"/>
      <path d="M316.2,37.6A6.63,6.63,0,0,0,313,41a13.33,13.33,0,0,0-1,4.63c-.19,3.19-.31,6.41-.46,9.62l-.87,19.25a.77.77,0,1,1-1.54-.07v0l1.64-19.2c.28-3.21.52-6.4.84-9.61a14.11,14.11,0,0,1,1.24-4.68A6.8,6.8,0,0,1,316.2,37.6Z" style="fill: #be202e"/>
      <path d="M363.74,32.76a8,8,0,0,0-3.37,2.74,13,13,0,0,0-1.88,3.92c-.85,2.81-.81,5.77-1,8.71a30.37,30.37,0,0,1-.51,4.43,12.54,12.54,0,0,1-1.62,4.22,23.63,23.63,0,0,1-6,6.71.58.58,0,0,1-.81-.1.59.59,0,0,1,.11-.82h0a22.85,22.85,0,0,0,5.89-6.23c1.61-2.4,2-5.33,2.29-8.24s.34-5.92,1.31-8.76a13.08,13.08,0,0,1,2-3.92A8.06,8.06,0,0,1,363.74,32.76Z" style="fill: #be202e"/>
      <path d="M349.06,34.46A4.62,4.62,0,0,1,352.9,36a8.86,8.86,0,0,1,2,3.82c.39,1.39.6,2.78,1,4.11a15.26,15.26,0,0,0,1.66,3.8h0a.39.39,0,0,1-.11.54.39.39,0,0,1-.53-.11v0a16,16,0,0,1-1.58-4c-.4-1.39-.55-2.82-.86-4.18a8.56,8.56,0,0,0-1.7-3.78A4.56,4.56,0,0,0,349.06,34.46Z" style="fill: #be202e"/>
      <path d="M403,44.91A20,20,0,0,1,400.49,51a27.18,27.18,0,0,1-4.18,5.14,25.88,25.88,0,0,1-11.45,6.6.38.38,0,0,1-.47-.28.4.4,0,0,1,.28-.47h0a25.42,25.42,0,0,0,11.36-6.13,27,27,0,0,0,4.27-5A19.57,19.57,0,0,0,403,44.91Z" style="fill: #be202e"/>
      <path d="M440.09,126.33c-2.39-1.29-5.06-1.84-7.62-2.72a18.84,18.84,0,0,1-7.1-3.91,14.65,14.65,0,0,1-2.55-3.21,27.63,27.63,0,0,0-2.36-3.24,40.59,40.59,0,0,0-5.74-5.61,32.76,32.76,0,0,0-6.75-4.25,17.16,17.16,0,0,0-7.59-1.73,10.91,10.91,0,0,0-3.75.77,13.06,13.06,0,0,0-1.72.85l-1.79,1a51.84,51.84,0,0,1-7.54,3.26,62.22,62.22,0,0,1-16.08,3.17c-1.37.1-2.74.14-4.11.17a15.1,15.1,0,0,0-3.72.63,40.67,40.67,0,0,0-7.25,3.06c-2.38,1.22-4.7,2.56-7.15,3.82a31.57,31.57,0,0,1-3.86,1.73,9.49,9.49,0,0,1-2.33.51c-.24,0-.39,0-.53,0l-.45,0c-.3,0-.62.07-.93.11a64.8,64.8,0,0,0-7.73,1.73c-2.57.71-5.15,1.5-7.68,2.33h0a1.55,1.55,0,1,1-1-2.94h0c2.63-.79,5.24-1.51,7.89-2.18a70.43,70.43,0,0,1,8.13-1.62c.36,0,.7-.08,1.08-.09l.56,0a4.88,4.88,0,0,0,.49,0,7.4,7.4,0,0,0,1.62-.33,31.48,31.48,0,0,0,3.56-1.5c2.39-1.16,4.77-2.46,7.23-3.65a43.09,43.09,0,0,1,7.74-3,17.2,17.2,0,0,1,4.27-.61c1.33,0,2.67,0,4-.07a60.25,60.25,0,0,0,15.7-2.71,50.45,50.45,0,0,0,7.4-3l1.77-.94a15.28,15.28,0,0,1,1.92-.89,12.2,12.2,0,0,1,4.17-.76,18.31,18.31,0,0,1,8,2,34.26,34.26,0,0,1,6.84,4.53,41.33,41.33,0,0,1,5.69,5.84,28,28,0,0,1,2.33,3.37,14.31,14.31,0,0,0,2.4,3.17,18.55,18.55,0,0,0,6.89,4C435.06,124.36,437.73,125,440.09,126.33Z" style="fill: #be202e"/>
      <path d="M323.29,39.81a35,35,0,0,1,9.64,7.2,18.21,18.21,0,0,1,3.23,5.14,19.36,19.36,0,0,1,1.36,6c.18,4,.17,8.05,1,11.9a14.27,14.27,0,0,0,2.22,5.28,9.43,9.43,0,0,0,4.41,3.33l1.37.48c.49.18,1,.31,1.49.54a14.19,14.19,0,0,1,2.79,1.56,11.19,11.19,0,0,1,3.94,5.12,13,13,0,0,1,.6,6.42,22.35,22.35,0,0,1-1.79,6c-.38,1-.92,1.86-1.37,2.8l-1.44,2.65-2.87,5.28-5.74,10.56,0,.05a1.54,1.54,0,1,1-2.71-1.48l0,0,6.1-10.42,3.05-5.2,1.52-2.6c.45-.86,1-1.68,1.37-2.56a20.11,20.11,0,0,0,1.79-5.41A11,11,0,0,0,353,87a9.35,9.35,0,0,0-3.18-4.38,12.87,12.87,0,0,0-2.4-1.45c-.42-.22-.89-.35-1.33-.53L344.6,80c-.49-.19-1-.48-1.43-.71s-.89-.6-1.33-.91a10.79,10.79,0,0,1-2.16-2.37,15.71,15.71,0,0,1-2.26-5.81c-.77-4-.62-8.13-.67-12.09a18.82,18.82,0,0,0-1.12-5.79,18.14,18.14,0,0,0-3-5.11A35.09,35.09,0,0,0,323.29,39.81Z" style="fill: #be202e"/>
      <path d="M338.9,37.4a18.85,18.85,0,0,0-3.27,5,31.33,31.33,0,0,0-2,5.63h0a.2.2,0,0,1-.24.15.21.21,0,0,1-.14-.24h0a32,32,0,0,1,2.18-5.63A19,19,0,0,1,338.9,37.4Z" style="fill: #be202e"/>
      <path d="M408.47,37.4c.06,3.62.18,7.25-.09,10.88s-1,7.35-3.16,10.43a23.27,23.27,0,0,1-1.81,2.08c-.6.67-1.18,1.35-1.73,2.06-1.11,1.4-2.15,2.88-3.19,4.36a67.49,67.49,0,0,1-6.89,8.53c-4.93,5.23-9.57,10.8-14,16.5-2.18,2.86-4.3,5.77-6.25,8.76-1,1.5-1.89,3-2.7,4.57a23.13,23.13,0,0,0-1.09,2.32,13.94,13.94,0,0,0-.73,2.28l-.08.27a1.54,1.54,0,0,1-3-.85h0a16.35,16.35,0,0,1,1-2.86,23.3,23.3,0,0,1,1.3-2.54c.93-1.63,1.95-3.17,3-4.68,2.11-3,4.36-5.89,6.68-8.7,4.66-5.61,9.49-11,14.69-16.16a66.77,66.77,0,0,0,7.05-8.11c1.09-1.44,2.19-2.9,3.37-4.29.6-.7,1.21-1.38,1.85-2a23.41,23.41,0,0,0,1.82-2c2.16-2.8,3-6.46,3.39-10S408.41,41,408.47,37.4Z" style="fill: #be202e"/>
      <path d="M420.8,65.27a27.15,27.15,0,0,1,0,5.77,9.42,9.42,0,0,1-2.6,5.13,15.13,15.13,0,0,1-4.86,3.19l-1.34.56-1.27.6a6.36,6.36,0,0,0-1.2.72,10.21,10.21,0,0,0-1.14.81,27.11,27.11,0,0,0-6.66,9.06,54,54,0,0,0-3.84,10.67v0a.77.77,0,0,1-.94.57.76.76,0,0,1-.56-.93v0a54.93,54.93,0,0,1,4.31-10.84,27.92,27.92,0,0,1,7.21-9.13,11.43,11.43,0,0,1,1.23-.82,7.09,7.09,0,0,1,1.29-.72l1.35-.58,1.34-.51a14.72,14.72,0,0,0,4.81-2.92,9.15,9.15,0,0,0,2.68-4.9A27.36,27.36,0,0,0,420.8,65.27Z" style="fill: #be202e"/>
      <path d="M425.46,68.76a28.09,28.09,0,0,1-1.58,2.57A22.66,22.66,0,0,1,422,73.7a19.09,19.09,0,0,1-2.25,2.06,12.08,12.08,0,0,1-2.67,1.61.39.39,0,0,1-.51-.21.39.39,0,0,1,.21-.5h.06a11.73,11.73,0,0,0,2.57-1.35,18.72,18.72,0,0,0,2.32-1.86,23.42,23.42,0,0,0,2-2.21A28,28,0,0,0,425.46,68.76Z" style="fill: #be202e"/>
      <path d="M465.29,80.82A3.88,3.88,0,0,1,464,79c-.31-.68-.56-1.38-.82-2.08a20.55,20.55,0,0,0-.88-2,4.42,4.42,0,0,0-1.37-1.68,2.22,2.22,0,0,0-2.05-.08A7.05,7.05,0,0,0,457,74.33c-.57.46-1.05,1-1.64,1.5l-.86.74c-.3.23-.64.4-1,.61a11,11,0,0,1-2.05,1c-.36.12-.74.19-1.1.29a6.23,6.23,0,0,1-1.11.22,28.37,28.37,0,0,1-4.5.25c-1.49,0-3,0-4.43.09a10.87,10.87,0,0,0-4.11,1.2c-2.5,1.45-3.68,4.29-5.18,6.86s-2.93,5.2-4.53,7.74a50.8,50.8,0,0,1-5.36,7.27,19.21,19.21,0,0,1-3.47,3.06,8.6,8.6,0,0,1-4.57,1.58.78.78,0,1,1,0-1.55h0a7.11,7.11,0,0,0,3.78-1.24,17.47,17.47,0,0,0,3.27-2.77,51.18,51.18,0,0,0,5.38-7c1.63-2.47,3.16-5,4.67-7.59.77-1.28,1.45-2.57,2.31-3.84l.67-1a10.88,10.88,0,0,1,2.65-2.27,11.73,11.73,0,0,1,4.43-1.19c1.51-.09,3,0,4.5,0a27.11,27.11,0,0,0,4.42-.15A5.8,5.8,0,0,0,450.3,78c.35-.09.71-.15,1.06-.26a10.52,10.52,0,0,0,2-.89c.31-.19.64-.35.94-.56l.84-.7c.58-.45,1.1-1,1.69-1.48a7.49,7.49,0,0,1,1.94-1.17,3.15,3.15,0,0,1,1.14-.2,2.27,2.27,0,0,1,1.1.35C463.48,75.1,463.06,78.75,465.29,80.82Z" style="fill: #be202e"/>
      <path d="M481,109.88a4.66,4.66,0,0,0-2.38.82,13.73,13.73,0,0,0-2,1.58c-1.25,1.16-2.38,2.43-3.52,3.69A94.82,94.82,0,0,1,466,123.3a42.66,42.66,0,0,1-8.33,6,34.64,34.64,0,0,1-4.69,2.11c-1.63.58-3.25,1-4.88,1.56-6.49,2-13,4.06-19.65,5.63-3.33.77-6.7,1.42-10.1,1.88a68,68,0,0,1-10.3.5l-2.59-.16-2.57-.31c-.87-.08-1.71-.3-2.56-.46l-2.49-.5a20.58,20.58,0,0,0-9.67.56,35.19,35.19,0,0,0-8.92,4.28c-2.84,1.78-5.48,3.87-8.56,5.66a13.81,13.81,0,0,1-2.55,1.15,5.28,5.28,0,0,1-3.21.09,7.47,7.47,0,0,1-2.64-1.47,9.46,9.46,0,0,1-1.89-2.24c-1-1.57-1.56-3.29-2.37-4.37a2.18,2.18,0,0,0-1.26-.91,3.53,3.53,0,0,0-.85,0l-.47.07-.71.13a38.84,38.84,0,0,1-10.59-.28c-3.44-.45-6.8-1.05-10.19-1.79a1.55,1.55,0,0,1,.66-3h.05c3.24.78,6.57,1.43,9.88,1.94a37.07,37.07,0,0,0,9.73.48l1.34-.2a5.69,5.69,0,0,1,1.69,0,4.81,4.81,0,0,1,2.81,2,15.2,15.2,0,0,1,1.35,2.45c.36.79.7,1.5,1.08,2.17a5.82,5.82,0,0,0,3.11,2.72c1,.38,2.53-.23,3.92-1,2.83-1.58,5.6-3.67,8.55-5.45a37.83,37.83,0,0,1,9.52-4.33,22.42,22.42,0,0,1,10.52-.4l2.51.55c.82.17,1.63.39,2.46.49l2.48.35,2.5.19a64,64,0,0,0,10.07-.3c3.36-.38,6.69-1,10-1.66,6.63-1.43,13.16-3.35,19.69-5.24,1.64-.48,3.28-.92,4.88-1.45a37.23,37.23,0,0,0,4.64-2,42.37,42.37,0,0,0,8.35-5.73,96,96,0,0,0,7.24-7.17c1.17-1.23,2.32-2.49,3.59-3.63a14,14,0,0,1,2-1.55A4.68,4.68,0,0,1,481,109.88Z" style="fill: #be202e"/>
      <path d="M479.54,148.86c-2.05-2-4.05-4-6.16-5.93a57.27,57.27,0,0,0-6.67-5.28,33.72,33.72,0,0,0-7.47-3.86,23.3,23.3,0,0,0-8.15-1.4h0a.77.77,0,0,1,0-1.54h0a24.46,24.46,0,0,1,8.56,1.86,35.32,35.32,0,0,1,7.51,4.3,59.12,59.12,0,0,1,6.48,5.64C475.68,144.66,477.59,146.79,479.54,148.86Z" style="fill: #be202e"/>
      <path d="M359.17,142.52c7.07,4.09,5.14,38.39,6.76,47.25s4.48,7.76,13.27,12.83S395,230,396.4,235.66s.7,24.27.7,36.41c0,16.63,9.35,85.48,9.35,85.48l4.33,50.65" style="fill: none;stroke: #be202e;stroke-linecap: round;stroke-miterlimit: 10;stroke-width: 3.08837693661483px"/>
      <path d="M361.68,149.21c0-3.7-1.25-3.76-2.22-6.79s.67-4.12,2.21-5.47,6.5.77,7.25,3.14-2.53,5.67-3.83,7a3,3,0,0,0-.47,3.19A3.88,3.88,0,0,1,361.68,149.21Z" style="fill: url(#radial-gradient)"/>
      <path d="M316,146.78a19.6,19.6,0,0,0-6.6-3.88,51.41,51.41,0,0,0-7.79-2.32,52.94,52.94,0,0,0-16.26-1.14,26.66,26.66,0,0,0-4,.71,36,36,0,0,0-3.88,1.36,35.56,35.56,0,0,1-8.24,1.72,64.41,64.41,0,0,1-16.65-.71,64.64,64.64,0,0,0,16.56,0,34.68,34.68,0,0,0,7.94-2c1.22-.5,2.54-1.16,3.91-1.57a27.15,27.15,0,0,1,4.16-.93,54.61,54.61,0,0,1,16.88.41,52.23,52.23,0,0,1,8.26,2.06,33.07,33.07,0,0,1,4,1.66,16.22,16.22,0,0,1,3.8,2.55,1.5,1.5,0,0,1-2.05,2.2l0,0Z" style="fill: #be202e"/>
      <path d="M267.57,143.37a11.66,11.66,0,0,0-2.35,2c-.73.75-1.44,1.54-2.14,2.33s-1.4,1.59-2.14,2.35a13.34,13.34,0,0,1-1.16,1.09,2.65,2.65,0,0,1-1.4.71,2.61,2.61,0,0,0,1.34-.78,14.81,14.81,0,0,0,1.09-1.15c.69-.8,1.33-1.63,2-2.46s1.31-1.67,2-2.48a12.75,12.75,0,0,1,2.4-2.22.38.38,0,0,1,.52.11.38.38,0,0,1-.11.52h0Z" style="fill: #be202e"/>
    </g>
  </g>
  <path d="M366,166.27c1.53-7.68,7.9-20,15.35-20s26.11,6.66,20,34.55-35.09,55.23-42.74,42" style="fill: none;stroke: #fff;stroke-linecap: round;stroke-linejoin: round;opacity: 0.5"/>
  <path d="M318.42,117.93a6.16,6.16,0,0,0-2.25.56" style="fill: none;stroke: #be202e;stroke-linecap: round;stroke-miterlimit: 10"/>
  <g>
    <circle cx="363.89" cy="145.14" r="21.56" style="fill: none;stroke: #ffe100;stroke-miterlimit: 10;stroke-width: 4px"/>
    <g>
      <path d="M339.92,119.31C297.68,82.83,225.8,65.25,187.12,65.25" style="fill: none;stroke: #ffe100;stroke-miterlimit: 10;stroke-width: 4px"/>
      <polygon points="342.92 113.2 346.87 125.76 334.02 122.9 342.92 113.2" style="fill: #ffe100"/>
    </g>
    <text transform="translate(13.71 73)" style="font-size: 36px;font-family: Roboto-Bold, Roboto;font-weight: 700">Aneu<tspan x="82.74" y="0" style="letter-spacing: 0.013671875em">r</tspan><tspan x="95.84" y="0">ysm</tspan></text>
  </g>
</svg>
