<svg xmlns="http://www.w3.org/2000/svg" xmlns:xlink="http://www.w3.org/1999/xlink" viewBox="0 0 828.83 372.42">
  <defs>
    <clipPath id="clip-path">
      <circle cx="-1657.99" cy="-849.92" r="241.86" style="fill: none"/>
    </clipPath>
    <linearGradient id="linear-gradient" x1="-1986.18" y1="1234.46" x2="17.42" y2="-34.92" gradientTransform="matrix(0.99, 0.16, -0.17, 1.06, 304.97, -824.95)" gradientUnits="userSpaceOnUse">
      <stop offset="0.84" stop-color="#d33f33"/>
      <stop offset="1" stop-color="#e64c3c"/>
    </linearGradient>
    <clipPath id="clip-path-2">
      <rect x="37.45" y="16.79" width="338.85" height="338.85" style="fill: none"/>
    </clipPath>
    <linearGradient id="linear-gradient-2" x1="196.36" y1="71.73" x2="194.22" y2="206.15" gradientUnits="userSpaceOnUse">
      <stop offset="0.1" stop-color="#85161f"/>
      <stop offset="0.81" stop-color="#be202e"/>
    </linearGradient>
    <linearGradient id="linear-gradient-3" x1="195.76" y1="193.77" x2="195.76" y2="72.61" gradientUnits="userSpaceOnUse">
      <stop offset="0.19" stop-color="#8d1721"/>
      <stop offset="0.9" stop-color="#5c0c12"/>
    </linearGradient>
    <clipPath id="clip-path-3">
      <rect x="452.54" y="16.79" width="338.85" height="338.85" style="fill: none"/>
    </clipPath>
    <linearGradient id="linear-gradient-4" x1="611.45" y1="71.73" x2="609.31" y2="206.15" xlink:href="#linear-gradient-2"/>
    <linearGradient id="linear-gradient-5" x1="610.85" y1="193.77" x2="610.85" y2="72.61" xlink:href="#linear-gradient-3"/>
  </defs>
  <title>Artboard 36</title>
  <g id="OptionIcons">
    <g style="clip-path: url(#clip-path)">
      <g>
        <path d="M-882.07,174.21c-26.88,132.74,15.23,359.52,162.9,422,116.91,49.46,214.91,149.71,279.29,264.68,53.38,95.32,63.34,211,93.45,317.75S-48,2462.71,54.76,2483.47c14.36,2.9,150.71-23.54,157.2-32.6C233.67,2420.62-65.91,1208.12-79.85,1172.3c-65-167.07-368-1112.42-433-1279.49" style="fill: #ff5d0a"/>
        <path d="M-720.6,29.05c9.56,87.56,85.83,296,108.93,380.36,8.3,30.3,17.9,61.19,37.2,84.91,16.53,20.32,39,33.91,61,47.11l379,227.31c57.39,34.43,115.56,69.19,179.5,87,50.7,14.14,103.79,17.22,156.48,16,163-3.83,325.17-48.84,473.18-125,48.76-25.1,96.27-53.69,139-89.42,61.49-51.47,111.7-116.58,169.6-172.62,55.11-53.34,117.83-99.16,162.11-162.93s63.84-283.6,26.77-350.6" style="fill: #a84038"/>
        <path d="M-2007.9-267.35c-178.62,3.74-359.36,7.26-532.56-35.3s-340.88-136.66-440.19-292.78c-112.59-177-123.22-405.3-130.21-621.07-4.25-131.24-8.22-265,25.66-392.18,34.42-129.18,106-243.92,180.75-352.73,113.94-165.81,239.78-325.59,395.44-446.75,287-223.37,647.88-296.54,995.27-362.51q72.91-13.85,145.84-27.62c178.84-33.8,358.66-67.4,539.64-70,209.83-3.07,417.43,35.54,621.24,84.09C-16.65-2738.89,173.65-2684,344.8-2586c43,24.62,85.29,52.15,132.71,65.19,35.37,9.73,72.59,11.07,107.85,21.25,77.5,22.39,137.74,84.65,194.45,144.68l354.07,374.79c55,58.2,110.81,117.59,147,190.84,23.08,46.74,37.53,97.92,58.66,145.73,40.34,91.25,103.9,167.92,152.61,254.25s82.85,191,55.87,289.15c55.87,114.56,31.21,245.83,87.08,360.39,20.84,42.73,42,86.37,49.24,134.18s.22,97-9.31,144.76c-48.34,242.13-106,474.93-330,540.44-105.43,30.84-216.36,17.07-324,3.08L609.45,29.24C470,11.11,324.53-6.37,190.93,44.35c-44.81,17-87.39,41.45-133.55,53.31C-69.8,130.33-197,63.35-326.13,48.39-635.78,12.52-913,273.45-1222.54,324.55c-345,57-706.84-193.85-788.84-552.9-19.63-85.94-23.47-181.86,18-259.94,45.86-86.46,136.62-133.33,200.44-205.87,76.84-87.34,113.82-211.13,201.55-285.83,149.21-127,374-59.66,545-149.16,48.23-25.24,93.92-63.49,147.19-65.44,34-1.24,66.49,12.8,100.2,16.8,158.4,18.82,322.49-179,457.34-90.64" style="fill: #e64c3c"/>
        <path d="M608.58,29.1C468,23.58,323.66-6.51,190.06,44.21c-44.81,17-87.4,41.45-133.55,53.31C-70.67,130.19-197.89,63.21-327,48.25c-309.64-35.87-586.88,225.06-896.4,276.16-345,57-706.84-193.85-788.84-552.9-19.63-85.94-23.47-181.86,18-259.95,45.86-86.45,136.62-133.32,200.44-205.86C-1717-781.64-1680-905.43-1592.31-980.13c149.21-127.05,374-59.66,545-149.16,48.23-25.24,93.92-63.49,147.19-65.44,34-1.24,66.49,12.8,100.2,16.8,158.4,18.82,322.49-179,457.33-90.64,116.6,72.17,200,162.33,229.69,281.59,218.52,138.05,387.51,342,493.28,630C425.08-372,782,35.9,608.58,29.1Z" style="fill: url(#linear-gradient)"/>
      </g>
      <g>
        <path d="M-1055.66,2321.92a49.51,49.51,0,0,1-48.69-42.13l-.09-.64c-8.57-64.08-18.76-132.25-32.07-214.52q-4.21-26.19-8.5-52.42c-8.73-53.54-17.75-108.91-25.71-163.92-11.42-79.14-19.35-151.15-24.24-220.14-5.11-71.3-7.5-145.82-7.13-221.49,0-2.09,0-4.37,0-6.57l.11-7.61c.07-4.68.21-9.4.34-14v-.27c.3-9.07.71-18.58,1.24-28.28,1-17.82,2.33-36.11,4.12-55.94,3-32.68,6.91-67.67,12.44-110.11,5.44-41.6,11.49-83.53,17.34-124.09,4.37-30.28,8.88-61.59,13.07-92.28,5.73-42,9.94-76,13.26-107.09,4.24-39.91,7-74.67,8.35-106.26,1.7-39.75,1.27-73.75-1.33-103.92a420,420,0,0,0-7-49.39A243.27,243.27,0,0,0-1153.72,556a156.57,156.57,0,0,0-9.83-19.48,120.45,120.45,0,0,0-12-16.56,92.16,92.16,0,0,0-30.74-23.07l-.21-.1c-.77-.39-1.66-.75-2.61-1.14l-1.79-.76c-.89-.36-1.8-.7-2.7-1l-1.88-.7-2-.65c-.92-.3-1.85-.61-2.79-.88l-2.56-.72-1.2-.34-1.19-.28a139.5,139.5,0,0,0-21.24-3.48l-2.77-.25-2.79-.15-2.82-.16-5.77-.13L-1264,486l-7-.07c-9.92-.13-19.11-.34-28.09-.66-20.35-.7-38.88-1.85-56.65-3.51-20.77-2-39.59-4.63-57.54-8.06l-7.26-1.5-3.73-.78-6.07-1.42c-1.6-.37-3.21-.74-4.82-1.15l-7.26-1.9c-11.29-3.13-20.61-6.14-29.41-9.5a241.29,241.29,0,0,1-29.2-13.4,187.81,187.81,0,0,1-28-18.61,160.16,160.16,0,0,1-24.7-24.76,157,157,0,0,1-18.69-29.8A174.42,174.42,0,0,1-1584,338.86a217.49,217.49,0,0,1-5.67-32,274.4,274.4,0,0,1-1.48-31.09c.1-10.88.57-20.71,1.42-30,0,0,.31-3.69.32-3.73l.38-3.62s.79-7.33.79-7.38c.19-1.38.36-2.77.54-4.16.42-3.37.86-6.86,1.41-10.29,0,0,1.07-7.13,1.07-7.16l1.19-7c.51-3.2,1.12-6.41,1.71-9.52.28-1.52.57-3,.85-4.58,3.29-17,7.43-35.09,12.68-55.33,4.41-17,9.39-34.56,15.22-53.81,1.29-4.26,2.67-8.81,4.09-13.3l.86-2.75c1.09-3.5,2.18-7,3.31-10.49q.75-2.3,1.48-4.6c.91-2.87,1.83-5.73,2.78-8.59l4.26-13a388.43,388.43,0,0,0,13-48.54,214.6,214.6,0,0,0,3.23-23.34c.27-3.43.41-7.06.44-11.1,0-3.56-.2-7-.52-10.25a57.89,57.89,0,0,0-4-16.83,30.94,30.94,0,0,0-7.64-11,42.24,42.24,0,0,0-13.25-7.87,93.42,93.42,0,0,0-19.62-5,188.65,188.65,0,0,0-23.28-2c-3.12-.1-6.4-.15-9.76-.15-4.83,0-9.85.1-15.35.3-16.74.62-33.65,2-51.55,3.5l-3.87.32c-17.3,1.42-35.19,2.89-53.58,3.5-5.24.16-10,.25-14.62.25-5.26,0-10.18-.11-15-.33a218.22,218.22,0,0,1-31.5-3.48,130.72,130.72,0,0,1-33.83-11,97.37,97.37,0,0,1-16.89-10.77,84,84,0,0,1-14.69-15,84,84,0,0,1-5.81-8.65c-.39-.64-.67-1.15-.94-1.66l-1.82-3.37c-.47-.86-.94-1.73-1.39-2.61a160.84,160.84,0,0,1-6.81-15.52,155.63,155.63,0,0,1-8.39-32.62A169.22,169.22,0,0,1-1875.8-240a185.68,185.68,0,0,1,4.76-32.13,218.5,218.5,0,0,1,23.46-58.29,262.56,262.56,0,0,1,36.6-49.09,286,286,0,0,1,99.33-68.17A264.82,264.82,0,0,1-1653-464.07a252.39,252.39,0,0,1,30.47-2.88c1.75-.09,3.46-.1,5.12-.11l2.49,0,6.56-.08h.24c1.18,0,2.41-.07,3.71-.15l1.68-.09c1.5,0,3-.19,4.49-.34l1.18-.11a139.35,139.35,0,0,0,43.81-11.75,142,142,0,0,0,37.94-25.34,138.41,138.41,0,0,0,15.41-16.9c2.45-3.11,4.68-6.4,6.55-9.23,1.93-3.09,4-6.38,5.61-9.65l0-.09a105.48,105.48,0,0,0,8.07-20.08,86.9,86.9,0,0,0,2.11-10,66.06,66.06,0,0,0,.66-9.55,50,50,0,0,0-.89-8.65,32.86,32.86,0,0,0-2.35-7.22,25.82,25.82,0,0,0-3.58-5.77,28.43,28.43,0,0,0-5.16-4.76,43.35,43.35,0,0,0-15.41-6.44l-2.51-.49-1.17-.23-1.17-.15-2.75-.38c-.43-.05-.9-.08-1.38-.12l-1.1-.08-1.1-.1c-.48,0-1-.09-1.45-.1l-10-.3a163.93,163.93,0,0,1-32-4.49,193.8,193.8,0,0,1-29.75-9.88c-17.4-7.35-34.46-17.17-52.16-30a403.84,403.84,0,0,1-44.19-37.65c-12.65-12.3-25.3-25.92-38.68-41.66-22-26-43.87-55.36-66.77-89.72-18.43-27.66-36.88-57.54-58.07-94-4.17-7.18-8.65-15-13.69-23.79l-3.38-5.94-3.27-5.65-3.35-5.59-3.45-5.62c-8.67-13.92-18-28.17-27-41.94l-2.23-3.4c-38.75-58.81-79.48-121.81-114-188.55-18.67-36.1-33.61-69.37-45.69-101.73-14.48-38.89-24.12-74.54-29.46-109-.41-2.38-.72-4.76-1-7.05l-.93-7.14c-.39-3.21-.69-6.39-1-9.46-.15-1.59-.3-3.19-.46-4.78a1.94,1.94,0,0,1,0-.24c-.09-1.47-.19-3-.28-4.42-.21-3.21-.43-6.53-.57-9.84l-.27-10.74c0-.87,0-1.71,0-2.55,0-.4,0-.79,0-1.19a295.85,295.85,0,0,1,5.77-58l.32-1.68a2.61,2.61,0,0,1,.06-.27l1.25-5.25,1.69-7a2.68,2.68,0,0,1,.07-.27l2-6.9c.2-.67.38-1.29.56-1.91.49-1.72,1-3.5,1.68-5.31l2.36-6.75c.16-.43.28-.8.41-1.16.26-.77.56-1.65.93-2.54l1.35-3.31,2.74-6.67c.68-1.63,1.4-3.13,2.09-4.59.35-.72.7-1.45,1-2.19a245.14,245.14,0,0,1,31.41-49.8c2.71-3.21,5.42-6.33,8-9.35l1.43-1.64.21-.23,3.12-3.26c2.23-2.32,4.53-4.72,6.85-7.08l.07-.07a261.09,261.09,0,0,1,22.06-19.22,444.38,444.38,0,0,1,47.07-31.76c14.91-8.86,31-17.53,49.17-26.52,15.06-7.47,31.54-15,50.37-23.17,31.71-13.64,65.39-26.59,102.95-39.59,33.29-11.51,68.56-22.64,104.83-33.1,67.33-19.4,139-36.9,213.1-52,71-14.48,143.7-26.68,216.1-36.27,73.27-9.7,146.63-16.81,218-21.12,55.3-3.32,110-5,162.65-5,18.86,0,37.82.21,56.37.64,77.67,1.81,149.15,7.12,218.52,16.23,17.62,2.31,35.86,5,54.25,8,18,3,36.12,6.28,53.95,9.91,18.36,3.73,36.37,7.75,53.55,12,18,4.44,35.88,9.24,53,14.25a1021,1021,0,0,1,103.65,36.28,809.9,809.9,0,0,1,98.56,48.59,5.92,5.92,0,0,1,2.14,8,5.92,5.92,0,0,1-5.13,3,5.86,5.86,0,0,1-2.92-.77,795.41,795.41,0,0,0-97.62-46.62A1004.32,1004.32,0,0,0-351-1869.22c-17-4.75-34.66-9.27-52.54-13.44-17-3.93-34.87-7.68-53.08-11.15-17.7-3.37-35.69-6.45-53.48-9.14-18.27-2.77-36.36-5.22-53.79-7.29-68.83-8.17-139.72-12.55-216.73-13.39-8.39-.09-16.92-.14-25.37-.14-61.79,0-126.33,2.42-191.81,7.17-70.8,5.16-143.48,13.11-216,23.63-71.68,10.41-143.61,23.4-213.81,38.62-73.13,15.87-143.84,34.06-210.16,54.07-35.64,10.75-70.24,22.15-102.85,33.88-36.65,13.2-69.43,26.27-100.22,40-18.18,8.1-34,15.63-48.46,23-17.28,8.82-32.5,17.27-46.54,25.85a407.27,407.27,0,0,0-43,29.74,228.91,228.91,0,0,0-18.81,16.79c-1.79,1.86-3.55,3.75-5.32,5.64q-1.7,1.82-3.4,3.62l-2.17,2.58c-2,2.36-4,4.72-6,7.1a208.16,208.16,0,0,0-41.34,90.22,258.23,258.23,0,0,0-4.37,50.5c0,.43,0,.84,0,1.25,0,.63,0,1.25,0,1.87l.37,9.77c.15,2.71.37,5.59.59,8.38l.33,4.37q.27,2.34.51,4.68c.29,2.69.59,5.46.95,8.15l1,6.73c.29,2.07.57,4,.93,6a.5.5,0,0,1,0,.12c5.32,31.72,14.7,64.73,28.69,100.9,11.88,30.66,26.57,62.29,44.9,96.67,15.5,29.06,33.29,59.42,54.37,92.8,19.22,30.48,39.2,60.23,59.68,90.55l2.65,3.93c9.17,13.62,18.65,27.7,27.81,42l3.75,5.93,3.72,6,3.67,6.15,3.46,5.9c5.1,8.69,9.62,16.32,13.81,23.33,21.14,35.4,39.47,64.28,57.69,90.91,9.18,13.41,18.36,26.26,27.3,38.2a17.32,17.32,0,0,0,13.79,6.93,16.91,16.91,0,0,0,5-.75c11.69-3.56,25.8-7.81,25.8-7.81,12-3.48,24.43-7,36.93-10.46,25.32-7,50.28-13.61,74.16-19.59,28.62-7.14,52.51-12.66,75.18-17.36,4.62-1,9.37-1.93,14-2.83l5.06-1,9.62-1.8c2.86-.55,5.95-1.09,9.69-1.73,14.14-2.47,27-4.35,39.35-5.74l5.11-.58,6.2-.56c3-.26,6.11-.54,9.34-.68l1.74-.09c2.87-.17,5.83-.33,9-.33l8.73-.12a77.12,77.12,0,0,0,13.43-1.87c4.69-1,9.76-2.41,15.51-4.23,9.47-3,19.85-7,32.66-12.5,10.42-4.51,21.3-9.53,33.24-15.33,20.12-9.77,40.67-20.36,60.54-30.6l6.53-3.36c23-11.85,45.55-23.41,68.28-34.47,26.66-13,49.14-23.13,70.75-31.94,28.06-11.41,51.89-19.55,75-25.6a376.36,376.36,0,0,1,39.87-8.27c7.65-1,14.06-1.83,20.67-2.26,3.1-.27,6.21-.39,9.23-.51l1.26,0c1.24-.07,2.53-.07,3.78-.08h1.55l2.64,0H-918c5,0,10,.07,14.79.07,20.44,0,40.54-.44,59.75-1.31a1221.27,1221.27,0,0,0,148-15.62A1069.79,1069.79,0,0,0-551-1104a948.77,948.77,0,0,0,137.65-55.76c3.53-1.79,7.06-3.62,10.59-5.45l6-3.09c1.91-1,3.72-2,5.64-3l2.49-1.36,12.31-6.72,8.89-4.73c1.11-.58,2.17-1.08,3.2-1.56l1.51-.71,1.85-.87c2.46-1.17,5-2.38,7.69-3.43.86-.35,1.77-.73,2.67-1.12,2.18-.91,4.43-1.85,6.8-2.66a233.27,233.27,0,0,1,80-14.55h2.52c24.54,0,50.37,3.58,76.8,10.65a418.08,418.08,0,0,1,73.59,27.82,575.08,575.08,0,0,1,67.37,38.93,716.13,716.13,0,0,1,61.71,46.58A783.6,783.6,0,0,1,125.8-974.92c8.25,10.39,16,20.8,23.1,31,7.85,11.26,14.69,22,20.88,32.75,1.4,2.46,2.81,4.82,4.18,7.11l.56.93c.57.94,1.15,1.92,1.73,2.9,1,1.7,2,3.31,3,4.88l7,10.44,6.43,8.53c.82,1.1,1.6,2.14,2.4,3l6.18,7.34c.8,1,1.72,2,2.7,3l6.51,7c.56.59,1.21,1.21,1.9,1.87.43.4.85.81,1.27,1.22a238.8,238.8,0,0,0,27.91,23.63,279.52,279.52,0,0,0,31,19.75c4.49,2.57,9.19,4.94,13.74,7.25L289-801l8.45,4c1.76.85,3.52,1.61,5.37,2.42,1.05.46,2.1.91,3.14,1.38,11.14,4.84,22.84,9.48,34.71,13.76,14.49,5.26,29.42,10.19,43.86,15,9.14,3,18.6,6.14,27.88,9.33,14.59,5,25.67,9.16,35.92,13.42a275.52,275.52,0,0,1,34.78,17.09,5.91,5.91,0,0,1,2.11,8,5.89,5.89,0,0,1-5.12,3,5.81,5.81,0,0,1-2.89-.76,265.18,265.18,0,0,0-33.63-15.53c-10.09-3.91-21-7.7-35.45-12.28-9.26-2.94-18.75-5.82-27.92-8.61-14.65-4.45-29.79-9-44.62-14-12.26-4.09-24.39-8.57-36-13.3-1.08-.46-2.1-.87-3.13-1.29-1.91-.78-3.9-1.59-5.86-2.48l-8.84-3.93-2.73-1.3c-4.82-2.29-9.8-4.67-14.65-7.29a297.28,297.28,0,0,1-33.36-20.15,257.73,257.73,0,0,1-30.54-24.66c-.35-.33-.75-.69-1.15-1.05-.81-.74-1.64-1.5-2.47-2.33l-6.85-7c-1.14-1.16-2.32-2.35-3.46-3.69l-6.31-7.15C179-861.73,178-863,177-864.24L170.11-873l-.18-.24s-7.71-10.89-7.73-10.93c-1.23-1.81-2.38-3.66-3.49-5.44l-1.77-2.81-.53-.83c-1.54-2.44-3.13-5-4.6-7.41-6-9.93-13-20.26-20.61-30.68-7-9.62-14.78-19.48-23-29.3A758.84,758.84,0,0,0,1.64-1064.79a688.85,688.85,0,0,0-60.38-43.36,545.77,545.77,0,0,0-64.75-35.4,386.68,386.68,0,0,0-68.69-24.15,269.73,269.73,0,0,0-63.21-8c-2.53,0-5.08,0-7.57.13a199.55,199.55,0,0,0-68.1,14l-.21.08c-1.69.61-3.39,1.37-5.19,2.18-.9.41-1.8.81-2.71,1.2-2,.84-3.94,1.82-6,2.85l-1.78.89-1.45.73c-.82.4-1.59.78-2.3,1.18l-7.78,4.38-12.41,7.17-2.47,1.42c-2,1.14-4,2.32-6.06,3.43l-5.83,3.19c-3.67,2-7.34,4-11,6a987.11,987.11,0,0,1-141.9,61.45,1112.49,1112.49,0,0,1-149.36,39.78,1270.36,1270.36,0,0,1-153.17,19.87c-24.61,1.7-50.57,2.75-77.16,3.12l-2.18.06-2.12.06-1.45.05c-.9,0-1.75,0-2.54.11l-1.69.11c-2.35.15-4.57.29-6.8.54l-.14,0c-5.68.5-11.5,1.39-17,2.27a332.15,332.15,0,0,0-34.12,8c-20.43,5.87-42.64,14.07-67.89,25-20.29,8.85-41.5,19-66.75,32.08-22,11.34-43.9,23.26-66.32,35.5l-7.05,3.84c-19.61,10.71-39.89,21.77-60.41,32.35-12.58,6.49-24.11,12.14-35.23,17.27-9.92,4.54-23.17,10.4-37.82,15.47-7.56,2.6-14.41,4.63-21,6.23a137.8,137.8,0,0,1-23.93,3.8l-10.39.4c-2,0-4.07.21-6.31.39l-1.77.14-1.57.12c-.86.07-1.66.12-2.44.22l-8.77,1-4.36.6c-11.05,1.51-22.67,3.5-35.54,6.08-3.5.67-6.33,1.24-8.95,1.81l-9.08,1.92-5,1.11c-4.26.95-8.66,1.93-13,3-21.74,5.05-44.69,10.93-72.26,18.51-23.18,6.39-47.42,13.42-72,20.88-3.47,1.06-9.42,2.9-16.12,5a17,17,0,0,0-11.64,12.63,17,17,0,0,0,5.15,16.38c16,14.63,28.59,25.46,34.58,29.69a214.63,214.63,0,0,0,42.47,23.85c15.2,6.21,30,9.53,44.09,9.87l6.44.11,4,.08c1,0,2,.09,3,.16l1.25.09,1.36.09c.94.06,1.91.13,2.94.24l4.1.5,2,.26.29,0,2,.36,4.3.79c1,.22,2.08.47,3.12.73l3.21.78c.62.17,1.17.33,1.72.51l4.8,1.49.34.13,4.24,1.62a84.27,84.27,0,0,1,17.08,9.18,80.5,80.5,0,0,1,15,13.52,77.94,77.94,0,0,1,11,17.08,84.81,84.81,0,0,1,6.36,18.59,103.25,103.25,0,0,1,2.19,18.41,119.42,119.42,0,0,1-1,17.66,137.33,137.33,0,0,1-3.29,16.7,157.72,157.72,0,0,1-11.81,30.67c-2.47,5-5.35,9.84-7.84,13.91l-.06.1c-3.37,5.27-6.24,9.43-9,13.09a191.09,191.09,0,0,1-21,23.61,195.67,195.67,0,0,1-52,35.65A193.66,193.66,0,0,1-1591.2-413l-1,.11c-2.25.25-4.57.5-7,.63l-1.67.11c-2,.14-4.1.28-6.23.3l-7.16.18-2.31.05c-1.25,0-2.43.05-3.57.12h-.14a199,199,0,0,0-23.75,2.54,208.41,208.41,0,0,0-46,13.48,227.59,227.59,0,0,0-78.56,55.36,204.32,204.32,0,0,0-28,38.53,159.33,159.33,0,0,0-16.69,42.76,126,126,0,0,0-3,21.81,110.49,110.49,0,0,0,1.16,21.24,96.11,96.11,0,0,0,5.44,20,99,99,0,0,0,4.31,9.49c.19.37.43.8.68,1.23l1.57,2.84c.19.28.37.57.54.85s.18.3.28.44l.2.27c.29.43.56.82.78,1.08l.15.18a29,29,0,0,0,10.59,8.13,71,71,0,0,0,18,5.38,158.44,158.44,0,0,0,22.72,2.17c2.69.08,5.53.13,8.43.13,5.09,0,10.47-.13,16.47-.4,16.84-.76,33.9-2.38,52-4.09l3.66-.35c17.13-1.63,34.84-3.31,53-4.21,8.13-.41,15.49-.6,22.53-.6,2.29,0,4.6,0,6.91.06a253.51,253.51,0,0,1,31.07,2.35,157.13,157.13,0,0,1,33.21,8.22,105.48,105.48,0,0,1,33.42,19.79,92.63,92.63,0,0,1,13.89,15.36,98.86,98.86,0,0,1,10.08,17.57,121.45,121.45,0,0,1,9.49,35.79c.63,5.47,1,11,1.09,16.92,0,5.72-.09,11.17-.43,16.25a277.06,277.06,0,0,1-3.81,30.7,452.66,452.66,0,0,1-14.41,57l-4.07,13c-.88,2.77-1.72,5.52-2.56,8.27l-1.41,4.57c-1,3.36-2,6.72-3,10.07l-.83,2.76c-1.3,4.31-2.57,8.7-3.76,12.82-11.55,40-19.47,72.56-24.94,102.59-.23,1.42-.5,2.91-.76,4.4-.48,2.72-1,5.53-1.37,8.25l-1,6.42-.87,6.34c-.42,2.86-.75,5.75-1.07,8.55-.15,1.34-.3,2.68-.46,4l-.89,9.38-.22,3.06c-.6,7.54-.88,15.53-.86,24.51a205.78,205.78,0,0,0,1.39,23.36c1.85,15.82,5.63,29.52,11.25,40.7a85.46,85.46,0,0,0,24.39,29.81c9.92,7.8,22.71,14.63,38,20.31,6.47,2.38,13.88,4.67,22.64,7l5.94,1.48c1.17.28,2.41.55,3.66.82l2.31.51,3,.66,9.21,1.79c15.56,2.77,32.1,4.87,50.5,6.4,16.28,1.32,33.38,2.16,52.27,2.58,8.44.19,17.1.28,26.47.29h10.08l3.94,0,4.07.06,3.91.16,4.11.18,3.94.3a215.6,215.6,0,0,1,32.67,5l2.16.5,6,1.59c2,.56,4,1.17,5.85,1.77l2.3.72.24.08,2,.72c2,.69,4,1.4,6,2.19l.09,0,2.2.88c1.88.76,3.83,1.54,5.8,2.47a166.07,166.07,0,0,1,30.4,17.61,171.47,171.47,0,0,1,26,23.51,196.38,196.38,0,0,1,20.37,27.24,233.69,233.69,0,0,1,15.15,29,318,318,0,0,1,18.83,59.07,497.8,497.8,0,0,1,9.09,58.47c3.34,34,4.29,70.27,3,114.12-1,33.75-3.39,69.14-7.35,111.38-3,32-6.87,66.79-12.18,109.65-3.88,31.25-8,62.85-12.06,93.42-5.3,40.31-10.79,82-15.6,122.8-4.87,41.33-8.29,75.29-10.75,106.88-1.46,18.81-2.52,36.12-3.24,52.93-.38,9-.65,17.85-.82,26.26v.47c-.06,4.13-.13,8.39-.15,12.56v7.13c0,1.93,0,3.86,0,5.87.55,73.5,3.77,145.68,9.56,214.64,5.58,66.74,14.14,136.52,26.2,213.31,8.47,53.87,18.14,108.89,27.49,162.11q4.58,26.09,9.14,52.23c14.44,82.71,25.57,151.35,35,216,3.93,26.85-14.32,52.19-40.7,56.49A49.87,49.87,0,0,1-1055.66,2321.92Z" style="fill: #be202e"/>
        <path d="M-836.66-1938.31q28.11,0,56.23.64c72.84,1.7,145.65,6.69,217.9,16.18q27.09,3.56,54,8t53.73,9.87q26.78,5.43,53.32,11.89t52.75,14.19a1008.23,1008.23,0,0,1,103.05,36.07,798.3,798.3,0,0,1,97.83,48.22,798.26,798.26,0,0,0-98.34-47,1008.35,1008.35,0,0,0-103.28-34.72q-26.25-7.33-52.79-13.5t-53.32-11.2q-26.76-5.1-53.7-9.17t-54-7.32c-72.13-8.56-144.75-12.64-217.36-13.43q-12.72-.14-25.43-.14c-64.14,0-128.28,2.54-192.24,7.19q-108.63,7.9-216.47,23.68t-214.21,38.69c-70.9,15.38-141.25,33.25-210.62,54.18q-52,15.69-103.14,34c-34,12.25-67.69,25.47-100.62,40.13-16.46,7.33-32.77,15-48.75,23.15s-31.72,16.77-46.93,26.06a418.77,418.77,0,0,0-43.58,30.18,229.08,229.08,0,0,0-19.35,17.27c-3,3.12-5.93,6.31-8.9,9.46-2.79,3.3-5.59,6.58-8.34,9.91a213.47,213.47,0,0,0-42.53,92.82,262.77,262.77,0,0,0-4.48,51.65c0,1.09,0,2.18,0,3.27l.13,3.26.25,6.54c.23,4.35.62,8.71.93,13.07.5,4.35.91,8.71,1.48,13l.94,6.52c.31,2.17.61,4.34,1,6.51,5.82,34.7,16.16,68.83,29,102s28.3,65.64,45.19,97.32,35.32,62.66,54.59,93.17,39.42,60.56,59.78,90.71c10.17,15.11,20.39,30.21,30.38,45.83l3.73,5.9,3.69,6,3.62,6.07,3.44,5.87q6.88,11.73,13.83,23.37c18.54,31,37.63,61.61,57.89,91.22q13.37,19.51,27.45,38.4a23.14,23.14,0,0,0,18.52,9.3,23.12,23.12,0,0,0,6.71-1c11.68-3.57,25.79-7.81,25.79-7.81q18.38-5.31,36.8-10.42,36.84-10.22,74-19.56c24.81-6.18,49.73-12.07,75-17.31,6.29-1.34,12.65-2.56,19-3.82l9.56-1.78q4.76-.9,9.59-1.71c12.8-2.24,25.76-4.2,39-5.7l5-.56,5.06-.46c3.37-.29,6.72-.61,10.21-.76s6.87-.42,10.5-.42l8.85-.12a82.8,82.8,0,0,0,14.54-2c5.2-1.13,10.59-2.64,16-4.37,10.92-3.48,22.07-7.91,33.21-12.7s22.32-10,33.49-15.45c22.34-10.85,44.68-22.43,67.18-34s45.16-23.22,68.17-34.42,46.39-22,70.39-31.78,48.63-18.64,74.27-25.36a375.27,375.27,0,0,1,39.24-8.13c6.7-.92,13.43-1.77,20.26-2.22,3.4-.29,6.84-.4,10.27-.54,1.71-.1,3.45-.06,5.18-.09l2.59,0H-918q7.4.07,14.78.07,30,0,60-1.31a1223.58,1223.58,0,0,0,148.69-15.7,1071.72,1071.72,0,0,0,145.3-35,951.23,951.23,0,0,0,138.51-56.11c5.56-2.81,11.08-5.71,16.63-8.57,2.78-1.4,5.49-2.94,8.24-4.43l8.21-4.48,4.11-2.25,4.42-2.35,4.42-2.35c1.47-.77,3-1.44,4.51-2.17,3-1.42,6-2.9,9.12-4.12s6.13-2.64,9.3-3.71a228.73,228.73,0,0,1,78.09-14.21h2.47c25.61,0,50.92,3.94,75.27,10.45a411.13,411.13,0,0,1,72.54,27.43,566.07,566.07,0,0,1,66.66,38.53,706.79,706.79,0,0,1,61.2,46.18A777.79,777.79,0,0,1,121.18-971.24q11.88,15,22.87,30.66c7.3,10.47,14.23,21.21,20.61,32.31,1.6,2.82,3.19,5.46,4.78,8.13s3.15,5.37,4.83,8l5.2,7.74,1.3,1.93.65,1,.71.93,2.8,3.72,2.81,3.73c.93,1.25,1.86,2.5,2.89,3.67l6,7.14c1,1.21,2,2.34,3.11,3.47l3.19,3.41,3.19,3.42c1.08,1.12,2.23,2.17,3.34,3.26A248.79,248.79,0,0,0,238-824.58a288.84,288.84,0,0,0,31.66,20.16c5.45,3.11,11.08,5.89,16.68,8.74l8.52,4c2.84,1.37,5.75,2.56,8.62,3.85q17.31,7.53,35.13,13.93c23.72,8.62,47.88,16.1,71.82,24.31,12,4.12,23.88,8.43,35.57,13.29a269.7,269.7,0,0,1,34,16.72,268.81,268.81,0,0,0-34.38-15.89c-11.78-4.56-23.76-8.58-35.79-12.4-24.09-7.63-48.43-14.54-72.45-22.62q-18-6-35.7-13.18c-2.93-1.23-5.89-2.37-8.79-3.68l-8.72-3.87c-5.74-2.74-11.51-5.43-17.12-8.46a291.08,291.08,0,0,1-32.76-19.78,255.57,255.57,0,0,1-29.87-24.1c-1.17-1.1-2.38-2.15-3.51-3.28l-3.37-3.44-3.38-3.43c-1.12-1.15-2.26-2.28-3.29-3.51l-6.38-7.22c-1.08-1.18-2.07-2.45-3.06-3.71l-3-3.78-3-3.78-.75-.94-.7-1-1.39-2-5.57-7.87c-1.79-2.66-3.44-5.42-5.17-8.12s-3.45-5.46-5-8.1c-6.48-10.67-13.51-21-20.92-31.14s-15.16-20-23.19-29.59a764.85,764.85,0,0,0-107.43-105,694.41,694.41,0,0,0-60.9-43.73,550.17,550.17,0,0,0-65.47-35.8,392.46,392.46,0,0,0-69.76-24.52,275.33,275.33,0,0,0-64.6-8.15c-2.59,0-5.19,0-7.78.13a206.29,206.29,0,0,0-70.1,14.45c-2.81,1-5.49,2.33-8.23,3.51s-5.39,2.55-8.07,3.88c-1.32.68-2.68,1.31-4,2l-3.9,2.2-3.91,2.2-4.15,2.39-8.32,4.81c-2.78,1.59-5.53,3.24-8.36,4.75-5.62,3.07-11.22,6.19-16.87,9.22a978.82,978.82,0,0,1-141,61.07,1103.26,1103.26,0,0,1-148.57,39.57,1257.27,1257.27,0,0,1-152.45,19.77c-25.58,1.77-51.2,2.75-76.84,3.11l-2.25.06-2.15.07c-1.43,0-2.85,0-4.3.17-2.88.19-5.75.34-8.65.67-5.78.51-11.59,1.4-17.39,2.32a338.13,338.13,0,0,0-34.81,8.11c-23.15,6.65-46,15.48-68.63,25.31S-1101-951-1123.24-939.55s-44.26,23.46-66.44,35.56-44.45,24.33-67.33,36.13c-11.44,5.9-23.07,11.65-35,17.16s-24.2,10.72-37.28,15.24c-6.54,2.26-13.29,4.34-20.41,6.07a132.57,132.57,0,0,1-22.91,3.65l-10.11.39c-2.69.05-5.59.33-8.44.55-1.44.13-2.83.18-4.3.37l-4.38.49-4.38.49-4.44.62c-11.82,1.62-23.84,3.72-35.88,6.13-3,.58-6,1.18-9,1.83l-9.05,1.91c-6,1.36-12.08,2.66-18.12,4.11-24.17,5.62-48.34,11.93-72.45,18.56s-48.19,13.65-72.19,20.93c-3.49,1.05-9.45,2.9-16.17,5a23.05,23.05,0,0,0-8.72,39c13.51,12.37,28,25.12,35.16,30.16,13.92,9.85,28.52,18.34,43.65,24.49s30.72,9.93,46.18,10.31l6.48.11,3.94.08c1.32,0,2.66.16,4,.24s2.65.16,4,.31l4.05.49,2,.25,2,.36,4.07.74c1.37.3,2.74.65,4.11,1l2,.5c.68.18,1.37.41,2.06.62l4.11,1.29,4.09,1.57a79.25,79.25,0,0,1,15.91,8.52,75.15,75.15,0,0,1,13.92,12.56A72.38,72.38,0,0,1-1438.25-616a78.76,78.76,0,0,1,5.91,17.27,96.34,96.34,0,0,1,2.06,17.35,111.71,111.71,0,0,1-.91,16.76,130.72,130.72,0,0,1-3.15,16,151.22,151.22,0,0,1-11.34,29.43c-2.31,4.66-4.93,9.12-7.62,13.52s-5.64,8.61-8.75,12.69a186.4,186.4,0,0,1-20.38,22.9,190.74,190.74,0,0,1-50.42,34.58,188.36,188.36,0,0,1-59,16.63c-2.55.28-5.09.58-7.65.71s-5.1.38-7.65.41l-7.24.18c-2,.07-4.1.05-6.15.19a201.12,201.12,0,0,0-24.46,2.62,213.37,213.37,0,0,0-47.34,13.86,233.32,233.32,0,0,0-80.62,56.8,210.37,210.37,0,0,0-28.83,39.65,165.34,165.34,0,0,0-17.3,44.36,131.81,131.81,0,0,0-3.11,22.84,116.59,116.59,0,0,0,1.23,22.4,101.61,101.61,0,0,0,5.77,21.25,107,107,0,0,0,4.54,10c.42.82.89,1.61,1.33,2.42l.67,1.2c.22.39.47.87.62,1.08.37.54.67,1.13,1.06,1.63s.73,1.05,1.13,1.53a35.07,35.07,0,0,0,12.64,9.8,76.54,76.54,0,0,0,19.55,5.9,165.79,165.79,0,0,0,23.56,2.25c2.84.1,5.72.14,8.62.14,5.49,0,11.08-.15,16.73-.41,17.27-.77,35-2.47,53.11-4.19s36.54-3.52,55.55-4.46c7.31-.36,14.71-.59,22.23-.59q3.38,0,6.8.06a247.76,247.76,0,0,1,30.35,2.29,151.24,151.24,0,0,1,32,7.9,100.49,100.49,0,0,1,31.57,18.68,86.43,86.43,0,0,1,13,14.39,93.38,93.38,0,0,1,9.48,16.53,116.42,116.42,0,0,1,9,34.07c.64,5.54,1,11,1.05,16.34s-.07,10.59-.41,15.75a273.19,273.19,0,0,1-3.75,30.07A448.68,448.68,0,0,1-1479,45.05l-4.07,13c-1.36,4.28-2.65,8.58-4,12.87s-2.6,8.58-3.89,12.87-2.54,8.59-3.78,12.88c-9.93,34.35-18.82,68.85-25.07,103.17-.72,4.29-1.55,8.58-2.17,12.85l-1,6.42-.88,6.39c-.63,4.27-1,8.51-1.55,12.76l-.6,6.34-.3,3.17-.22,3.15c-.68,8.42-.9,16.73-.88,24.93a209.65,209.65,0,0,0,1.43,24c1.82,15.6,5.57,30.18,11.84,42.66a91.73,91.73,0,0,0,26,31.81c11.14,8.77,24.76,15.7,39.61,21.2,7.45,2.75,15.25,5.06,23.19,7.16l6,1.5c2,.48,4.07.9,6.1,1.36l3.05.67,3.1.61,6.19,1.2c16.66,3,33.79,5.05,51.14,6.49s34.94,2.21,52.63,2.6q13.26.3,26.6.29h10.08l3.88,0,3.89.05,3.91.16,3.91.18,3.94.29a208.4,208.4,0,0,1,31.76,4.82l2,.46,2,.53,4,1.06c2.64.74,5.28,1.61,7.92,2.42s5.26,1.83,7.86,2.85,5.21,2,7.76,3.25a160,160,0,0,1,29.38,17,165.42,165.42,0,0,1,25.09,22.7,190.37,190.37,0,0,1,19.76,26.41,227.66,227.66,0,0,1,14.74,28.24,313.07,313.07,0,0,1,18.48,58,494.15,494.15,0,0,1,9,57.78c3.77,38.28,4.07,76,3,113.35s-3.88,74.3-7.32,111-7.67,73.17-12.17,109.48c-9,72.59-19.21,144.59-27.66,216.25-4.23,35.82-8,71.56-10.77,107.11q-2.09,26.65-3.26,53.14-.55,13.23-.82,26.39c-.07,4.38-.14,8.76-.16,13.13V1400c0,2.17,0,4.34,0,6.61.54,71.9,3.58,143.6,9.58,215s15.07,142.53,26.25,213.73,24.16,142.59,36.65,214.43c12.49,71.59,24.43,143.59,35,215.85,3.45,23.54-12.31,46-35.8,49.8a44.44,44.44,0,0,1-7,.57,43.36,43.36,0,0,1-42.84-37.07c0-.1,0-.2,0-.3l0-.28c-9.58-71.59-20.5-143-32.09-214.67s-23.68-143.58-34.2-216.24-19-146.08-24.2-219.72-7.47-147.45-7.11-221c0-2.28,0-4.66,0-7l.1-7.09c.07-4.73.21-9.44.34-14.15q.46-14.12,1.23-28.13c1-18.69,2.44-37.25,4.1-55.72,3.35-36.94,7.68-73.52,12.42-109.88,9.51-72.72,20.62-144.66,30.41-216.34,4.89-35.83,9.47-71.59,13.27-107.27s6.84-71.26,8.39-106.62,1.59-70.51-1.36-104.68a428.32,428.32,0,0,0-7.1-50.09,248.58,248.58,0,0,0-13.94-46,162.1,162.1,0,0,0-10.2-20.23,125.88,125.88,0,0,0-12.64-17.4,97.48,97.48,0,0,0-32.72-24.55c-1.54-.78-3.19-1.37-4.79-2.08s-3.29-1.23-4.94-1.87-3.37-1.12-5.09-1.62l-2.6-.73-1.3-.37-1.33-.31a145.74,145.74,0,0,0-22.08-3.62l-2.86-.26-2.9-.15-2.9-.17-2.93-.06-2.94-.07-3.41-.05-7-.07q-13.93-.18-27.95-.65c-18.67-.65-37.43-1.73-56.3-3.49s-37.87-4.33-57-8l-7.17-1.48-3.59-.75-3.6-.84c-2.39-.56-4.79-1.1-7.19-1.7l-7.2-1.89c-9.6-2.65-19.22-5.64-28.8-9.3a238.58,238.58,0,0,1-28.48-13.07,181.11,181.11,0,0,1-27.16-18A153.82,153.82,0,0,1-1549.1,397a151.24,151.24,0,0,1-18-28.67,168.71,168.71,0,0,1-11.25-31,213.8,213.8,0,0,1-5.51-31.12,267.83,267.83,0,0,1-1.45-30.41c.09-10,.51-19.87,1.4-29.56l.31-3.65.38-3.62.78-7.23c.62-4.77,1.17-9.58,1.91-14.3l1.07-7.1,1.19-7.05c.75-4.72,1.7-9.35,2.55-14,3.59-18.6,7.9-36.85,12.58-54.91s9.8-35.88,15.16-53.57q2-6.64,4.07-13.24c1.37-4.41,2.74-8.82,4.16-13.2s2.79-8.78,4.24-13.14l4.26-13A395.77,395.77,0,0,0-1518.07-21a220.32,220.32,0,0,0,3.32-24c.31-3.92.43-7.75.46-11.51s-.2-7.38-.55-10.88A64.27,64.27,0,0,0-1519.33-86a36.82,36.82,0,0,0-9.1-13,48.08,48.08,0,0,0-15.08-9,99.62,99.62,0,0,0-20.86-5.34,195.94,195.94,0,0,0-24-2.08q-4.92-.15-9.93-.15-7.7,0-15.58.31c-17.33.64-35.13,2.13-53.26,3.63s-36.63,3.05-55.71,3.68c-4.77.15-9.58.25-14.44.25s-9.78-.1-14.76-.32a214.78,214.78,0,0,1-30.65-3.38A125.14,125.14,0,0,1-1815-121.94,90,90,0,0,1-1830.84-132a78.84,78.84,0,0,1-13.68-14,79.49,79.49,0,0,1-5.45-8.13c-.46-.74-.72-1.27-1.06-1.88l-1-1.78c-.64-1.2-1.3-2.38-1.91-3.59a154.24,154.24,0,0,1-6.54-14.9,149.29,149.29,0,0,1-8.09-31.4,162.93,162.93,0,0,1-1.36-32,179.3,179.3,0,0,1,4.6-31.1,212.56,212.56,0,0,1,22.84-56.71,256.67,256.67,0,0,1,35.77-48,278.5,278.5,0,0,1,97.26-66.74,258.08,258.08,0,0,1,57.36-16,247.52,247.52,0,0,1,29.79-2.82c2.5-.13,5-.08,7.49-.13l6.4-.08h.29c1.9,0,3.78-.15,5.67-.24s4-.29,5.94-.48a145.51,145.51,0,0,0,45.7-12.25,147.94,147.94,0,0,0,39.51-26.39,143.86,143.86,0,0,0,16.07-17.6c2.45-3.12,4.69-6.38,6.86-9.67s4.14-6.7,5.9-10.17a110.52,110.52,0,0,0,8.54-21.26,91.15,91.15,0,0,0,2.27-10.75,71.88,71.88,0,0,0,.72-10.44,57.13,57.13,0,0,0-1-9.72,38.67,38.67,0,0,0-2.77-8.52,32.25,32.25,0,0,0-4.44-7.13,34.75,34.75,0,0,0-6.21-5.73,49,49,0,0,0-17.66-7.45l-2.62-.5-1.32-.26-1.36-.18-2.72-.37c-.92-.12-1.87-.16-2.8-.25s-1.86-.18-2.82-.21l-2.88-.09-7.15-.21a158.34,158.34,0,0,1-30.76-4.32,188.26,188.26,0,0,1-28.84-9.58,257.76,257.76,0,0,1-51-29.36,398.45,398.45,0,0,1-43.54-37.1c-13.55-13.17-26.21-27-38.3-41.25-24.13-28.49-45.91-58.49-66.35-89.16s-39.51-62.1-57.88-93.74q-6.89-11.86-13.66-23.76l-3.39-5.94-3.29-5.68-3.39-5.67-3.49-5.67c-9.42-15.15-19.4-30.3-29.36-45.49-40-60.75-79.84-122.58-113.68-188-16.92-32.71-32.43-66.31-45.4-101.07s-23.41-70.73-29.17-107.89c-.4-2.31-.7-4.65-1-7l-.91-7c-.56-4.67-1-9.38-1.42-14.07-.29-4.71-.65-9.42-.84-14.15l-.19-7.1-.09-3.54c0-1.19,0-2.38,0-3.56a289.37,289.37,0,0,1,5.65-56.8l.34-1.76.41-1.75.84-3.5,1.68-7,2-6.91c.69-2.29,1.29-4.62,2.13-6.87l2.38-6.8c.41-1.13.76-2.28,1.22-3.39l1.36-3.33,2.73-6.67c.94-2.21,2-4.36,3-6.54a238.9,238.9,0,0,1,30.63-48.55c3.07-3.65,6.22-7.24,9.35-10.85,3.31-3.43,6.57-6.88,9.93-10.28A255.22,255.22,0,0,1-1997.3-1671a440.05,440.05,0,0,1,46.45-31.34c15.95-9.47,32.26-18.14,48.77-26.3s33.24-15.78,50.09-23c33.72-14.5,68-27.47,102.55-39.43s69.44-22.89,104.53-33c70.18-20.23,141.18-37.32,212.64-51.9s143.43-26.63,215.7-36.2,144.86-16.69,217.61-21.08q81.06-4.87,162.3-5m0-11.82c-52.75,0-107.59,1.69-163,5-71.55,4.32-145,11.44-218.45,21.16-72.55,9.61-145.39,21.84-216.51,36.33-74.22,15.15-146.07,32.68-213.55,52.13-36.38,10.49-71.75,21.66-105.13,33.2-37.71,13-71.51,26-103.35,39.74-18.93,8.16-35.5,15.78-50.67,23.31-18.3,9-34.52,17.79-49.56,26.73a449,449,0,0,0-47.69,32.18,265.83,265.83,0,0,0-22.55,19.66l-.15.14c-2.36,2.4-4.68,4.83-6.93,7.17l-3.09,3.22-.41.45-1.39,1.6c-2.66,3-5.4,6.21-8.09,9.39l-.12.16a249.85,249.85,0,0,0-32.15,51l-.05.09c-.32.71-.66,1.41-1,2.11-.73,1.52-1.48,3.1-2.2,4.8l-.05.11-2.73,6.67-1.34,3.29h0c-.44,1.06-.77,2-1.06,2.87-.12.34-.23.67-.35,1a1.21,1.21,0,0,0-.05.14l-2.34,6.7c-.74,2-1.3,4-1.8,5.68-.18.59-.35,1.19-.53,1.78l0,.1-2,6.91c-.06.17-.1.35-.15.54l-1.69,7-.84,3.53-.41,1.75c-.05.18-.08.35-.12.53l-.32,1.69a301.51,301.51,0,0,0-5.87,59c0,.35,0,.73,0,1.1,0,.82,0,1.76,0,2.74v.07l.09,3.55.18,7.1a1.09,1.09,0,0,0,0,.18c.14,3.39.36,6.76.57,10,.09,1.45.19,2.91.28,4.37,0,.16,0,.32,0,.48.16,1.58.31,3.16.46,4.74.29,3.11.6,6.32,1,9.53,0,0,0,.09,0,.13l.92,7v.12c.3,2.34.62,4.76,1.05,7.24,5.4,34.83,15.13,70.84,29.75,110.1,12.16,32.59,27.2,66.08,46,102.38,34.64,67,75.46,130.15,114.31,189.11l2.22,3.37c9,13.73,18.3,27.92,26.94,41.8h0l3.46,5.62,3.3,5.51,3.23,5.59,3.37,5.9c5,8.81,9.51,16.61,13.71,23.84,21.25,36.61,39.76,66.59,58.26,94.36,23,34.55,45,64.07,67.17,90.25,13.52,15.9,26.29,29.66,39.08,42.09a409.22,409.22,0,0,0,44.84,38.19c18.07,13.12,35.51,23.15,53.33,30.68A200.69,200.69,0,0,0-1560.19-614a169.31,169.31,0,0,0,33.06,4.64h.11l7.16.22,2.84.08,1.1.09,1.14.1,1.17.09c.4,0,.82.06,1,.09l2.67.36h.07l1,.13.92.18.1,0,2.4.46a37.37,37.37,0,0,1,13.18,5.46,22.89,22.89,0,0,1,4.1,3.78,20.62,20.62,0,0,1,2.74,4.46,26.27,26.27,0,0,1,1.89,5.84,43.53,43.53,0,0,1,.79,7.67,59.8,59.8,0,0,1-.62,8.65,80.3,80.3,0,0,1-2,9.17,98.21,98.21,0,0,1-7.59,18.87l-.1.19c-1.53,3-3.37,6-5.29,9.12-1.8,2.71-3.94,5.86-6.21,8.75l0,.06a131.77,131.77,0,0,1-14.74,16.16A136,136,0,0,1-1555.64-485a133.53,133.53,0,0,1-41.94,11.25h0l-1.2.12c-1.44.14-2.8.27-4,.31h-.17l-1.75.09c-1.21.07-2.35.14-3.36.14h-.44l-6.4.08h-.07l-2.41,0c-1.71,0-3.49,0-5.35.11a258.93,258.93,0,0,0-31.12,2.95,270.22,270.22,0,0,0-60,16.73,292,292,0,0,0-101.41,69.58,268.34,268.34,0,0,0-37.42,50.2,224.48,224.48,0,0,0-24.09,59.88,191.8,191.8,0,0,0-4.91,33.15,175.75,175.75,0,0,0,1.46,34.34,161.09,161.09,0,0,0,8.71,33.82h0a162.62,162.62,0,0,0,7,16.05l0,.1c.49,1,1,1.87,1.45,2.74l.58,1.07,0,.06,1,1.79,0,.08.2.37c.26.48.61,1.12,1.1,1.92a89.6,89.6,0,0,0,6.18,9.21,90.25,90.25,0,0,0,15.72,16.06,102.08,102.08,0,0,0,17.86,11.38l0,0a136.09,136.09,0,0,0,35.33,11.53,223.31,223.31,0,0,0,32.36,3.59c4.94.22,9.94.33,15.29.33,4.66,0,9.51-.09,14.82-.26,18.52-.6,36.46-2.08,53.82-3.51l2.47-.2,1.45-.12c17.84-1.47,34.68-2.87,51.29-3.48,5.43-.2,10.38-.3,15.13-.3,3.29,0,6.51,0,9.56.15a182.38,182.38,0,0,1,22.56,1.94A88.11,88.11,0,0,1-1547.83-97a36.62,36.62,0,0,1,11.44,6.74,24.88,24.88,0,0,1,6.21,9,52.53,52.53,0,0,1,3.58,15.07c.3,3,.46,6.25.49,9.68,0,3.86-.17,7.32-.43,10.57a207.35,207.35,0,0,1-3.14,22.74,381.57,381.57,0,0,1-12.78,47.77l-4.27,13c-.94,2.84-1.88,5.77-2.78,8.6l-1.47,4.59c-1.14,3.51-2.26,7.08-3.33,10.54l-.87,2.76c-1.45,4.59-2.88,9.3-4.1,13.35-5.85,19.31-10.85,37-15.28,54-5.28,20.37-9.45,38.57-12.75,55.63a.69.69,0,0,0,0,.13c-.28,1.52-.57,3-.85,4.55-.59,3.12-1.2,6.35-1.73,9.65l-1.19,7,0,.21-1.07,7.09c-.55,3.5-1,7-1.42,10.4-.17,1.38-.34,2.76-.53,4.13l0,.28-.78,7.23-.38,3.64a2.11,2.11,0,0,0,0,.25l-.31,3.64c-.87,9.48-1.34,19.44-1.44,30.45a279.18,279.18,0,0,0,1.51,31.75,223.32,223.32,0,0,0,5.83,32.85,180,180,0,0,0,12,33.12,162.55,162.55,0,0,0,19.39,30.93,166.31,166.31,0,0,0,25.62,25.68,193.79,193.79,0,0,0,28.92,19.19A247.39,247.39,0,0,0-1473.91,463c9,3.45,18.51,6.51,29.9,9.67l.15,0,7.2,1.88.11,0c1.7.43,3.37.82,5,1.19l2.37.56,3.65.85.26.05,3.59.75,7.2,1.49.17,0c18.12,3.47,37.12,6.14,58.08,8.14,17.89,1.68,36.53,2.83,57,3.54,9,.32,18.24.53,28.2.66l7,.07,3.36.05,2.83.06,2.75.07,2.71.15,2.72.15,2.64.24a133.89,133.89,0,0,1,20.29,3.31l.12,0,1.07.25,1,.3h0l2.54.71c.79.23,1.65.51,2.55.81l1.92.63,1.8.66c.86.32,1.68.62,2.41.92s1.24.53,1.87.78c.83.35,1.62.67,2.18,1l.41.19A86.17,86.17,0,0,1-1180,523.84a112.9,112.9,0,0,1,11.41,15.72,151.74,151.74,0,0,1,9.43,18.71,237,237,0,0,1,13.24,43.83,414.56,414.56,0,0,1,6.91,48.7c2.57,29.9,3,63.64,1.32,103.15-1.38,31.46-4.1,66.1-8.33,105.88-3.31,31-7.51,65-13.24,106.92-4.18,30.67-8.7,62-13.06,92.23-5.85,40.58-11.91,82.53-17.35,124.17-5.54,42.5-9.5,77.57-12.47,110.35-1.79,19.88-3.15,38.24-4.13,56.14-.53,9.72-1,19.28-1.24,28.4-.14,4.71-.27,9.54-.35,14.34l-.1,7.12v.59c0,2.17,0,4.42,0,6.61-.37,75.8,2,150.44,7.14,221.87,4.91,69.13,12.85,141.28,24.29,220.56,8,55.08,17,110.47,25.73,164,2.79,17.18,5.69,34.94,8.5,52.38,13.3,82.25,23.48,150.36,32,214.36l0,.32v.09l0,.32a55.16,55.16,0,0,0,18.68,33.88,55.12,55.12,0,0,0,35.86,13.3,55.85,55.85,0,0,0,8.94-.72A54.41,54.41,0,0,0-1011,2304.8a56,56,0,0,0,9.87-40.88c-9.48-64.72-20.62-133.41-35.06-216.16-3-17.43-6.14-35.11-9.14-52.21-9.35-53.2-19-108.2-27.49-162-12-76.65-20.58-146.28-26.14-212.88-5.78-68.81-9-140.85-9.54-214.11v-.17c0-1.95,0-3.82,0-5.79V1400l0-6.5c0-4.11.08-8.36.14-12.46v-.5c.17-8.38.44-17.15.81-26.08.72-16.76,1.78-34,3.23-52.72,2.46-31.5,5.86-65.39,10.73-106.64,4.81-40.76,10.29-82.43,15.59-122.73,4-30.58,8.19-62.19,12.06-93.46,5.32-42.92,9.2-77.82,12.21-109.82,4-42.36,6.31-77.87,7.37-111.75,1.32-44.13.37-80.63-3-114.88a502.44,502.44,0,0,0-9.2-59.17,322.91,322.91,0,0,0-19.19-60.17,239.87,239.87,0,0,0-15.52-29.72,202.87,202.87,0,0,0-21-28.09A177.33,177.33,0,0,0-1141.19,441a172.16,172.16,0,0,0-31.42-18.23c-2.11-1-4.13-1.8-6.08-2.58l-2.13-.86-.19-.07c-2.1-.83-4.16-1.55-6.15-2.25l-2-.73-.49-.16-2.27-.71c-1.93-.61-3.92-1.24-6-1.81l-.1,0-4-1.06-2-.54-.38-.09-2-.45a221.16,221.16,0,0,0-33.54-5.1l-4-.29-.36,0-3.91-.18-3.94-.16h-.34l-3.89,0-3.92,0h-10.21c-9.32,0-17.93-.09-26.31-.28-18.78-.42-35.76-1.25-52-2.56-18.14-1.51-34.47-3.58-49.91-6.33l-6.12-1.19-2.94-.57-2.91-.64-2.31-.51c-1.23-.27-2.4-.53-3.54-.8l-5.85-1.46c-8.57-2.26-15.78-4.48-22.07-6.8-14.72-5.46-27-12-36.39-19.4a79.6,79.6,0,0,1-22.76-27.77c-5.32-10.62-8.91-23.65-10.68-38.78a200.89,200.89,0,0,1-1.35-22.68c0-8.83.26-16.67.84-24a.49.49,0,0,0,0-.12l.21-3,.29-3,.58-6.18c.16-1.33.31-2.65.46-4,.33-2.88.64-5.6,1-8.32,0,0,0-.07,0-.11l.87-6.29,1-6.31s0-.07,0-.11c.39-2.63.86-5.27,1.35-8.08q.4-2.24.78-4.47c5.43-29.79,13.3-62.17,24.77-101.9,1.19-4.1,2.45-8.46,3.75-12.74l.83-2.79c1-3.29,2-6.69,3-10l1.41-4.59c.82-2.7,1.67-5.49,2.54-8.19l4.08-13a456.61,456.61,0,0,0,14.58-57.75,282.73,282.73,0,0,0,3.9-31.39c.35-5.2.5-10.79.45-16.6v-.12c-.11-6.11-.48-11.83-1.12-17.47a127.34,127.34,0,0,0-10-37.53,105.14,105.14,0,0,0-10.69-18.64,98.81,98.81,0,0,0-14.78-16.33,111.51,111.51,0,0,0-35.27-20.9,163,163,0,0,0-34.41-8.52,259.76,259.76,0,0,0-31.8-2.41c-2.3,0-4.66-.06-7-.06-7.13,0-14.6.2-22.82.6-18.29.91-36.08,2.6-53.27,4.23l-2.8.27-.83.08c-18,1.71-35,3.32-51.7,4.07-5.91.27-11.21.4-16.2.4-2.85,0-5.62-.05-8.24-.13a152.41,152.41,0,0,1-21.87-2.08,65.35,65.35,0,0,1-16.44-4.89,23.36,23.36,0,0,1-8.48-6.42c-.1-.13-.2-.26-.31-.38l-.41-.58,0-.05-.2-.28-.08-.13c-.17-.28-.34-.56-.52-.84l0-.07-.22-.39h0l-.65-1.18c-.19-.35-.39-.7-.59-1.05l-.58-1.05a93,93,0,0,1-4-8.81l0-.09a89,89,0,0,1-5.1-18.77,103.83,103.83,0,0,1-1.1-20.13,120,120,0,0,1,2.83-20.74,153.3,153.3,0,0,1,16.09-41.18,198.49,198.49,0,0,1,27.2-37.4,221.61,221.61,0,0,1,76.5-53.91,202.91,202.91,0,0,1,44.73-13.1,193.09,193.09,0,0,1,23-2.46l.27,0c1-.07,2.1-.09,3.28-.11l2.41-.05,7.12-.18c2.26,0,4.4-.17,6.46-.32l1.63-.1c2.51-.14,4.89-.4,7.19-.65l1.06-.11a199.68,199.68,0,0,0,62.77-17.69,201.65,201.65,0,0,0,53.53-36.71,197.93,197.93,0,0,0,21.63-24.3h0c2.9-3.8,5.86-8.08,9.32-13.49l.13-.21c2.55-4.17,5.5-9.13,8.1-14.38a163.48,163.48,0,0,0,12.18-31.65,1.54,1.54,0,0,0,0-.17,143.59,143.59,0,0,0,3.42-17.39v0a124.14,124.14,0,0,0,1-18.51v-.05a108.91,108.91,0,0,0-2.33-19.48,90.21,90.21,0,0,0-6.79-19.86,84.08,84.08,0,0,0-11.91-18.42,86.63,86.63,0,0,0-16.1-14.53,90.37,90.37,0,0,0-18.18-9.77l-.28-.11-4.1-1.57-.7-.25L-1483-667l-.15,0-.56-.17c-.53-.17-1.18-.37-1.91-.56l-.14,0-2-.5-.07,0-1.09-.26c-1-.26-2.14-.52-3.28-.77l-.38-.08-4.08-.74h-.06l-2-.36-.58-.09-2-.25h-.05l-4-.49h-.11c-1.17-.13-2.25-.2-3.2-.27l-1.2-.08h-.2l-1.2-.08c-1-.07-2-.15-3.17-.18h-.1l-3.94-.08-6.46-.11c-13.32-.33-27.44-3.5-42-9.43a208.93,208.93,0,0,1-41.28-23.2c-5.72-4-18.43-15-34-29.23a11,11,0,0,1-3.37-10.73,11,11,0,0,1,7.62-8.28c7.57-2.36,13-4,16.09-5,24.56-7.45,48.75-14.46,71.9-20.85,27.48-7.55,50.36-13.41,72-18.44l.07,0c4.26-1,8.64-2,12.88-2.93l5-1.11,9-1.9c2.64-.57,5.43-1.14,8.84-1.79l.08,0c12.75-2.55,24.26-4.52,35.17-6l4.31-.6,4.22-.47,4.38-.49.17,0c.62-.08,1.32-.13,2.12-.19l1.7-.13,1.7-.14c2.14-.17,4.17-.34,5.93-.37h.26l10.11-.4h.29a144.18,144.18,0,0,0,24.93-3.95c6.75-1.65,13.77-3.73,21.49-6.39,14.91-5.16,28.33-11.09,38.35-15.67,11.22-5.18,22.82-10.87,35.5-17.41C-1231-868-1210.69-879-1191-889.77l7-3.84c22.39-12.21,44.29-24.11,66.21-35.43,25.13-13,46.23-23.13,66.41-31.93,25-10.87,47-19,67.16-24.78a325.32,325.32,0,0,1,33.48-7.8c5.36-.86,11-1.73,16.5-2.21l.28,0c2.08-.24,4.23-.37,6.5-.52l1.62-.1.2,0c.62-.05,1.38-.07,2.19-.09l1.53-.05,2.11-.06,2.12-.06c26.68-.37,52.72-1.43,77.41-3.13a1274.16,1274.16,0,0,0,153.9-20,1118.4,1118.4,0,0,0,150.16-40,992.76,992.76,0,0,0,142.73-61.82c3.77-2,7.52-4.08,11.15-6.07l5.81-3.19c2.15-1.15,4.2-2.34,6.19-3.49l2.4-1.39,0,0,8.32-4.81,4.1-2.37,3.84-2.15,3.91-2.21c.57-.31,1.25-.65,2-1l1.57-.79,1.74-.87c1.94-1,3.77-1.91,5.52-2.64l.12-.05c.93-.4,1.86-.82,2.79-1.24,1.7-.76,3.29-1.48,4.77-2l.41-.15a193.39,193.39,0,0,1,66.08-13.6c2.46-.08,4.94-.13,7.39-.13a264.26,264.26,0,0,1,61.82,7.82,381.61,381.61,0,0,1,67.64,23.79,539.79,539.79,0,0,1,64,35,682.5,682.5,0,0,1,59.84,43A753.61,753.61,0,0,1,103.7-956.81c8.1,9.71,15.75,19.47,22.73,29,7.54,10.29,14.39,20.47,20.34,30.27,1.51,2.51,3.12,5.08,4.69,7.56l.45.72.05.07c.58.91,1.16,1.83,1.73,2.75,1.14,1.83,2.32,3.72,3.61,5.62l.14.21,5.57,7.87,1.39,2,.71,1c.12.16.24.33.37.48l.75.95,3,3.78,3,3.78.15.19c1,1.26,2.1,2.67,3.4,4.09l6.21,7c1.28,1.5,2.58,2.82,3.74,4l.1.11,3.34,3.4,3.37,3.44.06.06c.94.94,1.86,1.78,2.68,2.52l1.1,1a262.92,262.92,0,0,0,31.18,25.18,302.75,302.75,0,0,0,34,20.54c5,2.68,10,5.08,14.87,7.4l2.72,1.3.3.14,8.67,3.85c2.07.93,4.09,1.75,6.05,2.55,1,.41,2,.82,3,1.24l.14.06c11.76,4.78,24,9.3,36.41,13.44,14.88,5,30.07,9.62,44.77,14.08,9.15,2.78,18.61,5.66,27.85,8.59,14.3,4.54,25.13,8.29,35.09,12.16a258,258,0,0,1,32.87,15.17,11.82,11.82,0,0,0,5.77,1.51,11.81,11.81,0,0,0,10.25-5.92,11.81,11.81,0,0,0-4.21-16.07,281.28,281.28,0,0,0-35.53-17.47c-10.37-4.31-21.55-8.48-36.26-13.55-9.33-3.2-18.8-6.32-28-9.35-14.4-4.75-29.29-9.66-43.68-14.89-11.76-4.24-23.33-8.82-34.41-13.64L305.14-800c-1.81-.79-3.51-1.54-5.14-2.32l-.07,0-8.38-4-2.61-1.33c-4.68-2.37-9.11-4.6-13.4-7.06l-.12-.06a274.38,274.38,0,0,1-30.36-19.33,233.89,233.89,0,0,1-27.21-23l-.09-.09-1.32-1.27c-.63-.6-1.22-1.17-1.71-1.68l-3.15-3.37-3.2-3.41-.14-.16c-.9-.95-1.74-1.84-2.39-2.65-.06-.07-.11-.14-.17-.2l-6-7.14a1.63,1.63,0,0,0-.17-.2c-.65-.74-1.36-1.69-2.11-2.7l-.18-.24L194.38-884l-2.81-3.73-.52-.68-.48-.71L189.28-891l-5.12-7.62c-.94-1.47-1.86-3-2.83-4.67-.59-1-1.17-2-1.77-3l-.54-.91c-1.41-2.35-2.74-4.57-4.08-6.93l0-.06c-6.28-10.92-13.21-21.77-21.17-33.18-7.14-10.26-15-20.78-23.31-31.25a790.07,790.07,0,0,0-108.29-111,725.35,725.35,0,0,0-62.22-47,583.16,583.16,0,0,0-68.08-39.34,424.67,424.67,0,0,0-74.66-28.22c-26.93-7.2-53.28-10.85-78.33-10.85h-2.59a239.25,239.25,0,0,0-81.94,14.89c-2.54.87-4.86,1.84-7.1,2.78-.88.37-1.75.74-2.64,1.1-2.83,1.12-5.45,2.36-8,3.56l-1.75.83-.13.06-1.45.68c-1,.48-2.21,1-3.4,1.66l-.06,0-4.42,2.35-4.43,2.36-.1.05-4.12,2.25-8.17,4.46h0l-2.52,1.38c-1.87,1-3.65,2-5.41,2.89l-.09.05c-2,1-4,2.08-6,3.12-3.46,1.79-7,3.64-10.54,5.42a942.19,942.19,0,0,1-136.75,55.38A1064,1064,0,0,1-696.46-1075a1219.39,1219.39,0,0,1-147.26,15.54c-19.11.86-39.12,1.3-59.47,1.3-4.82,0-9.76,0-14.66-.07h-2.69l-2.59,0h-1.59c-1.23,0-2.63,0-4.08.09l-1.17.05c-3,.12-6.21.24-9.42.51-6.77.45-13.28,1.24-21,2.3l-.14,0a382.27,382.27,0,0,0-40.48,8.39c-23.38,6.12-47.44,14.33-75.74,25.84-21.75,8.87-44.34,19.07-71.11,32.1-22.79,11.09-45.36,22.67-68.41,34.54l-6.56,3.38c-19.83,10.21-40.33,20.78-60.38,30.51-11.88,5.77-22.68,10.76-33,15.23-12.6,5.42-22.81,9.33-32.1,12.29-5.56,1.76-10.46,3.1-15,4.08a71.75,71.75,0,0,1-12.3,1.74l-8.7.12c-3.29,0-6.32.17-9.25.34l-1.7.09c-3.34.15-6.5.43-9.54.7l-1.14.1-5.07.45-.29,0-5,.57c-12.44,1.4-25.44,3.29-39.73,5.8-3.76.63-6.86,1.18-9.77,1.74l-9.5,1.77-.15,0-5.05,1c-4.59.9-9.34,1.84-14,2.84-22.75,4.73-46.7,10.26-75.39,17.41-23.93,6-48.93,12.6-74.31,19.64-12.49,3.46-24.91,7-36.92,10.45l-.13,0c-.14,0-14.26,4.29-25.83,7.82a11.3,11.3,0,0,1-3.26.49,11.41,11.41,0,0,1-9.06-4.56c-8.89-11.87-18-24.66-27.15-38-18.15-26.52-36.42-55.31-57.5-90.6-4.22-7.06-8.72-14.68-13.78-23.29l-3.44-5.87,0-.07-3.63-6.08a1,1,0,0,0-.08-.14l-3.69-6-.08-.12-3.72-5.9,0-.06c-9.2-14.38-18.71-28.5-27.9-42.14l-2.63-3.91c-20.47-30.31-40.42-60-59.59-90.41-21-33.27-38.72-63.5-54.16-92.43-18.21-34.17-32.8-65.58-44.6-96-13.84-35.79-23.12-68.41-28.37-99.74a1.85,1.85,0,0,0,0-.23c-.34-1.8-.6-3.68-.88-5.68l0-.29-.93-6.48c-.34-2.59-.62-5.18-.92-7.92q-.24-2.31-.51-4.62c-.1-1.44-.21-2.87-.32-4.3-.22-2.84-.43-5.53-.57-8.22l-.25-6.44-.13-3.21h0c0-.47,0-1,0-1.64,0-.44,0-.87,0-1.31a251.93,251.93,0,0,1,4.26-49.36,202.11,202.11,0,0,1,40.11-87.58c1.94-2.36,4-4.77,6-7.1l2-2.39c1.11-1.17,2.21-2.35,3.32-3.53,1.71-1.84,3.48-3.73,5.22-5.54a219.43,219.43,0,0,1,18.28-16.3,401.42,401.42,0,0,1,42.34-29.31c13.91-8.5,29-16.88,46.15-25.63,14.35-7.34,30.11-14.83,48.19-22.89,30.64-13.63,63.3-26.65,99.81-39.8,32.52-11.69,67-23.06,102.56-33.78,66.17-20,136.73-38.12,209.71-54,70.06-15.19,141.86-28.16,213.4-38.55,72.43-10.5,145-18.44,215.63-23.58,65.33-4.75,129.72-7.16,191.38-7.16,8.41,0,16.93,0,25.31.14,76.79.84,147.47,5.2,216.09,13.35,17.38,2.06,35.41,4.51,53.6,7.27,17.72,2.68,35.64,5.74,53.26,9.1,18.14,3.45,35.93,7.18,52.87,11.1,17.78,4.14,35.37,8.64,52.26,13.37a998.49,998.49,0,0,1,102.08,34.31,788.59,788.59,0,0,1,96.89,46.27,11.77,11.77,0,0,0,5.83,1.55,11.84,11.84,0,0,0,10.26-5.92,11.83,11.83,0,0,0-4.28-16.11,814.47,814.47,0,0,0-99.28-49,1025.54,1025.54,0,0,0-104.25-36.49c-17.19-5-35.11-9.86-53.24-14.32-17.26-4.22-35.35-8.25-53.79-12-17.92-3.65-36.15-7-54.18-10-18.45-3-36.77-5.75-54.42-8.07-69.58-9.14-141.27-14.46-219.17-16.28-18.6-.43-37.61-.64-56.5-.64Z" style="fill: #8e1922"/>
      </g>
    </g>
    <g>
      <g style="clip-path: url(#clip-path-2)">
        <rect x="37.45" y="16.79" width="338.85" height="338.85" style="fill: #e64c3c"/>
        <path d="M326.74.38a1.89,1.89,0,0,1,1.55.64,3.54,3.54,0,0,1,.79,1.54c.15.56.24,1.12.41,1.66a6.35,6.35,0,0,0,.67,1.53h0a.16.16,0,0,1,0,.22.15.15,0,0,1-.22,0h0a6.34,6.34,0,0,1-.64-1.64c-.16-.56-.22-1.13-.34-1.68a3.55,3.55,0,0,0-.69-1.53A1.83,1.83,0,0,0,326.74.38Z" style="fill: #be202e"/>
        <path d="M322.65,1.57a9.86,9.86,0,0,0-2.12,4.28.08.08,0,0,1-.15,0h0a12.91,12.91,0,0,1,.88-2.26A7.61,7.61,0,0,1,322.65,1.57Z" style="fill: #be202e"/>
        <path d="M376.29,23.31c-54.21,7.42-105.85,20.53-148.48,56.83-60.06,51.14-85.38,135.89-138,195.68-15.82,18-34,33.66-52.37,49.15v30.66H376.29Z" style="fill: #d33f33"/>
        <g>
          <path d="M310.89,359.68a4,4,0,0,1-4-4.19c0-.58,0-1.15,0-1.71a33.5,33.5,0,0,0-.61-5.92,21.81,21.81,0,0,0-1.61-4.95,17.73,17.73,0,0,0-2.45-4,19.36,19.36,0,0,0-3.53-3.25,29.38,29.38,0,0,0-10.55-4.41L286.4,331l-.8-.16-2.68-.37-.94-.08-.81-.06-.71-.06c-.33,0-.65-.06-1-.07l-6.84-.21a111.63,111.63,0,0,1-21.89-3.07,133.88,133.88,0,0,1-20.37-6.76,179.73,179.73,0,0,1-35.71-20.55,278.65,278.65,0,0,1-30.25-25.77c-8.66-8.42-17.32-17.75-26.48-28.53a666.39,666.39,0,0,1-45.71-61.42C79.61,164.93,67,144.47,52.46,119.47c-2.89-5-6-10.3-9.37-16.29l-2.32-4.07-2.23-3.86-2.3-3.83L34,87.78a4.1,4.1,0,0,1-.6-2.12V44.5a4,4,0,0,1,7.41-2.26l.07.11c6.29,9.34,12.8,19,19.09,28.83l2.56,4.06,2.55,4.14,2.51,4.21,2.37,4c3.48,5.92,6.57,11.15,9.46,16,14.47,24.24,27,44,39.49,62.24,6.28,9.18,12.57,18,18.69,26.15a11.75,11.75,0,0,0,12.86,4.24c8-2.45,17.67-5.36,17.67-5.36,8.27-2.39,16.76-4.79,25.27-7.15,17.34-4.81,34.42-9.32,50.78-13.42,19.6-4.89,35.95-8.66,51.47-11.88,3.15-.68,6.39-1.32,9.52-1.93l3.5-.7,6.59-1.23c1.92-.36,4-.74,6.63-1.18,9.67-1.69,18.49-3,26.94-3.93l3.4-.39,4.31-.38c2.06-.19,4.2-.38,6.42-.47l1.19-.07c2-.11,4-.23,6.15-.23l6-.07a4,4,0,0,1,4,4v34a4.05,4.05,0,0,1-3.89,4.05l-5,.19c-1.43,0-2.88.14-4.41.27l-1.22.1-1.08.08c-.54,0-1.09.08-1.66.15l-6,.67-3,.42c-7.57,1-15.53,2.39-24.33,4.15-2.42.47-4.36.86-6.13,1.25l-6.22,1.31-3.41.76c-2.92.65-5.93,1.32-8.89,2-14.89,3.47-30.6,7.49-49.47,12.68-15.88,4.38-32.47,9.19-49.32,14.3-2.38.72-6.45,2-11,3.41a11.74,11.74,0,0,0-4.44,19.86c11,10,19.58,17.43,23.68,20.33a147.18,147.18,0,0,0,29.07,16.33A85.62,85.62,0,0,0,273.79,295l7.11.13c.69,0,1.36.07,2,.11l1.83.13c.66,0,1.32.09,2,.16l2.81.34,1.4.18.19,0,1.4.25,2.95.53,2.13.5,2.19.54c.42.11.79.22,1.17.34l3.3,1,.23.09,2.91,1.11a57.47,57.47,0,0,1,11.69,6.28A55.18,55.18,0,0,1,329.36,316a53.69,53.69,0,0,1,7.57,11.7,57.89,57.89,0,0,1,4.35,12.73,70.28,70.28,0,0,1,1.5,12.6c0,.9,0,1.78,0,2.66a4,4,0,0,1-4,4Z" style="fill: #be202e"/>
          <path d="M37.45,44.5c6.4,9.5,12.82,19,19.11,28.86l2.55,4,2.53,4.1,2.48,4.16,2.35,4q4.73,8,9.47,16c12.69,21.25,25.76,42.17,39.63,62.45q9.15,13.35,18.79,26.29a15.84,15.84,0,0,0,17.28,5.68c8-2.44,17.65-5.35,17.65-5.35q12.59-3.65,25.19-7.13,25.23-7,50.68-13.39c17-4.24,34-8.27,51.31-11.85,4.3-.92,8.66-1.75,13-2.62l6.54-1.22q3.25-.61,6.56-1.17c8.77-1.53,17.64-2.88,26.72-3.9l3.4-.39,3.47-.31c2.3-.2,4.6-.42,7-.52s4.69-.29,7.16-.29h0l6-.08v34l-5,.2c-1.85,0-3.83.22-5.78.37-1,.09-1.94.13-2.95.25l-3,.34-3,.34-3,.42c-8.1,1.11-16.32,2.55-24.57,4.2q-3.09.58-6.19,1.25l-6.19,1.31c-4.14.93-8.27,1.82-12.41,2.81-16.54,3.85-33.09,8.17-49.6,12.71s-33,9.34-49.42,14.32c-2.39.73-6.47,2-11.07,3.43a15.78,15.78,0,0,0-6,26.71c9.25,8.46,19.19,17.19,24.07,20.64A150.05,150.05,0,0,0,242.07,292,89.82,89.82,0,0,0,273.69,299l4.44.07,2.69.06c.91,0,1.82.11,2.73.16s1.82.11,2.74.21l2.77.34,1.38.17,1.4.25,2.79.51c.93.2,1.87.44,2.81.66l1.4.35c.47.12.94.28,1.41.42l2.82.88,2.8,1.08A54.17,54.17,0,0,1,316.76,310a50.94,50.94,0,0,1,9.53,8.59,49.7,49.7,0,0,1,7,10.81,53.55,53.55,0,0,1,4,11.83,65.81,65.81,0,0,1,1.42,11.87c0,.84,0,1.67,0,2.49H310.89c0-.64,0-1.28,0-1.9a38.41,38.41,0,0,0-.69-6.66,26.38,26.38,0,0,0-1.89-5.83,21.89,21.89,0,0,0-3-4.88,24.21,24.21,0,0,0-4.25-3.93A33.52,33.52,0,0,0,289,327.34l-1.8-.35-.9-.18-.93-.12-1.87-.25c-.62-.09-1.27-.11-1.91-.17s-1.28-.12-1.93-.15l-2-.06-4.9-.14a108.41,108.41,0,0,1-21.05-3A128.1,128.1,0,0,1,232,316.4,176.45,176.45,0,0,1,197,296.3a273.4,273.4,0,0,1-29.81-25.4c-9.28-9-17.94-18.5-26.22-28.24a660.2,660.2,0,0,1-45.42-61c-14-21-27-42.51-39.63-64.18q-4.71-8.11-9.35-16.26l-2.32-4.07L42,93.22l-2.32-3.88-2.27-3.68V44.5m0-8.1a8,8,0,0,0-2.36.36,8.09,8.09,0,0,0-5.73,7.74V85.66a8.09,8.09,0,0,0,1.19,4.23l2.24,3.65,2.28,3.79,2.2,3.81,2.31,4c3.44,6,6.51,11.37,9.38,16.32,14.55,25.06,27.23,45.59,39.89,64.59a666.72,666.72,0,0,0,46,61.79c9.25,10.89,18,20.31,26.75,28.82a279.6,279.6,0,0,0,30.7,26.14,183.14,183.14,0,0,0,36.51,21,137.08,137.08,0,0,0,21,7A116.37,116.37,0,0,0,272.43,334h.08l4.9.14,1.93.06c.26,0,.51,0,.76.06l.79.07.8.06.73.06,1.81.25.71.09.64.13h.06l1.65.32a25.45,25.45,0,0,1,9,3.73,15.89,15.89,0,0,1,2.81,2.59,13.81,13.81,0,0,1,1.86,3,18,18,0,0,1,1.31,4,30.33,30.33,0,0,1,.54,5.24c0,.44,0,.92,0,1.47a8.1,8.1,0,0,0,8.08,8.39h27.86a8.09,8.09,0,0,0,8.09-8c0-.76,0-1.75,0-2.8a74.89,74.89,0,0,0-1.59-13.37,62.49,62.49,0,0,0-4.65-13.6,57.81,57.81,0,0,0-8.16-12.6,59.67,59.67,0,0,0-11-9.94,61.61,61.61,0,0,0-12.47-6.7l-.19-.08L306,295.57l-.47-.17-2.82-.88-.1,0-.38-.12c-.44-.14-.88-.27-1.31-.38l-.1,0-1.4-.34-.05,0-.75-.18c-.75-.18-1.49-.36-2.24-.52l-.26,0-2.8-.51-1.43-.26-.4-.06-1.38-.17-2.8-.34h-.08c-.8-.09-1.54-.14-2.2-.18l-.81-.06H284l-.82-.05c-.65-.05-1.39-.1-2.17-.12H281l-2.69-.06-4.43-.07a81.84,81.84,0,0,1-28.73-6.46,142.64,142.64,0,0,1-28.26-15.88c-3.92-2.77-12.62-10.25-23.28-20a7.7,7.7,0,0,1,2.91-13c5.18-1.61,8.88-2.76,11-3.4,16.82-5.1,33.38-9.9,49.22-14.27,18.82-5.17,34.48-9.18,49.29-12.63,3-.71,6-1.37,8.87-2l3.42-.76,6.15-1.3c1.8-.39,3.71-.78,6-1.23h.06c8.73-1.74,16.61-3.09,24.08-4.11l2.95-.41,2.89-.33,3-.33.12,0c.42,0,.89-.09,1.44-.12l1.16-.1,1.17-.09c1.47-.12,2.86-.23,4.07-.25h.17l5-.19a8.1,8.1,0,0,0,7.78-8.09v-34a8.09,8.09,0,0,0-8.1-8.09h-.1l-5.92.08c-2.27,0-4.34.12-6.35.23l-1.18.07c-2.29.1-4.45.29-6.54.47l-.77.07L352,145l-.2,0-3.4.39c-8.51,1-17.4,2.25-27.18,4-2.58.43-4.72.81-6.71,1.19L308,151.81l-.09,0-3.46.68c-3.16.62-6.42,1.27-9.64,2-15.54,3.23-31.94,7-51.58,11.91-16.39,4.11-33.5,8.63-50.88,13.45-8.54,2.37-17,4.77-25.28,7.15l-.08,0s-9.67,2.91-17.68,5.35a7.42,7.42,0,0,1-2.24.34,7.81,7.81,0,0,1-6.2-3.12c-6.08-8.13-12.34-16.88-18.59-26-12.42-18.16-24.93-37.87-39.36-62-2.88-4.83-6-10-9.44-16l-2.35-4,0,0-2.48-4.16-.06-.11L66,73.15l0-.07L63.4,69C57.08,59.15,50.58,49.5,44.29,40.16L44.16,40a8.1,8.1,0,0,0-6.71-3.57Z" style="fill: #8e1922"/>
        </g>
        <g>
          <path d="M215.56,178c-35.84,8.95-7-23.49,2.93-31.87s14.9-16.41,14.9-33.79c0-20.13-16.87-36.45-37.68-36.45S158,92.17,158,112.3c0,9.68,10.27,25,10.27,25,8.52,14.76,11.09,50.66,0,53.33" style="fill: url(#linear-gradient-2)"/>
          <path d="M216.34,181.1a52.73,52.73,0,0,1-9.74,1.22,18.36,18.36,0,0,1-5.41-.6,9.2,9.2,0,0,1-2.94-1.44,6.65,6.65,0,0,1-2.21-3,7.87,7.87,0,0,1-.39-3.32,13,13,0,0,1,.59-2.78,23.71,23.71,0,0,1,2.1-4.64,59.27,59.27,0,0,1,5.53-7.82A104.78,104.78,0,0,1,217,145.31c4.78-3.78,9-8,11.62-13.41s3.57-11.41,3.76-17.47a37.91,37.91,0,0,0-.55-9A35,35,0,0,0,217.4,83.28a37.66,37.66,0,0,0-49.59,5.44,34.92,34.92,0,0,0-8.15,15.93c-.18.73-.27,1.48-.41,2.22s-.21,1.49-.25,2.24-.12,1.5-.11,2.25a14.69,14.69,0,0,0,.06,2.21,30.91,30.91,0,0,0,2.43,8.6,76.13,76.13,0,0,0,4.05,8.14c.75,1.33,1.53,2.63,2.34,3.92.4.64.82,1.28,1.24,1.91.2.28.45.68.65,1l.59,1.06a66.31,66.31,0,0,1,5.83,17.9,84.18,84.18,0,0,1,1.66,18.8,38.9,38.9,0,0,1-1.38,9.72,17,17,0,0,1-2.22,4.94,10.5,10.5,0,0,1-2.11,2.29,8.53,8.53,0,0,1-3.06,1.56l-1.36-5.64a3.59,3.59,0,0,0,2.17-1.42,12.21,12.21,0,0,0,1.81-3.31,34.86,34.86,0,0,0,1.76-8.42,77.29,77.29,0,0,0-.56-18A63.56,63.56,0,0,0,168,139.38c-.16-.33-.33-.68-.49-1a7.63,7.63,0,0,0-.54-.93c-.42-.67-.82-1.34-1.21-2q-1.19-2-2.27-4.07a77.66,77.66,0,0,1-3.9-8.5,33.83,33.83,0,0,1-2.31-9.17,17.56,17.56,0,0,1,0-2.4c0-.79.09-1.57.16-2.36s.2-1.56.3-2.34.28-1.54.48-2.3a36.6,36.6,0,0,1,8.74-16.42,38.42,38.42,0,0,1,15.44-10.29,40.26,40.26,0,0,1,18.44-2,38.51,38.51,0,0,1,29.6,20.61,36.64,36.64,0,0,1,3.13,8.88,39.48,39.48,0,0,1,.78,9.37,65.5,65.5,0,0,1-.77,9.35,37.32,37.32,0,0,1-2.68,9.11,33.62,33.62,0,0,1-5.13,8.06,64.51,64.51,0,0,1-6.67,6.66,99,99,0,0,0-12,13.49,55.43,55.43,0,0,0-4.7,7.51,20.28,20.28,0,0,0-1.5,3.84,4.66,4.66,0,0,0,0,3,1.43,1.43,0,0,0,.57.6,3.84,3.84,0,0,0,1.23.45,13.11,13.11,0,0,0,3.75.11,47.06,47.06,0,0,0,8.44-1.81Z" style="fill: url(#linear-gradient-3)"/>
        </g>
        <path d="M174.78,188.62s-3.05,6-11.93,8.7,67.46-18.76,55.73-16.24-13.09,2-17.34.64" style="fill: #be202e"/>
        <rect x="37.48" y="292.45" width="338.78" height="63.58" style="fill: #c7ccd1;opacity: 0.4"/>
        <text transform="translate(50.39 339.24)" style="font-size: 36px;font-family: Roboto-Regular, Roboto">Coil</text>
      </g>
      <rect x="37.45" y="16.79" width="338.85" height="338.85" style="fill: none;stroke: #ffe100;stroke-miterlimit: 10;stroke-width: 6.846170425415039px"/>
      <path d="M181.85,156a6.93,6.93,0,0,0,5,8.5c4.54,1.34,8.79-2,10.93-5.79C205,146,194.4,132.6,187.17,122.9c-2.54-3.42-5-7.07-5.61-11.37-.73-5.21,2-11.84,8.22-11,4.25.54,5.89,4.81,3.94,8.58a13.88,13.88,0,0,1-4.92,4.83c-2.7,1.77-5.75,3.06-8.18,5.22-9.1,8.1-1.37,18.38,9.34,16.76s20.78-10,24.6-20.21c3-7.92,2.4-22.94-8.89-23.59-3.6-.21-7.59,1.48-9,5-1.84,4.58,1.57,8.91,4.82,11.73C204,111,207,112.72,209,115.49c5.41,7.42-3,11.82-9.58,11.9-8.43.09-19-1.09-25.14-7.43-8.88-9.1-2.47-19.95,7-25.12,8.21-4.51,18.73-5.3,27.16-.94,16.9,8.75,19.37,33.66,1.27,42.64-1.19.59-.15,2.36,1,1.77A25.19,25.19,0,0,0,224,110.53c-2.52-11.11-12.39-19.66-23.55-21.26C189,87.62,173.88,93,169,104.36c-5.3,12.36,7.11,21.8,17.9,23.89,7.24,1.41,29,3.66,25.84-10-1.41-6.1-8.2-8.65-12-12.93-4-4.6-2.4-11.22,4.32-11.16,5.45.05,8.33,5.38,8.93,10.16,1,8.08-3,16.08-8.75,21.53-5.24,5-16.36,11.47-23.5,6.91-12.16-7.75,7.76-15.62,11.86-20.09,2.71-3,4.43-7.69,1.86-11.28s-8.18-3.85-11.65-1.54c-4.53,3-5.26,9.34-3.92,14.19,2.23,8,9.24,13.94,13.4,21,2.76,4.67,4.74,9.9,4.54,15.41a15.65,15.65,0,0,1-2.67,8.39,7.68,7.68,0,0,1-3.91,3.33c-3.2,1-8.76-.61-7.47-5.55a1,1,0,0,0-2-.55Z" style="fill: #ebeff2"/>
      <path d="M202.73,137.31c-.23,4.39-1.11,9.32-4.54,12.43-5.19,4.69-12.71,2.07-13.64-4.81-1.11-8.29,6.49-13.91,9.9-20.59,4-7.91-.79-18.85-10.86-17-3,.57-5.51,2.64-8.52,3.15-5.6.95-11-4.09-9.33-9.87s7.86-6.76,12.89-5.08c4,1.32,7.39,3.91,11,5.85,8.33,4.43,22,6.48,26.07-4.86,3.49-9.8-8.55-15.8-16.62-15.87-9.84-.09-13.15,9.39-7.18,16.59,8.54,10.31,26.78,6,33.9,17.9,2.17,3.63,2.66,9.22-.77,12.28s-8.41,2.48-12.49,1.91c-7.29-1-14.55-2.87-22-2.61-5,.17-13.63,1.26-16.86,5.77-2.14,3,.7,5,3.49,5.4,11.23,1.62,21.31-8.55,22.44-19.08.14-1.32-1.91-1.31-2.05,0a19.45,19.45,0,0,1-12.72,16c-2,.73-9.65,3-7.46-2.63,1-2.7,10.95-3.38,13.16-3.46,7.37-.27,14.55,1.63,21.8,2.61,4.23.57,9.08,1,12.82-1.52,7.13-4.75,4.58-14.88-1-19.68-9-7.75-26-5.15-32.1-16.27-2.85-5.16-.56-10.61,5.64-11.17A18.71,18.71,0,0,1,205.59,84c4.53,1.61,9.66,5.1,8.55,10.74-.94,4.81-5.91,8-10.49,8.39-11.86,1-22.65-14.87-34.34-9.61A10.13,10.13,0,0,0,167.78,111c3.48,2.35,7,2.06,10.76.61s6.92-3.47,11-1.29c5.77,3.11,5.3,9.39,2.39,14.34-4.35,7.4-16.24,20.27-5.24,28.09,3.55,2.53,8.3,1.84,11.72-.56,4.8-3.38,6.09-9.36,6.38-14.87.07-1.32-2-1.31-2.05,0Z" style="fill: #c7ccd1"/>
    </g>
    <g>
      <g style="clip-path: url(#clip-path-3)">
        <rect x="452.54" y="16.79" width="338.85" height="338.85" style="fill: #e64c3c"/>
        <path d="M741.83.38a1.89,1.89,0,0,1,1.55.64,3.52,3.52,0,0,1,.78,1.54c.16.56.24,1.12.42,1.66a6.35,6.35,0,0,0,.67,1.53h0a.15.15,0,0,1,0,.22.14.14,0,0,1-.21,0h0a6.34,6.34,0,0,1-.64-1.64c-.16-.56-.22-1.13-.35-1.68a3.42,3.42,0,0,0-.68-1.53A1.84,1.84,0,0,0,741.83.38Z" style="fill: #be202e"/>
        <path d="M737.74,1.57a9.75,9.75,0,0,0-2.12,4.28.08.08,0,0,1-.15,0h0a12.17,12.17,0,0,1,.88-2.26A7.38,7.38,0,0,1,737.74,1.57Z" style="fill: #be202e"/>
        <path d="M791.38,23.31c-54.21,7.42-105.86,20.53-148.49,56.83-60.06,51.14-85.38,135.89-138,195.68-15.82,18-34.05,33.66-52.37,49.15v30.66H791.38Z" style="fill: #d33f33"/>
        <g>
          <path d="M726,359.68a4,4,0,0,1-4-4.19c0-.58,0-1.15,0-1.71a34.47,34.47,0,0,0-.61-5.92,21.81,21.81,0,0,0-1.61-4.95,17.73,17.73,0,0,0-2.45-4,19.36,19.36,0,0,0-3.53-3.25,29.2,29.2,0,0,0-10.55-4.41l-1.72-.33-.8-.16-2.69-.37-.93-.08-.81-.06-.71-.06c-.33,0-.66-.06-1-.07l-6.84-.21a111.63,111.63,0,0,1-21.89-3.07,133.51,133.51,0,0,1-20.37-6.76,179.73,179.73,0,0,1-35.71-20.55,277.71,277.71,0,0,1-30.25-25.77c-8.66-8.42-17.32-17.75-26.48-28.53a662.77,662.77,0,0,1-45.71-61.42c-12.61-18.93-25.25-39.39-39.76-64.39-2.85-4.91-5.92-10.24-9.37-16.29l-2.32-4.07-2.24-3.86-2.29-3.83-2.24-3.65a4,4,0,0,1-.6-2.11V44.5a4,4,0,0,1,2.87-3.87,4,4,0,0,1,1.18-.18,4,4,0,0,1,3.35,1.79l.16.23c6.27,9.31,12.75,18.92,19,28.71l2.56,4.06,2.55,4.14,2.51,4.21,2.37,4c3.46,5.89,6.55,11.11,9.45,16,14.47,24.23,27,44,39.5,62.24,6.28,9.18,12.57,18,18.69,26.15a11.85,11.85,0,0,0,9.44,4.75,12,12,0,0,0,3.42-.51c8-2.45,17.66-5.36,17.66-5.36,8.28-2.39,16.77-4.79,25.28-7.15,17.34-4.81,34.42-9.32,50.77-13.42,19.6-4.89,36-8.66,51.47-11.88,3.16-.68,6.4-1.32,9.53-1.93l3.49-.7,6.59-1.23c1.93-.36,4-.74,6.64-1.18,9.67-1.69,18.49-3,26.94-3.93l3.39-.39,4.32-.38c2.06-.19,4.2-.38,6.42-.47l1.19-.07c2-.11,4-.23,6.15-.23l6-.07a4,4,0,0,1,4,4v34a4.05,4.05,0,0,1-3.89,4.05l-5,.19c-1.42,0-2.87.14-4.4.27l-1.22.1-1.08.08c-.55,0-1.1.08-1.67.15l-6,.67-3,.42c-7.57,1-15.53,2.39-24.34,4.15-2.41.47-4.35.86-6.12,1.25l-6.22,1.31-3.42.76c-2.91.65-5.93,1.32-8.88,2-14.89,3.47-30.61,7.49-49.47,12.68-15.88,4.38-32.47,9.19-49.32,14.3-2.38.72-6.45,2-11,3.41a11.73,11.73,0,0,0-4.44,19.86c10.95,10,19.57,17.43,23.68,20.33a146.62,146.62,0,0,0,29.07,16.33A85.62,85.62,0,0,0,688.88,295l7.11.13c.69,0,1.35.07,2,.11l1.82.13c.67,0,1.33.09,2,.16l2.8.34,1.4.18.2,0,1.4.25,2.94.53c.71.16,1.43.33,2.14.51l2.19.53c.42.11.79.22,1.17.34l3.3,1,.23.09,2.9,1.11a57.2,57.2,0,0,1,11.69,6.28A55.56,55.56,0,0,1,744.45,316a53.29,53.29,0,0,1,7.56,11.7,57.92,57.92,0,0,1,4.36,12.73,70.17,70.17,0,0,1,1.5,12.6c0,.9,0,1.78,0,2.66a4,4,0,0,1-4,4Z" style="fill: #be202e"/>
          <path d="M452.54,44.5c6.4,9.5,12.82,19,19.11,28.86l2.55,4,2.52,4.1,2.48,4.16,2.36,4q4.71,8,9.47,16c12.69,21.25,25.76,42.17,39.63,62.45q9.15,13.35,18.79,26.29a15.84,15.84,0,0,0,17.28,5.68c8-2.44,17.65-5.35,17.65-5.35q12.58-3.65,25.19-7.13,25.23-7,50.68-13.39c17-4.24,34-8.27,51.31-11.85,4.3-.92,8.65-1.75,13-2.62l6.53-1.22q3.27-.61,6.57-1.17c8.77-1.53,17.64-2.88,26.72-3.9l3.4-.39,3.46-.31c2.31-.2,4.61-.42,7-.52s4.7-.29,7.17-.29h0l6-.08v34l-5,.2c-1.85,0-3.83.22-5.78.37-1,.09-1.94.13-3,.25l-3,.34-3,.34-3,.42c-8.1,1.11-16.32,2.55-24.57,4.2q-3.09.58-6.19,1.25l-6.19,1.31c-4.14.93-8.27,1.82-12.41,2.81-16.55,3.85-33.09,8.17-49.6,12.71s-33,9.34-49.42,14.32c-2.39.73-6.47,2-11.07,3.43a15.78,15.78,0,0,0-6,26.71c9.25,8.46,19.18,17.19,24.07,20.64A150.05,150.05,0,0,0,657.16,292,89.82,89.82,0,0,0,688.78,299l4.44.07,2.69.06c.9,0,1.82.11,2.73.16s1.82.11,2.74.21l2.76.34,1.39.17,1.39.25,2.8.51c.93.2,1.87.44,2.81.66l1.4.35c.47.12.94.28,1.41.42l2.81.88L721,304.2A54.17,54.17,0,0,1,731.85,310a51.25,51.25,0,0,1,9.53,8.59,49.7,49.7,0,0,1,7,10.81,54.08,54.08,0,0,1,4,11.83,65.79,65.79,0,0,1,1.41,11.87c0,.84,0,1.67,0,2.49H726c0-.64,0-1.28,0-1.9a38.41,38.41,0,0,0-.69-6.66,25.87,25.87,0,0,0-1.9-5.83,21.85,21.85,0,0,0-3-4.88,24.21,24.21,0,0,0-4.25-3.93,33.59,33.59,0,0,0-12.09-5.09l-1.8-.35-.9-.18-.93-.12-1.87-.25c-.62-.09-1.28-.11-1.91-.17s-1.28-.12-1.93-.15l-2-.06-4.9-.14a108.62,108.62,0,0,1-21.06-3A128.46,128.46,0,0,1,647,316.4a176.38,176.38,0,0,1-34.9-20.1,272.45,272.45,0,0,1-29.81-25.4c-9.28-9-17.94-18.5-26.22-28.24a660.2,660.2,0,0,1-45.42-61c-14-21-27.05-42.51-39.63-64.18q-4.71-8.11-9.35-16.26l-2.32-4.07-2.25-3.89-2.33-3.88-2.26-3.68V44.5m0-8.1a8.12,8.12,0,0,0-8.1,8.1V85.66a8.1,8.1,0,0,0,1.2,4.23l2.24,3.65,2.27,3.79,2.21,3.81,2.3,4c3.45,6,6.52,11.37,9.39,16.32,14.55,25.06,27.23,45.59,39.89,64.59a666.73,666.73,0,0,0,46,61.79c9.26,10.89,18,20.31,26.76,28.82a280.48,280.48,0,0,0,30.69,26.14,183.7,183.7,0,0,0,36.51,21,137.44,137.44,0,0,0,21,7A116.47,116.47,0,0,0,687.52,334h.08l4.89.14,1.94.06c.26,0,.51,0,.76.06l.79.07.8.06.72.06,1.82.25.71.09.64.13h.06l1.64.32a25.51,25.51,0,0,1,9,3.73,15.48,15.48,0,0,1,2.8,2.59,13.82,13.82,0,0,1,1.87,3,18,18,0,0,1,1.31,4,30.33,30.33,0,0,1,.54,5.24c0,.44,0,.92,0,1.47a8.11,8.11,0,0,0,8.09,8.39h27.85a8.1,8.1,0,0,0,8.1-8c0-.76,0-1.75,0-2.8a74,74,0,0,0-1.59-13.37,61.44,61.44,0,0,0-4.65-13.6,57.41,57.41,0,0,0-8.15-12.6,59.06,59.06,0,0,0-11-9.94,61.52,61.52,0,0,0-12.46-6.7l-.2-.08-2.8-1.07-.48-.17-2.81-.88-.11,0-.38-.12c-.43-.14-.87-.27-1.3-.38l-.1,0-1.4-.34-.05,0-.75-.18c-.75-.18-1.5-.36-2.24-.52l-.27,0-2.79-.51-1.43-.26-.4-.06-1.39-.17-2.8-.34h-.07c-.8-.09-1.54-.14-2.2-.18l-.82-.06h-.13l-.82-.05c-.65-.05-1.39-.1-2.17-.12h-.07l-2.7-.06L689,291a81.79,81.79,0,0,1-28.73-6.46A143,143,0,0,1,632,268.61c-3.91-2.77-12.61-10.25-23.28-20a7.7,7.7,0,0,1,2.91-13c5.19-1.61,8.89-2.76,11-3.4,16.82-5.1,33.39-9.9,49.23-14.27,18.82-5.17,34.48-9.18,49.28-12.63,3-.71,6-1.37,8.88-2l3.41-.76,6.15-1.3c1.81-.39,3.72-.78,6.05-1.23h.06c8.73-1.74,16.61-3.09,24.07-4.11l2.95-.41,2.9-.33,3-.33.11,0c.43,0,.9-.09,1.45-.12l1.16-.1,1.17-.09c1.47-.12,2.85-.23,4.06-.25h.18l5-.19a8.1,8.1,0,0,0,7.78-8.09v-34a8.09,8.09,0,0,0-8.1-8.09h-.1l-5.93.08c-2.26,0-4.34.12-6.34.23l-1.18.07c-2.29.1-4.45.29-6.54.47l-.77.07-3.47.31-.2,0-3.4.39c-8.5,1-17.39,2.25-27.17,4-2.59.43-4.72.81-6.71,1.19l-6.51,1.22-.1,0-3.46.68c-3.15.62-6.42,1.27-9.63,2-15.54,3.23-31.94,7-51.58,11.91-16.39,4.11-33.51,8.63-50.88,13.45-8.54,2.37-17,4.77-25.28,7.15l-.08,0s-9.68,2.91-17.68,5.35a7.42,7.42,0,0,1-2.24.34,7.8,7.8,0,0,1-6.2-3.12c-6.09-8.13-12.34-16.88-18.59-26-12.42-18.16-24.93-37.87-39.36-62-2.89-4.84-6-10-9.44-16l-2.35-4,0,0-2.48-4.16-.06-.11-2.53-4.1,0-.07-2.55-4c-6.32-9.89-12.83-19.54-19.12-28.88l-.12-.19a8.1,8.1,0,0,0-6.71-3.57Z" style="fill: #8e1922"/>
        </g>
        <g>
          <path d="M630.64,178c-35.83,8.95-7-23.49,2.94-31.87s14.9-16.41,14.9-33.79c0-20.13-16.87-36.45-37.68-36.45s-37.68,16.32-37.68,36.45c0,9.68,10.26,25,10.26,25,8.53,14.76,11.09,50.66,0,53.33" style="fill: url(#linear-gradient-4)"/>
          <path d="M631.43,181.1a52.73,52.73,0,0,1-9.74,1.22,18.29,18.29,0,0,1-5.41-.6,9.1,9.1,0,0,1-2.94-1.44,6.65,6.65,0,0,1-2.21-3,7.87,7.87,0,0,1-.39-3.32,13.67,13.67,0,0,1,.58-2.78,24.33,24.33,0,0,1,2.11-4.64,58.35,58.35,0,0,1,5.53-7.82,104.78,104.78,0,0,1,13.15-13.41c4.78-3.78,9-8,11.62-13.41s3.56-11.41,3.76-17.47a37.4,37.4,0,0,0-.56-9,35.21,35.21,0,0,0-2.81-8.54,35.8,35.8,0,0,0-11.63-13.63,37.65,37.65,0,0,0-49.59,5.44,34.92,34.92,0,0,0-8.15,15.93c-.18.73-.28,1.48-.42,2.22s-.2,1.49-.25,2.24-.11,1.5-.11,2.25a16.14,16.14,0,0,0,.06,2.21,31.28,31.28,0,0,0,2.44,8.6,74.29,74.29,0,0,0,4,8.14c.75,1.33,1.53,2.63,2.34,3.92.4.64.81,1.28,1.23,1.91a10.8,10.8,0,0,1,.66,1c.21.37.39.71.58,1.06a66,66,0,0,1,5.84,17.9,84.18,84.18,0,0,1,1.66,18.8,39.85,39.85,0,0,1-1.38,9.72,17.25,17.25,0,0,1-2.22,4.94,10.5,10.5,0,0,1-2.11,2.29,8.61,8.61,0,0,1-3.06,1.56l-1.36-5.64a3.54,3.54,0,0,0,2.16-1.42,11.7,11.7,0,0,0,1.81-3.31,34.4,34.4,0,0,0,1.77-8.42,78.41,78.41,0,0,0-.56-18,63.92,63.92,0,0,0-4.81-17.31c-.16-.33-.33-.68-.49-1a9.21,9.21,0,0,0-.54-.93c-.42-.67-.82-1.34-1.21-2q-1.19-2-2.27-4.07a79.65,79.65,0,0,1-3.91-8.5,34.19,34.19,0,0,1-2.3-9.17,17.56,17.56,0,0,1,0-2.4c0-.79.09-1.57.16-2.36s.2-1.56.3-2.34.27-1.54.47-2.3A36.61,36.61,0,0,1,582,87.9a38.29,38.29,0,0,1,15.44-10.29,40.26,40.26,0,0,1,18.44-2,38.83,38.83,0,0,1,17.34,6.61,38.44,38.44,0,0,1,12.25,14,36.67,36.67,0,0,1,3.14,8.88,39.48,39.48,0,0,1,.78,9.37,65.5,65.5,0,0,1-.77,9.35,38.22,38.22,0,0,1-2.68,9.11,33.62,33.62,0,0,1-5.13,8.06,65.51,65.51,0,0,1-6.67,6.66,98.28,98.28,0,0,0-12,13.49,53.52,53.52,0,0,0-4.7,7.51,19.63,19.63,0,0,0-1.5,3.84,4.75,4.75,0,0,0,0,3,1.43,1.43,0,0,0,.57.6,3.9,3.9,0,0,0,1.24.45,13.09,13.09,0,0,0,3.75.11,47.06,47.06,0,0,0,8.44-1.81Z" style="fill: url(#linear-gradient-5)"/>
        </g>
        <path d="M589.87,188.62s-3,6-11.94,8.7,67.47-18.76,55.74-16.24-13.09,2-17.34.64" style="fill: #be202e"/>
        <g>
          <path d="M626.37,164.07a1.67,1.67,0,0,0-2.12-1l-4.57,1.62a43.2,43.2,0,0,0-2.28,4c-.07.14-.14.29-.2.43l8.16-2.9A1.66,1.66,0,0,0,626.37,164.07Z" style="fill: #c7ccd1"/>
          <path d="M588.3,175.8l-8.6,3a1.66,1.66,0,0,0,.55,3.23,1.58,1.58,0,0,0,.56-.1l6.86-2.43C587.94,178.33,588.14,177.08,588.3,175.8Z" style="fill: #c7ccd1"/>
        </g>
        <circle cx="637.55" cy="163.12" r="12.74" style="fill: none;stroke: #c7ccd1;stroke-linecap: round;stroke-linejoin: round;stroke-width: 3.322265964999944px"/>
        <line x1="581.69" y1="186.21" x2="626.32" y2="169.79" style="fill: none;stroke: #c7ccd1;stroke-linecap: round;stroke-linejoin: round;stroke-width: 3.322265964999944px"/>
        <rect x="452.5" y="291.95" width="338.78" height="63.58" style="fill: #c7ccd1;opacity: 0.4"/>
        <text transform="translate(465.41 338.74)" style="font-size: 36px;font-family: Roboto-Regular, Roboto">Clip</text>
      </g>
      <rect x="452.54" y="16.79" width="338.85" height="338.85" style="fill: none;stroke: #ffe100;stroke-miterlimit: 10;stroke-width: 6.846170425415039px"/>
    </g>
  </g>
</svg>
