<svg xmlns="http://www.w3.org/2000/svg" xmlns:xlink="http://www.w3.org/1999/xlink" viewBox="0 0 1231.2 867.17">
  <defs>
    <clipPath id="clip-path">
      <circle cx="-3318.82" cy="-2448.22" r="241.86" style="fill: none"/>
    </clipPath>
    <clipPath id="clip-path-2">
      <circle cx="-3326.26" cy="-1835.94" r="241.86" style="fill: none"/>
    </clipPath>
    <clipPath id="clip-path-3">
      <rect x="-1020.97" y="1.71" width="863.75" height="863.75" style="fill: none"/>
    </clipPath>
    <clipPath id="clip-path-4">
      <rect x="-991.45" y="52.74" width="317.84" height="317.84" style="fill: none"/>
    </clipPath>
    <clipPath id="clip-path-5">
      <path d="M667,761.27c-94.45-3.7-191.36-23.91-281.1,10.15-30.09,11.43-58.7,27.84-89.69,35.8-85.42,21.95-170.87-23-257.59-33.09C-169.31,750-355.52,925.3-563.4,959.62c-231.74,38.26-474.75-130.2-529.82-371.36-13.19-57.72-15.77-122.14,12-174.58,30.8-58.07,91.76-89.55,134.62-138.27,51.61-58.66,76.45-141.81,135.37-192C-711-1.9-560,43.36-445.1-16.75c32.39-17,63.08-42.65,98.86-43.95,22.84-.84,44.66,8.59,67.3,11.28C-172.56-36.78-62.35-169.64,28.22-110.29c78.32,48.46,134.32,109,154.27,189.12C329.26,171.55,442.76,308.53,513.8,502,543.8,491.85,783.54,765.84,667,761.27Z" style="fill: none"/>
    </clipPath>
    <clipPath id="clip-path-6">
      <rect x="356.76" y="3.31" width="863.75" height="863.75" style="fill: none"/>
    </clipPath>
    <clipPath id="clip-path-7">
      <path d="M825.46,418.38c0-6.9-2.33-7-4.13-12.66s1.24-7.68,4.12-10.2c2.62-2.28,10,.58,12.71,4.33a5,5,0,0,1,.68,4.88c-1.16,3.77-5.17,7.79-7,9.64-2.42,2.43-.88,5.95-.88,5.95a7.27,7.27,0,0,1-5.48-1.94" style="fill: none"/>
    </clipPath>
    <clipPath id="clip-path-8">
      <polyline points="699.42 365.77 390.98 365.77 390.98 57.33 699.42 57.33 699.42 365.77" style="fill: none"/>
    </clipPath>
    <clipPath id="clip-path-9">
      <polyline points="356.76 1.6 1220.51 1.6 1220.51 865.35 356.76 865.35 356.76 1.6" style="fill: none"/>
    </clipPath>
    <clipPath id="clip-path-10">
      <path d="M2044.77,761.16c-94.45-3.7-191.36-23.91-281.1,10.15-30.09,11.42-58.7,27.84-89.69,35.8-85.43,21.95-170.87-23-257.59-33.09-208-24.09-394.18,151.17-602.07,185.49C582.59,997.77,339.58,829.31,284.5,588.15,271.32,530.43,268.74,466,296.56,413.56,327.36,355.5,388.32,324,431.18,275.3c51.61-58.66,76.45-141.81,135.37-192C666.77-2,817.75,43.25,932.63-16.86c32.39-17,63.08-42.65,98.86-43.95,22.84-.84,44.66,8.59,67.3,11.28,45.83,5.45,92.38-16.12,137.75-37.68,60-28.49,117.86-57,169.41-23.19,78.31,48.46,134.32,109,154.27,189.12,146.77,92.72,260.27,229.7,331.31,423.17,15.14-5.13,83.77,62.2,133,129.53,48.27,66,77.9,132,20.23,129.74" style="fill: none"/>
    </clipPath>
    <clipPath id="clip-path-11">
      <path d="M554.54,179.28c-35.16,8.79-6.9-23,2.88-31.26S572,131.92,572,114.87c0-19.75-16.55-35.76-37-35.76s-37,16-37,35.76c0,9.49,10.06,24.52,10.06,24.52,8.36,14.48,10.88,49.7,0,52.32l46.37-12.43" style="fill: none"/>
    </clipPath>
    <clipPath id="clip-path-12">
      <path d="M555.31,182.37a51.74,51.74,0,0,1-9.55,1.2,17.94,17.94,0,0,1-5.31-.6,8.77,8.77,0,0,1-2.89-1.41,6.6,6.6,0,0,1-2.17-2.94,7.74,7.74,0,0,1-.38-3.26,13.32,13.32,0,0,1,.57-2.73,24,24,0,0,1,2.07-4.55,56.8,56.8,0,0,1,5.43-7.67A103.39,103.39,0,0,1,556,147.25c4.69-3.71,8.87-7.89,11.4-13.15s3.5-11.19,3.69-17.14a36.53,36.53,0,0,0-.54-8.81,34.07,34.07,0,0,0-2.77-8.38,35,35,0,0,0-11.4-13.37,37.11,37.11,0,0,0-34-4.51,36.4,36.4,0,0,0-14.64,9.84,34.45,34.45,0,0,0-8,15.64c-.18.72-.27,1.45-.41,2.18s-.2,1.46-.24,2.19-.11,1.47-.11,2.21a15.56,15.56,0,0,0,.06,2.17,30.4,30.4,0,0,0,2.39,8.43,73.31,73.31,0,0,0,4,8q1.09,2,2.3,3.84c.39.63.8,1.26,1.21,1.88a11.36,11.36,0,0,1,.64,1c.21.36.38.68.58,1a65.32,65.32,0,0,1,5.72,17.56,82.83,82.83,0,0,1,1.63,18.45,39.33,39.33,0,0,1-1.35,9.53,16.94,16.94,0,0,1-2.19,4.85,10,10,0,0,1-2.06,2.24,8.33,8.33,0,0,1-3,1.53l-1.33-5.53a3.45,3.45,0,0,0,2.12-1.39,11.53,11.53,0,0,0,1.78-3.25,34.12,34.12,0,0,0,1.73-8.26,76,76,0,0,0-.55-17.62,62.22,62.22,0,0,0-4.72-17c-.15-.32-.32-.67-.48-1a7.42,7.42,0,0,0-.53-.92c-.41-.65-.8-1.31-1.19-2q-1.16-2-2.22-4a74.79,74.79,0,0,1-3.83-8.34,33.32,33.32,0,0,1-2.27-9,18.47,18.47,0,0,1,0-2.35c0-.77.08-1.54.15-2.31s.2-1.53.3-2.3.27-1.51.46-2.26a36,36,0,0,1,8.58-16.11A37.7,37.7,0,0,1,522,80.84a39.44,39.44,0,0,1,18.09-2,37.76,37.76,0,0,1,29,20.22,36.24,36.24,0,0,1,3.07,8.71,38.49,38.49,0,0,1,.76,9.19,63,63,0,0,1-.75,9.17,36.94,36.94,0,0,1-2.63,8.94,33.37,33.37,0,0,1-5,7.91,64,64,0,0,1-6.54,6.53,96.57,96.57,0,0,0-11.82,13.24,52.78,52.78,0,0,0-4.61,7.37,19.85,19.85,0,0,0-1.47,3.76,4.55,4.55,0,0,0,0,2.9,1.34,1.34,0,0,0,.56.6,4,4,0,0,0,1.21.44,12.64,12.64,0,0,0,3.68.1,46.31,46.31,0,0,0,8.28-1.77l1.54,6.17" style="fill: none"/>
    </clipPath>
    <clipPath id="clip-path-13">
      <rect x="-1618.18" y="-965.71" width="332.32" height="332.32" style="fill: none"/>
    </clipPath>
    <linearGradient id="linear-gradient" x1="-1659.62" y1="612.27" x2="-233" y2="-291.57" gradientTransform="matrix(0.99, 0.16, -0.17, 1.06, 115.49, -502.75)" gradientUnits="userSpaceOnUse">
      <stop offset="0.84" stop-color="#d33f33"/>
      <stop offset="1" stop-color="#e64c3c"/>
    </linearGradient>
  </defs>
  <title>Artboard 1 copy 25</title>
  <g id="OptionIcons">
    <g style="clip-path: url(#clip-path-3)">
      <g style="clip-path: url(#clip-path-4)">
        <path d="M-1090.3,562.17c-120,2.51-1.85-558,20.91-643.41C-1046.27-168-594-272.69-589.09-240.57S759.77,773.34,667.63,761.37c-93.66-12.18-191.37-23.92-281.1,10.15-30.1,11.42-58.7,27.84-89.7,35.8-85.42,21.94-170.87-23-257.58-33.09-208-24.09-394.18,151.16-602.07,185.48-231.73,38.26-474.74-130.2-529.82-371.35-13.18-57.72-15.76-122.14,12.06-174.59,30.8-58.07,91.76-89.55,134.62-138.27,51.61-58.66,76.45-141.8,135.37-192C-710.37-1.81-559.4,43.46-444.52-16.66c32.4-16.95,63.09-42.64,98.86-43.95,22.84-.83,44.66,8.6,67.3,11.29C-172-36.69-61.76-169.55,28.81-110.2" style="fill: #e64c3c"/>
        <g style="clip-path: url(#clip-path-5)">
          <polygon points="-1108.99 181.33 -356.09 -169.64 67.73 -169.64 489.84 905.07 290.75 997.88 -1108.99 997.88 -1108.99 181.33" style="fill: #d33f33"/>
        </g>
      </g>
    </g>
    <g style="clip-path: url(#clip-path-6)">
      <g>
        <path d="M1149.22,933.14c-12.83-22.14-25.74-34.68-42.88-76.35s-6.43-65-6.43-123.64,41.79-136.62,85.19-226.63-37.77-244.3-140.39-290.91S786.5,192,723,244.54,644.6,389.87,644.6,401.92s11.56,39.76-3.56,65.94-53.79,82-62.06,108.91c-10.1,32.81,53.94,23.27,41.58,44.67s-2.23,27.67,8.9,34.09c-13,6.56-10.83,27.63-6.37,30.2s17.48,16.27,8.31,32.15-12.85,34,0,56.25,37.77,25.72,94.83,13.66,53.88,6.25,59.47,61.88c0,37.59,2.94,74.43,2.94,74.43l360.58,9" style="fill: #c6c6c6"/>
        <path d="M907.79,514.38c-2.67,13.22,1.52,35.8,16.22,42,11.65,4.93,21.41,14.91,27.82,26.36,5.31,9.49,6.3,21,9.3,31.64s49.1,250.59,59.34,252.66c1.43.29,15.79.9,16.44,0,2.16-3-47.84-249.72-49.23-253.29C981.21,597.14,951,503,944.56,486.35l-36.77,28" style="fill: #ff5d0a"/>
        <path d="M923.87,499.92c1,8.72,8.55,29.48,10.85,37.88.83,3,1.78,6.09,3.7,8.46A22.4,22.4,0,0,0,944.5,551l37.74,22.63c5.71,3.43,11.51,6.89,17.87,8.67a53.36,53.36,0,0,0,15.59,1.59,109.08,109.08,0,0,0,47.12-12.45,75,75,0,0,0,13.84-8.9c6.12-5.13,11.12-11.61,16.89-17.19,5.49-5.32,11.73-9.88,16.14-16.23s6.36-28.24,2.67-34.92l-188.49,5.77" style="fill: #a84038"/>
        <g>
          <path d="M795.67,470.4c-17.78.38-35.78.73-53-3.51s-33.95-13.61-43.84-29.16c-11.21-17.62-12.27-40.36-13-61.85-.43-13.07-.82-26.39,2.55-39.05,3.43-12.87,10.56-24.29,18-35.13,11.35-16.51,23.88-32.42,39.38-44.49,28.58-22.24,64.52-29.53,99.12-36.1l14.52-2.75c17.81-3.37,35.72-6.71,53.74-7,20.9-.3,41.57,3.54,61.87,8.38,19,4.52,37.91,10,55,19.74,4.28,2.45,8.49,5.2,13.22,6.49,3.52,1,7.23,1.11,10.74,2.12,7.71,2.23,13.71,8.43,19.36,14.41l35.26,37.32c5.48,5.8,11,11.71,14.64,19,2.3,4.65,3.74,9.75,5.84,14.51,4,9.09,10.35,16.72,15.2,25.32s8.25,19,5.56,28.79c5.57,11.41,3.11,24.49,8.67,35.89,2.08,4.26,4.18,8.6,4.91,13.37s0,9.66-.93,14.41c-4.81,24.11-10.56,47.3-32.86,53.82-10.5,3.07-21.55,1.7-32.27.31l-41-5.33c-13.89-1.8-28.38-3.55-41.68,1.51-4.47,1.69-8.71,4.12-13.3,5.3-12.67,3.26-25.34-3.41-38.2-4.9-30.83-3.57-58.44,22.41-89.26,27.5-34.36,5.67-70.4-19.3-78.56-55.06-2-8.56-2.34-18.11,1.79-25.89,4.56-8.61,13.6-13.28,20-20.5,7.65-8.7,11.33-21,20.07-28.46,14.86-12.66,37.24-5.95,54.28-14.86,4.8-2.51,9.35-6.32,14.65-6.51,3.39-.13,6.63,1.27,10,1.67,6.8.81,13.7-2.39,20.43-5.59,8.89-4.22,17.47-8.45,25.12-3.44" style="fill: #e64c3c"/>
          <path d="M795.67,470.4c-8.4.18-16.82.35-25.23,0a143.31,143.31,0,0,1-25-2.91,85.29,85.29,0,0,1-23.59-8.69,65.61,65.61,0,0,1-19.33-16c-.63-.84-1.29-1.66-1.91-2.51l-1.77-2.61c-1.07-1.81-2.17-3.6-3.08-5.51a72,72,0,0,1-4.58-11.73,107.73,107.73,0,0,1-2.78-12.3c-.67-4.15-1.15-8.33-1.52-12.52-.69-8.39-.92-16.8-1.18-25.21s-.22-16.85,1-25.18a75.89,75.89,0,0,1,7.71-23.9,179,179,0,0,1,13.23-21.46c9.58-13.8,20.06-27.14,32.74-38.24a125.69,125.69,0,0,1,20.56-14.55,158.6,158.6,0,0,1,22.87-10.6c15.76-5.92,32.21-9.73,48.7-13,8.24-1.64,16.52-3.17,24.78-4.74s16.53-3.15,24.84-4.44a239.84,239.84,0,0,1,25.07-2.74,174,174,0,0,1,25.21.6c16.76,1.59,33.24,5.2,49.56,9.27s32.45,9.29,47.15,17.56c3.68,2,7.2,4.37,11.11,5.95s8.19,1.87,12.28,2.77a28.18,28.18,0,0,1,11.18,5.61,84.23,84.23,0,0,1,9.15,8.67l34.66,36.69c5.75,6.09,11.7,12.22,15.52,19.77,1.91,3.76,3.2,7.78,4.72,11.69a68.18,68.18,0,0,0,5.6,11.29c4.34,7.2,9.55,13.89,13.12,21.53a45.48,45.48,0,0,1,3.84,12,29.49,29.49,0,0,1-.49,12.51h0a41.85,41.85,0,0,1,3.3,10.77c.67,3.71,1,7.46,1.57,11.19a52.84,52.84,0,0,0,2.56,11,54.12,54.12,0,0,0,2.31,5.16c.8,1.7,1.58,3.42,2.23,5.18a31.13,31.13,0,0,1,1.51,5.44,27.82,27.82,0,0,1,.38,5.62,64.77,64.77,0,0,1-1.58,11.17,183.05,183.05,0,0,1-5.52,21.89,72.9,72.9,0,0,1-4.33,10.42,47.56,47.56,0,0,1-6.29,9.35,37.78,37.78,0,0,1-8.71,7.12l-2.53,1.25c-.43.2-.84.43-1.28.6l-1.33.47c-.89.31-1.77.65-2.66.93s-1.82.51-2.74.69c-7.39,1.61-15,1.24-22.49.42s-14.94-1.91-22.41-2.86l-22.41-2.91a211.47,211.47,0,0,0-22.47-2.19c-7.51-.17-15.14.61-22.21,3.28-3.52,1.33-6.86,3.11-10.4,4.4a28.87,28.87,0,0,1-11.08,1.78c-7.58-.19-14.82-2.63-22.13-4.31a61,61,0,0,0-11.15-1.71,55.11,55.11,0,0,0-11.26.6,94.18,94.18,0,0,0-21.6,6.42c-7,2.87-13.74,6.18-20.57,9.35a183.14,183.14,0,0,1-20.91,8.51,84.28,84.28,0,0,1-11,2.74,62.31,62.31,0,0,1-11.24.92c-15.11-.14-29.89-5.86-41.75-15.1a75.68,75.68,0,0,1-15.48-16.33,71.08,71.08,0,0,1-9.74-20.28c-.3-.89-.5-1.82-.74-2.73s-.46-1.82-.65-2.74-.31-1.86-.55-2.77a14.79,14.79,0,0,1-1-2.74,40.35,40.35,0,0,1,.33-11.45,27,27,0,0,1,4.39-10.62,46.14,46.14,0,0,1,7.86-8.29c2.86-2.47,5.81-4.81,8.46-7.42a46.67,46.67,0,0,0,6.88-8.74c4-6.29,7.22-13.25,12.35-19,.67-.68,1.29-1.41,2-2,.36-.32.71-.65,1.07-1l1.16-.86a31.8,31.8,0,0,1,4.85-3.08,44.18,44.18,0,0,1,10.86-3.51c7.46-1.49,15-1.65,22.44-2.8A53.89,53.89,0,0,0,887,386,19.9,19.9,0,0,0,889.6,385c.85-.39,1.71-.75,2.52-1.22,1.63-.9,3.22-1.9,4.87-2.84a28.72,28.72,0,0,1,5.16-2.45,13.49,13.49,0,0,1,5.71-.67,44,44,0,0,1,5.57,1.15,19.84,19.84,0,0,0,5.52.63,32.6,32.6,0,0,0,10.84-2.62c3.48-1.39,6.85-3.08,10.29-4.63a44.35,44.35,0,0,1,10.68-3.65,16.89,16.89,0,0,1,5.63,0,13.93,13.93,0,0,1,5.22,2.08,13.92,13.92,0,0,0-5.23-2,16.46,16.46,0,0,0-5.6.1,44.28,44.28,0,0,0-10.59,3.76c-3.4,1.6-6.75,3.33-10.25,4.77a32.69,32.69,0,0,1-11,2.8,20.43,20.43,0,0,1-5.68-.57,45.09,45.09,0,0,0-5.49-1.08,12.59,12.59,0,0,0-5.41.67,28.18,28.18,0,0,0-5,2.42c-1.62.94-3.21,2-4.87,2.89-.82.48-1.69.86-2.56,1.26a20.78,20.78,0,0,1-2.62,1.11,53.51,53.51,0,0,1-11,2.76c-7.47,1.22-15,1.44-22.36,3A44.2,44.2,0,0,0,843.38,396a32.83,32.83,0,0,0-4.66,3l-1.1.83c-.36.3-.69.62-1,.93-.7.6-1.3,1.31-2,2-4.95,5.56-8.13,12.47-12.17,18.87a48.72,48.72,0,0,1-7.05,9c-2.71,2.69-5.67,5.05-8.5,7.5a45.11,45.11,0,0,0-7.63,8.07,25.59,25.59,0,0,0-4.14,10.11,39.76,39.76,0,0,0-.3,11.06c.09.92-.28,1.91-.26,2.86a8.12,8.12,0,0,0,.18,1.4c.09.46.17.93.27,1.39.19.92.4,1.84.65,2.74s.44,1.84.74,2.73a71.08,71.08,0,0,0,9.74,20.28A75.68,75.68,0,0,0,821.65,515c11.86,9.24,26.64,15,41.75,15.1a62.31,62.31,0,0,0,11.24-.92,84.28,84.28,0,0,0,11-2.74A183.14,183.14,0,0,0,906.5,518c6.83-3.17,13.6-6.48,20.57-9.35a94.18,94.18,0,0,1,21.6-6.42,55.11,55.11,0,0,1,11.26-.6,61,61,0,0,1,11.15,1.71c7.31,1.68,14.55,4.12,22.13,4.31a28.87,28.87,0,0,0,11.08-1.78c3.54-1.29,6.88-3.07,10.4-4.4,7.07-2.67,14.7-3.45,22.21-3.28a211.47,211.47,0,0,1,22.47,2.19l22.41,2.91c7.47.95,14.93,2,22.41,2.86s15.1,1.19,22.49-.42c.92-.18,1.83-.45,2.74-.69s1.77-.62,2.66-.93l1.33-.47c.44-.17.85-.4,1.28-.6l2.53-1.25a37.78,37.78,0,0,0,8.71-7.12,47.56,47.56,0,0,0,6.29-9.35,72.9,72.9,0,0,0,4.33-10.42,183.05,183.05,0,0,0,5.52-21.89,64.77,64.77,0,0,0,1.58-11.17,27.82,27.82,0,0,0-.38-5.62,31.13,31.13,0,0,0-1.51-5.44c-.65-1.76-1.43-3.48-2.23-5.18a54.12,54.12,0,0,1-2.31-5.16,52.84,52.84,0,0,1-2.56-11c-.54-3.73-.9-7.48-1.57-11.19a41.85,41.85,0,0,0-3.3-10.77h0a29.49,29.49,0,0,0,.49-12.51,45.48,45.48,0,0,0-3.84-12c-3.57-7.64-8.78-14.33-13.12-21.53a68.18,68.18,0,0,1-5.6-11.29c-1.52-3.91-2.81-7.93-4.72-11.69-3.82-7.55-9.77-13.68-15.52-19.77L1072.82,262a84.23,84.23,0,0,0-9.15-8.67,28.18,28.18,0,0,0-11.18-5.61c-4.09-.9-8.39-1.06-12.28-2.77s-7.43-3.92-11.11-5.95c-14.7-8.27-30.88-13.43-47.15-17.56s-32.8-7.68-49.56-9.27a174,174,0,0,0-25.21-.6,239.84,239.84,0,0,0-25.07,2.74c-8.31,1.29-16.58,2.87-24.84,4.44s-16.54,3.1-24.78,4.74c-16.49,3.3-32.94,7.11-48.7,13a158.6,158.6,0,0,0-22.87,10.6,125.69,125.69,0,0,0-20.56,14.55c-12.68,11.1-23.16,24.44-32.74,38.24a179,179,0,0,0-13.23,21.46,75.89,75.89,0,0,0-7.71,23.9c-1.23,8.33-1.22,16.79-1,25.18s.49,16.82,1.18,25.21c.37,4.19.85,8.37,1.52,12.52a107.73,107.73,0,0,0,2.78,12.3,72,72,0,0,0,4.58,11.73c.91,1.91,2,3.7,3.08,5.51l1.77,2.61c.62.85,1.28,1.67,1.91,2.51a65.61,65.61,0,0,0,19.33,16,85.29,85.29,0,0,0,23.59,8.69,143.31,143.31,0,0,0,25,2.91C778.85,470.75,787.27,470.58,795.67,470.4Z" style="fill: #a84038"/>
        </g>
        <path d="M667.9,495.89a2.59,2.59,0,0,1-1.83-4.41c7.34-7.34,13.73-11,18.32-12.85-7.41-3.78-17.52-9.7-19.07-14.53a4.64,4.64,0,0,1,.34-3.85l3.18-5.49a2.58,2.58,0,0,1,4.48,2.58l-3.05,5.29c.81,2.56,11.23,9.19,22.68,14.39a2.59,2.59,0,0,1-1.07,4.94c-.06,0-9.32.34-22.15,13.17A2.54,2.54,0,0,1,667.9,495.89Z" style="fill: #fff"/>
        <path d="M983.64,319a94.21,94.21,0,0,0-24.5-9.28,159,159,0,0,0-26-3.81A263.76,263.76,0,0,0,880.78,308a288.72,288.72,0,0,0-51.14,11.44c-4.15,1.36-8.25,2.86-12.26,4.54a91.26,91.26,0,0,0-11.65,5.74c-3.71,2.2-7.13,4.77-9.43,8.26a21.94,21.94,0,0,0-3.7,11.73,38.12,38.12,0,0,0,1.88,12.51,76.58,76.58,0,0,0,4.93,11.92c3.92,7.73,8.8,14.94,13.72,22.22.61.92,1.22,1.84,1.82,2.78s1.18,1.94,1.72,2.87c1.11,1.88,2.23,3.74,3.39,5.59a121.62,121.62,0,0,0,7.38,10.66,54.15,54.15,0,0,0,8.79,9.15,24.46,24.46,0,0,0,5.18,3.21A13.62,13.62,0,0,0,847,431.8a11.32,11.32,0,0,1,3.89.66,7.46,7.46,0,0,1,3.51,2.6,8,8,0,0,1,1.44,4.07,11.43,11.43,0,0,1-.44,3.95,16.66,16.66,0,0,1-3.64,6.48,18.75,18.75,0,0,1-13,6.3l-1.69.06c-.5,0-1,.06-1.48.11a22.53,22.53,0,0,0-2.93.54,23.09,23.09,0,0,0-10.26,5.94,18.67,18.67,0,0,0-5.48,10.1,12,12,0,0,0-.1,2.74,11.52,11.52,0,0,0,.55,2.62,13.11,13.11,0,0,0,.54,1.21c.11.19.21.42.31.57a3.67,3.67,0,0,0,.27.38,3.91,3.91,0,0,0,1.7,1.11,15.63,15.63,0,0,0,5.58.61c2.06-.05,4.2-.26,6.39-.47s4.42-.42,6.75-.46a20.72,20.72,0,0,1,7.41,1,9.73,9.73,0,0,1,3.73,2.36,9.4,9.4,0,0,1,2.22,3.91,17.92,17.92,0,0,1,.2,7.68,47.05,47.05,0,0,1-1.7,6.76q-1,3.09-1.85,6.21a80.48,80.48,0,0,0-2.58,12.42c-.44,4.06-.27,8.17,1.46,11s5.07,4.59,9,5.51a59.66,59.66,0,0,0,12.41,1.34c1.07,0,2.14,0,3.21,0,.52,0,1.22,0,1.82,0s1.27.1,1.9.19a16.64,16.64,0,0,1,12.72,8.73,27.87,27.87,0,0,1,2.64,6.93A60.92,60.92,0,0,1,893,568.85c0,4.53-.25,9-.64,13.44-.78,8.87-2,17.59-3.14,26.27s-2.2,17.31-2.44,25.8c0,1.07,0,2.11,0,3.17l.06,3.25c0,2.16.1,4.32.19,6.48.17,4.32.5,8.62.89,12.92,1.62,17.18,5.39,34.27,8,51.79,1.34,8.74,2.35,17.57,3.24,26.31s1.73,17.5,2.52,26.24L906.27,817l2.31,26.2,1.2,13.07.64,6.5.35,3.21c.12,1.06.26,1.95.39,2.93l.06.51a5.05,5.05,0,0,1-10,1.27c-.15-1.2-.34-2.48-.45-3.6l-.32-3.33-.58-6.6L898.79,844l-2-26.25-4-52.44q-1-13.11-2.22-26.17c-.79-8.72-1.68-17.33-2.89-26s-2.64-17.22-4-25.92-2.63-17.5-3.39-26.38c-.34-4.43-.63-8.88-.75-13.33-.06-2.22-.12-4.45-.12-6.67v-3.33c0-1.13,0-2.28.07-3.41.37-9,1.6-17.81,2.82-26.52s2.57-17.34,3.43-25.94c.43-4.3.73-8.59.77-12.83a54.52,54.52,0,0,0-1.1-12.31c-.89-3.86-2.55-7.34-5.26-9.22a11,11,0,0,0-4.76-1.83c-.44-.07-.91-.1-1.37-.15l-1.46-.05c-1.12,0-2.24,0-3.37-.07a64.33,64.33,0,0,1-13.68-1.67,25.42,25.42,0,0,1-6.88-2.74,15.58,15.58,0,0,1-5.64-5.62,18,18,0,0,1-2.22-7.42,34,34,0,0,1,.17-7.16,84,84,0,0,1,2.91-13.28q.94-3.22,2-6.37a41,41,0,0,0,1.58-6,12.93,12.93,0,0,0,0-5.37,4,4,0,0,0-2.73-2.91A16.13,16.13,0,0,0,839,486c-2.06,0-4.19.19-6.37.36s-4.41.38-6.74.42a20.1,20.1,0,0,1-7.39-1,8.71,8.71,0,0,1-3.66-2.57,8,8,0,0,1-.68-1c-.19-.32-.31-.59-.46-.89a14.12,14.12,0,0,1-1.53-5.61,16.69,16.69,0,0,1,.18-3.81,23.09,23.09,0,0,1,6.93-12.59,27.35,27.35,0,0,1,12.34-6.94,26.6,26.6,0,0,1,3.55-.61c.6-.06,1.19-.1,1.8-.11l1.59,0a14.35,14.35,0,0,0,5.54-1.37,14.12,14.12,0,0,0,7.44-8.26,5.46,5.46,0,0,0-.34-4.62c-.74-1.11-2.38-1.69-4.26-1.7a17.88,17.88,0,0,1-7.12-1.64,28.87,28.87,0,0,1-5.93-3.77,58.14,58.14,0,0,1-9.29-9.88,128,128,0,0,1-7.45-11.05c-1.15-1.89-2.27-3.8-3.36-5.71-.56-1-1.07-1.89-1.63-2.79s-1.16-1.83-1.75-2.74c-4.81-7.31-9.7-14.72-13.62-22.7a77.81,77.81,0,0,1-5-12.43A40.57,40.57,0,0,1,790,349.54a24.15,24.15,0,0,1,9-18,43.6,43.6,0,0,1,5.58-3.8,94.93,94.93,0,0,1,12-5.73c4.09-1.66,8.26-3.12,12.46-4.44a290.52,290.52,0,0,1,51.56-10.88,263.65,263.65,0,0,1,52.61-1.46,160.57,160.57,0,0,1,26,4.13,94.94,94.94,0,0,1,24.43,9.6" style="fill: #be202e"/>
        <path d="M815.46,260.5a12.4,12.4,0,0,0-6,6.35,25.25,25.25,0,0,0-1.93,8.63c-.35,5.95-.56,12-.85,17.93l-1.62,35.88a1.44,1.44,0,0,1-2.87-.13v-.06l3.06-35.78c.53-6,1-11.92,1.57-17.91a25.85,25.85,0,0,1,2.31-8.71,12.59,12.59,0,0,1,6.32-6.2" style="fill: #be202e"/>
        <path d="M904.05,251.48a14.89,14.89,0,0,0-6.28,5.1,24.22,24.22,0,0,0-3.5,7.32c-1.58,5.23-1.51,10.75-1.84,16.23a56.81,56.81,0,0,1-.95,8.26,24.42,24.42,0,0,1-3,7.87,41.23,41.23,0,0,1-5,6.76,44,44,0,0,1-6.16,5.73A1.08,1.08,0,1,1,876,307l0,0h0a42.42,42.42,0,0,0,11-11.6c3-4.48,3.78-9.94,4.28-15.37.24-2.72.41-5.46.73-8.2a38.11,38.11,0,0,1,1.69-8.11,24.57,24.57,0,0,1,3.81-7.32,15,15,0,0,1,6.5-4.93" style="fill: #be202e"/>
        <path d="M876.7,254.65a8.64,8.64,0,0,1,7.15,3,16.53,16.53,0,0,1,3.64,7.11c.72,2.59,1.11,5.19,1.92,7.67a29.2,29.2,0,0,0,3.08,7.08l0,0a.73.73,0,0,1-.21,1,.73.73,0,0,1-1-.21v0a29.52,29.52,0,0,1-2.95-7.55c-.35-1.29-.64-2.6-.86-3.92s-.44-2.6-.73-3.88a16.18,16.18,0,0,0-3.18-7,8.49,8.49,0,0,0-6.87-3.2" style="fill: #be202e"/>
        <path d="M977.3,274.13a37.24,37.24,0,0,1-4.76,11.32,50.43,50.43,0,0,1-7.78,9.59,53,53,0,0,1-9.85,7.51,42.67,42.67,0,0,1-11.49,4.79.71.71,0,0,1-.87-.53.72.72,0,0,1,.52-.87h0a41.72,41.72,0,0,0,11.28-4.33,51.82,51.82,0,0,0,9.89-7.1,49.93,49.93,0,0,0,8-9.25,37.26,37.26,0,0,0,5.06-11.13" style="fill: #be202e"/>
        <path d="M1046.35,425.87a38.15,38.15,0,0,0-7-2.82c-2.4-.76-4.82-1.45-7.21-2.25-4.76-1.61-9.51-3.75-13.23-7.3a27.48,27.48,0,0,1-4.76-6,51.76,51.76,0,0,0-4.39-6A77.14,77.14,0,0,0,999.07,391a61.62,61.62,0,0,0-12.58-7.92,32.07,32.07,0,0,0-14.16-3.22,20.64,20.64,0,0,0-7,1.43,24.72,24.72,0,0,0-3.22,1.6l-3.34,1.87a97.05,97.05,0,0,1-14,6.08,116.09,116.09,0,0,1-30,5.9c-2.55.2-5.1.27-7.65.32a27.5,27.5,0,0,0-6.93,1.14A77.86,77.86,0,0,0,886.68,404c-4.42,2.28-8.77,4.79-13.32,7.14a58.52,58.52,0,0,1-7.2,3.23,17.05,17.05,0,0,1-4.32.95l-1.84.11c-.56,0-1.17.14-1.74.2a122.22,122.22,0,0,0-14.39,3.24c-4.8,1.32-9.61,2.78-14.32,4.33h0a2.88,2.88,0,1,1-1.79-5.47l.06,0c4.9-1.48,9.76-2.83,14.71-4.07a126.49,126.49,0,0,1,15.15-3c.67,0,1.31-.15,2-.18l1.93-.07a12.17,12.17,0,0,0,3-.62,53.34,53.34,0,0,0,6.64-2.81c4.45-2.16,8.9-4.59,13.48-6.81a81.89,81.89,0,0,1,14.4-5.69,31.41,31.41,0,0,1,8-1.1c2.49,0,5,0,7.45-.13a112.84,112.84,0,0,0,29.28-5,95.23,95.23,0,0,0,13.79-5.59l3.29-1.74a28,28,0,0,1,3.59-1.67,22.76,22.76,0,0,1,7.77-1.41,34.07,34.07,0,0,1,15,3.75,63.31,63.31,0,0,1,12.74,8.44,78,78,0,0,1,10.62,10.88,54.13,54.13,0,0,1,4.33,6.27,26.17,26.17,0,0,0,4.48,5.91c3.52,3.54,8.15,5.77,12.85,7.48,2.36.85,4.76,1.6,7.15,2.42a38.65,38.65,0,0,1,6.93,3" style="fill: #be202e"/>
        <path d="M828.67,264.63c6.52,3.62,13,7.69,18,13.4a34.63,34.63,0,0,1,6,9.59,36.14,36.14,0,0,1,2.53,11.09c.14,1.92.18,3.78.21,5.64s.13,3.73.27,5.58a71.31,71.31,0,0,0,1.45,11,26.68,26.68,0,0,0,4.15,9.83,18,18,0,0,0,3.62,3.73c.73.48,1.45,1,2.21,1.4s1.55.8,2.38,1.09l2.56.89c.92.34,1.87.58,2.77,1a25.51,25.51,0,0,1,5.19,2.91,20.71,20.71,0,0,1,7.36,9.53,24.32,24.32,0,0,1,1.11,12c-.07.49-.09,1-.2,1.48l-.33,1.45a23.11,23.11,0,0,1-.75,2.86l-.91,2.8-1.14,2.69c-.19.45-.37.9-.57,1.34l-.66,1.29-1.33,2.59-2.68,4.93-5.35,9.85-10.7,19.69-.05.08a2.88,2.88,0,1,1-5.06-2.75l0-.08,11.37-19.41,5.68-9.7,2.84-4.85,1.31-2.37.66-1.18c.2-.4.38-.82.57-1.22l1.12-2.45.91-2.51a19.38,19.38,0,0,0,.75-2.54l.34-1.28c.12-.43.14-.86.22-1.29a20.65,20.65,0,0,0-.59-10.17,17.33,17.33,0,0,0-5.91-8.15,22.51,22.51,0,0,0-4.48-2.7c-.79-.41-1.65-.66-2.47-1l-2.72-1c-.92-.35-1.78-.89-2.67-1.33s-1.67-1.11-2.48-1.69a20.56,20.56,0,0,1-4-4.41,29,29,0,0,1-4.2-10.84c-1.45-7.52-1.17-15.15-1.26-22.54A34.83,34.83,0,0,0,851.66,288a33.52,33.52,0,0,0-5.57-9.52c-4.73-5.76-11-10-17.42-13.87" style="fill: #be202e"/>
        <path d="M857.77,260.14a31,31,0,0,0-3.43,4.4,47.33,47.33,0,0,0-2.67,4.9A59.11,59.11,0,0,0,848,279.93v0a.37.37,0,0,1-.44.26.35.35,0,0,1-.26-.43h0a59.76,59.76,0,0,1,4.06-10.49,47.85,47.85,0,0,1,2.84-4.84,31.41,31.41,0,0,1,3.58-4.3" style="fill: #be202e"/>
        <path d="M987.42,260.14c.12,6.74.34,13.5-.18,20.27a56.39,56.39,0,0,1-1.62,10.06,28.52,28.52,0,0,1-4.26,9.38c-.48.73-1.11,1.35-1.66,2s-1.14,1.23-1.71,1.85q-1.66,1.86-3.23,3.83c-2.07,2.62-4,5.37-6,8.13A125.53,125.53,0,0,1,956,331.58c-4.62,4.83-9,9.92-13.39,15.05S934,357,929.93,362.33s-8,10.75-11.64,16.34c-1.81,2.79-3.53,5.62-5,8.5a33.33,33.33,0,0,0-3.38,8.58l0,.11a2.88,2.88,0,0,1-5.66-1.08l0-.12a37.46,37.46,0,0,1,4.3-10.08c1.74-3,3.63-5.91,5.6-8.72,3.92-5.62,8.13-11,12.45-16.21s8.77-10.36,13.32-15.38,9.18-10,14.06-14.73a123.35,123.35,0,0,0,13.13-15.13c2-2.68,4.09-5.39,6.3-8q1.65-1.95,3.44-3.8c.59-.6,1.23-1.21,1.79-1.8s1.14-1.17,1.61-1.83a27.23,27.23,0,0,0,4.37-8.81,55.47,55.47,0,0,0,1.95-9.84c.75-6.69.77-13.46.89-20.2" style="fill: #be202e"/>
        <path d="M1010.4,312.08c.12,3.56.57,7.17-.09,10.74a17.38,17.38,0,0,1-4.83,9.57,28,28,0,0,1-9.07,5.93l-2.5,1.05a21.18,21.18,0,0,0-2.38,1.08,25.09,25.09,0,0,0-4.35,2.89,39.18,39.18,0,0,0-7.07,7.75,66.5,66.5,0,0,0-5.34,9.12,100.6,100.6,0,0,0-7.14,19.9v.06a1.44,1.44,0,0,1-2.8-.68v-.05a103.5,103.5,0,0,1,8-20.21,68.24,68.24,0,0,1,5.82-9.2,40.66,40.66,0,0,1,7.63-7.82,26.43,26.43,0,0,1,4.68-2.89,23.4,23.4,0,0,1,2.54-1.05l2.49-.94a27.28,27.28,0,0,0,9-5.45,16.93,16.93,0,0,0,5-9.12c.76-3.49.44-7.11.44-10.68" style="fill: #be202e"/>
        <path d="M1019.09,318.57c-.47.81-.92,1.63-1.41,2.44s-1,1.6-1.54,2.36a45.25,45.25,0,0,1-3.54,4.41,35.56,35.56,0,0,1-4.2,3.84,22.66,22.66,0,0,1-5,3,.72.72,0,0,1-.56-1.33l0,0,.06,0a21.15,21.15,0,0,0,4.8-2.5,34.17,34.17,0,0,0,4.31-3.48,40.93,40.93,0,0,0,3.77-4.12c.6-.71,1.12-1.49,1.68-2.24s1-1.56,1.56-2.34" style="fill: #be202e"/>
        <path d="M1093.31,341.05a7.39,7.39,0,0,1-2.44-3.32c-.57-1.27-1-2.57-1.54-3.87a35.77,35.77,0,0,0-1.63-3.81,8.07,8.07,0,0,0-2.56-3.12,3.9,3.9,0,0,0-1.87-.55,5.27,5.27,0,0,0-2,.4,13.16,13.16,0,0,0-3.43,2.17c-1.07.88-2,1.88-3,2.84a19.94,19.94,0,0,1-3.38,2.52,21.86,21.86,0,0,1-8,2.72,52.5,52.5,0,0,1-8.39.44c-2.78,0-5.54-.08-8.26.17a25.1,25.1,0,0,0-4,.7,16.9,16.9,0,0,0-3.67,1.52,16,16,0,0,0-3.12,2.43,18.75,18.75,0,0,0-2.44,3.16c-1.39,2.31-2.72,4.81-4.08,7.21-2.72,4.85-5.47,9.69-8.45,14.42a96.79,96.79,0,0,1-10,13.56,35.72,35.72,0,0,1-6.47,5.7,16,16,0,0,1-8.52,2.94,1.44,1.44,0,0,1-.06-2.88h.06a13.3,13.3,0,0,0,7-2.32,33.39,33.39,0,0,0,6.1-5.16,94.07,94.07,0,0,0,10-13c3-4.61,5.88-9.37,8.7-14.15,1.43-2.39,2.75-4.77,4.28-7.19a20.73,20.73,0,0,1,2.72-3.36,16.77,16.77,0,0,1,3.49-2.6,18.51,18.51,0,0,1,4-1.57,25.46,25.46,0,0,1,4.23-.65,83.65,83.65,0,0,1,8.38,0,52.56,52.56,0,0,0,8.24-.25,21.17,21.17,0,0,0,7.75-2.45,19.85,19.85,0,0,0,3.32-2.37c1-.89,2-1.92,3.11-2.78a13.75,13.75,0,0,1,3.62-2.18,5.66,5.66,0,0,1,2.12-.39,4.25,4.25,0,0,1,2,.66,8.23,8.23,0,0,1,2.61,3.3,34,34,0,0,1,1.56,3.87c.47,1.31.91,2.62,1.45,3.9a7.32,7.32,0,0,0,2.36,3.35" style="fill: #be202e"/>
        <path d="M1122.59,395.2a8.89,8.89,0,0,0-4.44,1.52,25,25,0,0,0-3.72,2.94c-2.32,2.16-4.44,4.52-6.58,6.85a176.23,176.23,0,0,1-13.32,13.6,79.45,79.45,0,0,1-15.54,11,67.47,67.47,0,0,1-8.73,3.89c-3,1.06-6.06,1.93-9.09,2.86-12.12,3.71-24.25,7.47-36.64,10.35-6.2,1.41-12.46,2.59-18.78,3.41a124.51,124.51,0,0,1-19.12.86l-4.79-.3c-1.59-.18-3.17-.41-4.76-.61s-3.15-.57-4.73-.86l-4.64-.95a39,39,0,0,0-18.35,1,66.79,66.79,0,0,0-16.86,8c-2.65,1.67-5.25,3.46-7.87,5.25s-5.24,3.62-8.08,5.23a25.78,25.78,0,0,1-4.59,2,9,9,0,0,1-5.45.15,13.13,13.13,0,0,1-4.6-2.56,16.93,16.93,0,0,1-3.27-4c-1.74-2.85-2.79-6-4.44-8.25a4.79,4.79,0,0,0-2.94-2.08,6,6,0,0,0-1.9,0l-2.27.41a47.18,47.18,0,0,1-9.83.35c-3.22-.2-6.41-.53-9.58-.95-6.35-.87-12.61-2-18.87-3.41a1.69,1.69,0,1,1,.74-3.29h0c6.1,1.44,12.31,2.64,18.52,3.56,3.11.45,6.22.8,9.33,1a44.74,44.74,0,0,0,9.14-.21l1.09-.18c.45-.07.87-.18,1.33-.23a9.41,9.41,0,0,1,2.84.09,7.08,7.08,0,0,1,2.71,1.22,8.86,8.86,0,0,1,2,2,28.16,28.16,0,0,1,2.41,4.39c.67,1.45,1.32,2.84,2.08,4.13a14.46,14.46,0,0,0,2.69,3.37,10.37,10.37,0,0,0,3.64,2.07,6.34,6.34,0,0,0,3.91-.12,22.52,22.52,0,0,0,4.1-1.78c2.69-1.49,5.31-3.25,7.94-5s5.28-3.55,8-5.22a68.88,68.88,0,0,1,17.5-8.06,41.28,41.28,0,0,1,19.29-.82l4.67,1c1.54.3,3,.72,4.61.89s3.11.45,4.66.65l4.7.34a122.58,122.58,0,0,0,18.86-.63c6.27-.75,12.5-1.85,18.68-3.18,12.36-2.73,24.52-6.35,36.68-9.93,3-.89,6.11-1.74,9.09-2.74a68,68,0,0,0,8.67-3.76,79.07,79.07,0,0,0,15.56-10.76,175.43,175.43,0,0,0,13.44-13.42c2.17-2.31,4.32-4.65,6.67-6.78a25.18,25.18,0,0,1,3.76-2.91,8.88,8.88,0,0,1,4.47-1.48" style="fill: #be202e"/>
        <path d="M1119.88,467.86c-3.82-3.7-7.55-7.49-11.49-11.05A108.47,108.47,0,0,0,1096,447a63.26,63.26,0,0,0-13.94-7.18,43,43,0,0,0-15.18-2.61h0a1.44,1.44,0,1,1,0-2.88h.06a45.84,45.84,0,0,1,16,3.47,65.32,65.32,0,0,1,14,8,110,110,0,0,1,12.08,10.51c3.79,3.75,7.35,7.71,11,11.57" style="fill: #be202e"/>
        <path d="M983.64,889.39a1.68,1.68,0,0,1-1.67-1.5c-.18-1.59-17.42-159.68-17.42-190.4,0-5.46.07-11.54.15-18,.24-19.54.5-41.68-1.41-49.49-2.41-9.82-15.56-51.48-31.27-60.55-3.83-2.21-7-3.75-9.78-5.12-9.14-4.48-13.32-6.52-15.77-20-1-5.36-2.15-15.23-3.51-26.67-2.73-23-6.46-54.43-10.53-62.73a1.68,1.68,0,1,1,3-1.48c4.33,8.81,7.95,39.31,10.86,63.81,1.35,11.38,2.52,21.21,3.48,26.47,2.14,11.76,5.12,13.22,13.93,17.53,2.7,1.32,6.06,3,10,5.23,16.91,9.76,30.22,51.91,32.86,62.67,2,8.22,1.76,29.63,1.51,50.33-.08,6.42-.15,12.49-.15,17.93,0,30.54,17.23,188.44,17.4,190a1.69,1.69,0,0,1-1.49,1.86h-.19" style="fill: #be202e"/>
        <g style="clip-path: url(#clip-path-7)">
          <polygon points="819.54 410.38 840.1 415.38 838.87 420.43 819.54 420.43 819.54 410.38" style="fill: #b5282b"/>
          <polygon points="819.54 410 840.19 415.01 840.1 415.38 819.54 410.38 819.54 410" style="fill: #b5282b"/>
          <polygon points="819.54 409.61 840.27 414.65 840.19 415.01 819.54 410 819.54 409.61" style="fill: #b42729"/>
          <polygon points="819.54 409.23 840.36 414.29 840.27 414.65 819.54 409.61 819.54 409.23" style="fill: #b32628"/>
          <polygon points="819.54 408.85 840.36 413.9 840.36 414.28 840.36 414.29 819.54 409.23 819.54 408.85" style="fill: #b12426"/>
          <polygon points="819.54 408.46 840.36 413.52 840.36 413.9 819.54 408.85 819.54 408.46" style="fill: #b02325"/>
          <polygon points="819.54 408.07 840.36 413.13 840.36 413.52 819.54 408.46 819.54 408.07" style="fill: #af2224"/>
          <polygon points="819.54 407.69 840.36 412.75 840.36 413.13 819.54 408.07 819.54 407.69" style="fill: #ae2122"/>
          <polygon points="819.54 407.31 840.36 412.36 840.36 412.75 819.54 407.69 819.54 407.31" style="fill: #ad2021"/>
          <polygon points="819.54 406.92 840.36 411.98 840.36 412.36 819.54 407.31 819.54 406.92" style="fill: #ac1f1f"/>
          <polygon points="819.54 406.54 840.36 411.59 840.36 411.98 819.54 406.92 819.54 406.54" style="fill: #ab1d1e"/>
          <polygon points="819.54 406.15 840.36 411.21 840.36 411.59 819.54 406.54 819.54 406.15" style="fill: #aa1c1d"/>
          <polygon points="819.54 405.77 840.36 410.82 840.36 411.21 819.54 406.15 819.54 405.77" style="fill: #a91b1b"/>
          <polygon points="819.54 405.38 840.36 410.44 840.36 410.82 819.54 405.77 819.54 405.38" style="fill: #a81a1a"/>
          <polygon points="819.54 405 840.36 410.05 840.36 410.44 819.54 405.38 819.54 405" style="fill: #a71919"/>
          <polygon points="819.54 404.61 840.36 409.67 840.36 410.05 819.54 405 819.54 404.61" style="fill: #a61817"/>
          <polygon points="819.54 404.23 840.36 409.28 840.36 409.67 819.54 404.61 819.54 404.23" style="fill: #a51716"/>
          <polygon points="819.54 403.84 840.36 408.9 840.36 409.28 819.54 404.23 819.54 403.84" style="fill: #a41615"/>
          <polygon points="819.54 403.46 840.36 408.51 840.36 408.9 819.54 403.84 819.54 403.46" style="fill: #a31514"/>
          <polygon points="819.54 403.07 840.36 408.13 840.36 408.51 819.54 403.46 819.54 403.07" style="fill: #a21413"/>
          <polygon points="819.54 402.69 840.36 407.75 840.36 408.13 819.54 403.07 819.54 402.69" style="fill: #a11412"/>
          <polygon points="819.54 402.3 840.36 407.36 840.36 407.75 819.54 402.69 819.54 402.3" style="fill: #a01310"/>
          <polygon points="819.54 401.92 840.36 406.98 840.36 407.36 819.54 402.3 819.54 401.92" style="fill: #9f120f"/>
          <polygon points="819.54 401.54 840.36 406.59 840.36 406.98 819.54 401.92 819.54 401.54" style="fill: #9f110e"/>
          <polygon points="819.54 401.15 840.36 406.21 840.36 406.59 819.54 401.54 819.54 401.15" style="fill: #9e100d"/>
          <polygon points="819.54 400.77 840.36 405.82 840.36 406.21 819.54 401.15 819.54 400.77" style="fill: #9d0f0c"/>
          <polygon points="819.54 400.38 840.36 405.44 840.36 405.82 819.54 400.77 819.54 400.38" style="fill: #9c0f0b"/>
          <polygon points="819.54 400 840.36 405.05 840.36 405.44 819.54 400.38 819.54 400" style="fill: #9c0e0a"/>
          <polygon points="819.54 399.61 840.36 404.67 840.36 405.05 819.54 400 819.54 399.61" style="fill: #9b0d0a"/>
          <polygon points="819.54 399.23 840.36 404.28 840.36 404.67 819.54 399.61 819.54 399.23" style="fill: #9a0c09"/>
          <polygon points="819.54 398.84 840.36 403.9 840.36 404.28 819.54 399.23 819.54 398.84" style="fill: #9a0c08"/>
          <polygon points="819.54 398.46 840.36 403.51 840.36 403.9 819.54 398.84 819.54 398.46" style="fill: #990b07"/>
          <polygon points="819.54 398.07 840.36 403.13 840.36 403.51 819.54 398.46 819.54 398.07" style="fill: #980b06"/>
          <polygon points="819.54 397.69 840.36 402.74 840.36 403.13 819.54 398.07 819.54 397.69" style="fill: #980a06"/>
          <polygon points="819.54 397.3 840.36 402.36 840.36 402.74 819.54 397.69 819.54 397.3" style="fill: #970905"/>
          <polygon points="819.54 396.92 840.36 401.98 840.36 402.36 819.54 397.3 819.54 396.92" style="fill: #970904"/>
          <polygon points="819.54 396.53 840.36 401.59 840.36 401.98 819.54 396.92 819.54 396.53" style="fill: #960804"/>
          <polygon points="819.54 396.15 840.36 401.2 840.36 401.59 819.54 396.53 819.54 396.15" style="fill: #960803"/>
          <polygon points="819.54 395.76 840.36 400.82 840.36 401.2 819.54 396.15 819.54 395.76" style="fill: #960803"/>
          <polygon points="819.54 395.38 840.36 400.44 840.36 400.82 819.54 395.76 819.54 395.38" style="fill: #950702"/>
          <polygon points="819.54 394.99 840.36 400.05 840.36 400.44 819.54 395.38 819.54 394.99" style="fill: #950702"/>
          <polygon points="819.54 394.61 840.36 399.67 840.36 400.05 819.54 394.99 819.54 394.61" style="fill: #950702"/>
          <polygon points="840.36 399.67 819.54 394.61 819.54 392.93 840.36 392.93 840.36 399.67" style="fill: #950702"/>
        </g>
        <path d="M794.49,470.46c-3.35.07-6.77.12-10.23.14a71.26,71.26,0,0,0,12,7.43c-.35-1.24-.68-2.49-1-3.76s-.54-2.52-.75-3.81" style="fill: #ddd"/>
        <path d="M794.5,470.46h0c.21,1.29.47,2.56.75,3.81s.62,2.52,1,3.76l.44.22a77.52,77.52,0,0,1-2.15-7.79" style="fill: #e58e87"/>
        <path d="M1001,744.33h0m0,0h0m0,0h0m0,0h0m0,0h0m0,0h0m0,0h0m0,0h0m0,0h0m0,0h0m0,0h0m0,0h0m0,0h0m0,0h0m0,0h0m0,0h0m0,0h0m0,0h0m0,0h0m0,0h0m-.07,0h0m0,0h0m-.07,0h0m0,0h0m-12.6-130.24h0m0-.05h0m0-.08,0,.06,0-.06m0-.08v0m-32.82-24.27v0m0-.12v0m-.06-.14,0,0,0,0m0-.12,0,0,0,0m0-.11,0,.06,0-.06m-.07-.18.06.15-.06-.15m0-.09,0,.08,0-.08m-2.13-4.78a45.28,45.28,0,0,1,2.13,4.77,45.28,45.28,0,0,0-2.13-4.77m-.05-.09.05.09-.05-.09m-.13-.24.13.24-.13-.24m0-.09,0,.07,0-.07m-.06-.09,0,.06,0-.06m-.07-.13,0,.08,0-.08m0-.1,0,0,0,0m-.06-.1,0,0,0,0M1055.1,575a107,107,0,0,1-39.4,8.82l-2,0h0l2,0a107,107,0,0,0,39.4-8.82M974,568.66l8.21,4.93c5.31,3.18,10.69,6.4,16.54,8.26-5.85-1.86-11.23-5.08-16.54-8.27L974,568.66m-2.19-1.31c6.93,20.89,13.11,39.32,15.73,46.14-2.62-6.82-8.8-25.25-15.73-46.14h0m-47.94-11h0m-.1,0h0m-.1,0h0m-.09,0h0m-.09,0h0m-.09-.05,0,0,0,0m-.09,0h0m-.19-.09h0m-.1,0h0m-.1-.05,0,0,0,0m-.09,0h0m-.09,0,0,0,0,0m-.09,0h0m-.08,0h0m-.28-.14h0m-.1-.05h0m-.09,0h0m-.09,0h0m-.08-.05h0m-13.57-21c.42,3.22.82,6,1.18,8.2-.34-2.05-.71-4.61-1.1-7.56h.07l-.15-.64m201.3-5.3a52.54,52.54,0,0,1-7.67,8.5,52.54,52.54,0,0,0,7.67-8.5m0-.06v0m0,0v0m0-.05v0m0-.07,0,0,0,0m0,0,0,0,0,0m0,0,0,0,0,0m0,0,0,0,0,0m.08-.12a1,1,0,0,1-.08.11,1,1,0,0,0,.08-.11m0,0,0,0,0,0m0,0,0,0,0,0m1.08-2.27a16,16,0,0,1-1.08,2.26,16,16,0,0,0,1.08-2.26m0,0v0m0-.06,0,0,0,0m0-.08,0,.06,0-.06m0-.07v0m0-.06v0m0-.07v0m0-.06h0m0-.07h0m0-.08h0M907.3,517.59l-.91.42q.33,2.82.65,5.49a45.14,45.14,0,0,1,.26-5.91M1129.58,505l-.59.17.59-.17M784.25,470.6h0m378-18.47c-4.77,23.76-10.66,46.4-32.66,52.83,22-6.43,27.89-29.07,32.66-52.83m1.43-11.25a54,54,0,0,1-1.23,10.26,54,54,0,0,0,1.23-10.26m-13.88-53.41h0c5.57,11.41,3.11,24.49,8.67,35.89,2.08,4.26,4.18,8.6,4.91,13.37,0,.11,0,.22.05.33,0-.11,0-.22-.05-.33-.73-4.77-2.83-9.11-4.91-13.37-5.56-11.41-3.1-24.48-8.67-35.89m-76.5-125h0l35.26,37.32c5.48,5.8,11,11.71,14.64,19,2.3,4.65,3.74,9.75,5.84,14.51,4,9.09,10.35,16.72,15.2,25.32,3.67,6.51,6.52,14.07,6.51,21.61,0-7.54-2.84-15.1-6.51-21.61-4.85-8.6-11.18-16.23-15.2-25.32-2.1-4.76-3.54-9.86-5.84-14.51-3.6-7.3-9.16-13.21-14.64-19l-35.26-37.32h0M957.06,215.84c6,1.17,12,2.5,18,3.92q3.11.74,6.21,1.52-3.11-.78-6.21-1.52c-6-1.42-11.94-2.75-18-3.92m-41.57-4.47h-2.34c-18,.27-35.93,3.61-53.74,7h0c17.81-3.37,35.72-6.71,53.74-7h2.34m0,0h0" style="fill: #ddd"/>
        <path d="M846.46,527.7c1.69.49,3.4.9,5.11,1.22q-2.58-.51-5.11-1.22m-.07,0v0h0m56.78-8.19c-4.29,1.94-8.6,3.79-13,5.39a117.56,117.56,0,0,0,12.89-5.29l1.54,12c-.46-3.67-.95-7.77-1.47-12.12" style="fill: #ddd"/>
        <path d="M903.16,519.43c-4.84,2.2-9.72,4.28-14.65,6l1.7-.57c4.36-1.6,8.67-3.45,13-5.39v-.06" style="fill: #f0968c"/>
        <g>
          <path d="M1050.8,232.8C952,183.56,813,199.74,741.6,247.34s-75.44,146.82-66.22,162.78,15.15,46.55,39.9,60.84c18.05,10.42,44.75,16.68,60.83,16.85a19.37,19.37,0,0,1,17.65,12.25c11,27.14,33.19,64.44,55.41,70L999,596.6c2.47.07,4.91.11,7.3.11,35.84,0,72-18.26,94.93-41.14s73.57-39.78,73.57-99.75S1149.62,282.05,1050.8,232.8Zm-223,248.14a71.6,71.6,0,1,1,71.6-71.6A71.59,71.59,0,0,1,827.84,480.94Z" style="fill: #f2dcbd;opacity: 0.61"/>
          <path d="M999,596.6c2.47.07,4.91.11,7.3.11,35.84,0,72-18.26,94.93-41.14s73.57-39.78,73.57-99.75-25.13-173.77-124-223S813,199.74,741.6,247.34s-75.44,146.82-66.22,162.78,15.15,46.55,39.9,60.84c18.05,10.42,44.75,16.68,60.83,16.85a19.37,19.37,0,0,1,17.65,12.25c11,27.14,33.19,64.44,55.41,70" style="fill: none;stroke: #f2dcbd;stroke-miterlimit: 10;stroke-width: 12px"/>
        </g>
        <path d="M840.47,525.72l.08,0h0l-.08,0m-34.32-26.93a55.23,55.23,0,0,0,12.67,14.26c2,1.52,3.77,2.83,5.44,4a74.9,74.9,0,0,1-18.11-18.24" style="fill: #ddd"/>
        <path d="M911.26,870a5,5,0,0,1-4.42,5,4.58,4.58,0,0,1-.64,0,5,5,0,0,1-2.45-.64,5,5,0,0,0,2.45.64,4.58,4.58,0,0,0,.64,0,5,5,0,0,0,4.42-5M900.41,751.4q.63,6.57,1.22,13.12L903.18,782l-1.55-17.48Q901,758,900.41,751.4M895.87,712h0c.85,5.54,1.56,11.12,2.2,16.68-.64-5.56-1.35-11.14-2.2-16.68h0m-12.23-24.31c1.37,8.56,2.81,17,4,25.51-1.16-8.48-2.6-16.95-4-25.51m-4.32-46.37c0,2,.06,4,.12,6-.06-2-.12-4-.12-6m7.41-4.55v.79l.06,3.25c0,2.16.1,4.32.19,6.48.17,4.32.5,8.62.89,12.92l.15,1.61-.15-1.61c-.39-4.3-.72-8.6-.89-12.92-.09-2.16-.18-4.32-.19-6.48l-.06-3.25v-.79m2.39-27.57c-1.08,8.46-2.13,16.9-2.36,25.19.23-8.29,1.28-16.73,2.36-25.19m3.45-29.73v0m-9.27-28.35a21.44,21.44,0,0,1,2,5.44,53.47,53.47,0,0,1,1.1,11.72,53.47,53.47,0,0,0-1.1-11.72,21.44,21.44,0,0,0-2-5.44m-11.44-11.94h0m.72,0h0m0,0h0c.5,0,1.14,0,1.69,0s1.27.1,1.9.19a16.64,16.64,0,0,1,12.72,8.73,27.87,27.87,0,0,1,2.64,6.93A60.92,60.92,0,0,1,893,568.85c0,3.54-.15,7-.4,10.52.25-3.48.41-7,.4-10.52A60.92,60.92,0,0,0,891.54,555a27.87,27.87,0,0,0-2.64-6.93,16.64,16.64,0,0,0-12.72-8.73c-.63-.09-1.27-.14-1.9-.19s-1.19,0-1.69,0m-15.75-1.36h0a59.66,59.66,0,0,0,12.41,1.34h0a59.66,59.66,0,0,1-12.41-1.34h0M843,535.4a15.56,15.56,0,0,0,5.51,5.4,15.56,15.56,0,0,1-5.51-5.4m7.3-.43a11.1,11.1,0,0,0,1.19.78c-.34-.21-.72-.46-1.13-.74l-.06,0m-8.7-2.62a10.4,10.4,0,0,0,1.13,2.58,14.65,14.65,0,0,1-1.13-2.58m4.87-4.05a11.61,11.61,0,0,0,1.39,4,8.3,8.3,0,0,0,1,1.44,11.86,11.86,0,0,1-2.44-5.41" style="fill: #ddd"/>
        <path d="M985.33,887.72a1.68,1.68,0,0,1-1.5,1.66h0a1.68,1.68,0,0,0,1.5-1.66M964.57,699.64c.71,35.29,17.23,186.69,17.4,188.25a1.68,1.68,0,0,0,1.61,1.5,1.68,1.68,0,0,1-1.61-1.5c-.17-1.56-16.69-153-17.4-188.25m3.57-51.59c.2,9.32.06,20.51-.07,31.51-.08,6.42-.15,12.49-.15,17.93,0-5.44.07-11.51.15-17.93.13-11,.27-22.19.07-31.51m0-.37c0,.12,0,.24,0,.37,0-.13,0-.25,0-.37m0-.11v0m0-.13v0m0-.13h0M933,570.11c15.26,10.22,27.9,50.31,30.26,59.92,1.26,5.14,1.58,16.49,1.58,29.22,0-12.73-.32-24.08-1.58-29.22-2.36-9.61-15-49.7-30.26-59.92m2.19-2.58h0m-.18-.13h0m-.12-.08h0m-.06,0h0m-.13-.09,0,0,0,0m-.12-.07,0,0,0,0m-.08,0,0,0,0,0m-.11-.08,0,0,0,0m-.11-.06.07,0-.07,0m-.09-.06,0,0,0,0m-.1-.06,0,0,0,0m-.11-.07.07,0-.07,0m-.09-.06.06,0-.06,0m-.11-.06.08,0-.08,0m-.11-.06h0l.09.05-.09-.05h0M905.05,534.8l0,.21c.51,3.83,1,7,1.4,9.39,2.45,13.44,6.63,15.48,15.77,20,2.79,1.37,6,2.91,9.78,5.12-3.83-2.21-7-3.75-9.78-5.12-9.14-4.48-13.32-6.52-15.77-20-.44-2.39-.91-5.67-1.42-9.6" style="fill: #ddd"/>
        <path d="M879.49,463.66H777.85V362H879.49Zm-98.2-3.45h94.76V365.46H781.29Z" style="fill: #ffe100"/>
        <path d="M876.07,364.7,698.68,59.17a6.24,6.24,0,1,1,10.8-6.27l.07.13L879.47,362.77a2,2,0,0,1-3.4,1.93Z" style="fill: #ffe100"/>
        <path d="M779.15,463.74,388.28,374.59A6.24,6.24,0,0,1,391,362.4l-3.29,2L780,460.14a1.85,1.85,0,0,1-.84,3.6Z" style="fill: #ffe100"/>
        <path d="M512.24,181.51,503,184.79a1.87,1.87,0,0,1-.61.11,1.82,1.82,0,0,1-1.73-1.23,1.84,1.84,0,0,1,1.11-2.35l11.23-4A33.52,33.52,0,0,1,512.24,181.51Z" style="fill: #c7ccd1"/>
        <g style="clip-path: url(#clip-path-8)">
          <g style="clip-path: url(#clip-path-9)">
            <path d="M287.43,562.06c-120,2.51-1.85-558,20.91-643.41,23.12-86.77,475.42-191.45,480.3-159.34S2137.5,773.23,2045.35,761.26c-93.65-12.18-191.36-23.92-281.09,10.15-30.1,11.42-58.7,27.84-89.7,35.8-85.42,21.94-170.87-23-257.59-33.09C1209,750,1022.8,925.28,814.91,959.6,583.17,997.86,340.16,829.4,285.09,588.25c-13.18-57.72-15.76-122.14,12.06-174.59,30.8-58.07,91.76-89.55,134.62-138.27,51.61-58.66,76.45-141.8,135.37-192C667.36-1.92,818.33,43.35,933.21-16.77c32.4-16.95,63.08-42.64,98.86-43.95,22.84-.83,44.66,8.6,67.3,11.29,106.39,12.63,216.6-120.23,307.17-60.88" style="fill: #e64c3c"/>
            <g style="clip-path: url(#clip-path-10)">
              <polygon points="268.74 181.22 1021.64 -169.75 1445.46 -169.75 1867.57 904.96 1668.48 997.77 268.74 997.77 268.74 181.22" style="fill: #d33f33"/>
            </g>
            <path d="M699.15,150.1c-2.17.09-4.25.28-6.26.45l-4.27.39-3.34.38c-8.28.93-16.93,2.19-26.42,3.85-2.54.43-4.61.8-6.51,1.17l-6.47,1.2-3.42.68c-3.08.61-6.26,1.23-9.35,1.89-15.24,3.17-31.29,6.87-50.5,11.66-16.05,4-32.8,8.45-49.81,13.17-8.34,2.31-16.67,4.67-24.8,7,0,0-9.48,2.85-17.33,5.25a11.52,11.52,0,0,1-12.61-4.16c-6-8-12.17-16.64-18.33-25.65-12.25-17.89-24.56-37.29-38.75-61.06-2.81-4.7-5.85-9.83-9.28-15.67l-2.32-4-2.47-4.14-2.5-4.06-2.51-4c-3.6-5.62-7.26-11.17-10.92-16.65v57.88l3.55,6.15c14.24,24.52,26.63,44.59,39,63.17a652.3,652.3,0,0,0,44.84,60.25c9,10.57,17.48,19.72,26,28A270.87,270.87,0,0,0,534,298.6a176.35,176.35,0,0,0,35,20.16,130.77,130.77,0,0,0,20,6.64,110.27,110.27,0,0,0,21.47,3l6.71.2c.33,0,.65,0,1,.07l.7.06.79.06.92.08,2.64.36.78.15,1.69.33A28.72,28.72,0,0,1,636.07,334a19.08,19.08,0,0,1,3.47,3.2,17.23,17.23,0,0,1,2.4,3.88,20.8,20.8,0,0,1,1.58,4.85,33.2,33.2,0,0,1,.6,5.81,44.21,44.21,0,0,1-.44,6.41,57.84,57.84,0,0,1-1.41,6.67c-.09.31-.19.6-.28.91h36.3q.24-1.45.42-2.88a78.52,78.52,0,0,0,.64-11.86,69.43,69.43,0,0,0-1.47-12.36,56.94,56.94,0,0,0-4.27-12.49,52,52,0,0,0-7.43-11.47,53.48,53.48,0,0,0-10.06-9.08,56.73,56.73,0,0,0-11.46-6.17l-2.85-1.09-.24-.08-3.21-1c-.37-.12-.75-.24-1.16-.34l-2.12-.52c-.71-.18-1.42-.35-2.13-.5l-2.89-.53-1.37-.24-.19,0-1.38-.17-2.75-.34c-.66-.07-1.32-.12-2-.16l-1.75-.12c-.66,0-1.32-.09-2-.11l-7-.13a84.09,84.09,0,0,1-29.62-6.63,144,144,0,0,1-28.52-16c-4-2.85-12.5-10.12-23.23-19.95A11.51,11.51,0,0,1,534.66,232c4.5-1.4,8.49-2.64,10.83-3.35,16.56-5,32.84-9.74,48.38-14,18.51-5.08,33.93-9,48.54-12.43,2.89-.69,5.85-1.35,8.71-2l3.35-.74,6.1-1.29c1.75-.38,3.59-.75,6-1.22,8.66-1.73,16.47-3.06,23.87-4.08l2.93-.4,5.89-.67h.15V150.08Z" style="fill: #be202e"/>
            <path d="M674.25,365.77h8.06c.13-.79.24-1.58.34-2.36a84.33,84.33,0,0,0,.67-12.47,72.91,72.91,0,0,0-1.56-13.11,61,61,0,0,0-4.56-13.34,56.19,56.19,0,0,0-8-12.37,58,58,0,0,0-10.78-9.74,60.16,60.16,0,0,0-12.24-6.58l-.19-.08-2.75-1.05-.47-.17-2.76-.86-.1,0-.37-.11c-.43-.13-.86-.26-1.28-.37l-.1,0-1.38-.34-.78-.19c-.73-.18-1.47-.35-2.2-.51l-.26-.05-2.74-.5-1.41-.25-.39-.06-1.35-.17-2.75-.33h-.08c-.78-.09-1.51-.14-2.15-.18l-.8-.06h-.14l-.8-.05c-.64-.05-1.37-.1-2.13-.12h-.07l-2.64-.05-4.35-.08a80.21,80.21,0,0,1-28.18-6.33,140,140,0,0,1-27.73-15.58C552,265.5,543.44,258.17,533,248.59a7.55,7.55,0,0,1,2.86-12.77c5.08-1.58,8.71-2.71,10.8-3.34,16.51-5,32.76-9.72,48.29-14,18.47-5.07,33.83-9,48.35-12.39,2.91-.69,5.86-1.35,8.7-2l3.39-.75,6-1.27c1.79-.39,3.66-.77,5.94-1.21h.05c8.57-1.71,16.29-3,23.62-4l2.88-.4,2.85-.32,2.71-.31v-8l-.65.07-2.94.33-2.94.33-3,.41c-7.95,1.09-16,2.5-24.11,4.12-2,.39-4,.79-6.07,1.23l-6.08,1.28c-4,.91-8.11,1.79-12.17,2.76-16.23,3.77-32.46,8-48.66,12.46s-32.36,9.17-48.48,14.06c-2.34.71-6.35,2-10.86,3.36a15.48,15.48,0,0,0-5.86,26.2c9.07,8.31,18.82,16.87,23.62,20.26a147.83,147.83,0,0,0,29.31,16.45,88.23,88.23,0,0,0,31,6.92l4.35.08,2.65.05c.88,0,1.78.11,2.67.16s1.79.11,2.69.21l2.72.33,1.35.17,1.37.24,2.74.5c.92.2,1.84.43,2.76.65l1.38.34c.46.12.92.28,1.38.41l2.76.87,2.75,1.05a53.62,53.62,0,0,1,10.68,5.73,50.71,50.71,0,0,1,9.35,8.43A48.85,48.85,0,0,1,670,327.9a53.24,53.24,0,0,1,4,11.6,64.24,64.24,0,0,1,1.38,11.65,74.75,74.75,0,0,1-.61,11.26C674.63,363.54,674.45,364.66,674.25,365.77Z" style="fill: #8e1922"/>
            <path d="M401.06,80.63l2.47,4L406,88.74l2.31,3.94q4.62,7.88,9.29,15.69c12.45,20.85,25.27,41.38,38.88,61.27q9,13.11,18.43,25.79a15.53,15.53,0,0,0,12.44,6.25,15.28,15.28,0,0,0,4.51-.68c7.85-2.39,17.32-5.24,17.32-5.24q12.35-3.57,24.71-7,24.75-6.85,49.72-13.13c16.66-4.16,33.39-8.11,50.34-11.63,4.22-.9,8.49-1.72,12.74-2.57l6.41-1.19q3.21-.62,6.45-1.15c8.6-1.51,17.3-2.82,26.21-3.83l3.34-.38,3.39-.3c2.27-.2,4.52-.41,6.86-.52h.1v-7.95l-.5,0c-2.24.1-4.35.29-6.39.47l-.77.07-3.4.3-.19,0-3.34.38c-8.35.94-17.08,2.22-26.68,3.9-2.52.42-4.62.8-6.56,1.17l-6.39,1.19-.09,0-3.37.67c-3.11.61-6.32,1.24-9.48,1.92-15.24,3.16-31.33,6.88-50.6,11.68-16.08,4-32.87,8.46-49.92,13.19-8.37,2.32-16.72,4.69-24.8,7l-.08,0s-9.49,2.85-17.35,5.25a7.41,7.41,0,0,1-2.19.33,7.63,7.63,0,0,1-6.08-3.07c-6-8-12.11-16.56-18.24-25.51-12.19-17.81-24.46-37.15-38.62-60.86-2.85-4.77-5.87-9.89-9.25-15.64l-2.31-3.94,0,0-2.43-4.08-.06-.1-2.48-4-.05-.08-2.5-4c-3.27-5.1-6.58-10.14-9.88-15.1H391v7.73c2.54,3.84,5.07,7.69,7.57,11.61Z" style="fill: #8e1922"/>
            <path d="M638.43,363.85c-.19.65-.4,1.28-.6,1.92h8.3a59.91,59.91,0,0,0,1.48-7,46.9,46.9,0,0,0,.48-7,36.82,36.82,0,0,0-.67-6.52,26,26,0,0,0-1.86-5.73,21.37,21.37,0,0,0-3-4.78,23.67,23.67,0,0,0-4.17-3.86,33,33,0,0,0-11.86-5l-1.77-.34-.88-.17-.91-.12-1.83-.25c-.61-.08-1.25-.11-1.88-.16s-1.25-.12-1.89-.15l-1.94-.06-4.8-.14a106,106,0,0,1-20.66-2.9,125.71,125.71,0,0,1-19.37-6.44,173.09,173.09,0,0,1-34.25-19.71,269.33,269.33,0,0,1-29.24-24.92c-9.1-8.85-17.6-18.16-25.72-27.71a648.35,648.35,0,0,1-44.57-59.88c-13.73-20.61-26.53-41.71-38.87-63q-3.53-6.08-7-12.16v15.93l.12.21c14.28,24.6,26.71,44.73,39.13,63.38a655.57,655.57,0,0,0,45.12,60.61c9.07,10.68,17.66,19.93,26.25,28.27a274.53,274.53,0,0,0,30.11,25.65,180.19,180.19,0,0,0,35.82,20.61,134.72,134.72,0,0,0,20.6,6.84,113.49,113.49,0,0,0,22.2,3.11h.08l4.8.14,1.92.06.73.05.77.07.78.06.72.06,1.78.25.7.09.62.12h.06l1.61.31a25.15,25.15,0,0,1,8.86,3.67,15.57,15.57,0,0,1,2.75,2.53,13.45,13.45,0,0,1,1.84,3,18.28,18.28,0,0,1,1.28,3.92,30.5,30.5,0,0,1,.53,5.15,40.72,40.72,0,0,1-.42,5.82A51.91,51.91,0,0,1,638.43,363.85Z" style="fill: #8e1922"/>
            <g style="clip-path: url(#clip-path-11)">
              <polygon points="572.03 88.26 498.11 87.08 498.11 79.11 572.03 79.11 572.03 88.26" style="fill: #85161f"/>
              <polygon points="572.03 89.91 498.11 88.73 498.11 87.08 572.03 88.26 572.03 89.91" style="fill: #85161f"/>
              <polygon points="572.03 91.56 498.11 90.38 498.11 88.73 572.03 89.91 572.03 91.56" style="fill: #86161f"/>
              <polygon points="572.03 93.21 498.11 92.03 498.11 90.38 572.03 91.56 572.03 93.21" style="fill: #871620"/>
              <polygon points="572.03 94.86 498.11 93.68 498.11 92.03 572.03 93.21 572.03 94.86" style="fill: #881720"/>
              <polygon points="572.03 96.52 498.11 95.33 498.11 93.68 572.03 94.86 572.03 96.52" style="fill: #891720"/>
              <polygon points="572.03 98.17 498.11 96.98 498.11 95.33 572.03 96.52 572.03 98.17" style="fill: #8a1720"/>
              <polygon points="572.03 99.82 498.11 98.64 498.11 96.98 572.03 98.17 572.03 99.82" style="fill: #8b1721"/>
              <polygon points="572.03 101.47 498.11 100.29 498.11 98.64 572.03 99.82 572.03 101.47" style="fill: #8c1721"/>
              <polygon points="572.03 103.12 498.11 101.94 498.11 100.29 572.03 101.47 572.03 103.12" style="fill: #8d1721"/>
              <polygon points="572.03 104.77 498.11 103.59 498.11 101.94 572.03 103.12 572.03 104.77" style="fill: #8e1821"/>
              <polygon points="572.03 106.42 498.11 105.24 498.11 103.59 572.03 104.77 572.03 106.42" style="fill: #8f1822"/>
              <polygon points="572.03 108.07 498.11 106.89 498.11 105.24 572.03 106.42 572.03 108.07" style="fill: #901822"/>
              <polygon points="572.03 109.72 498.11 108.54 498.11 106.89 572.03 108.07 572.03 109.72" style="fill: #911822"/>
              <polygon points="572.03 111.37 498.11 110.19 498.11 108.54 572.03 109.72 572.03 111.37" style="fill: #931823"/>
              <polygon points="572.03 113.02 498.11 111.84 498.11 110.19 572.03 111.37 572.03 113.02" style="fill: #941923"/>
              <polygon points="572.03 114.67 498.11 113.49 498.11 111.84 572.03 113.02 572.03 114.67" style="fill: #951923"/>
              <polygon points="572.03 116.32 498.11 115.14 498.11 113.49 572.03 114.67 572.03 116.32" style="fill: #961923"/>
              <polygon points="572.03 117.97 498.11 116.79 498.11 115.14 572.03 116.32 572.03 117.97" style="fill: #971924"/>
              <polygon points="572.03 119.62 498.11 118.44 498.11 116.79 572.03 117.97 572.03 119.62" style="fill: #981924"/>
              <polygon points="572.03 121.28 498.11 120.09 498.11 118.44 572.03 119.62 572.03 121.28" style="fill: #991924"/>
              <polygon points="572.03 122.93 498.11 121.75 498.11 120.09 572.03 121.28 572.03 122.93" style="fill: #9a1a24"/>
              <polygon points="572.03 124.58 498.11 123.4 498.11 121.75 572.03 122.93 572.03 124.58" style="fill: #9b1a25"/>
              <polygon points="572.03 126.23 498.11 125.05 498.11 123.4 572.03 124.58 572.03 126.23" style="fill: #9c1a25"/>
              <polygon points="572.03 127.88 498.11 126.7 498.11 125.05 572.03 126.23 572.03 127.88" style="fill: #9d1a25"/>
              <polygon points="572.03 129.53 498.11 128.35 498.11 126.7 572.03 127.88 572.03 129.53" style="fill: #9e1a26"/>
              <polygon points="572.03 131.18 498.11 130 498.11 128.35 572.03 129.53 572.03 131.18" style="fill: #9f1b26"/>
              <polygon points="572.03 132.83 498.11 131.65 498.11 130 572.03 131.18 572.03 132.83" style="fill: #a01b26"/>
              <polygon points="572.03 134.48 498.11 133.3 498.11 131.65 572.03 132.83 572.03 134.48" style="fill: #a11b26"/>
              <polygon points="572.03 136.13 498.11 134.95 498.11 133.3 572.03 134.48 572.03 136.13" style="fill: #a21b27"/>
              <polygon points="572.03 137.78 498.11 136.6 498.11 134.95 572.03 136.13 572.03 137.78" style="fill: #a31b27"/>
              <polygon points="572.03 139.43 498.11 138.25 498.11 136.6 572.03 137.78 572.03 139.43" style="fill: #a41b27"/>
              <polygon points="572.03 141.08 498.11 139.9 498.11 138.25 572.03 139.43 572.03 141.08" style="fill: #a51c27"/>
              <polygon points="572.03 142.73 498.11 141.55 498.11 139.9 572.03 141.08 572.03 142.73" style="fill: #a61c28"/>
              <polygon points="572.03 144.38 498.11 143.21 498.11 141.55 572.03 142.73 572.03 144.38" style="fill: #a71c28"/>
              <polygon points="572.03 146.03 498.11 144.86 498.11 143.21 572.03 144.38 572.03 146.03" style="fill: #a81c28"/>
              <polygon points="572.03 147.69 498.11 146.51 498.11 144.86 572.03 146.03 572.03 147.69" style="fill: #a91c29"/>
              <polygon points="572.03 149.34 498.11 148.16 498.11 146.51 572.03 147.69 572.03 149.34" style="fill: #aa1d29"/>
              <polygon points="572.03 150.99 498.11 149.81 498.11 148.16 572.03 149.34 572.03 150.99" style="fill: #ab1d29"/>
              <polygon points="572.03 152.64 498.11 151.46 498.11 149.81 572.03 150.99 572.03 152.64" style="fill: #ac1d29"/>
              <polygon points="572.03 154.29 498.11 153.11 498.11 151.46 572.03 152.64 572.03 154.29" style="fill: #ad1d2a"/>
              <polygon points="572.03 155.94 498.11 154.76 498.11 153.11 572.03 154.29 572.03 155.94" style="fill: #ae1d2a"/>
              <polygon points="572.03 157.59 498.11 156.41 498.11 154.76 572.03 155.94 572.03 157.59" style="fill: #af1d2a"/>
              <polygon points="572.03 159.24 498.11 158.06 498.11 156.41 572.03 157.59 572.03 159.24" style="fill: #b01e2a"/>
              <polygon points="572.03 160.89 498.11 159.71 498.11 158.06 572.03 159.24 572.03 160.89" style="fill: #b11e2b"/>
              <polygon points="572.03 162.54 498.11 161.36 498.11 159.71 572.03 160.89 572.03 162.54" style="fill: #b21e2b"/>
              <polygon points="572.03 164.19 498.11 163.01 498.11 161.36 572.03 162.54 572.03 164.19" style="fill: #b31e2b"/>
              <polygon points="572.03 165.84 498.11 164.66 498.11 163.01 572.03 164.19 572.03 165.84" style="fill: #b41e2b"/>
              <polygon points="572.03 167.49 498.11 166.31 498.11 164.66 572.03 165.84 572.03 167.49" style="fill: #b51e2c"/>
              <polygon points="572.03 169.15 498.11 167.97 498.11 166.31 572.03 167.49 572.03 169.15" style="fill: #b61f2c"/>
              <polygon points="572.03 170.8 498.11 169.62 498.11 167.97 572.03 169.15 572.03 170.8" style="fill: #b71f2c"/>
              <polygon points="572.03 172.45 498.11 171.27 498.11 169.62 572.03 170.8 572.03 172.45" style="fill: #b81f2c"/>
              <polygon points="572.03 174.1 498.11 172.92 498.11 171.27 572.03 172.45 572.03 174.1" style="fill: #b91f2d"/>
              <polygon points="572.03 175.75 498.11 174.57 498.11 172.92 572.03 174.1 572.03 175.75" style="fill: #ba1f2d"/>
              <polygon points="572.03 177.4 498.11 176.22 498.11 174.57 572.03 175.75 572.03 177.4" style="fill: #bb202d"/>
              <polygon points="572.03 179.05 498.11 177.87 498.11 176.22 572.03 177.4 572.03 179.05" style="fill: #bc202e"/>
              <polygon points="572.03 180.7 498.11 179.52 498.11 177.87 572.03 179.05 572.03 180.7" style="fill: #bd202e"/>
              <polygon points="572.03 182.35 498.11 181.17 498.11 179.52 572.03 180.7 572.03 182.35" style="fill: #be202e"/>
              <polygon points="498.11 181.17 572.03 182.35 572.03 191.71 498.11 191.71 498.11 181.17" style="fill: #be202e"/>
            </g>
            <g style="clip-path: url(#clip-path-12)">
              <rect x="497.27" y="172.09" width="75.75" height="22.39" style="fill: #8d1721"/>
              <rect x="497.27" y="170.36" width="75.75" height="1.73" style="fill: #8d1721"/>
              <rect x="497.27" y="168.63" width="75.75" height="1.73" style="fill: #8c1721"/>
              <rect x="497.27" y="166.89" width="75.75" height="1.73" style="fill: #8b1720"/>
              <rect x="497.27" y="165.16" width="75.75" height="1.73" style="fill: #8a1620"/>
              <rect x="497.27" y="163.43" width="75.75" height="1.73" style="fill: #891620"/>
              <rect x="497.27" y="161.7" width="75.75" height="1.73" style="fill: #881620"/>
              <rect x="497.27" y="159.97" width="75.75" height="1.73" style="fill: #87161f"/>
              <rect x="497.27" y="158.24" width="75.75" height="1.73" style="fill: #86151f"/>
              <rect x="497.27" y="156.51" width="75.75" height="1.73" style="fill: #85151f"/>
              <rect x="497.27" y="154.78" width="75.75" height="1.73" style="fill: #84151e"/>
              <rect x="497.27" y="153.05" width="75.75" height="1.73" style="fill: #83151e"/>
              <rect x="497.27" y="151.32" width="75.75" height="1.73" style="fill: #82151e"/>
              <rect x="497.27" y="149.59" width="75.75" height="1.73" style="fill: #81141d"/>
              <rect x="497.27" y="147.86" width="75.75" height="1.73" style="fill: #80141d"/>
              <rect x="497.27" y="146.13" width="75.75" height="1.73" style="fill: #7f141d"/>
              <rect x="497.27" y="144.4" width="75.75" height="1.73" style="fill: #7e141c"/>
              <rect x="497.27" y="142.67" width="75.75" height="1.73" style="fill: #7d131c"/>
              <rect x="497.27" y="140.94" width="75.75" height="1.73" style="fill: #7c131c"/>
              <rect x="497.27" y="139.21" width="75.75" height="1.73" style="fill: #7b131c"/>
              <rect x="497.27" y="137.48" width="75.75" height="1.73" style="fill: #7a131b"/>
              <rect x="497.27" y="135.75" width="75.75" height="1.73" style="fill: #79131b"/>
              <rect x="497.27" y="134.02" width="75.75" height="1.73" style="fill: #78121b"/>
              <rect x="497.27" y="132.29" width="75.75" height="1.73" style="fill: #77121a"/>
              <rect x="497.27" y="130.56" width="75.75" height="1.73" style="fill: #76121a"/>
              <rect x="497.27" y="128.83" width="75.75" height="1.73" style="fill: #75121a"/>
              <rect x="497.27" y="127.09" width="75.75" height="1.73" style="fill: #741119"/>
              <rect x="497.27" y="125.36" width="75.75" height="1.73" style="fill: #731119"/>
              <rect x="497.27" y="123.63" width="75.75" height="1.73" style="fill: #721119"/>
              <rect x="497.27" y="121.9" width="75.75" height="1.73" style="fill: #711118"/>
              <rect x="497.27" y="120.17" width="75.75" height="1.73" style="fill: #701018"/>
              <rect x="497.27" y="118.44" width="75.75" height="1.73" style="fill: #6f1018"/>
              <rect x="497.27" y="116.71" width="75.75" height="1.73" style="fill: #6e1017"/>
              <rect x="497.27" y="114.98" width="75.75" height="1.73" style="fill: #6d1017"/>
              <rect x="497.27" y="113.25" width="75.75" height="1.73" style="fill: #6c1017"/>
              <rect x="497.27" y="111.52" width="75.75" height="1.73" style="fill: #6b0f16"/>
              <rect x="497.27" y="109.79" width="75.75" height="1.73" style="fill: #6a0f16"/>
              <rect x="497.27" y="108.06" width="75.75" height="1.73" style="fill: #690f16"/>
              <rect x="497.27" y="106.33" width="75.75" height="1.73" style="fill: #670f16"/>
              <rect x="497.27" y="104.6" width="75.75" height="1.73" style="fill: #660e15"/>
              <rect x="497.27" y="102.87" width="75.75" height="1.73" style="fill: #650e15"/>
              <rect x="497.27" y="101.14" width="75.75" height="1.73" style="fill: #640e15"/>
              <rect x="497.27" y="99.41" width="75.75" height="1.73" style="fill: #630e14"/>
              <rect x="497.27" y="97.68" width="75.75" height="1.73" style="fill: #620d14"/>
              <rect x="497.27" y="95.95" width="75.75" height="1.73" style="fill: #610d14"/>
              <rect x="497.27" y="94.22" width="75.75" height="1.73" style="fill: #600d13"/>
              <rect x="497.27" y="92.49" width="75.75" height="1.73" style="fill: #5f0d13"/>
              <rect x="497.27" y="90.76" width="75.75" height="1.73" style="fill: #5e0c13"/>
              <rect x="497.27" y="89.03" width="75.75" height="1.73" style="fill: #5d0c12"/>
              <rect x="497.27" y="87.3" width="75.75" height="1.73" style="fill: #5c0c12"/>
              <rect x="497.27" y="78.14" width="75.75" height="9.15" style="fill: #5c0c12"/>
            </g>
            <path d="M514.54,189.74s-3,5.91-11.71,8.54,66.18-18.4,54.67-15.93-12.84,2-17,.62" style="fill: #be202e"/>
            <path d="M543.64,166.48l7.43-2.63a1.84,1.84,0,0,1,1.23,3.46l-11.3,4A40,40,0,0,1,543.64,166.48Z" style="fill: #c7ccd1"/>
            <path d="M587.2,131.81a7.91,7.91,0,0,1-3.15-15.17l150.17-65a7.92,7.92,0,1,1,6.29,14.53l-150.17,65A7.92,7.92,0,0,1,587.2,131.81Z" style="fill: #c7ccd1"/>
            <path d="M613.5,192.19A7.92,7.92,0,0,1,611,176.77L726,138a7.91,7.91,0,0,1,5.05,15L616,191.77A7.93,7.93,0,0,1,613.5,192.19Z" style="fill: #c7ccd1"/>
            <path d="M565.8,179.85a15.94,15.94,0,1,1,5.06-.83h0A16,16,0,0,1,565.8,179.85Zm4.47-2.57h0Zm-4.47-25.65a12.27,12.27,0,1,0,3.89,23.91h0A12.29,12.29,0,0,0,577.42,160a12.33,12.33,0,0,0-11.62-8.38Z" style="fill: #c7ccd1"/>
            <path d="M504,191.31a1.84,1.84,0,0,1-.64-3.57l49.41-18.18A1.84,1.84,0,0,1,554,173l-49.41,18.18A1.76,1.76,0,0,1,504,191.31Z" style="fill: #c7ccd1"/>
            <line x1="590.24" y1="156.47" x2="725.1" y2="111.23" style="fill: #58595b"/>
            <path d="M590.23,162.93a6.46,6.46,0,0,1-2.05-12.59L723,105.1a6.47,6.47,0,0,1,4.12,12.26L592.29,162.59A6.4,6.4,0,0,1,590.23,162.93Z" style="fill: #58595b"/>
            <path d="M594.11,155.15A29.88,29.88,0,0,0,569.58,135l0,.09c-.09.21-.21.42-.31.63-.27.58-.56,1.16-.87,1.73s-.67,1.16-1,1.73-.78,1.16-1.19,1.73-.88,1.17-1.34,1.73l-.29.36c-.39.47-.8.92-1.22,1.37s-1.08,1.16-1.64,1.71a19,19,0,1,1,.92,37.26,5.43,5.43,0,1,0-1.86,10.7,28.66,28.66,0,0,0,5.06.44,29.86,29.86,0,0,0,28.34-39.36Z" style="fill: #58595b"/>
            <polygon points="561.63 146.13 561.65 146.11 561.59 146.13 561.63 146.13" style="fill: #7e141c"/>
            <path d="M570,134h-2.58l0,.08a8,8,0,0,1-.38.71c.87,0,1.73.11,2.59.22C569.73,134.69,569.85,134.35,570,134Z" style="fill: #78121b"/>
          </g>
        </g>
        <path d="M699.42,57.33V365.77H391V57.33H699.42m8-8H383V373.77H707.42V49.33Z" style="fill: #ffe100"/>
        <polyline points="852.73 393.17 950.64 347.77 981.59 291.86" style="fill: none;stroke: #c7ccd1;stroke-linecap: round;stroke-miterlimit: 10;stroke-width: 6.10142326354981px"/>
        <polyline points="862.52 417.26 957.25 383.07 1012.46 390.8" style="fill: none;stroke: #c7ccd1;stroke-linecap: round;stroke-miterlimit: 10;stroke-width: 6.10142326354981px"/>
        <path d="M835.28,410.64l4-1.5a.71.71,0,1,1,.51,1.32l-6.52,2.48Z" style="fill: #c7ccd1"/>
        <path d="M825.33,415.94l-4,1.5-.25,0a.69.69,0,0,1-.66-.45.71.71,0,0,1,.41-.92l4.23-1.6Z" style="fill: #c7ccd1"/>
        <path d="M846.42,414.47a5.18,5.18,0,0,1-6.65-3.55,5.73,5.73,0,0,1,3.31-7.12,5.18,5.18,0,0,1,6.65,3.54A5.74,5.74,0,0,1,846.42,414.47Z" style="fill: none;stroke: #c7ccd1;stroke-linecap: round;stroke-linejoin: round;stroke-width: 1.41760468482971px"/>
        <line x1="821.72" y1="419.33" x2="840.12" y2="412.08" style="fill: none;stroke: #c7ccd1;stroke-linecap: round;stroke-linejoin: round;stroke-width: 1.41760468482971px"/>
        <path d="M844.75,421.27a10.42,10.42,0,0,1-1.93-.18,2.1,2.1,0,0,1,.77-4.12,6.37,6.37,0,0,0,3.35-.27,7.82,7.82,0,0,0,4.44-9.74,7.39,7.39,0,0,0-3.73-4.5,6.46,6.46,0,0,0-5.08-.3,6.88,6.88,0,0,0-2.88,2,2.12,2.12,0,0,1-.85.58,5.11,5.11,0,0,0-.67-4.88,11.09,11.09,0,0,1,3-1.63,10.61,10.61,0,0,1,8.37.49,11.56,11.56,0,0,1,5.86,7c1.93,6.16-1.22,12.86-7,14.94A10.68,10.68,0,0,1,844.75,421.27Z" style="fill: #58595b"/>
        <polyline points="853.86 406.17 990.2 357.18 1019.91 380.39 1099.06 351.95 1104.55 369.46 1026.06 397.66 990.2 357.18" style="fill: #58595b"/>
        <path d="M853.86,408.66a2.49,2.49,0,0,1-.84-4.84l136.28-49a2.66,2.66,0,0,1,.91-.17h.19a2.46,2.46,0,0,1,1.37.55l28.59,22.33,77.86-28a2.49,2.49,0,0,1,3.22,1.6l5.48,17.51a2.49,2.49,0,0,1-1.53,3.09L1026.9,400a2.5,2.5,0,0,1-2.71-.7L989.45,360.1,854.7,408.51A2.48,2.48,0,0,1,853.86,408.66Zm156.24-32.77,16.7,18.86,74.65-26.82-4-12.76-76.71,27.56a2.49,2.49,0,0,1-2.38-.38Z" style="fill: #58595b"/>
        <circle cx="827.75" cy="410.3" r="71.6" transform="translate(268.31 1145.52) rotate(-79.1)" style="fill: none;stroke: #fff;stroke-miterlimit: 10;stroke-width: 2px;stroke-dasharray: 12,12"/>
      </g>
    </g>
    <text transform="translate(48.68 288.37)" style="font-size: 36.86349868774414px;font-family: Roboto-Medium, Roboto;font-weight: 500">Surgical <tspan x="145.4" y="0" style="letter-spacing: -0.041498642578887975em">T</tspan><tspan x="165.2" y="0">ools</tspan></text>
    <text transform="translate(48.68 191.71)" style="font-size: 36.86349868774414px;font-family: Roboto-Medium, Roboto;font-weight: 500">Clip on Aneu<tspan x="208.58" y="0" style="letter-spacing: 0.010742227619367427em">r</tspan><tspan x="221.74" y="0">ysm</tspan></text>
    <g>
      <line x1="505.6" y1="181.89" x2="351.75" y2="181.89" style="fill: none;stroke: #000;stroke-linecap: round;stroke-miterlimit: 10;stroke-width: 4px"/>
      <path d="M505.6,174.37a7.52,7.52,0,1,1-7.52,7.52A7.52,7.52,0,0,1,505.6,174.37Z"/>
    </g>
    <g>
      <polyline points="290.72 280.67 505.6 280.67 565.77 194.51" style="fill: none;stroke: #000;stroke-linecap: round;stroke-miterlimit: 10;stroke-width: 4px"/>
      <path d="M571.94,198.82a7.52,7.52,0,1,0-10.47,1.85A7.52,7.52,0,0,0,571.94,198.82Z"/>
    </g>
    <text transform="translate(48.68 513.79)" style="font-size: 36.86349868774414px;font-family: Roboto-Medium, Roboto;font-weight: 500">Opening in Skull</text>
    <g>
      <polyline points="322.31 506.08 505.6 506.08 756.14 413.73" style="fill: none;stroke: #000;stroke-linecap: round;stroke-miterlimit: 10;stroke-width: 4px"/>
      <path d="M758.74,420.79a7.52,7.52,0,1,0-9.65-4.46A7.53,7.53,0,0,0,758.74,420.79Z"/>
    </g>
    <g style="clip-path: url(#clip-path-13)">
      <g>
        <g>
          <path d="M-811.52-215.75C-804.72-153.4-750.41-5-734,55.08c5.91,21.57,12.74,43.57,26.49,60.46C-695.7,130-679.71,139.68-664,149.08L-394.2,310.93c40.86,24.51,82.28,49.27,127.81,62,36.1,10.06,73.9,12.26,111.41,11.38,116-2.73,231.53-34.78,336.92-89,34.72-17.87,68.55-38.23,98.95-63.67,43.78-36.64,79.53-83,120.75-122.91,39.24-38,83.9-70.61,115.43-116S562.53-209.27,536.13-257" style="fill: #a84038"/>
          <path d="M-1728.12-426.79c-127.18,2.66-255.87,5.17-379.2-25.14S-2350-549.24-2420.75-660.4c-80.16-126-87.73-288.58-92.71-442.21-3-93.45-5.85-188.73,18.27-279.25,24.51-92,75.46-173.68,128.7-251.15,81.13-118.06,170.73-231.83,281.56-318.1,204.34-159,777.89-271.25,812.51-277.79,127.34-24.06,681.46-24.56,826.58,10C-310.29-2186.6,7.8-2040.6,41.56-2031.32c25.19,6.93,383.32,296.06,467.36,385,39.15,41.45,131.38,205.61,146.43,239.65,28.72,65,74,119.56,108.66,181s59,136,39.78,205.88c39.78,81.57,22.23,175,62,256.6,14.84,30.43,29.88,61.5,35.05,95.55s.16,69.09-6.62,103.07c-34.42,172.4-75.5,338.16-235,384.81-75.07,22-154.06,12.15-230.7,2.19l-293-38.1c-99.28-12.9-202.87-25.35-298,10.76-31.9,12.11-62.23,29.52-95.09,38-90.56,23.26-181.14-24.43-273.07-35.08C-751.13-227.52-948.53-41.73-1168.92-5.34c-245.67,40.56-503.29-138-561.68-393.69-14-61.19-16.71-129.48,12.78-185.08,32.66-61.56,97.28-94.93,142.72-146.58,54.71-62.19,81-150.34,143.51-203.52,106.25-90.47,266.3-42.48,388.09-106.21,34.34-18,66.87-45.21,104.8-46.59,24.21-.89,47.35,9.11,71.35,12,112.78,13.39,229.62-127.45,325.63-64.54" style="fill: #e64c3c"/>
          <path d="M134.89-215.72C34.76-219.64-68-241.07-163.11-205c-31.91,12.11-62.23,29.52-95.09,38-90.56,23.26-181.14-24.43-273.08-35.08C-751.75-227.62-949.15-41.83-1169.54-5.44c-245.67,40.56-503.29-138-561.68-393.69-14-61.19-16.71-129.48,12.78-185.08,32.66-61.56,97.28-94.93,142.72-146.58,54.71-62.19,81-150.34,143.51-203.52,106.24-90.47,266.3-42.48,388.08-106.21,34.35-18,66.88-45.21,104.81-46.59,24.21-.89,47.34,9.11,71.35,12,112.78,13.39,229.62-127.45,325.63-64.54,83,51.38,142.39,115.58,163.55,200.5,155.59,98.3,275.91,243.51,351.22,448.61C4.24-501.34,258.4-210.87,134.89-215.72Z" style="fill: url(#linear-gradient)"/>
        </g>
        <path d="M19.13-760.69c-8.32-3.46-16.8-6.53-25.32-9.46-17-5.85-34.25-11.17-51.14-17.31q-12.67-4.56-25-9.91c-2-.92-4.11-1.77-6.13-2.74L-94.55-803c-4-2-8-4-11.87-6.23A204.23,204.23,0,0,1-129-823.56a177.72,177.72,0,0,1-20.32-17.21c-.79-.78-1.61-1.53-2.37-2.33l-2.28-2.43-2.27-2.43c-.76-.8-1.52-1.61-2.22-2.47l-4.28-5.09c-.73-.83-1.39-1.72-2-2.61l-2-2.65-2-2.65-.5-.66-.46-.69-.93-1.38-3.7-5.51c-1.2-1.87-2.29-3.8-3.44-5.69s-2.27-3.78-3.4-5.79c-4.55-7.9-9.48-15.55-14.68-23s-10.64-14.73-16.29-21.83a552.73,552.73,0,0,0-75.94-77.85,506.51,506.51,0,0,0-43.57-32.88,403.06,403.06,0,0,0-47.47-27.43,292.5,292.5,0,0,0-51.65-19.53,206.77,206.77,0,0,0-55.35-7.43,162.92,162.92,0,0,0-55.6,10.11c-2.26.76-4.42,1.75-6.63,2.64s-4.34,1.93-6.49,2.94c-1.07.52-2.16,1-3.21,1.54l-3.15,1.68-3.15,1.67-2.92,1.6-5.85,3.19c-2,1.06-3.88,2.16-5.87,3.16-3.94,2-7.87,4.1-11.83,6.1a677.26,677.26,0,0,1-98.63,40,761.92,761.92,0,0,1-103.45,24.93A872.55,872.55,0,0,1-898.8-982.41c-17.74.8-35.5,1.06-53.26.88h-1.77l-1.85,0c-1.23,0-2.46,0-3.68.06-2.45.1-4.9.18-7.32.39-4.86.31-9.65.92-14.42,1.57a267.56,267.56,0,0,0-27.94,5.8,429,429,0,0,0-52.88,18.05c-17.09,7-33.74,14.66-50.12,22.63s-32.52,16.25-48.54,24.51-31.93,16.49-47.84,24.22c-7.95,3.86-15.9,7.56-23.84,11s-15.88,6.56-23.65,9c-3.88,1.23-7.72,2.3-11.42,3.11a59.35,59.35,0,0,1-10.36,1.43l-6.3.08c-2.58,0-5,.17-7.47.3s-4.87.34-7.27.55l-3.6.32-3.54.4c-9.45,1.07-18.67,2.46-27.79,4.06-2.28.39-4.56.79-6.83,1.22l-6.8,1.27c-4.5.89-9,1.76-13.51,2.72-18,3.73-35.7,7.92-53.36,12.32s-35.21,9.08-52.7,13.93q-13.12,3.63-26.2,7.41s-10,3-18.37,5.56a16.44,16.44,0,0,1-18-5.9q-10-13.42-19.55-27.34c-14.43-21.09-28-42.85-41.21-65q-4.95-8.28-9.85-16.63l-2.45-4.18-2.58-4.33-2.63-4.27-2.65-4.2c-7.12-11.12-14.39-21.87-21.63-32.62-14.5-21.47-28.86-42.85-42.57-64.59s-26.83-43.78-38.87-66.34a638.11,638.11,0,0,1-32.18-69.3c-9.15-23.65-16.51-48-20.65-72.66-.29-1.54-.5-3.09-.72-4.64l-.67-4.64c-.41-3.09-.7-6.19-1.05-9.29s-.5-6.21-.67-9.31l-.18-4.65-.09-2.33c0-.77,0-1.55,0-2.32a186.63,186.63,0,0,1,3.19-36.78c4.58-24.11,51.47-88.29,56.33-92.18,9.73-7.78,146.57-76.38,170.8-85.1s48.75-16.74,73.44-24.2c49.4-14.9,99.49-27.62,150-38.58s101.38-20.12,152.53-27.54,102.56-13.11,154.13-16.86,103.28-5.57,155-5a1444.9,1444.9,0,0,1,154.76,9.56q19.26,2.28,38.44,5.21t38.23,6.53q19.06,3.63,38,8t37.58,9.61a718.26,718.26,0,0,1,73.54,24.72c24,9.6,24.31,9,.36-.89a716.71,716.71,0,0,0-73.36-25.68q-18.67-5.48-37.56-10.11t-38-8.47q-19.07-3.87-38.26-7t-38.49-5.71a1453,1453,0,0,0-155.15-11.52c-51.87-1.19-103.79,0-155.59,3.11s-103.49,8.19-155,15-102.69,15.4-153.58,25.78-101.44,22.55-151.41,37q-37.48,10.82-74.43,23.51c-24.61,8.51-96.93,38.65-108.68,44.48s-122.8,113.44-122.8,113.44l-1,2.37c-.32.79-.57,1.61-.87,2.41l-1.69,4.85c-.6,1.6-1,3.25-1.52,4.89l-1.43,4.92-1.2,5-.6,2.49-.29,1.24-.24,1.26a205.8,205.8,0,0,0-4,40.44c0,.84,0,1.69,0,2.53l.06,2.53.13,5c.14,3.37.39,6.72.6,10.08s.61,6.69,1,10l.65,5c.21,1.66.42,3.32.71,5,4.1,26.46,11.56,52.07,20.77,76.82a657.76,657.76,0,0,0,32.33,72c24.09,46.6,52.44,90.62,80.94,133.88,7.09,10.82,14.2,21.6,20.91,32.39l2.48,4,2.42,4,2.34,4.05,2.41,4.23q4.83,8.46,9.73,16.91c13.08,22.53,26.65,44.9,41.21,66.75a686.84,686.84,0,0,0,47.24,63.48c8.61,10.13,17.62,20,27.27,29.38a284.23,284.23,0,0,0,31,26.41,183,183,0,0,0,36.3,20.9,133,133,0,0,0,20.54,6.83,111.67,111.67,0,0,0,21.9,3.07l5.09.16,2,.06c.68,0,1.34.1,2,.15s1.34.09,2,.17l1.94.27,1,.12.93.19,1.87.36a34.89,34.89,0,0,1,12.58,5.3,24.69,24.69,0,0,1,4.42,4.09,23,23,0,0,1,3.16,5.07,27.68,27.68,0,0,1,2,6.07,40.34,40.34,0,0,1,.71,6.92,49.82,49.82,0,0,1-.51,7.43,66.42,66.42,0,0,1-1.61,7.65,78.73,78.73,0,0,1-6.09,15.14c-1.25,2.48-2.71,4.87-4.2,7.24s-3.13,4.67-4.88,6.89a102.74,102.74,0,0,1-11.44,12.53,105.51,105.51,0,0,1-28.13,18.79,103.91,103.91,0,0,1-32.54,8.73c-1.41.13-2.82.29-4.23.33s-2.83.19-4.25.17l-4.56.06c-1.77,0-3.55,0-5.33.1a175.13,175.13,0,0,0-21.21,2,184.54,184.54,0,0,0-40.84,11.39,198.45,198.45,0,0,0-69.26,47.53,183.27,183.27,0,0,0-25.47,34.16,151.3,151.3,0,0,0-16.25,40.38,128.1,128.1,0,0,0-3.29,22.14,117,117,0,0,0,1,22.79,106.25,106.25,0,0,0,5.77,22.36,107.53,107.53,0,0,0,4.65,10.61c.44.86.91,1.7,1.36,2.55l.69,1.27c.24.43.43.81.75,1.34a57.87,57.87,0,0,0,3.88,5.79,56.39,56.39,0,0,0,9.74,10,64.57,64.57,0,0,0,11.27,7.18,88.73,88.73,0,0,0,23,7.49,153.51,153.51,0,0,0,21.83,2.41c7.08.31,14,.27,20.78.05,13.59-.45,26.75-1.56,39.67-2.62s25.58-2.13,37.92-2.59c6.17-.23,12.25-.3,18.17-.11a142.08,142.08,0,0,1,17.09,1.48,71.26,71.26,0,0,1,14.85,3.8,34,34,0,0,1,10.73,6.41,26.21,26.21,0,0,1,6.49,9.29,45.78,45.78,0,0,1,3.19,13.22c.25,2.49.38,5.08.4,7.74s-.11,5.41-.33,8.2a157.08,157.08,0,0,1-2.37,17.09,282.26,282.26,0,0,1-9.36,35.08l-3,9.27c-1,3.11-2,6.24-3,9.36s-2,6.26-3,9.39-2,6.28-2.9,9.43c-3.82,12.6-7.45,25.3-10.79,38.15s-6.4,25.85-9,39.09c-.61,3.33-1.28,6.63-1.82,10l-.84,5-.76,5.06c-.53,3.36-.92,6.79-1.37,10.19l-.55,5.14-.27,2.58-.22,2.6c-.64,6.9-.93,13.94-1,21a191.39,191.39,0,0,0,1,21.66,151.87,151.87,0,0,0,3.93,22.16,119.67,119.67,0,0,0,8,22,107.66,107.66,0,0,0,12.8,20.42,110.13,110.13,0,0,0,16.94,17,130,130,0,0,0,19.35,12.83,170.1,170.1,0,0,0,20.27,9.3c6.83,2.61,13.67,4.74,20.51,6.63l5.13,1.34c1.71.43,3.41.81,5.12,1.22l2.56.59,2.55.54,5.11,1c13.61,2.61,27.13,4.4,40.57,5.69s26.8,2,40.09,2.48q10,.34,19.9.46l5,.06,2.43,0,2.09.05,2.09,0,2.07.11,2.06.11,2,.19a104.17,104.17,0,0,1,15.72,2.57l.94.23.93.26,1.85.52c1.23.35,2.42.78,3.63,1.15s2.36.86,3.52,1.33,2.31.93,3.41,1.49A69.21,69.21,0,0,1-1132.31,131a89.36,89.36,0,0,1,9,12.39,116.79,116.79,0,0,1,7.27,14.4,176.29,176.29,0,0,1,9.92,32.77,306.26,306.26,0,0,1,5.06,35.67c2.1,24.33,2,49.38,1,74.53s-3.27,50.53-6,75.92-6,50.87-9.45,76.38c-7,51-14.88,102.26-21.65,154-3.38,25.89-6.46,51.93-8.84,78.23-1.19,13.16-2.19,26.37-2.92,39.68q-.54,10-.88,20c-.09,3.35-.19,6.71-.24,10.07l-.07,5.06c0,1.68,0,3.38,0,5-.26,52.4,1.31,105,5.06,157.39s9.77,104.7,17.23,156.44,16.14,103,24.35,154,16,101.88,22.85,152.85l0,.2,0,.21a30.88,30.88,0,0,0,35.52,26c16.72-2.73,27.94-18.7,25.48-35.46-7.53-51.45-16-102.72-24.93-153.69-8.89-51.16-18.12-102-26.1-152.69s-14.44-101.32-18.68-152.18-6.44-101.89-6.82-153.09c0-1.62,0-3.16,0-4.71v-4.66c0-3.1.06-6.22.11-9.34q.18-9.37.59-18.79c.53-12.56,1.33-25.18,2.31-37.84,2-25.32,4.66-50.76,7.67-76.26,6-51,13.29-102.29,19.7-154,3.2-25.85,6.2-51.81,8.66-78s4.39-52.46,5.22-79,.58-53.46-2.1-80.72a353.39,353.39,0,0,0-6.39-41.13,223.62,223.62,0,0,0-13.16-41.29,160.58,160.58,0,0,0-10.5-20.1,134.47,134.47,0,0,0-14.07-18.81A117,117,0,0,0-1116,84.34a114.18,114.18,0,0,0-20.92-12.12c-1.81-.86-3.68-1.55-5.52-2.31s-3.73-1.36-5.6-2-3.76-1.2-5.64-1.72l-2.84-.76-1.41-.37-1.42-.33a147.9,147.9,0,0,0-22.62-3.43l-2.8-.21-2.79-.13-2.79-.11-2.76,0-2.77,0H-1203q-9.49,0-19-.2c-12.59-.28-25.11-.85-37.47-1.85s-24.55-2.51-36.41-4.62l-4.41-.86-2.21-.43-2.17-.48c-1.45-.32-2.91-.62-4.34-1l-4.28-1.07c-5.66-1.49-11.22-3.14-16.52-5.09-10.57-3.92-20.27-8.86-28.2-15.1a65.27,65.27,0,0,1-18.54-22.64c-4.46-8.89-7.13-19.27-8.43-30.38A149.56,149.56,0,0,1-1386-40c0-5.84.14-11.75.62-17.75l.16-2.24.21-2.26.43-4.52c.36-3,.66-6,1.1-9.08l.63-4.55.71-4.57c.44-3,1-6.1,1.55-9.15,4.44-24.44,10.78-49,17.84-73.46.89-3.06,1.78-6.12,2.7-9.17s1.82-6.11,2.77-9.17,1.85-6.11,2.83-9.16l2.89-9.22a320.48,320.48,0,0,0,10.13-40.08,197.91,197.91,0,0,0,2.67-21.4c.24-3.68.33-7.42.29-11.22s-.29-7.69-.75-11.63a83.09,83.09,0,0,0-6.42-24.26,66.68,66.68,0,0,0-6.75-11.77,61.85,61.85,0,0,0-9.27-10.25,71.75,71.75,0,0,0-22.48-13.3,107.86,107.86,0,0,0-22.76-5.62,174.16,174.16,0,0,0-21.61-1.63c-7-.14-13.9,0-20.67.37-13.53.68-26.66,2-39.55,3.18s-25.52,2.43-37.82,3c-6.14.27-12.19.38-18,.19a119.13,119.13,0,0,1-16.77-1.6,54.72,54.72,0,0,1-13.92-4.21,24.89,24.89,0,0,1-9-7,10.91,10.91,0,0,1-.8-1.09c-.28-.35-.5-.77-.76-1.15-.11-.15-.29-.5-.44-.77l-.48-.86c-.31-.58-.64-1.14-1-1.72-1.17-2.34-2.3-4.69-3.23-7.13a72.47,72.47,0,0,1-4.11-15.13,82.9,82.9,0,0,1-.87-15.95,93.69,93.69,0,0,1,2.21-16.26,117.91,117.91,0,0,1,12.32-31.59,149.85,149.85,0,0,1,20.53-28.23,166.25,166.25,0,0,1,57.4-40.45,152.9,152.9,0,0,1,33.71-9.87,145.78,145.78,0,0,1,17.42-1.86c1.45-.1,2.91-.08,4.37-.13l5.16-.13c1.81,0,3.63-.18,5.45-.29s3.63-.31,5.44-.51a134.14,134.14,0,0,0,42-11.84,135.68,135.68,0,0,0,35.9-24.62,131.6,131.6,0,0,0,14.51-16.31c2.21-2.9,4.26-5.94,6.23-9s3.78-6.31,5.43-9.63a108.16,108.16,0,0,0,8.07-21,93.33,93.33,0,0,0,2.25-11.37,79.56,79.56,0,0,0,.64-11.93,67.53,67.53,0,0,0-1.47-12.35,55.55,55.55,0,0,0-4.2-12.3,51.44,51.44,0,0,0-7.27-11.24,53.68,53.68,0,0,0-9.91-8.94,56.23,56.23,0,0,0-11.33-6.07l-2.92-1.12-2.92-.92c-.49-.15-1-.31-1.47-.44l-1.46-.36c-1-.23-2-.48-2.92-.69l-2.9-.53-1.46-.26-1.43-.18-2.88-.35c-1-.1-1.9-.14-2.85-.22s-1.9-.14-2.84-.17l-2.8-.05-4.62-.08a93.57,93.57,0,0,1-32.88-7.34,156.46,156.46,0,0,1-31.08-17.44c-5.08-3.59-15.42-12.67-25-21.47a16.41,16.41,0,0,1,6.2-27.78c4.79-1.49,9-2.81,11.52-3.56q25.63-7.77,51.4-14.9c17.17-4.72,34.38-9.22,51.59-13.22,4.3-1,8.6-2,12.9-2.92l6.44-1.36c2.15-.47,4.29-.89,6.44-1.31,8.57-1.71,17.13-3.21,25.55-4.36l3.16-.44,3.12-.35,3.12-.35c1-.14,2-.17,3.06-.27,2-.15,4.09-.35,6-.38l7.2-.28a95.1,95.1,0,0,0,16.31-2.6c5.07-1.23,9.87-2.72,14.53-4.32,9.31-3.22,18-7,26.55-10.86s16.77-8,24.91-12.22c16.29-8.39,32.15-17.11,48-25.72s31.5-17.16,47.31-25.32,31.69-16,47.78-23a402.91,402.91,0,0,1,48.86-18,242,242,0,0,1,24.79-5.77c4.13-.66,8.27-1.29,12.38-1.65,2.06-.23,4.11-.34,6.16-.48,1-.08,2-.08,3.07-.12l1.53-.05,1.6,0c18.25-.25,36.5-1,54.71-2.21a897.24,897.24,0,0,0,108.55-14.08A784,784,0,0,0-683-999a696.37,696.37,0,0,0,100.42-43.48c4-2.16,8-4.38,12-6.56,2-1.08,4-2.25,5.94-3.39l5.93-3.42,3-1.71,2.78-1.56,2.77-1.57c.93-.51,1.9-1,2.84-1.44,1.9-1,3.78-2,5.75-2.76s3.86-1.79,5.86-2.51a146.69,146.69,0,0,1,49.91-10.28,191.72,191.72,0,0,1,51.54,5.71,278.87,278.87,0,0,1,49.67,17.46A390.32,390.32,0,0,1-338-1029a494.3,494.3,0,0,1,43.37,31.14,544.93,544.93,0,0,1,76.49,74.77q8.58,10.27,16.51,21.07c5.28,7.19,10.29,14.57,14.9,22.17,1.13,1.88,2.36,3.83,3.58,5.76s2.41,3.89,3.69,5.79l4,5.6,1,1.4.5.7.53.67,2.13,2.69,2.13,2.69c.71.9,1.41,1.8,2.18,2.64l4.54,5.15c.74.87,1.55,1.68,2.35,2.49l2.4,2.45,2.4,2.44c.81.81,1.67,1.56,2.5,2.34a181.22,181.22,0,0,0,21.27,17.16,207.38,207.38,0,0,0,23.33,14.09c4,2.16,8.1,4.07,12.19,6l6.2,2.76c2.07.93,4.18,1.74,6.26,2.62Q-71-789.31-58.18-785c17.11,5.75,34.44,10.67,51.59,16.1,8.57,2.73,17.1,5.59,25.48,8.84a190.3,190.3,0,0,1,24.48,11.31A190.35,190.35,0,0,0,19.13-760.69Z" style="fill: #be202e"/>
      </g>
    </g>
  </g>
</svg>
