<svg xmlns="http://www.w3.org/2000/svg" xmlns:xlink="http://www.w3.org/1999/xlink" viewBox="0 0 1231.2 867.17">
  <defs>
    <clipPath id="clip-path">
      <rect x="-1987.07" y="-1526.74" width="282.79" height="282.79" style="fill: none"/>
    </clipPath>
    <clipPath id="clip-path-2">
      <rect x="365.73" y="1.71" width="863.75" height="863.75" style="fill: none"/>
    </clipPath>
    <clipPath id="clip-path-3">
      <path d="M1065.21,500c-14-.55-28.37-3.55-41.68,1.5-4.46,1.7-8.7,4.13-13.3,5.31-12.66,3.25-25.33-3.42-38.19-4.91-30.84-3.57-58.44,22.42-89.27,27.51-34.36,5.67-70.39-19.31-78.56-55.07-2-8.55-2.33-18.11,1.79-25.88,4.57-8.61,13.61-13.28,20-20.5,7.66-8.7,11.34-21,20.07-28.47,14.86-12.65,37.25-5.94,54.28-14.85,4.81-2.52,9.36-6.32,14.66-6.52,3.39-.12,6.62,1.28,10,1.67,15.77,1.88,32.11-17.82,45.54-9,11.61,7.18,19.92,16.16,22.88,28,21.76,13.75,38.59,34.06,49.12,62.74C1046.94,460.09,1082.49,500.71,1065.21,500Z" style="fill: none"/>
    </clipPath>
    <clipPath id="clip-path-4">
      <path d="M834.43,418.49c0-6.9-2.33-7-4.13-12.66s1.25-7.68,4.12-10.2,12.11,1.44,13.51,5.87-4.71,10.55-7.13,13-.89,5.95-.89,5.95A7.28,7.28,0,0,1,834.43,418.49Z" style="fill: none"/>
    </clipPath>
    <clipPath id="clip-path-5">
      <rect x="395.25" y="52.74" width="317.84" height="317.84" style="fill: none"/>
    </clipPath>
    <clipPath id="clip-path-6">
      <path d="M2053.74,761.27c-94.45-3.7-191.36-23.91-281.09,10.15-30.1,11.43-58.7,27.84-89.7,35.8-85.42,21.95-170.87-23-257.59-33.09C1217.39,750,1031.19,925.3,823.3,959.62c-231.74,38.26-474.75-130.2-529.82-371.36-13.19-57.72-15.77-122.14,12-174.58,30.81-58.07,91.76-89.55,134.63-138.27,51.61-58.66,76.44-141.81,135.37-192C675.74-1.9,826.72,43.36,941.6-16.75c32.4-17,63.08-42.65,98.86-43.95,22.84-.84,44.66,8.59,67.3,11.28,106.38,12.64,216.59-120.22,307.17-60.87,78.31,48.46,134.31,109,154.26,189.12C1716,171.55,1829.46,308.53,1900.5,502,1930.5,491.85,2170.25,765.84,2053.74,761.27Z" style="fill: none"/>
    </clipPath>
    <clipPath id="clip-path-7">
      <path d="M563.51,179.39c-35.16,8.79-6.9-23,2.88-31.25S581,132,581,115c0-19.75-16.54-35.76-37-35.76s-37,16-37,35.76c0,9.49,10.07,24.52,10.07,24.52,8.36,14.48,10.87,49.7,0,52.32" style="fill: none"/>
    </clipPath>
    <clipPath id="clip-path-8">
      <path d="M564.28,182.48a51.64,51.64,0,0,1-9.55,1.2,18.25,18.25,0,0,1-5.31-.59,9.11,9.11,0,0,1-2.89-1.42,6.51,6.51,0,0,1-2.16-2.94,7.6,7.6,0,0,1-.39-3.26,13.32,13.32,0,0,1,.57-2.73,24.6,24.6,0,0,1,2.07-4.55,57.43,57.43,0,0,1,5.43-7.67A102.81,102.81,0,0,1,565,147.36c4.68-3.71,8.86-7.89,11.39-13.15s3.5-11.19,3.69-17.14a36.53,36.53,0,0,0-.54-8.81,34.47,34.47,0,0,0-2.76-8.38,35.11,35.11,0,0,0-11.41-13.37,37,37,0,0,0-48.65,5.33,34.45,34.45,0,0,0-8,15.64c-.17.72-.27,1.45-.4,2.18s-.21,1.46-.25,2.19-.11,1.47-.11,2.21a15.56,15.56,0,0,0,.06,2.17,30.74,30.74,0,0,0,2.39,8.43,73.31,73.31,0,0,0,4,8q1.11,1.95,2.3,3.84c.4.63.8,1.26,1.21,1.88a9.47,9.47,0,0,1,.64,1c.21.36.39.69.58,1A65.32,65.32,0,0,1,524.78,158a82.29,82.29,0,0,1,1.63,18.45,38.84,38.84,0,0,1-1.35,9.53,17.18,17.18,0,0,1-2.18,4.85,10.32,10.32,0,0,1-2.07,2.24,8.33,8.33,0,0,1-3,1.53l-1.33-5.53a3.47,3.47,0,0,0,2.13-1.39,11.77,11.77,0,0,0,1.77-3.25,34.13,34.13,0,0,0,1.74-8.26,76.59,76.59,0,0,0-.56-17.62,62.21,62.21,0,0,0-4.71-17l-.48-1a7.55,7.55,0,0,0-.54-.92l-1.19-2q-1.15-2-2.22-4a77.68,77.68,0,0,1-3.83-8.34,33.68,33.68,0,0,1-2.26-9,16.82,16.82,0,0,1,0-2.35c0-.77.09-1.54.16-2.31s.2-1.53.29-2.3.27-1.51.47-2.26a35.84,35.84,0,0,1,8.57-16.1A37.62,37.62,0,0,1,530.93,81,39.58,39.58,0,0,1,549,79a37.72,37.72,0,0,1,29,20.22,36.24,36.24,0,0,1,3.07,8.71,38.5,38.5,0,0,1,.77,9.19,64.32,64.32,0,0,1-.76,9.17,36.5,36.5,0,0,1-2.63,8.94,33.06,33.06,0,0,1-5,7.91,64,64,0,0,1-6.54,6.53,96.43,96.43,0,0,0-11.81,13.24,53.81,53.81,0,0,0-4.62,7.37,19.15,19.15,0,0,0-1.46,3.76,4.56,4.56,0,0,0,0,2.9,1.4,1.4,0,0,0,.56.6,4,4,0,0,0,1.21.44,12.64,12.64,0,0,0,3.68.1,46.12,46.12,0,0,0,8.28-1.77Z" style="fill: none"/>
    </clipPath>
  </defs>
  <title>Artboard 1 copy 21</title>
  <g id="Layer_1" data-name="Layer 1">
    <path d="M554.39,456c.53,49.54.06,99.14,2.28,148.62" style="fill: #c6c6c6"/>
  </g>
  <g id="OptionIcons">
    <g style="clip-path: url(#clip-path-2)">
      <path d="M1158.19,933.25c-12.83-22.14-25.73-34.68-42.87-76.35s-6.43-65-6.43-123.64,41.78-136.62,85.18-226.62-37.77-244.31-140.38-290.92S795.47,192.1,732,244.65,653.57,390,653.57,402,665.13,441.79,650,468,596.22,550,588,576.88c-10.1,32.81,53.94,23.27,41.58,44.67s-2.23,27.67,8.9,34.09c-13,6.56-10.82,27.63-6.37,30.2s17.48,16.27,8.31,32.15-12.85,34,0,56.25S678.14,800,735.2,787.9s53.88,6.25,59.47,61.88c0,37.59,2.94,74.43,2.94,74.43" style="fill: #c6c6c6"/>
      <g>
        <path d="M916.76,514.49c-2.67,13.22,1.52,35.8,16.23,42,11.64,4.93,21.4,14.91,27.81,26.36,5.32,9.49,6.31,21,9.31,31.64s29.71,127.88,39.95,130c1.43.29,15-2.35,15.65-3.25,2.17-3-27.67-123.76-29.06-127.33C990.18,597.25,960,503.1,953.53,486.46" style="fill: #ff5d0a"/>
        <path d="M932.84,500c1,8.72,8.55,29.48,10.85,37.88.83,3,1.79,6.09,3.71,8.46a22.2,22.2,0,0,0,6.07,4.69l37.74,22.63c5.72,3.43,11.51,6.89,17.88,8.67a53.29,53.29,0,0,0,15.58,1.59,109.08,109.08,0,0,0,47.12-12.45,74.63,74.63,0,0,0,13.84-8.9c6.12-5.13,11.12-11.61,16.89-17.19,5.49-5.32,11.73-9.88,16.14-16.23s6.36-28.24,2.67-34.91" style="fill: #a84038"/>
        <path d="M804.65,470.52c-17.79.37-35.79.72-53-3.52s-33.94-13.61-43.83-29.16c-11.22-17.62-12.27-40.36-13-61.85-.42-13.07-.82-26.39,2.55-39.05,3.43-12.87,10.56-24.29,18-35.13,11.35-16.51,23.88-32.42,39.38-44.49,28.58-22.24,64.52-29.53,99.12-36.1l14.52-2.75c17.81-3.37,35.72-6.71,53.74-7,20.9-.31,41.57,3.54,61.87,8.37,19,4.52,37.91,10,55,19.74,4.28,2.45,8.5,5.2,13.22,6.49,3.52,1,7.23,1.11,10.74,2.12,7.72,2.23,13.72,8.43,19.36,14.41L1117.52,300c5.48,5.8,11,11.71,14.64,19,2.3,4.65,3.74,9.75,5.84,14.51,4,9.09,10.35,16.72,15.2,25.32s8.25,19,5.56,28.79c5.57,11.41,3.11,24.49,8.68,35.89,2.07,4.26,4.18,8.61,4.9,13.37s0,9.66-.93,14.41c-4.81,24.11-10.56,47.3-32.86,53.82-10.5,3.07-21.55,1.7-32.27.31l-41-5.33c-13.89-1.8-28.38-3.54-41.68,1.51-4.46,1.69-8.7,4.12-13.3,5.3-12.67,3.26-25.33-3.41-38.19-4.9-30.84-3.57-58.45,22.41-89.27,27.5-34.36,5.67-70.39-19.3-78.56-55.06-1.95-8.56-2.34-18.11,1.79-25.89,4.57-8.61,13.6-13.27,20-20.5,7.65-8.7,11.34-21,20.07-28.46,14.86-12.66,37.25-5.94,54.28-14.86,4.8-2.51,9.35-6.32,14.66-6.51,3.38-.13,6.62,1.27,10,1.67,15.77,1.87,32.11-17.83,45.54-9" style="fill: #e64c3c"/>
        <g style="clip-path: url(#clip-path-3)">
          <polygon points="801.88 412.08 909.28 362.01 976.35 362.01 1039.59 523.02 1013.65 535.12 801.88 535.12 801.88 412.08" style="fill: #d33f33"/>
          <polygon points="978.53 362.01 1041.44 522.16 1039.59 523.02 976.35 362.01 978.53 362.01" style="fill: #d33f33"/>
          <polygon points="980.72 362.01 1043.28 521.3 1041.44 522.16 978.53 362.01 980.72 362.01" style="fill: #d44034"/>
          <polygon points="982.9 362.01 1045.13 520.45 1043.28 521.3 980.72 362.01 982.9 362.01" style="fill: #d54034"/>
          <polygon points="985.08 362.01 1046.97 519.59 1045.13 520.45 982.9 362.01 985.08 362.01" style="fill: #d64135"/>
          <polygon points="987.26 362.01 1048.81 518.73 1046.97 519.59 985.08 362.01 987.26 362.01" style="fill: #d74235"/>
          <polygon points="989.44 362.01 1050.66 517.87 1048.81 518.73 987.26 362.01 989.44 362.01" style="fill: #d84336"/>
          <polygon points="991.63 362.01 1052.5 517.01 1050.66 517.87 989.44 362.01 991.63 362.01" style="fill: #d94336"/>
          <polygon points="993.81 362.01 1054.35 516.15 1052.5 517.01 991.63 362.01 993.81 362.01" style="fill: #da4437"/>
          <polygon points="995.99 362.01 1056.19 515.29 1054.35 516.15 993.81 362.01 995.99 362.01" style="fill: #db4537"/>
          <polygon points="998.17 362.01 1058.04 514.43 1056.19 515.29 995.99 362.01 998.17 362.01" style="fill: #dd4638"/>
          <polygon points="1000.35 362.01 1059.88 513.57 1058.04 514.43 998.17 362.01 1000.35 362.01" style="fill: #de4638"/>
          <polygon points="1002.54 362.01 1061.72 512.71 1059.88 513.57 1000.35 362.01 1002.54 362.01" style="fill: #df4739"/>
          <polygon points="1004.72 362.01 1063.57 511.85 1061.72 512.71 1002.54 362.01 1004.72 362.01" style="fill: #e04839"/>
          <polygon points="1006.9 362.01 1065.41 510.99 1063.57 511.85 1004.72 362.01 1006.9 362.01" style="fill: #e1483a"/>
          <polygon points="1009.08 362.01 1067.26 510.13 1065.41 510.99 1006.9 362.01 1009.08 362.01" style="fill: #e2493a"/>
          <polygon points="1011.26 362.01 1069.1 509.27 1067.26 510.13 1009.08 362.01 1011.26 362.01" style="fill: #e34a3b"/>
          <polygon points="1013.45 362.01 1070.95 508.41 1069.1 509.27 1011.26 362.01 1013.45 362.01" style="fill: #e44b3b"/>
          <polygon points="1015.63 362.01 1072.79 507.55 1070.95 508.41 1013.45 362.01 1015.63 362.01" style="fill: #e54b3c"/>
          <polygon points="1017.81 362.01 1074.63 506.69 1072.79 507.55 1015.63 362.01 1017.81 362.01" style="fill: #e64c3c"/>
          <polygon points="1082.48 503.03 1074.63 506.69 1017.81 362.01 1082.48 362.01 1082.48 503.03" style="fill: #e64c3c"/>
        </g>
      </g>
      <path d="M676.88,496a2.54,2.54,0,0,1-1.83-.76,2.58,2.58,0,0,1,0-3.65c7.33-7.34,13.72-11,18.31-12.85C686,475,675.84,469,674.29,464.21a4.64,4.64,0,0,1,.35-3.85l3.17-5.49a2.58,2.58,0,1,1,4.48,2.58l-3,5.29c.81,2.56,11.24,9.19,22.68,14.39a2.59,2.59,0,0,1-1.06,4.94c-.07,0-9.32.34-22.16,13.17A2.54,2.54,0,0,1,676.88,496Z" style="fill: #fff"/>
      <path d="M992.62,319.06a94.41,94.41,0,0,0-24.51-9.28,159,159,0,0,0-26-3.81,263.86,263.86,0,0,0-52.4,2.09,289.61,289.61,0,0,0-51.14,11.44c-4.14,1.37-8.24,2.86-12.26,4.54a91.92,91.92,0,0,0-11.65,5.74c-3.7,2.2-7.12,4.77-9.43,8.26a21.94,21.94,0,0,0-3.7,11.73,38.12,38.12,0,0,0,1.88,12.51,75.67,75.67,0,0,0,4.94,11.92c3.91,7.73,8.79,14.94,13.71,22.22.61.92,1.22,1.84,1.82,2.78s1.18,1.94,1.73,2.87c1.11,1.88,2.23,3.74,3.38,5.59a123.82,123.82,0,0,0,7.38,10.66,54.54,54.54,0,0,0,8.79,9.15,25,25,0,0,0,5.18,3.21,13.47,13.47,0,0,0,5.62,1.23,11.32,11.32,0,0,1,3.89.66,7.48,7.48,0,0,1,3.51,2.6,7.9,7.9,0,0,1,1.44,4.07,11.43,11.43,0,0,1-.43,3.95,16.79,16.79,0,0,1-3.64,6.48,18.8,18.8,0,0,1-13,6.3l-1.7.06a14.76,14.76,0,0,0-1.48.12,20.54,20.54,0,0,0-2.92.53,23,23,0,0,0-10.26,5.94,18.62,18.62,0,0,0-5.49,10.1,12.62,12.62,0,0,0-.1,2.74,11.54,11.54,0,0,0,.56,2.62,11.93,11.93,0,0,0,.54,1.22c.1.18.21.41.3.56a2.66,2.66,0,0,0,.28.38,3.87,3.87,0,0,0,1.69,1.11,15.63,15.63,0,0,0,5.58.61c2.06,0,4.21-.26,6.39-.47s4.42-.42,6.76-.46a20.78,20.78,0,0,1,7.41,1,9.78,9.78,0,0,1,3.72,2.36,9.29,9.29,0,0,1,2.22,3.91,17.76,17.76,0,0,1,.2,7.68,45.76,45.76,0,0,1-1.69,6.76c-.66,2.06-1.28,4.14-1.86,6.21a80.48,80.48,0,0,0-2.58,12.42c-.43,4.06-.26,8.17,1.46,11s5.07,4.59,9,5.51a59.56,59.56,0,0,0,12.4,1.34l3.21,0c.52,0,1.22,0,1.83,0s1.26.1,1.9.19a16.65,16.65,0,0,1,12.71,8.73,27.49,27.49,0,0,1,2.64,6.93A60.41,60.41,0,0,1,902,569c0,4.53-.25,9-.63,13.44-.78,8.87-2,17.59-3.14,26.27S896,626,895.73,634.47c0,1.07,0,2.11,0,3.18l.06,3.24c0,2.16.1,4.32.2,6.48.16,4.32.49,8.63.88,12.93,1.62,17.17,5.39,34.26,8,51.78,1.34,8.75,2.35,17.57,3.25,26.31s1.72,17.5,2.52,26.24l4.64,52.44,2.3,26.2,1.2,13.07.64,6.5.35,3.21c.12,1.06.27,2,.39,2.93l.07.51a5.05,5.05,0,0,1-10,1.26c-.15-1.19-.33-2.47-.44-3.59l-.33-3.33-.58-6.6-1.06-13.14-2-26.25-4-52.44q-1.05-13.11-2.22-26.17c-.8-8.72-1.69-17.33-2.9-26s-2.64-17.22-4-25.92-2.63-17.5-3.38-26.37c-.35-4.44-.64-8.89-.75-13.34-.07-2.22-.13-4.45-.12-6.67l0-3.33c0-1.13,0-2.28.07-3.41.37-9,1.61-17.81,2.83-26.52s2.56-17.34,3.42-25.94c.43-4.3.73-8.59.77-12.82a54.56,54.56,0,0,0-1.1-12.32c-.89-3.86-2.55-7.34-5.26-9.22a11.12,11.12,0,0,0-4.75-1.83c-.45-.07-.91-.1-1.37-.15l-1.47-.05c-1.12,0-2.24,0-3.37-.07a64.41,64.41,0,0,1-13.68-1.67,25.65,25.65,0,0,1-6.87-2.73,15.71,15.71,0,0,1-5.65-5.63,18,18,0,0,1-2.22-7.42,34,34,0,0,1,.17-7.16,85.09,85.09,0,0,1,2.91-13.28c.63-2.15,1.3-4.27,2-6.37a39.72,39.72,0,0,0,1.58-6,12.93,12.93,0,0,0,0-5.37,4,4,0,0,0-2.73-2.91,16.34,16.34,0,0,0-5.56-.73c-2,0-4.19.19-6.37.37s-4.41.37-6.73.41a20.18,20.18,0,0,1-7.4-1,8.68,8.68,0,0,1-3.66-2.57,7.86,7.86,0,0,1-.67-1c-.19-.32-.31-.59-.47-.89a14.27,14.27,0,0,1-.76-1.8,16.11,16.11,0,0,1-.77-3.81,17.28,17.28,0,0,1,.18-3.81,23.09,23.09,0,0,1,6.93-12.59,27.38,27.38,0,0,1,12.35-6.94,24.69,24.69,0,0,1,3.54-.6q.9-.11,1.8-.12l1.59,0a14.35,14.35,0,0,0,5.54-1.37,14.12,14.12,0,0,0,7.44-8.26,5.46,5.46,0,0,0-.34-4.62c-.74-1.11-2.38-1.69-4.26-1.7a17.88,17.88,0,0,1-7.12-1.64,29.15,29.15,0,0,1-5.93-3.77,57.68,57.68,0,0,1-9.28-9.88,124.36,124.36,0,0,1-7.46-11.05c-1.15-1.89-2.26-3.8-3.36-5.71-.56-1-1.07-1.89-1.63-2.79s-1.16-1.83-1.75-2.74c-4.8-7.31-9.7-14.72-13.62-22.7a78.75,78.75,0,0,1-5-12.43A40.57,40.57,0,0,1,799,349.65a24.15,24.15,0,0,1,9-18,43,43,0,0,1,5.59-3.8,94.16,94.16,0,0,1,12-5.73c4.1-1.66,8.26-3.12,12.46-4.44a290.62,290.62,0,0,1,51.57-10.88,264.29,264.29,0,0,1,52.6-1.46,159.62,159.62,0,0,1,26,4.14A94.84,94.84,0,0,1,992.62,319.06Z" style="fill: #be202e"/>
      <path d="M824.43,260.62a12.35,12.35,0,0,0-6,6.34,25,25,0,0,0-1.92,8.63c-.35,6-.57,12-.85,17.93L814,329.4a1.44,1.44,0,0,1-2.87-.13v-.06l3.06-35.78c.53-6,1-11.92,1.57-17.91a25.63,25.63,0,0,1,2.32-8.71A12.51,12.51,0,0,1,824.43,260.62Z" style="fill: #be202e"/>
      <path d="M913,251.59a14.77,14.77,0,0,0-6.28,5.1,24,24,0,0,0-3.51,7.32c-1.58,5.23-1.51,10.75-1.84,16.23a56.81,56.81,0,0,1-.95,8.26,24.17,24.17,0,0,1-3,7.87,41.8,41.8,0,0,1-5,6.77,45.26,45.26,0,0,1-6.16,5.73,1.08,1.08,0,0,1-1.31-1.72l0,0h0a42.57,42.57,0,0,0,11-11.6c3-4.48,3.77-9.94,4.27-15.37.25-2.72.41-5.46.73-8.2a38.73,38.73,0,0,1,1.69-8.11,24.57,24.57,0,0,1,3.81-7.32A15.06,15.06,0,0,1,913,251.59Z" style="fill: #be202e"/>
      <path d="M885.67,254.76a8.63,8.63,0,0,1,7.15,2.95,16.53,16.53,0,0,1,3.64,7.11c.72,2.59,1.11,5.19,1.93,7.67a28.44,28.44,0,0,0,3.08,7.08v0a.73.73,0,0,1-.21,1,.71.71,0,0,1-1-.21l0,0a29.89,29.89,0,0,1-3-7.55c-.34-1.29-.63-2.6-.86-3.92s-.44-2.6-.73-3.87a15.94,15.94,0,0,0-3.18-7.05A8.51,8.51,0,0,0,885.67,254.76Z" style="fill: #be202e"/>
      <path d="M986.27,274.24a37,37,0,0,1-4.76,11.32,50.43,50.43,0,0,1-7.78,9.59,52.94,52.94,0,0,1-9.84,7.51,42.87,42.87,0,0,1-11.5,4.79.71.71,0,0,1-.87-.53.72.72,0,0,1,.53-.87h0a42,42,0,0,0,11.28-4.32,52.32,52.32,0,0,0,9.89-7.11,49.56,49.56,0,0,0,8-9.25A36.77,36.77,0,0,0,986.27,274.24Z" style="fill: #be202e"/>
      <path d="M1055.32,426a38.15,38.15,0,0,0-7-2.82c-2.4-.76-4.82-1.45-7.21-2.25-4.76-1.61-9.51-3.75-13.23-7.3a27.14,27.14,0,0,1-4.75-6,50.91,50.91,0,0,0-4.4-6,76,76,0,0,0-10.69-10.46,62,62,0,0,0-12.59-7.92A32,32,0,0,0,981.31,380a20.74,20.74,0,0,0-7,1.43,24.72,24.72,0,0,0-3.22,1.6l-3.34,1.87a97.41,97.41,0,0,1-14,6.08,116.25,116.25,0,0,1-30,5.9c-2.55.2-5.1.27-7.65.32a27.5,27.5,0,0,0-6.93,1.14,77.77,77.77,0,0,0-13.51,5.73c-4.43,2.28-8.77,4.79-13.33,7.14a58.37,58.37,0,0,1-7.19,3.23,17.13,17.13,0,0,1-4.33.95l-1.84.11c-.55,0-1.16.14-1.74.2a122.67,122.67,0,0,0-14.39,3.24c-4.8,1.32-9.61,2.78-14.32,4.33h0a2.88,2.88,0,1,1-1.8-5.47l.07,0c4.89-1.48,9.76-2.83,14.7-4.07a126.89,126.89,0,0,1,15.15-3c.67-.05,1.31-.15,2-.18l1.93-.07a12.1,12.1,0,0,0,3-.62,53.34,53.34,0,0,0,6.64-2.81c4.45-2.16,8.9-4.58,13.48-6.81a82,82,0,0,1,14.41-5.69,31.35,31.35,0,0,1,8-1.09c2.48,0,5,0,7.44-.14a112.77,112.77,0,0,0,29.28-5,95.3,95.3,0,0,0,13.8-5.58l3.29-1.75a27.28,27.28,0,0,1,3.58-1.67,22.76,22.76,0,0,1,7.77-1.41,34.15,34.15,0,0,1,15,3.75A63,63,0,0,1,1009,390a78,78,0,0,1,10.62,10.88,52.92,52.92,0,0,1,4.33,6.27,26.47,26.47,0,0,0,4.48,5.91c3.53,3.54,8.15,5.77,12.85,7.48,2.36.85,4.77,1.6,7.15,2.42A38.35,38.35,0,0,1,1055.32,426Z" style="fill: #be202e"/>
      <path d="M837.64,264.74c6.52,3.62,13,7.69,18,13.4a34.66,34.66,0,0,1,6,9.59,36.42,36.42,0,0,1,2.52,11.09c.14,1.92.18,3.78.22,5.64s.12,3.73.26,5.58a71.31,71.31,0,0,0,1.45,11,26.85,26.85,0,0,0,4.15,9.83,17.83,17.83,0,0,0,3.63,3.73c.72.48,1.44,1,2.2,1.39s1.55.81,2.39,1.1l2.55.89c.92.34,1.88.58,2.77,1a25.86,25.86,0,0,1,5.2,2.91,20.75,20.75,0,0,1,7.35,9.53,24.2,24.2,0,0,1,1.11,12c-.07.49-.09,1-.2,1.48l-.33,1.45a23.08,23.08,0,0,1-.74,2.86l-.92,2.8-1.13,2.69c-.2.45-.38.9-.58,1.34l-.66,1.3-1.33,2.58-2.67,4.93-5.36,9.85-10.7,19.69-.05.08a2.88,2.88,0,1,1-5.06-2.75.22.22,0,0,0,0-.08l11.37-19.41,5.69-9.7,2.83-4.85,1.31-2.37.66-1.18c.2-.4.38-.81.57-1.22l1.13-2.45.91-2.51a21.05,21.05,0,0,0,.75-2.54l.33-1.28c.12-.42.14-.86.22-1.29A20.54,20.54,0,0,0,893,352.6a17.4,17.4,0,0,0-5.91-8.15,22.59,22.59,0,0,0-4.49-2.7c-.78-.41-1.65-.66-2.47-1l-2.72-1c-.92-.35-1.78-.89-2.67-1.33s-1.67-1.11-2.47-1.69a20.6,20.6,0,0,1-4-4.41,29.21,29.21,0,0,1-4.2-10.84c-1.44-7.52-1.16-15.15-1.26-22.54a34.83,34.83,0,0,0-2.09-10.77,33.43,33.43,0,0,0-5.57-9.52C850.34,272.85,844,268.57,837.64,264.74Z" style="fill: #be202e"/>
      <path d="M866.74,260.25a30.88,30.88,0,0,0-3.42,4.4,44.74,44.74,0,0,0-2.67,4.9,58.19,58.19,0,0,0-3.69,10.5h0a.36.36,0,0,1-.44.26.35.35,0,0,1-.26-.43h0a59.76,59.76,0,0,1,4.06-10.49,46.13,46.13,0,0,1,2.85-4.84A30.63,30.63,0,0,1,866.74,260.25Z" style="fill: #be202e"/>
      <path d="M996.4,260.25c.11,6.74.33,13.5-.18,20.27a56.41,56.41,0,0,1-1.63,10.06,28.32,28.32,0,0,1-4.26,9.38c-.48.73-1.11,1.35-1.66,2s-1.14,1.23-1.71,1.85q-1.66,1.86-3.23,3.83c-2.07,2.62-4,5.37-5.94,8.13A127.31,127.31,0,0,1,965,331.69c-4.62,4.84-9.05,9.93-13.39,15.05s-8.57,10.38-12.65,15.7-8,10.75-11.65,16.34c-1.81,2.79-3.53,5.62-5,8.5a33,33,0,0,0-3.39,8.58l0,.11a2.88,2.88,0,1,1-5.65-1.08.5.5,0,0,1,0-.12,37.47,37.47,0,0,1,4.31-10.08c1.73-3,3.63-5.91,5.59-8.72,3.93-5.62,8.13-11,12.45-16.21s8.77-10.36,13.32-15.38,9.18-10,14.06-14.73a124.29,124.29,0,0,0,13.14-15.13c2-2.68,4.09-5.39,6.29-8q1.67-1.95,3.44-3.8c.6-.6,1.23-1.21,1.79-1.8s1.14-1.16,1.61-1.83a27.23,27.23,0,0,0,4.37-8.81,55.47,55.47,0,0,0,2-9.84C996.25,273.76,996.27,267,996.4,260.25Z" style="fill: #be202e"/>
      <path d="M1019.37,312.19c.12,3.56.57,7.17-.08,10.74a17.46,17.46,0,0,1-4.84,9.57,27.84,27.84,0,0,1-9.06,5.93l-2.51,1.05a23,23,0,0,0-2.37,1.08,24.79,24.79,0,0,0-4.36,2.89,38.86,38.86,0,0,0-7.06,7.75,65.56,65.56,0,0,0-5.35,9.12,99.8,99.8,0,0,0-7.13,19.91l0,0a1.44,1.44,0,1,1-2.79-.68v0a102.72,102.72,0,0,1,8-20.22,66.31,66.31,0,0,1,5.82-9.2,40.08,40.08,0,0,1,7.63-7.82,26.35,26.35,0,0,1,4.67-2.89,23.56,23.56,0,0,1,2.55-1.05l2.48-.94a27.26,27.26,0,0,0,9-5.45,16.92,16.92,0,0,0,5-9.12C1019.7,319.38,1019.37,315.76,1019.37,312.19Z" style="fill: #be202e"/>
      <path d="M1028.06,318.68c-.47.81-.92,1.64-1.4,2.44s-1,1.6-1.55,2.36a43.8,43.8,0,0,1-3.54,4.41,35.56,35.56,0,0,1-4.2,3.84,22.66,22.66,0,0,1-5,3,.72.72,0,0,1-.55-1.33l0,0,.06,0a21.3,21.3,0,0,0,4.79-2.5,35,35,0,0,0,4.32-3.48,40.83,40.83,0,0,0,3.76-4.12c.6-.71,1.12-1.49,1.69-2.24S1027.54,319.46,1028.06,318.68Z" style="fill: #be202e"/>
      <path d="M1102.28,341.16a7.39,7.39,0,0,1-2.44-3.32c-.57-1.27-1-2.57-1.53-3.87a35.83,35.83,0,0,0-1.64-3.81,8,8,0,0,0-2.56-3.12,3.84,3.84,0,0,0-1.87-.55,5.31,5.31,0,0,0-2,.4,13.61,13.61,0,0,0-3.43,2.17c-1.07.88-2,1.88-3,2.84a20.54,20.54,0,0,1-3.38,2.53,22,22,0,0,1-8,2.71,52.38,52.38,0,0,1-8.38.44c-2.78,0-5.55-.08-8.26.17a24.15,24.15,0,0,0-4,.71,16,16,0,0,0-3.67,1.52,15.62,15.62,0,0,0-3.12,2.42,18.7,18.7,0,0,0-2.43,3.16c-1.4,2.31-2.72,4.81-4.09,7.21-2.72,4.85-5.47,9.69-8.45,14.42a96,96,0,0,1-10,13.56,35.38,35.38,0,0,1-6.47,5.7,16,16,0,0,1-8.52,2.94,1.44,1.44,0,0,1-.05-2.88h.05a13.27,13.27,0,0,0,7-2.32,33.06,33.06,0,0,0,6.1-5.16,94.07,94.07,0,0,0,10-13c3-4.61,5.88-9.37,8.7-14.15,1.43-2.39,2.76-4.77,4.28-7.18a20.91,20.91,0,0,1,2.72-3.37,17,17,0,0,1,3.49-2.6,18.58,18.58,0,0,1,4-1.57,25.34,25.34,0,0,1,4.22-.65,83.85,83.85,0,0,1,8.39,0,52.64,52.64,0,0,0,8.24-.25,21.06,21.06,0,0,0,7.74-2.45,19.45,19.45,0,0,0,3.32-2.37c1-.89,2-1.92,3.12-2.78a13.43,13.43,0,0,1,3.62-2.18,5.77,5.77,0,0,1,2.11-.39,4.29,4.29,0,0,1,2.06.66,8.29,8.29,0,0,1,2.6,3.3,36,36,0,0,1,1.57,3.87c.46,1.31.91,2.62,1.45,3.9A7.3,7.3,0,0,0,1102.28,341.16Z" style="fill: #be202e"/>
      <path d="M1131.56,395.31a8.89,8.89,0,0,0-4.44,1.52,25,25,0,0,0-3.71,2.95c-2.33,2.15-4.45,4.51-6.59,6.85a176.06,176.06,0,0,1-13.32,13.59,79.45,79.45,0,0,1-15.54,11,66,66,0,0,1-8.72,3.89c-3,1.06-6.06,1.93-9.09,2.86-12.13,3.71-24.26,7.47-36.65,10.35-6.2,1.41-12.46,2.59-18.78,3.41a124.43,124.43,0,0,1-19.11.86l-4.79-.3c-1.59-.18-3.18-.41-4.77-.61s-3.15-.57-4.73-.86l-4.64-.95a39.18,39.18,0,0,0-18.35,1,66.57,66.57,0,0,0-16.85,8c-2.66,1.67-5.26,3.46-7.87,5.25s-5.25,3.62-8.09,5.23a26,26,0,0,1-4.58,2,9,9,0,0,1-5.46.15,12.93,12.93,0,0,1-4.59-2.56,16.69,16.69,0,0,1-3.27-4c-1.75-2.85-2.8-6-4.44-8.25a4.81,4.81,0,0,0-2.95-2.08,6,6,0,0,0-1.9,0l-2.27.41a47.18,47.18,0,0,1-9.83.35c-3.21-.2-6.41-.53-9.58-.95-6.35-.87-12.61-2-18.87-3.41a1.69,1.69,0,1,1,.74-3.29h0c6.1,1.44,12.32,2.64,18.53,3.56,3.1.45,6.22.8,9.33,1a44.78,44.78,0,0,0,9.14-.21l1.09-.18c.44-.07.87-.18,1.32-.23a9.4,9.4,0,0,1,2.84.09,7.08,7.08,0,0,1,2.71,1.22,8.65,8.65,0,0,1,2,2,27.36,27.36,0,0,1,2.41,4.39c.67,1.45,1.32,2.84,2.08,4.13a14.24,14.24,0,0,0,2.7,3.37,10.24,10.24,0,0,0,3.63,2.07,6.34,6.34,0,0,0,3.91-.12,22.52,22.52,0,0,0,4.1-1.78c2.7-1.49,5.31-3.25,8-5s5.28-3.55,8-5.22a69.19,69.19,0,0,1,17.5-8.06A41.28,41.28,0,0,1,977,448l4.67,1c1.54.3,3,.72,4.62.89s3.1.45,4.66.65l4.7.34a122.58,122.58,0,0,0,18.86-.63c6.26-.75,12.49-1.85,18.67-3.18,12.36-2.73,24.52-6.35,36.68-9.93,3-.89,6.11-1.74,9.09-2.74a65.93,65.93,0,0,0,8.68-3.76,79,79,0,0,0,15.55-10.76,175.43,175.43,0,0,0,13.44-13.42c2.17-2.31,4.32-4.65,6.68-6.78a24.19,24.19,0,0,1,3.76-2.91A8.81,8.81,0,0,1,1131.56,395.31Z" style="fill: #be202e"/>
      <path d="M1128.85,468c-3.82-3.7-7.55-7.49-11.49-11.05a108.47,108.47,0,0,0-12.42-9.85,63.26,63.26,0,0,0-13.94-7.18,43,43,0,0,0-15.18-2.61h0a1.44,1.44,0,1,1,0-2.88h.06a45.84,45.84,0,0,1,16,3.47,65.32,65.32,0,0,1,14,8,110.11,110.11,0,0,1,12.09,10.51C1121.65,460.15,1125.2,464.11,1128.85,468Z" style="fill: #be202e"/>
      <path d="M992.62,889.5a1.7,1.7,0,0,1-1.68-1.5c-.17-1.59-17.42-159.68-17.42-190.4,0-5.46.07-11.54.15-18,.24-19.54.51-41.68-1.41-49.49-2.41-9.82-15.56-51.48-31.27-60.55-3.82-2.21-7-3.75-9.78-5.12-9.14-4.48-13.31-6.52-15.77-20-1-5.36-2.15-15.23-3.51-26.67-2.72-23-6.46-54.43-10.53-62.73a1.68,1.68,0,1,1,3-1.48c4.33,8.81,8,39.31,10.86,63.81,1.35,11.38,2.52,21.21,3.48,26.47,2.15,11.76,5.12,13.22,13.93,17.53,2.7,1.32,6.06,3,10,5.23,16.91,9.76,30.23,51.91,32.87,62.67,2,8.22,1.76,29.63,1.5,50.33-.07,6.42-.15,12.49-.15,17.93,0,30.54,17.23,188.44,17.4,190a1.68,1.68,0,0,1-1.49,1.86Z" style="fill: #be202e"/>
      <g style="clip-path: url(#clip-path-4)">
        <polygon points="828.51 410.49 849.07 415.49 847.84 420.54 828.51 420.54 828.51 410.49" style="fill: #b5282b"/>
        <polygon points="828.51 410.11 849.16 415.12 849.07 415.49 828.51 410.49 828.51 410.11" style="fill: #b5282b"/>
        <polygon points="828.51 409.72 849.25 414.76 849.16 415.12 828.51 410.11 828.51 409.72" style="fill: #b42729"/>
        <polygon points="828.51 409.34 849.34 414.4 849.25 414.76 828.51 409.72 828.51 409.34" style="fill: #b32628"/>
        <polygon points="828.51 408.95 849.34 414.01 849.34 414.39 849.34 414.4 828.51 409.34 828.51 408.95" style="fill: #b12426"/>
        <polygon points="828.51 408.57 849.34 413.63 849.34 414.01 828.51 408.95 828.51 408.57" style="fill: #b02325"/>
        <polygon points="828.51 408.19 849.34 413.24 849.34 413.63 828.51 408.57 828.51 408.19" style="fill: #af2224"/>
        <polygon points="828.51 407.8 849.34 412.86 849.34 413.24 828.51 408.19 828.51 407.8" style="fill: #ae2122"/>
        <polygon points="828.51 407.42 849.34 412.47 849.34 412.86 828.51 407.8 828.51 407.42" style="fill: #ad2021"/>
        <polygon points="828.51 407.03 849.34 412.09 849.34 412.47 828.51 407.42 828.51 407.03" style="fill: #ac1f1f"/>
        <polygon points="828.51 406.65 849.34 411.7 849.34 412.09 828.51 407.03 828.51 406.65" style="fill: #ab1d1e"/>
        <polygon points="828.51 406.26 849.34 411.32 849.34 411.7 828.51 406.65 828.51 406.26" style="fill: #aa1c1d"/>
        <polygon points="828.51 405.88 849.34 410.93 849.34 411.32 828.51 406.26 828.51 405.88" style="fill: #a91b1b"/>
        <polygon points="828.51 405.49 849.34 410.55 849.34 410.93 828.51 405.88 828.51 405.49" style="fill: #a81a1a"/>
        <polygon points="828.51 405.11 849.34 410.16 849.34 410.55 828.51 405.49 828.51 405.11" style="fill: #a71919"/>
        <polygon points="828.51 404.72 849.34 409.78 849.34 410.16 828.51 405.11 828.51 404.72" style="fill: #a61817"/>
        <polygon points="828.51 404.34 849.34 409.39 849.34 409.78 828.51 404.72 828.51 404.34" style="fill: #a51716"/>
        <polygon points="828.51 403.95 849.34 409.01 849.34 409.39 828.51 404.34 828.51 403.95" style="fill: #a41615"/>
        <polygon points="828.51 403.57 849.34 408.63 849.34 409.01 828.51 403.95 828.51 403.57" style="fill: #a31514"/>
        <polygon points="828.51 403.18 849.34 408.24 849.34 408.63 828.51 403.57 828.51 403.18" style="fill: #a21413"/>
        <polygon points="828.51 402.8 849.34 407.86 849.34 408.24 828.51 403.18 828.51 402.8" style="fill: #a11412"/>
        <polygon points="828.51 402.42 849.34 407.47 849.34 407.86 828.51 402.8 828.51 402.42" style="fill: #a01310"/>
        <polygon points="828.51 402.03 849.34 407.09 849.34 407.47 828.51 402.42 828.51 402.03" style="fill: #9f120f"/>
        <polygon points="828.51 401.64 849.34 406.7 849.34 407.09 828.51 402.03 828.51 401.64" style="fill: #9f110e"/>
        <polygon points="828.51 401.26 849.34 406.32 849.34 406.7 828.51 401.64 828.51 401.26" style="fill: #9e100d"/>
        <polygon points="828.51 400.88 849.34 405.93 849.34 406.32 828.51 401.26 828.51 400.88" style="fill: #9d0f0c"/>
        <polygon points="828.51 400.49 849.34 405.55 849.34 405.93 828.51 400.88 828.51 400.49" style="fill: #9c0f0b"/>
        <polygon points="828.51 400.11 849.34 405.16 849.34 405.55 828.51 400.49 828.51 400.11" style="fill: #9c0e0a"/>
        <polygon points="828.51 399.72 849.34 404.78 849.34 405.16 828.51 400.11 828.51 399.72" style="fill: #9b0d0a"/>
        <polygon points="828.51 399.34 849.34 404.39 849.34 404.78 828.51 399.72 828.51 399.34" style="fill: #9a0c09"/>
        <polygon points="828.51 398.95 849.34 404.01 849.34 404.39 828.51 399.34 828.51 398.95" style="fill: #9a0c08"/>
        <polygon points="828.51 398.57 849.34 403.62 849.34 404.01 828.51 398.95 828.51 398.57" style="fill: #990b07"/>
        <polygon points="828.51 398.18 849.34 403.24 849.34 403.62 828.51 398.57 828.51 398.18" style="fill: #980b06"/>
        <polygon points="828.51 397.8 849.34 402.86 849.34 403.24 828.51 398.18 828.51 397.8" style="fill: #980a06"/>
        <polygon points="828.51 397.41 849.34 402.47 849.34 402.86 828.51 397.8 828.51 397.41" style="fill: #970905"/>
        <polygon points="828.51 397.03 849.34 402.08 849.34 402.47 828.51 397.41 828.51 397.03" style="fill: #970904"/>
        <polygon points="828.51 396.64 849.34 401.7 849.34 402.08 828.51 397.03 828.51 396.64" style="fill: #960804"/>
        <polygon points="828.51 396.26 849.34 401.32 849.34 401.7 828.51 396.64 828.51 396.26" style="fill: #960803"/>
        <polygon points="828.51 395.87 849.34 400.93 849.34 401.32 828.51 396.26 828.51 395.87" style="fill: #960803"/>
        <polygon points="828.51 395.49 849.34 400.55 849.34 400.93 828.51 395.87 828.51 395.49" style="fill: #950702"/>
        <polygon points="828.51 395.11 849.34 400.16 849.34 400.55 828.51 395.49 828.51 395.11" style="fill: #950702"/>
        <polygon points="828.51 394.72 849.34 399.78 849.34 400.16 828.51 395.11 828.51 394.72" style="fill: #950702"/>
        <polygon points="849.34 399.78 828.51 394.72 828.51 393.04 849.34 393.04 849.34 399.78" style="fill: #950702"/>
      </g>
      <path d="M838,410.89a6.28,6.28,0,0,1-4.12-1.21,5.2,5.2,0,0,1-1.35-4.49,3.75,3.75,0,0,1,2.06-2.67,4.78,4.78,0,0,1-1.65-1.47.85.85,0,0,1-.08-.67c.33-.94,2.17-2.4,4.67-2a3.07,3.07,0,0,1,2.18,1.66,1.66,1.66,0,0,0,.32.44s.14,0,.54-.56,1-.93,1.46-.8a1.54,1.54,0,0,1,.9,1,1.66,1.66,0,0,0-.19-.57c-1.15-2.22-4.88-2.4-5.27-2.2l-.33-.65c.79-.39,4.92,0,6.24,2.52a1.85,1.85,0,0,1,.16,1.57,1.67,1.67,0,0,1-.28.48c0,.28.1.59.14.93a2.59,2.59,0,0,1-1.14,2.39,2.7,2.7,0,0,1-.83.37,2.91,2.91,0,0,1-1.57,4.13,3.71,3.71,0,0,1-3.33-.55,3.52,3.52,0,0,1-1.5-2.21,2.07,2.07,0,0,1,.33-1.62,3,3,0,0,1,1.58-1,12,12,0,0,1-1.51-.7,2.88,2.88,0,0,0-2.19,2.3,4.49,4.49,0,0,0,1.15,3.86,7.1,7.1,0,0,0,9-1.45l.58.43a7,7,0,0,1-5.24,2.7C838.43,410.88,838.19,410.89,838,410.89Zm.16-6.75-.35.09a3.17,3.17,0,0,0-1.87.92,1.35,1.35,0,0,0-.2,1.07,2.85,2.85,0,0,0,1.19,1.75,3,3,0,0,0,2.68.47,2.29,2.29,0,0,0,1.45-2,2.26,2.26,0,0,0-.41-1.38,3.65,3.65,0,0,1-1-.15A5.55,5.55,0,0,1,838.12,404.14Zm1.45-.63c.18.06.35.12.53.2a3,3,0,0,1,.83.63,2.22,2.22,0,0,0,.89-.33,1.87,1.87,0,0,0,.83-1.7c0-.17,0-.33-.07-.48a8.24,8.24,0,0,1-1.67.76,4.13,4.13,0,0,0-.83.36A2,2,0,0,1,839.57,403.51Zm-1.47-.26.26,0h.06a1.92,1.92,0,0,0,1.06-.74c.16-.27.57-.42,1.19-.65a6.37,6.37,0,0,0,1.76-.85c-.22-.87-.48-1.19-.63-1.23s-.36.1-.7.54c-.47.62-.79.88-1.16.85s-.64-.39-.88-.78a2.4,2.4,0,0,0-1.69-1.33,3.65,3.65,0,0,0-3.87,1.51c0,.3,1,1.05,2,1.66a2.57,2.57,0,0,1,.48,0A4.82,4.82,0,0,1,838.1,403.25Z" style="fill: #c7ccd1"/>
      <path d="M888.47,463.77H786.82V362.12H888.47Zm-98.21-3.44H885V365.57H790.26Z" style="fill: #ffe100"/>
      <path d="M885,364.81,707.66,59.28A6.24,6.24,0,1,1,718.45,53l.08.13L888.45,362.88a2,2,0,0,1-3.41,1.93Z" style="fill: #ffe100"/>
      <path d="M788.12,463.85,393.84,376.66a6.24,6.24,0,0,1,2.69-12.19l.13,0L789,460.25a1.85,1.85,0,0,1-.84,3.6Z" style="fill: #ffe100"/>
      <path d="M836.05,421.29c-.65-.88.43-6.75.73-7.39a7.44,7.44,0,0,1,1.22-1.69l.28-.33a26.91,26.91,0,0,0,4-6.9c-.39,0-.79,0-1.19,0h0a1.84,1.84,0,0,1-.08,2.1,2.63,2.63,0,0,1-1.8,1,5.11,5.11,0,0,1-1.9-.21,9,9,0,0,1-5.47-3.88,3.42,3.42,0,0,1-.58-2.29,1.9,1.9,0,0,1,1.83-1.64,2.17,2.17,0,0,1,1.69,1.25c.12.22.23.44.33.67a4.51,4.51,0,0,0,.5.92,3.7,3.7,0,0,0,2.51,1.24,1.53,1.53,0,0,1-.31-.4,1.75,1.75,0,0,1,.21-1.84,2.76,2.76,0,0,1,1.47-.93,8.41,8.41,0,0,1,2.81-.16,2,2,0,0,1,1.39.48,2,2,0,0,1,0,2.15l-.32.75a1.55,1.55,0,0,0,1-.47,1.33,1.33,0,0,0,.16-1.24,3.49,3.49,0,0,0-.86-1.22,8.13,8.13,0,0,0-2.67-1.73,3.59,3.59,0,0,0-2.51-.22,1.61,1.61,0,0,0-1.08,1.78l-.69.21a2.31,2.31,0,0,1,1.53-2.66,4.22,4.22,0,0,1,3,.23,8.92,8.92,0,0,1,2.9,1.87,4,4,0,0,1,1,1.51,2,2,0,0,1-.28,1.93,2.62,2.62,0,0,1-1.9.77,28.7,28.7,0,0,1-4.24,7.4l-.29.34a7.47,7.47,0,0,0-1.11,1.52c-.34.73-1.14,6-.79,6.67ZM833,400.77a1.2,1.2,0,0,0-1,1,2.77,2.77,0,0,0,.49,1.81,8.29,8.29,0,0,0,5,3.55,4.52,4.52,0,0,0,1.64.19,1.85,1.85,0,0,0,1.3-.67,1.14,1.14,0,0,0,.08-1.26,1.46,1.46,0,0,0-.59-.43l-.73,0c-1.43-.08-3.19-.34-4.16-1.64a6,6,0,0,1-.58-1.05,5,5,0,0,0-.3-.62c-.14-.25-.53-.85-1.1-.88Zm7.07,3.5c.84,0,1.68,0,2.52,0,.16-.37.31-.73.46-1.1.29-.69.32-1.14.1-1.38a1.38,1.38,0,0,0-.9-.25,7.89,7.89,0,0,0-2.57.13,2.15,2.15,0,0,0-1.1.68,1,1,0,0,0-.15,1.06c.2.37.65.52,1.16.71Z" style="fill: #fff"/>
      <path d="M917.23,875.44a.56.56,0,0,1-.55-.46c-.78-4.38-3.4-32.11-6.43-64.22-3.09-32.84-6.6-70.06-8.6-86.76-1.41-11.8-3.06-21.56-4.65-31-3-17.69-5.57-33-5.57-55.56,0-9.82,1.67-22,3.29-33.7,3.17-23,6.45-46.75-1.94-56.37-2.63-3-6.23-4.49-11-4.49-15.16,0-23.3-2.31-27.22-7.71-4.33-6-3.68-15.47,2.31-33.91,2.29-7,2.38-11.73.29-14.35-2.81-3.54-9.48-2.95-15.92-2.37-6.86.61-14,1.24-16.55-3.26s-2.31-10.17.79-15.55a25.37,25.37,0,0,1,21.27-12.42c9.51,0,15.58-7.92,15.58-13.37A5.29,5.29,0,0,0,860.8,436a6.94,6.94,0,0,0-5-1.62c-6.19,0-12.89-4.37-19.91-13a.56.56,0,1,1,.87-.71c6.8,8.33,13.2,12.55,19,12.55a8,8,0,0,1,5.76,1.94,6.34,6.34,0,0,1,1.86,4.74c0,3.2-1.71,6.78-4.59,9.58a17.28,17.28,0,0,1-12.11,4.91,24.21,24.21,0,0,0-20.29,11.86c-2.9,5-3.19,10.28-.8,14.42,2.24,3.89,8.67,3.31,15.48,2.71s13.71-1.22,16.9,2.79c2.35,2.94,2.31,8-.1,15.4-5.79,17.82-6.51,27.35-2.47,32.9,3.69,5.08,11.56,7.25,26.31,7.25,5.05,0,9,1.64,11.86,4.87,8.72,10,5.41,34,2.2,57.27-1.61,11.7-3.28,23.8-3.28,33.54,0,22.49,2.57,37.73,5.56,55.37,1.59,9.45,3.24,19.22,4.66,31,2,16.72,5.51,53.95,8.6,86.79,3,32.09,5.64,59.8,6.41,64.13a.57.57,0,0,1-.45.66Z" style="fill: #23a54a"/>
      <g style="clip-path: url(#clip-path-5)">
        <path d="M296.4,562.17c-120,2.51-1.84-558,20.91-643.41C340.43-168,792.73-272.69,797.61-240.57S2146.47,773.34,2054.33,761.37c-93.66-12.18-191.36-23.92-281.1,10.15-30.1,11.42-58.7,27.84-89.69,35.8-85.43,21.94-170.87-23-257.59-33.09-208-24.09-394.18,151.16-602.07,185.48C592.15,998,349.14,829.51,294.06,588.36c-13.18-57.72-15.76-122.14,12.06-174.59,30.8-58.07,91.76-89.55,134.62-138.27,51.61-58.66,76.45-141.8,135.37-192C676.33-1.81,827.3,43.46,942.18-16.66c32.4-16.95,63.09-42.64,98.87-43.95,22.83-.83,44.65,8.6,67.3,11.29,106.38,12.63,216.59-120.23,307.16-60.88" style="fill: #e64c3c"/>
        <g style="clip-path: url(#clip-path-6)">
          <polygon points="277.71 181.33 1030.61 -169.64 1454.44 -169.64 1876.54 905.07 1677.45 997.88 277.71 997.88 277.71 181.33" style="fill: #d33f33"/>
        </g>
        <path d="M708.12,150.21c-2.16.09-4.25.28-6.26.46l-4.27.38-3.33.38c-8.28.93-16.94,2.19-26.43,3.86-2.54.42-4.61.79-6.51,1.16l-6.46,1.2-3.43.68c-3.07.61-6.25,1.23-9.35,1.89-15.24,3.17-31.29,6.87-50.49,11.66-16.05,4-32.81,8.45-49.81,13.17-8.35,2.31-16.68,4.67-24.8,7,0,0-9.48,2.85-17.33,5.25A11.53,11.53,0,0,1,487,193.16c-6-8-12.17-16.64-18.33-25.65-12.24-17.89-24.56-37.29-38.75-61.06-2.81-4.7-5.84-9.83-9.27-15.67l-2.33-4-2.46-4.14-2.5-4.06-2.52-4C407.27,69,403.61,63.47,400,58v57.88c1.22,2.12,2.4,4.16,3.56,6.15,14.23,24.52,26.63,44.59,39,63.17a654.12,654.12,0,0,0,44.84,60.25c9,10.57,17.48,19.72,26,28A270.81,270.81,0,0,0,543,298.71a176.14,176.14,0,0,0,35,20.16,130.3,130.3,0,0,0,20,6.64,110.37,110.37,0,0,0,21.47,3l6.71.2c.33,0,.65,0,1,.07l.69.06.8.06.91.08,2.64.36.78.15,1.7.33a28.8,28.8,0,0,1,10.34,4.32,19.77,19.77,0,0,1,3.47,3.2,17.23,17.23,0,0,1,2.4,3.88,21.79,21.79,0,0,1,1.58,4.85,34.19,34.19,0,0,1,.6,5.81,44.36,44.36,0,0,1-.45,6.41,55.79,55.79,0,0,1-1.41,6.67c-.08.31-.19.61-.28.91h36.3c.16-1,.31-1.93.43-2.88a79.77,79.77,0,0,0,.63-11.86,68.52,68.52,0,0,0-1.47-12.36,56.42,56.42,0,0,0-4.27-12.49,52.32,52.32,0,0,0-7.42-11.47,54.11,54.11,0,0,0-10.06-9.08,56.33,56.33,0,0,0-11.47-6.16l-2.85-1.1-.23-.08-3.21-1c-.38-.12-.75-.24-1.17-.34l-2.12-.52c-.71-.18-1.42-.35-2.13-.5l-2.88-.53-1.38-.24-.19,0-1.37-.17-2.75-.34c-.67-.07-1.32-.12-2-.16l-1.74-.12c-.66-.05-1.32-.09-2-.11l-7-.13A83.91,83.91,0,0,1,591,287.58a144,144,0,0,1-28.52-16c-4-2.85-12.49-10.12-23.22-19.94a11.51,11.51,0,0,1,4.35-19.49c4.5-1.4,8.5-2.64,10.83-3.35,16.56-5,32.84-9.74,48.39-14,18.51-5.08,33.92-9,48.53-12.43,2.9-.69,5.86-1.35,8.72-2l3.35-.74,6.09-1.29c1.75-.38,3.6-.75,6-1.22,8.66-1.73,16.47-3.06,23.88-4.08l2.92-.4,5.89-.67h.15V150.19Z" style="fill: #be202e"/>
        <g>
          <path d="M683.23,365.88h8c.13-.79.24-1.58.34-2.36a81.69,81.69,0,0,0,.67-12.47,72.91,72.91,0,0,0-1.56-13.11,60.47,60.47,0,0,0-4.56-13.34,56.52,56.52,0,0,0-8-12.37,58,58,0,0,0-10.79-9.74,60.28,60.28,0,0,0-12.23-6.58l-.2-.08-2.75-1.05-.46-.17-2.76-.86-.11,0-.37-.12c-.43-.13-.86-.26-1.28-.37l-.1,0-1.38-.34-.78-.19c-.73-.18-1.46-.35-2.2-.51l-.26-.05-2.73-.5-1.42-.25-.38-.06-1.36-.17-2.75-.33h-.07c-.79-.09-1.52-.14-2.16-.18l-.8-.06h-.13l-.81-.05c-.64-.05-1.37-.1-2.13-.12h-.06l-2.65-.05-4.35-.08a80.21,80.21,0,0,1-28.18-6.33,140,140,0,0,1-27.72-15.58C561,265.61,552.42,258.28,542,248.7a7.55,7.55,0,0,1,2.85-12.77c5.08-1.58,8.71-2.71,10.8-3.34,16.51-5,32.76-9.72,48.3-14,18.46-5.07,33.83-9,48.35-12.39,2.91-.69,5.85-1.35,8.7-2l3.38-.75,6-1.27c1.78-.39,3.65-.77,5.93-1.21h.05c8.57-1.71,16.3-3,23.62-4l2.89-.4,2.85-.32,2.7-.31v-8l-.65.07-2.94.33-2.94.33-3,.41c-7.94,1.09-16,2.5-24.1,4.12-2,.39-4,.79-6.08,1.23l-6.07,1.28c-4.06.92-8.11,1.79-12.17,2.76-16.24,3.77-32.47,8-48.67,12.46S569.43,220.1,553.31,225c-2.34.71-6.35,1.95-10.86,3.36a15.48,15.48,0,0,0-5.86,26.2c9.08,8.31,18.83,16.87,23.62,20.26a147.89,147.89,0,0,0,29.31,16.45,88.23,88.23,0,0,0,31,6.92l4.36.08,2.64.05c.88,0,1.79.11,2.68.16s1.78.11,2.68.21l2.72.33,1.35.17,1.37.24,2.74.5c.92.2,1.84.43,2.76.65l1.38.34c.46.12.92.28,1.38.41l2.76.87,2.75,1.05A54,54,0,0,1,662.8,309a50.34,50.34,0,0,1,9.34,8.43A48.11,48.11,0,0,1,679,328a53.24,53.24,0,0,1,4,11.6,65.17,65.17,0,0,1,1.39,11.65,76.08,76.08,0,0,1-.61,11.26C683.6,363.65,683.42,364.77,683.23,365.88Z" style="fill: #8e1922"/>
          <path d="M410,80.74l2.48,4,2.43,4.09,2.31,3.94q4.62,7.88,9.29,15.69c12.45,20.85,25.27,41.38,38.88,61.27q9,13.11,18.43,25.79a15.55,15.55,0,0,0,12.45,6.25,15.21,15.21,0,0,0,4.5-.68c7.85-2.39,17.32-5.24,17.32-5.24q12.35-3.57,24.72-7,24.75-6.85,49.71-13.13c16.66-4.16,33.4-8.11,50.34-11.63,4.22-.9,8.49-1.72,12.74-2.56l6.42-1.2q3.19-.61,6.44-1.15c8.6-1.51,17.3-2.82,26.21-3.83L698,155l3.39-.3c2.27-.2,4.52-.41,6.86-.52h.1v-7.95l-.5,0c-2.23.1-4.35.29-6.39.47l-.76.07-3.41.3-.19,0-3.34.38c-8.35.94-17.08,2.22-26.68,3.9-2.52.42-4.61.8-6.56,1.17l-6.38,1.19-.1,0-3.37.67c-3.11.61-6.32,1.24-9.48,1.92-15.23,3.16-31.33,6.88-50.6,11.68-16.08,4-32.87,8.46-49.91,13.19-8.38,2.32-16.72,4.69-24.8,7l-.09,0s-9.49,2.85-17.34,5.25a7.46,7.46,0,0,1-2.19.33,7.65,7.65,0,0,1-6.09-3.07c-6-8-12.11-16.56-18.24-25.51-12.18-17.81-24.45-37.15-38.61-60.86-2.85-4.77-5.88-9.89-9.26-15.64l-2.31-3.94,0,0-2.43-4.08-.06-.1-2.48-4-.05-.08-2.5-4c-3.26-5.1-6.58-10.14-9.88-15.1H400v7.73c2.54,3.84,5.07,7.69,7.58,11.61Z" style="fill: #8e1922"/>
          <path d="M647.4,364c-.18.65-.4,1.28-.6,1.92h8.31a62,62,0,0,0,1.47-7,48.29,48.29,0,0,0,.49-7,37.77,37.77,0,0,0-.68-6.52,25.48,25.48,0,0,0-1.86-5.73,21.56,21.56,0,0,0-3-4.78,23.39,23.39,0,0,0-4.18-3.86,32.94,32.94,0,0,0-11.86-5l-1.76-.34-.88-.17-.92-.12-1.83-.25c-.61-.08-1.25-.11-1.88-.16s-1.25-.12-1.89-.15l-1.93-.06-4.81-.14a105.83,105.83,0,0,1-20.65-2.9,125.47,125.47,0,0,1-19.38-6.44,173,173,0,0,1-34.24-19.71,267.39,267.39,0,0,1-29.25-24.92c-9.1-8.85-17.6-18.16-25.72-27.71A648.35,648.35,0,0,1,445.81,183c-13.73-20.61-26.53-41.71-38.87-63q-3.53-6.07-7-12.15V123.8l.12.21c14.28,24.6,26.71,44.73,39.14,63.38A655.58,655.58,0,0,0,484.32,248c9.08,10.68,17.66,19.93,26.25,28.27a275.79,275.79,0,0,0,30.11,25.66,180.61,180.61,0,0,0,35.82,20.6,135.45,135.45,0,0,0,20.6,6.84,113.59,113.59,0,0,0,22.2,3.11h.08l4.81.14,1.91.06c.25,0,.49,0,.73.06l.77.06.79.06.71.06,1.78.25.71.09.62.12h0l1.61.31a25,25,0,0,1,8.86,3.67,15.31,15.31,0,0,1,2.76,2.54,13.5,13.5,0,0,1,1.83,3,17.74,17.74,0,0,1,1.28,3.92,30.5,30.5,0,0,1,.53,5.15,40.72,40.72,0,0,1-.42,5.82A51.91,51.91,0,0,1,647.4,364Z" style="fill: #8e1922"/>
        </g>
        <g style="clip-path: url(#clip-path-7)">
          <polygon points="581 88.37 507.08 87.19 507.08 79.22 581 79.22 581 88.37" style="fill: #85161f"/>
          <polygon points="581 90.02 507.08 88.84 507.08 87.19 581 88.37 581 90.02" style="fill: #85161f"/>
          <polygon points="581 91.67 507.08 90.49 507.08 88.84 581 90.02 581 91.67" style="fill: #86161f"/>
          <polygon points="581 93.32 507.08 92.14 507.08 90.49 581 91.67 581 93.32" style="fill: #871620"/>
          <polygon points="581 94.97 507.08 93.79 507.08 92.14 581 93.32 581 94.97" style="fill: #881720"/>
          <polygon points="581 96.63 507.08 95.45 507.08 93.79 581 94.97 581 96.63" style="fill: #891720"/>
          <polygon points="581 98.28 507.08 97.1 507.08 95.45 581 96.63 581 98.28" style="fill: #8a1720"/>
          <polygon points="581 99.93 507.08 98.75 507.08 97.1 581 98.28 581 99.93" style="fill: #8b1721"/>
          <polygon points="581 101.58 507.08 100.4 507.08 98.75 581 99.93 581 101.58" style="fill: #8c1721"/>
          <polygon points="581 103.23 507.08 102.05 507.08 100.4 581 101.58 581 103.23" style="fill: #8d1721"/>
          <polygon points="581 104.88 507.08 103.7 507.08 102.05 581 103.23 581 104.88" style="fill: #8e1821"/>
          <polygon points="581 106.53 507.08 105.35 507.08 103.7 581 104.88 581 106.53" style="fill: #8f1822"/>
          <polygon points="581 108.18 507.08 107 507.08 105.35 581 106.53 581 108.18" style="fill: #901822"/>
          <polygon points="581 109.83 507.08 108.65 507.08 107 581 108.18 581 109.83" style="fill: #911822"/>
          <polygon points="581 111.48 507.08 110.3 507.08 108.65 581 109.83 581 111.48" style="fill: #931823"/>
          <polygon points="581 113.13 507.08 111.95 507.08 110.3 581 111.48 581 113.13" style="fill: #941923"/>
          <polygon points="581 114.78 507.08 113.6 507.08 111.95 581 113.13 581 114.78" style="fill: #951923"/>
          <polygon points="581 116.43 507.08 115.25 507.08 113.6 581 114.78 581 116.43" style="fill: #961923"/>
          <polygon points="581 118.08 507.08 116.9 507.08 115.25 581 116.43 581 118.08" style="fill: #971924"/>
          <polygon points="581 119.73 507.08 118.56 507.08 116.9 581 118.08 581 119.73" style="fill: #981924"/>
          <polygon points="581 121.39 507.08 120.2 507.08 118.56 581 119.73 581 121.39" style="fill: #991924"/>
          <polygon points="581 123.04 507.08 121.86 507.08 120.2 581 121.39 581 123.04" style="fill: #9a1a24"/>
          <polygon points="581 124.69 507.08 123.51 507.08 121.86 581 123.04 581 124.69" style="fill: #9b1a25"/>
          <polygon points="581 126.34 507.08 125.16 507.08 123.51 581 124.69 581 126.34" style="fill: #9c1a25"/>
          <polygon points="581 127.99 507.08 126.81 507.08 125.16 581 126.34 581 127.99" style="fill: #9d1a25"/>
          <polygon points="581 129.64 507.08 128.46 507.08 126.81 581 127.99 581 129.64" style="fill: #9e1a26"/>
          <polygon points="581 131.29 507.08 130.11 507.08 128.46 581 129.64 581 131.29" style="fill: #9f1b26"/>
          <polygon points="581 132.94 507.08 131.76 507.08 130.11 581 131.29 581 132.94" style="fill: #a01b26"/>
          <polygon points="581 134.59 507.08 133.41 507.08 131.76 581 132.94 581 134.59" style="fill: #a11b26"/>
          <polygon points="581 136.24 507.08 135.06 507.08 133.41 581 134.59 581 136.24" style="fill: #a21b27"/>
          <polygon points="581 137.89 507.08 136.71 507.08 135.06 581 136.24 581 137.89" style="fill: #a31b27"/>
          <polygon points="581 139.54 507.08 138.36 507.08 136.71 581 137.89 581 139.54" style="fill: #a41b27"/>
          <polygon points="581 141.19 507.08 140.01 507.08 138.36 581 139.54 581 141.19" style="fill: #a51c27"/>
          <polygon points="581 142.84 507.08 141.66 507.08 140.01 581 141.19 581 142.84" style="fill: #a61c28"/>
          <polygon points="581 144.5 507.08 143.32 507.08 141.66 581 142.84 581 144.5" style="fill: #a71c28"/>
          <polygon points="581 146.15 507.08 144.97 507.08 143.32 581 144.5 581 146.15" style="fill: #a81c28"/>
          <polygon points="581 147.8 507.08 146.62 507.08 144.97 581 146.15 581 147.8" style="fill: #a91c29"/>
          <polygon points="581 149.45 507.08 148.27 507.08 146.62 581 147.8 581 149.45" style="fill: #aa1d29"/>
          <polygon points="581 151.1 507.08 149.92 507.08 148.27 581 149.45 581 151.1" style="fill: #ab1d29"/>
          <polygon points="581 152.75 507.08 151.57 507.08 149.92 581 151.1 581 152.75" style="fill: #ac1d29"/>
          <polygon points="581 154.4 507.08 153.22 507.08 151.57 581 152.75 581 154.4" style="fill: #ad1d2a"/>
          <polygon points="581 156.05 507.08 154.87 507.08 153.22 581 154.4 581 156.05" style="fill: #ae1d2a"/>
          <polygon points="581 157.7 507.08 156.52 507.08 154.87 581 156.05 581 157.7" style="fill: #af1d2a"/>
          <polygon points="581 159.35 507.08 158.17 507.08 156.52 581 157.7 581 159.35" style="fill: #b01e2a"/>
          <polygon points="581 161 507.08 159.82 507.08 158.17 581 159.35 581 161" style="fill: #b11e2b"/>
          <polygon points="581 162.65 507.08 161.47 507.08 159.82 581 161 581 162.65" style="fill: #b21e2b"/>
          <polygon points="581 164.3 507.08 163.12 507.08 161.47 581 162.65 581 164.3" style="fill: #b31e2b"/>
          <polygon points="581 165.95 507.08 164.78 507.08 163.12 581 164.3 581 165.95" style="fill: #b41e2b"/>
          <polygon points="581 167.6 507.08 166.43 507.08 164.78 581 165.95 581 167.6" style="fill: #b51e2c"/>
          <polygon points="581 169.25 507.08 168.07 507.08 166.43 581 167.6 581 169.25" style="fill: #b61f2c"/>
          <polygon points="581 170.91 507.08 169.73 507.08 168.07 581 169.25 581 170.91" style="fill: #b71f2c"/>
          <polygon points="581 172.56 507.08 171.38 507.08 169.73 581 170.91 581 172.56" style="fill: #b81f2c"/>
          <polygon points="581 174.21 507.08 173.03 507.08 171.38 581 172.56 581 174.21" style="fill: #b91f2d"/>
          <polygon points="581 175.86 507.08 174.68 507.08 173.03 581 174.21 581 175.86" style="fill: #ba1f2d"/>
          <polygon points="581 177.51 507.08 176.33 507.08 174.68 581 175.86 581 177.51" style="fill: #bb202d"/>
          <polygon points="581 179.16 507.08 177.98 507.08 176.33 581 177.51 581 179.16" style="fill: #bc202e"/>
          <polygon points="581 180.81 507.08 179.63 507.08 177.98 581 179.16 581 180.81" style="fill: #bd202e"/>
          <polygon points="581 182.46 507.08 181.28 507.08 179.63 581 180.81 581 182.46" style="fill: #be202e"/>
          <polygon points="507.08 181.28 581 182.46 581 191.82 507.08 191.82 507.08 181.28" style="fill: #be202e"/>
        </g>
        <g style="clip-path: url(#clip-path-8)">
          <rect x="506.24" y="172.2" width="75.75" height="22.39" style="fill: #8d1721"/>
          <rect x="506.24" y="170.47" width="75.75" height="1.73" style="fill: #8d1721"/>
          <rect x="506.24" y="168.74" width="75.75" height="1.73" style="fill: #8c1721"/>
          <rect x="506.24" y="167.01" width="75.75" height="1.73" style="fill: #8b1720"/>
          <rect x="506.24" y="165.27" width="75.75" height="1.73" style="fill: #8a1620"/>
          <rect x="506.24" y="163.54" width="75.75" height="1.73" style="fill: #891620"/>
          <rect x="506.24" y="161.81" width="75.75" height="1.73" style="fill: #881620"/>
          <rect x="506.24" y="160.08" width="75.75" height="1.73" style="fill: #87161f"/>
          <rect x="506.24" y="158.35" width="75.75" height="1.73" style="fill: #86151f"/>
          <rect x="506.24" y="156.62" width="75.75" height="1.73" style="fill: #85151f"/>
          <rect x="506.24" y="154.89" width="75.75" height="1.73" style="fill: #84151e"/>
          <rect x="506.24" y="153.16" width="75.75" height="1.73" style="fill: #83151e"/>
          <rect x="506.24" y="151.43" width="75.75" height="1.73" style="fill: #82151e"/>
          <rect x="506.24" y="149.7" width="75.75" height="1.73" style="fill: #81141d"/>
          <rect x="506.24" y="147.97" width="75.75" height="1.73" style="fill: #80141d"/>
          <rect x="506.24" y="146.24" width="75.75" height="1.73" style="fill: #7f141d"/>
          <rect x="506.24" y="144.51" width="75.75" height="1.73" style="fill: #7e141c"/>
          <rect x="506.24" y="142.78" width="75.75" height="1.73" style="fill: #7d131c"/>
          <rect x="506.24" y="141.05" width="75.75" height="1.73" style="fill: #7c131c"/>
          <rect x="506.24" y="139.32" width="75.75" height="1.73" style="fill: #7b131c"/>
          <rect x="506.24" y="137.59" width="75.75" height="1.73" style="fill: #7a131b"/>
          <rect x="506.24" y="135.86" width="75.75" height="1.73" style="fill: #79131b"/>
          <rect x="506.24" y="134.13" width="75.75" height="1.73" style="fill: #78121b"/>
          <rect x="506.24" y="132.4" width="75.75" height="1.73" style="fill: #77121a"/>
          <rect x="506.24" y="130.67" width="75.75" height="1.73" style="fill: #76121a"/>
          <rect x="506.24" y="128.94" width="75.75" height="1.73" style="fill: #75121a"/>
          <rect x="506.24" y="127.21" width="75.75" height="1.73" style="fill: #741119"/>
          <rect x="506.24" y="125.47" width="75.75" height="1.73" style="fill: #731119"/>
          <rect x="506.24" y="123.74" width="75.75" height="1.73" style="fill: #721119"/>
          <rect x="506.24" y="122.01" width="75.75" height="1.73" style="fill: #711118"/>
          <rect x="506.24" y="120.28" width="75.75" height="1.73" style="fill: #701018"/>
          <rect x="506.24" y="118.55" width="75.75" height="1.73" style="fill: #6f1018"/>
          <rect x="506.24" y="116.82" width="75.75" height="1.73" style="fill: #6e1017"/>
          <rect x="506.24" y="115.09" width="75.75" height="1.73" style="fill: #6d1017"/>
          <rect x="506.24" y="113.36" width="75.75" height="1.73" style="fill: #6c1017"/>
          <rect x="506.24" y="111.63" width="75.75" height="1.73" style="fill: #6b0f16"/>
          <rect x="506.24" y="109.9" width="75.75" height="1.73" style="fill: #6a0f16"/>
          <rect x="506.24" y="108.17" width="75.75" height="1.73" style="fill: #690f16"/>
          <rect x="506.24" y="106.44" width="75.75" height="1.73" style="fill: #670f16"/>
          <rect x="506.24" y="104.71" width="75.75" height="1.73" style="fill: #660e15"/>
          <rect x="506.24" y="102.98" width="75.75" height="1.73" style="fill: #650e15"/>
          <rect x="506.24" y="101.25" width="75.75" height="1.73" style="fill: #640e15"/>
          <rect x="506.24" y="99.52" width="75.75" height="1.73" style="fill: #630e14"/>
          <rect x="506.24" y="97.79" width="75.75" height="1.73" style="fill: #620d14"/>
          <rect x="506.24" y="96.06" width="75.75" height="1.73" style="fill: #610d14"/>
          <rect x="506.24" y="94.33" width="75.75" height="1.73" style="fill: #600d13"/>
          <rect x="506.24" y="92.6" width="75.75" height="1.73" style="fill: #5f0d13"/>
          <rect x="506.24" y="90.87" width="75.75" height="1.73" style="fill: #5e0c13"/>
          <rect x="506.24" y="89.14" width="75.75" height="1.73" style="fill: #5d0c12"/>
          <rect x="506.24" y="87.41" width="75.75" height="1.73" style="fill: #5c0c12"/>
          <rect x="506.24" y="78.26" width="75.75" height="9.15" style="fill: #5c0c12"/>
        </g>
        <path d="M523.51,189.85s-3,5.91-11.71,8.54S578,180,566.48,182.46s-12.84,2-17,.62" style="fill: #be202e"/>
        <path d="M542.68,148.92c-8,0-15.86-2.12-19.22-5.33a22.48,22.48,0,0,1-6.3-20,16.82,16.82,0,0,1,9.47-11.85c-3.46-2.11-6.55-4.48-7.63-6.58a3.6,3.6,0,0,1-.3-3c1.45-3.91,9.53-10.74,21.66-8.82,5.91.94,8.44,4.83,10.11,7.4a8.15,8.15,0,0,0,1.52,2s.68-.1,2.6-2.51c2.34-2.94,4.63-4.12,6.8-3.52,1.69.47,3.08,2,4.17,4.66a6.67,6.67,0,0,0-.87-2.69c-5.44-10-22.8-10.66-24.64-9.78l-1.42-2.94c3.66-1.77,22.82,0,28.93,11.16a8.08,8.08,0,0,1,.83,6.94,7.63,7.63,0,0,1-1.38,2.26c.26,1.24.48,2.6.67,4.08A11.36,11.36,0,0,1,562.36,121a13.13,13.13,0,0,1-3.84,1.65,12.55,12.55,0,0,1,1.6,6.73A13.47,13.47,0,0,1,551.19,141c-4.72,1.66-10.49.75-15.43-2.43a15.8,15.8,0,0,1-7-9.95,9,9,0,0,1,1.57-7.17c1.79-2.39,4.41-3.58,7.22-4.43a58.3,58.3,0,0,1-6.92-3.1c-5.15.74-9.37,5.52-10.26,10.21a19.15,19.15,0,0,0,5.35,17.06c2.78,2.66,11,5,20,4.31,6.58-.5,15.7-2.77,21.82-10.72l2.59,2c-5.34,6.95-13.92,11.21-24.16,12C544.9,148.88,543.79,148.92,542.68,148.92Zm.64-30-1.63.41c-3.58.88-7,1.71-8.74,4.1a5.77,5.77,0,0,0-1,4.63,12.59,12.59,0,0,0,5.56,7.78c4.09,2.64,8.79,3.42,12.56,2.1a10.15,10.15,0,0,0,6.75-8.71,9.57,9.57,0,0,0-1.88-6.09,15.06,15.06,0,0,1-4.63-.65A26.7,26.7,0,0,1,543.32,118.93Zm6.8-2.84a15.44,15.44,0,0,1,2.35.87,13.14,13.14,0,0,1,3.9,2.8,10.43,10.43,0,0,0,4.23-1.49,8,8,0,0,0,3.84-7.5c-.1-.75-.2-1.45-.31-2.12a39.65,39.65,0,0,1-7.85,3.41,19.19,19.19,0,0,0-3.89,1.61A8.91,8.91,0,0,1,550.12,116.09Zm-6.93-1.17,1.24.15.32,0a8.84,8.84,0,0,0,4.94-3.27c.73-1.16,2.39-1.78,5.51-2.87,2.67-.93,6-2.11,8.2-3.77-.89-3.38-2-5.13-2.89-5.39-.73-.21-2,.7-3.36,2.41C555,105,553.43,106,551.79,106c-1.89-.09-2.94-1.71-4.06-3.43-1.52-2.33-3.41-5.23-7.89-5.94-10.33-1.65-17.11,4.14-18.07,6.71,0,1.09,4.4,4.51,9.39,7.31a13.12,13.12,0,0,1,2.34.06C537.21,111.1,540.27,113,543.19,114.92Z" style="fill: #c7ccd1"/>
        <path d="M534.15,185.76c-3-3.92,1.65-20.87,3-23.55a34.12,34.12,0,0,1,5.69-7.53c.44-.48.88-1,1.31-1.45,8-9,13.57-19.73,18.49-30.55-1.84.07-3.69.1-5.54.11a7.94,7.94,0,0,1-.47,9.35,12.1,12.1,0,0,1-8.3,4.24,24.8,24.8,0,0,1-8.84-.92c-11.11-2.85-20.39-9.13-25.44-17.24-2.31-3.7-3.21-7.15-2.69-10.25.63-3.68,4-7.51,8.46-7.29,3,.16,5.85,2.18,7.83,5.56.58,1,1.06,2,1.53,3a21.73,21.73,0,0,0,2.31,4.08c2.65,3.41,7.17,4.87,11.7,5.53a7,7,0,0,1-1.35-1.72,7.54,7.54,0,0,1,1-8.25,13,13,0,0,1,6.83-4.12c4.34-1.2,9-.94,13-.71,2.33.13,4.74.4,6.43,2.13,3,3.11,1,7.85.17,9.63-.47,1.09-.95,2.18-1.43,3.27a7.72,7.72,0,0,0,4.83-2.11,5.54,5.54,0,0,0,.71-5.43,14.73,14.73,0,0,0-4-5.4A38.52,38.52,0,0,0,557,98.43c-4.62-1.75-8.58-2.08-11.76-1s-6.07,4.59-5.06,7.8l-3.12,1c-1.6-5.07,2.38-10.24,7.11-11.89,3.92-1.36,8.63-1,14,1a41.84,41.84,0,0,1,13.48,8.34,17.58,17.58,0,0,1,4.85,6.7,8.71,8.71,0,0,1-1.33,8.68c-2.16,2.47-5.46,3.16-8.83,3.41-5.2,11.57-11,23.12-19.72,32.91l-1.34,1.48a30.36,30.36,0,0,0-5.17,6.78c-1.88,3.77-4.77,18.18-3.34,20.08ZM519.43,104c-2.45,0-4.48,2.32-4.86,4.57s.36,5,2.23,8c4.62,7.4,13.18,13.16,23.48,15.8a21.89,21.89,0,0,0,7.67.84,8.9,8.9,0,0,0,6.08-3,4.68,4.68,0,0,0,.36-5.47,6.54,6.54,0,0,0-2.76-2c-1.15,0-2.29-.08-3.43-.14-6.63-.34-14.81-1.48-19.32-7.27a24.75,24.75,0,0,1-2.67-4.68c-.46-1-.89-1.86-1.4-2.72-.67-1.14-2.52-3.81-5.18-4Zm32.88,15.51c3.94.1,7.89.06,11.81-.12.73-1.62,1.44-3.25,2.16-4.87,1.35-3.07,1.5-5,.48-6-.87-.89-2.59-1.06-4.27-1.15-4-.23-8.16-.46-12,.59a10,10,0,0,0-5.14,3,4.32,4.32,0,0,0-.69,4.62c.91,1.64,3.1,2.37,5.41,3.15C550.81,118.91,551.57,119.16,552.31,119.46Z" style="fill: #fff"/>
        <path d="M449.85,580.54a3.17,3.17,0,0,1-2.71-1.52c-14.42-23.83-13.41-53.94,2.75-82.61C474,453.63,524,424.89,574.25,424.89c54.9,0,89.94-43.52,89.94-73.49,0-8.88-3-16.33-8.71-21.54-6.5-5.93-16.19-8.94-28.81-8.94a148.28,148.28,0,0,1-67.65-17c-24.83-13.26-41.34-32.47-47.76-55.55-5.27-19,2.43-26,11.33-34.11,1.68-1.52,3.41-3.1,5.15-4.84,9.44-9.44,4.36-24.88,4.31-25a3.17,3.17,0,0,1,6-2c.26.79,6.43,19.31-5.82,31.57-1.84,1.84-3.63,3.47-5.36,5-8.56,7.81-13.72,12.53-9.5,27.73,7.51,27,28.42,43,44.64,51.66a141.71,141.71,0,0,0,64.67,16.26c14.25,0,25.38,3.56,33.08,10.6,7,6.43,10.77,15.5,10.77,26.21,0,17.65-9.91,37.39-26.51,52.81a102,102,0,0,1-69.76,27c-55.5,0-99.68,34.31-118.85,68.3-15,26.62-16,54.4-2.84,76.22a3.18,3.18,0,0,1-1.07,4.35A3.15,3.15,0,0,1,449.85,580.54Z" style="fill: #23a54a"/>
      </g>
      <path d="M717.79,375.28H390.55V48H717.79ZM400,365.88H708.39V57.44H400Z" style="fill: #ffe100"/>
    </g>
    <text transform="translate(57.65 221.37)" style="font-size: 36.86349868774414px;font-family: Roboto-Medium, Roboto;font-weight: 500">Catheter</text>
    <text transform="translate(57.65 124.71)" style="font-size: 36.86349868774414px;font-family: Roboto-Medium, Roboto;font-weight: 500">Coils in Aneu<tspan x="216.43" y="0" style="letter-spacing: 0.010755473276111406em">r</tspan><tspan x="229.59" y="0">ysm</tspan></text>
    <g>
      <line x1="522.59" y1="212.01" x2="203.11" y2="212.01" style="fill: none;stroke: #000;stroke-linecap: round;stroke-miterlimit: 10;stroke-width: 4px"/>
      <path d="M522.59,204.49a7.52,7.52,0,1,1-7.51,7.52A7.52,7.52,0,0,1,522.59,204.49Z"/>
    </g>
    <g>
      <line x1="514.57" y1="114.89" x2="360.72" y2="114.89" style="fill: none;stroke: #000;stroke-linecap: round;stroke-miterlimit: 10;stroke-width: 4px"/>
      <path d="M514.57,107.37a7.52,7.52,0,1,1-7.52,7.52A7.52,7.52,0,0,1,514.57,107.37Z"/>
    </g>
  </g>
</svg>
