<svg xmlns="http://www.w3.org/2000/svg" xmlns:xlink="http://www.w3.org/1999/xlink" viewBox="0 0 1231.2 867.17">
  <defs>
    <clipPath id="clip-path">
      <rect x="365.74" y="-953.51" width="863.75" height="863.75" style="fill: none"/>
    </clipPath>
    <clipPath id="clip-path-2">
      <rect x="395.25" y="-902.49" width="317.84" height="317.84" style="fill: none"/>
    </clipPath>
    <clipPath id="clip-path-3">
      <path d="M2053.75-193.95c-94.45-3.71-191.37-23.91-281.1,10.15C1742.55-172.38,1714-156,1683-148c-85.42,22-170.87-23-257.58-33.09C1217.4-205.18,1031.19-29.93,823.3,4.4,591.57,42.66,348.56-125.8,293.48-367c-13.18-57.72-15.76-122.14,12.06-174.59,30.8-58.07,91.76-89.54,134.62-138.26,51.61-58.66,76.45-141.81,135.37-192C675.75-957.13,826.72-911.86,941.6-972c32.4-17,63.09-42.65,98.86-44,22.84-.83,44.66,8.6,67.3,11.29,106.39,12.63,216.6-120.22,307.17-60.88,78.31,48.47,134.32,109,154.27,189.13,146.76,92.72,260.26,229.7,331.3,423.16C1930.5-463.37,2170.25-189.38,2053.75-193.95Z" style="fill: none"/>
    </clipPath>
    <clipPath id="clip-path-4">
      <rect width="1231.2" height="867.17" style="fill: none"/>
    </clipPath>
    <clipPath id="clip-path-5">
      <path d="M1065.31,495.65c-14-.55-28.38-3.55-41.68,1.5-4.46,1.69-8.7,4.13-13.3,5.31-12.67,3.25-25.33-3.42-38.19-4.91C941.3,494,913.69,520,882.87,525.06c-34.36,5.67-70.39-19.31-78.56-55.07-1.95-8.55-2.34-18.11,1.79-25.88,4.57-8.61,13.6-13.28,20-20.5,7.65-8.7,11.33-21,20.07-28.47,14.86-12.65,37.25-5.94,54.28-14.85,4.8-2.52,9.35-6.33,14.66-6.52,3.38-.12,6.62,1.27,10,1.67,6.79.81,13.69-2.39,20.42-5.58,8.89-4.23,17.48-8.45,25.12-3.44,11.61,7.18,19.92,16.16,22.87,28,21.76,13.75,38.59,34.06,49.13,62.74,2.24-.76,12.42,9.23,19.72,19.21,7.16,9.78,11.55,19.57,3,19.24" style="fill: none"/>
    </clipPath>
    <clipPath id="clip-path-6">
      <path d="M834.53,414.09c0-6.89-2.33-7-4.13-12.65s1.24-7.68,4.12-10.2c2.62-2.28,10,.58,12.71,4.33a5,5,0,0,1,.68,4.88c-1.16,3.77-5.17,7.78-7,9.64-2.42,2.43-.88,6-.88,6a7.24,7.24,0,0,1-5.48-2" style="fill: none"/>
    </clipPath>
    <clipPath id="clip-path-7">
      <polyline points="708.49 361.49 400.05 361.49 400.05 53.05 708.49 53.05 708.49 361.49" style="fill: none"/>
    </clipPath>
    <clipPath id="clip-path-8">
      <polyline points="365.83 -2.68 1229.58 -2.68 1229.58 861.07 365.83 861.07 365.83 -2.68" style="fill: none"/>
    </clipPath>
    <clipPath id="clip-path-9">
      <path d="M2053.84,756.88c-94.45-3.7-191.37-23.91-281.1,10.15-30.1,11.42-58.7,27.84-89.69,35.8-85.43,21.95-170.87-23-257.59-33.09-208-24.09-394.18,151.17-602.07,185.49C591.66,993.49,348.65,825,293.57,583.87c-13.18-57.72-15.76-122.14,12.06-174.59,30.8-58.07,91.76-89.54,134.62-138.26,51.61-58.66,76.45-141.81,135.37-192C675.84-6.29,826.82,39,941.7-21.14c32.39-17,63.08-42.65,98.86-43.95,22.83-.84,44.66,8.59,67.3,11.28,45.83,5.44,92.38-16.12,137.75-37.68,60-28.49,117.86-57,169.41-23.19,78.31,48.46,134.32,109,154.27,189.12,146.77,92.72,260.27,229.7,331.3,423.17,15.15-5.13,83.78,62.2,133,129.52,48.27,66,77.9,132,20.23,129.75" style="fill: none"/>
    </clipPath>
    <clipPath id="clip-path-10">
      <path d="M563.61,175c-35.16,8.79-6.9-23,2.88-31.26s14.61-16.1,14.61-33.15c0-19.75-16.55-35.76-37-35.76s-37,16-37,35.76c0,9.49,10.06,24.52,10.06,24.52,8.36,14.48,10.88,49.7,0,52.32L563.61,175" style="fill: none"/>
    </clipPath>
    <clipPath id="clip-path-11">
      <path d="M564.38,178.09a51.74,51.74,0,0,1-9.56,1.2,17.91,17.91,0,0,1-5.3-.6,8.77,8.77,0,0,1-2.89-1.41,6.53,6.53,0,0,1-2.17-2.94,7.74,7.74,0,0,1-.38-3.26,13.32,13.32,0,0,1,.57-2.73,24,24,0,0,1,2.07-4.55,57.64,57.64,0,0,1,5.42-7.67A104.15,104.15,0,0,1,565,143c4.69-3.71,8.87-7.89,11.4-13.15s3.5-11.19,3.69-17.14a36.53,36.53,0,0,0-.54-8.81,34.5,34.5,0,0,0-2.77-8.38,34.94,34.94,0,0,0-11.41-13.37,37.08,37.08,0,0,0-34-4.51,36.4,36.4,0,0,0-14.64,9.84,34.45,34.45,0,0,0-8,15.64c-.18.72-.27,1.45-.41,2.17s-.2,1.47-.24,2.2-.11,1.47-.11,2.21a15.56,15.56,0,0,0,.06,2.17,30.4,30.4,0,0,0,2.39,8.43,73.31,73.31,0,0,0,4,8q1.1,2,2.3,3.84c.39.63.8,1.26,1.21,1.88.2.28.44.66.64,1s.38.69.57,1a65,65,0,0,1,5.73,17.56A82.83,82.83,0,0,1,526.51,172a39.18,39.18,0,0,1-1.35,9.52,16.7,16.7,0,0,1-2.19,4.85,9.85,9.85,0,0,1-2.06,2.25,8.33,8.33,0,0,1-3,1.53l-1.33-5.53a3.49,3.49,0,0,0,2.12-1.39,11.67,11.67,0,0,0,1.78-3.25,34.12,34.12,0,0,0,1.73-8.26,76,76,0,0,0-.55-17.62,62.22,62.22,0,0,0-4.72-17c-.15-.32-.32-.67-.48-1a8.14,8.14,0,0,0-.53-.91c-.41-.65-.8-1.31-1.19-2q-1.15-2-2.23-4a76.57,76.57,0,0,1-3.82-8.34,33.32,33.32,0,0,1-2.27-9,18.47,18.47,0,0,1,0-2.35c0-.78.08-1.54.15-2.31s.2-1.53.3-2.3.27-1.52.46-2.26a36,36,0,0,1,8.58-16.11A37.7,37.7,0,0,1,531,76.56a39.31,39.31,0,0,1,18.09-2,37.76,37.76,0,0,1,29,20.22,36.24,36.24,0,0,1,3.07,8.71,38.49,38.49,0,0,1,.76,9.19,63,63,0,0,1-.75,9.17,36.94,36.94,0,0,1-2.63,8.94,33.37,33.37,0,0,1-5,7.91,64,64,0,0,1-6.54,6.53,96.57,96.57,0,0,0-11.82,13.24,52.78,52.78,0,0,0-4.61,7.37,19.85,19.85,0,0,0-1.47,3.76,4.55,4.55,0,0,0,0,2.9,1.27,1.27,0,0,0,.56.59,3.5,3.5,0,0,0,1.21.44,12.62,12.62,0,0,0,3.68.11,46.31,46.31,0,0,0,8.28-1.77l1.54,6.17" style="fill: none"/>
    </clipPath>
  </defs>
  <title>Artboard 1 copy 23</title>
  <g id="OptionIcons">
    <g style="clip-path: url(#clip-path)">
      <g style="clip-path: url(#clip-path-2)">
        <path d="M296.4-393.06c-120,2.52-1.84-558,20.92-643.4,23.12-86.77,475.42-191.45,480.29-159.34S2146.47-181.88,2054.33-193.86C1960.68-206,1863-217.77,1773.24-183.71c-30.1,11.43-58.7,27.84-89.7,35.81C1598.12-126,1512.67-170.95,1426-181,1218-205.09,1031.78-29.83,823.89,4.49,592.15,42.75,349.14-125.71,294.07-366.86,280.88-424.59,278.3-489,306.12-541.45c30.81-58.07,91.76-89.55,134.63-138.27,51.61-58.66,76.44-141.81,135.37-192C676.33-957,827.31-911.76,942.19-971.88c32.4-17,63.08-42.64,98.86-44,22.84-.83,44.66,8.59,67.3,11.28,106.39,12.64,216.6-120.22,307.17-60.87" style="fill: #e64c3c"/>
        <g style="clip-path: url(#clip-path-3)">
          <polygon points="277.72 -773.89 1030.62 -1124.87 1454.44 -1124.87 1876.54 -50.15 1677.45 42.66 277.72 42.66 277.72 -773.89" style="fill: #d33f33"/>
        </g>
      </g>
    </g>
    <g style="clip-path: url(#clip-path-4)">
      <g>
        <path d="M1158.28,928.86c-12.82-22.14-25.73-34.68-42.87-76.36s-6.43-65-6.43-123.63,41.79-136.62,85.19-226.63-37.77-244.3-140.39-290.91-258.21-23.62-321.7,28.93-78.42,145.33-78.42,157.38,11.57,39.76-3.55,65.94-53.79,82-62.07,108.91c-10.09,32.81,54,23.26,41.59,44.67s-2.23,27.67,8.9,34.09c-13,6.56-10.83,27.63-6.37,30.2s17.48,16.27,8.31,32.15-12.85,34,0,56.25,37.77,25.72,94.83,13.66,53.88,6.25,59.47,61.88c0,37.59,2.94,74.43,2.94,74.43l360.57,9" style="fill: #c6c6c6"/>
        <path d="M916.86,510.1c-2.68,13.22,1.52,35.8,16.22,42,11.65,4.93,21.41,14.91,27.82,26.36,5.31,9.49,6.3,21,9.3,31.64s29.72,127.88,40,129.94c1.43.29,15-2.34,15.65-3.24,2.16-3-27.67-123.76-29.06-127.33-6.47-16.63-36.64-110.78-43.12-127.42l-36.77,28" style="fill: #ff5d0a"/>
        <path d="M932.94,495.64c.95,8.72,8.55,29.48,10.85,37.88.82,3,1.78,6.09,3.7,8.46a22.4,22.4,0,0,0,6.08,4.69l37.74,22.63c5.71,3.43,11.51,6.89,17.87,8.67a53.36,53.36,0,0,0,15.59,1.59,109.08,109.08,0,0,0,47.12-12.45,74.49,74.49,0,0,0,13.84-8.91c6.12-5.12,11.12-11.6,16.89-17.18,5.48-5.32,11.73-9.88,16.14-16.23s6.36-28.24,2.67-34.92l-188.49,5.77" style="fill: #a84038"/>
        <path d="M804.74,466.12c-17.78.38-35.78.73-53-3.51s-34-13.61-43.84-29.16c-11.21-17.62-12.27-40.36-13-61.85-.43-13.07-.82-26.39,2.55-39.05,3.43-12.87,10.56-24.29,18-35.13,11.35-16.51,23.88-32.42,39.38-44.49,28.58-22.24,64.52-29.53,99.12-36.1l14.52-2.75c17.81-3.37,35.72-6.71,53.74-7,20.9-.3,41.57,3.54,61.87,8.38,18.95,4.51,37.9,10,54.95,19.74,4.28,2.45,8.49,5.19,13.22,6.49,3.52,1,7.23,1.1,10.73,2.12,7.72,2.23,13.72,8.43,19.37,14.41l35.26,37.32c5.48,5.8,11,11.71,14.64,19,2.3,4.65,3.74,9.75,5.84,14.51,4,9.09,10.35,16.72,15.2,25.32s8.25,19,5.56,28.79c5.57,11.41,3.11,24.48,8.67,35.89,2.08,4.26,4.18,8.6,4.91,13.36s0,9.67-.93,14.42c-4.81,24.11-10.56,47.3-32.86,53.82-10.5,3.07-21.55,1.7-32.27.31l-41-5.33c-13.89-1.81-28.38-3.55-41.68,1.5-4.47,1.7-8.71,4.13-13.3,5.31-12.67,3.26-25.34-3.41-38.2-4.9C941.39,494,913.78,520,883,525.07c-34.36,5.67-70.4-19.31-78.56-55.06-2-8.56-2.34-18.11,1.79-25.89,4.56-8.61,13.6-13.28,20-20.5,7.65-8.7,11.33-21,20.07-28.46,14.86-12.66,37.24-6,54.28-14.86,4.8-2.51,9.35-6.32,14.65-6.52,3.39-.12,6.63,1.28,10,1.68,6.8.81,13.7-2.39,20.43-5.59,8.89-4.22,17.47-8.45,25.12-3.44L804.74,466.12" style="fill: #e64c3c"/>
        <g style="clip-path: url(#clip-path-5)">
          <polyline points="801.97 407.69 909.38 357.62 976.45 357.62 1039.69 518.63 1013.74 530.73 801.97 530.73 801.97 407.69" style="fill: #d33f33"/>
          <polyline points="978.63 357.62 1041.53 517.77 1039.69 518.63 976.45 357.62 978.63 357.62" style="fill: #d33f33"/>
          <polyline points="980.81 357.62 1043.38 516.91 1041.53 517.77 978.63 357.62 980.81 357.62" style="fill: #d44034"/>
          <polyline points="983 357.62 1045.22 516.05 1043.38 516.91 980.81 357.62 983 357.62" style="fill: #d54034"/>
          <polyline points="985.18 357.62 1047.07 515.2 1045.22 516.05 983 357.62 985.18 357.62" style="fill: #d64135"/>
          <polyline points="987.36 357.62 1048.91 514.34 1047.07 515.2 985.18 357.62 987.36 357.62" style="fill: #d74235"/>
          <polyline points="989.54 357.62 1050.76 513.48 1048.91 514.34 987.36 357.62 989.54 357.62" style="fill: #d84336"/>
          <polyline points="991.72 357.62 1052.6 512.62 1050.76 513.48 989.54 357.62 991.72 357.62" style="fill: #d94336"/>
          <polyline points="993.9 357.62 1054.44 511.76 1052.6 512.62 991.72 357.62 993.9 357.62" style="fill: #da4437"/>
          <polyline points="996.09 357.62 1056.29 510.9 1054.44 511.76 993.9 357.62 996.09 357.62" style="fill: #db4537"/>
          <polyline points="998.27 357.62 1058.13 510.04 1056.29 510.9 996.09 357.62 998.27 357.62" style="fill: #dd4638"/>
          <polyline points="1000.45 357.62 1059.98 509.18 1058.13 510.04 998.27 357.62 1000.45 357.62" style="fill: #de4638"/>
          <polyline points="1002.63 357.62 1061.82 508.32 1059.98 509.18 1000.45 357.62 1002.63 357.62" style="fill: #df4739"/>
          <polyline points="1004.82 357.62 1063.67 507.46 1061.82 508.32 1002.63 357.62 1004.82 357.62" style="fill: #e04839"/>
          <polyline points="1007 357.62 1065.51 506.6 1063.67 507.46 1004.82 357.62 1007 357.62" style="fill: #e1483a"/>
          <polyline points="1009.18 357.62 1067.35 505.74 1065.51 506.6 1007 357.62 1009.18 357.62" style="fill: #e2493a"/>
          <polyline points="1011.36 357.62 1069.2 504.88 1067.35 505.74 1009.18 357.62 1011.36 357.62" style="fill: #e34a3b"/>
          <polyline points="1013.54 357.62 1071.04 504.02 1069.2 504.88 1011.36 357.62 1013.54 357.62" style="fill: #e44b3b"/>
          <polyline points="1015.73 357.62 1072.89 503.16 1071.04 504.02 1013.54 357.62 1015.73 357.62" style="fill: #e54b3c"/>
          <polyline points="1017.91 357.62 1074.73 502.3 1072.89 503.16 1015.73 357.62 1017.91 357.62" style="fill: #e64c3c"/>
          <polyline points="1082.58 498.64 1074.73 502.3 1017.91 357.62 1082.58 357.62 1082.58 498.64" style="fill: #e64c3c"/>
        </g>
        <path d="M677,491.61a2.59,2.59,0,0,1-1.83-4.42c7.34-7.33,13.73-11,18.32-12.84-7.41-3.78-17.52-9.7-19.07-14.54a4.62,4.62,0,0,1,.34-3.84l3.18-5.49a2.58,2.58,0,0,1,4.48,2.58l-3,5.29c.81,2.56,11.23,9.19,22.68,14.38a2.59,2.59,0,0,1-1.07,4.95c-.06,0-9.32.34-22.15,13.17A2.56,2.56,0,0,1,677,491.61Z" style="fill: #fff"/>
        <path d="M992.71,314.66a94.54,94.54,0,0,0-24.5-9.27,159,159,0,0,0-26-3.81,263,263,0,0,0-52.39,2.09,288.72,288.72,0,0,0-51.14,11.44c-4.15,1.36-8.25,2.86-12.26,4.54a91.26,91.26,0,0,0-11.65,5.74c-3.71,2.2-7.13,4.77-9.43,8.26a21.93,21.93,0,0,0-3.7,11.72,38.14,38.14,0,0,0,1.88,12.52,76.58,76.58,0,0,0,4.93,11.92c3.92,7.73,8.8,14.94,13.72,22.22.61.92,1.22,1.84,1.82,2.78s1.18,1.94,1.72,2.87c1.11,1.88,2.23,3.74,3.39,5.59a121.62,121.62,0,0,0,7.38,10.66,54.15,54.15,0,0,0,8.79,9.15,25.07,25.07,0,0,0,5.17,3.21,13.85,13.85,0,0,0,5.62,1.23,11.34,11.34,0,0,1,3.9.66,7.46,7.46,0,0,1,3.51,2.6,8,8,0,0,1,1.44,4.07,11.43,11.43,0,0,1-.44,3.95,16.73,16.73,0,0,1-3.64,6.48,18.75,18.75,0,0,1-13,6.3l-1.69.06c-.5,0-1,.06-1.48.11a22.53,22.53,0,0,0-2.93.54,23.09,23.09,0,0,0-10.26,5.94,18.67,18.67,0,0,0-5.48,10.1,12,12,0,0,0-.1,2.74,11.64,11.64,0,0,0,.55,2.62,13.11,13.11,0,0,0,.54,1.21c.11.19.21.42.31.57a3.67,3.67,0,0,0,.27.38,3.91,3.91,0,0,0,1.7,1.11,15.86,15.86,0,0,0,5.58.61c2.06-.05,4.2-.27,6.39-.47s4.42-.42,6.75-.46a20.72,20.72,0,0,1,7.41,1,9.73,9.73,0,0,1,3.73,2.36,9.34,9.34,0,0,1,2.22,3.91,17.92,17.92,0,0,1,.2,7.68,47.05,47.05,0,0,1-1.7,6.76q-1,3.09-1.85,6.21A80.48,80.48,0,0,0,855.48,517c-.44,4.06-.27,8.17,1.46,11s5.07,4.59,9,5.51a59.66,59.66,0,0,0,12.41,1.34c1.07,0,2.14,0,3.21,0,.52,0,1.22,0,1.82,0s1.27.1,1.9.19A16.64,16.64,0,0,1,898,543.82a27.87,27.87,0,0,1,2.64,6.93,60.86,60.86,0,0,1,1.44,13.82c0,4.53-.25,9-.64,13.44-.78,8.87-2,17.59-3.14,26.27s-2.2,17.31-2.44,25.8c0,1.07,0,2.11,0,3.17l.06,3.25c0,2.16.1,4.32.19,6.48.17,4.32.5,8.62.89,12.92,1.62,17.18,5.39,34.27,8,51.79,1.34,8.74,2.35,17.57,3.24,26.31s1.73,17.5,2.52,26.24l4.64,52.44,2.31,26.2,1.2,13.07.64,6.49.35,3.22c.12,1.06.26,2,.39,2.93l.06.51a5,5,0,1,1-10,1.26c-.15-1.19-.34-2.47-.45-3.59l-.32-3.33-.58-6.6-1.06-13.14-2-26.25L901.79,761q-1-13.11-2.22-26.17c-.79-8.72-1.68-17.33-2.89-26s-2.64-17.22-4-25.92-2.63-17.5-3.39-26.38c-.34-4.44-.63-8.88-.75-13.33-.06-2.22-.12-4.45-.12-6.67v-3.33c0-1.13,0-2.28.07-3.41.37-9.05,1.6-17.81,2.82-26.52s2.57-17.34,3.43-26c.43-4.29.73-8.58.77-12.82a54.52,54.52,0,0,0-1.1-12.31c-.89-3.86-2.55-7.34-5.26-9.22a11.08,11.08,0,0,0-4.76-1.83c-.44-.07-.91-.1-1.37-.15l-1.46,0c-1.12,0-2.24,0-3.37-.07a65,65,0,0,1-13.68-1.67,25.75,25.75,0,0,1-6.88-2.74A15.58,15.58,0,0,1,852,530.9a18.09,18.09,0,0,1-2.22-7.42,34,34,0,0,1,.17-7.16A84,84,0,0,1,852.81,503c.62-2.15,1.29-4.27,2-6.38a40.83,40.83,0,0,0,1.58-6,12.93,12.93,0,0,0,0-5.37,4,4,0,0,0-2.73-2.91,16.13,16.13,0,0,0-5.56-.73c-2.06,0-4.19.19-6.37.36s-4.41.38-6.74.42a20.1,20.1,0,0,1-7.39-1,8.71,8.71,0,0,1-3.66-2.57,8,8,0,0,1-.68-1c-.19-.32-.31-.59-.46-.89a14.12,14.12,0,0,1-1.53-5.61,16.69,16.69,0,0,1,.18-3.81A23.09,23.09,0,0,1,828.39,455a27.35,27.35,0,0,1,12.34-6.94,26.6,26.6,0,0,1,3.55-.61c.59-.06,1.19-.1,1.8-.11l1.59,0a14.53,14.53,0,0,0,5.54-1.37,14.06,14.06,0,0,0,7.43-8.27,5.41,5.41,0,0,0-.33-4.61c-.74-1.11-2.38-1.69-4.26-1.71a17.7,17.7,0,0,1-7.12-1.63A28.87,28.87,0,0,1,843,426a58.51,58.51,0,0,1-9.29-9.88,128,128,0,0,1-7.45-11c-1.15-1.89-2.27-3.8-3.36-5.71-.56-1-1.07-1.89-1.64-2.79s-1.15-1.83-1.74-2.74c-4.81-7.31-9.7-14.72-13.62-22.7a77.81,77.81,0,0,1-5-12.43,40.57,40.57,0,0,1-1.83-13.41,24.21,24.21,0,0,1,4.28-13,24.66,24.66,0,0,1,4.68-5.05,44.58,44.58,0,0,1,5.58-3.79,94.93,94.93,0,0,1,12-5.73c4.09-1.66,8.26-3.12,12.46-4.45a291.38,291.38,0,0,1,51.56-10.87,263.65,263.65,0,0,1,52.61-1.46,160.57,160.57,0,0,1,26,4.13,94.92,94.92,0,0,1,24.43,9.59" style="fill: #be202e"/>
        <path d="M824.53,256.22a12.4,12.4,0,0,0-6,6.35,25.25,25.25,0,0,0-1.93,8.63c-.35,5.95-.56,12-.85,17.93L814.14,325a1.44,1.44,0,0,1-2.87-.13v-.06L814.33,289c.53-6,1-11.93,1.57-17.91a25.85,25.85,0,0,1,2.31-8.71,12.59,12.59,0,0,1,6.32-6.2" style="fill: #be202e"/>
        <path d="M913.12,247.2a14.89,14.89,0,0,0-6.28,5.1,24.22,24.22,0,0,0-3.5,7.32c-1.58,5.23-1.51,10.75-1.84,16.22a56.49,56.49,0,0,1-1,8.26,24.39,24.39,0,0,1-3,7.88,41.66,41.66,0,0,1-5,6.76,44,44,0,0,1-6.16,5.73,1.08,1.08,0,1,1-1.31-1.71l0,0h0a42.42,42.42,0,0,0,11-11.6c3-4.48,3.78-9.94,4.27-15.37.25-2.72.42-5.46.74-8.2a38.11,38.11,0,0,1,1.69-8.11,24.57,24.57,0,0,1,3.81-7.32,15,15,0,0,1,6.5-4.93" style="fill: #be202e"/>
        <path d="M885.77,250.37a8.66,8.66,0,0,1,7.15,2.94,16.73,16.73,0,0,1,3.64,7.12c.72,2.59,1.11,5.19,1.92,7.67a29.2,29.2,0,0,0,3.08,7.08l0,0a.72.72,0,0,1-1.21.79v0a29.66,29.66,0,0,1-3-7.55c-.35-1.29-.64-2.6-.86-3.92s-.44-2.6-.74-3.88a16,16,0,0,0-3.17-7,8.49,8.49,0,0,0-6.87-3.2" style="fill: #be202e"/>
        <path d="M986.37,269.85a37.24,37.24,0,0,1-4.76,11.32,50.05,50.05,0,0,1-7.78,9.58,52.63,52.63,0,0,1-9.85,7.52,43,43,0,0,1-11.49,4.79.71.71,0,0,1-.87-.53.72.72,0,0,1,.52-.87h0a41.72,41.72,0,0,0,11.28-4.33,51.82,51.82,0,0,0,9.89-7.1,50.31,50.31,0,0,0,8-9.25,37.26,37.26,0,0,0,5.06-11.13" style="fill: #be202e"/>
        <path d="M1055.42,421.59a38.15,38.15,0,0,0-7-2.82c-2.4-.76-4.82-1.46-7.21-2.25-4.76-1.61-9.51-3.75-13.23-7.3a27.19,27.19,0,0,1-4.76-6,51.76,51.76,0,0,0-4.39-6.05,77.14,77.14,0,0,0-10.7-10.45,61.19,61.19,0,0,0-12.58-7.92,32.07,32.07,0,0,0-14.16-3.22,20.64,20.64,0,0,0-7,1.43,24.72,24.72,0,0,0-3.22,1.6l-3.34,1.87a97.05,97.05,0,0,1-14,6.08,116.09,116.09,0,0,1-30,5.9c-2.55.2-5.1.27-7.65.32a27.06,27.06,0,0,0-6.93,1.14,77.1,77.1,0,0,0-13.52,5.73c-4.42,2.28-8.77,4.79-13.32,7.14a57,57,0,0,1-7.2,3.22,16.62,16.62,0,0,1-4.32,1l-1.84.11c-.56,0-1.17.14-1.74.2a122.22,122.22,0,0,0-14.39,3.24c-4.8,1.32-9.61,2.78-14.32,4.33h0a2.87,2.87,0,1,1-1.79-5.46l.06,0c4.9-1.47,9.76-2.82,14.71-4.06a126.49,126.49,0,0,1,15.15-3c.67-.06,1.31-.16,2-.18l1.93-.07a12.17,12.17,0,0,0,3-.62,53.34,53.34,0,0,0,6.64-2.81c4.45-2.16,8.9-4.59,13.48-6.81a81.89,81.89,0,0,1,14.4-5.69,31.41,31.41,0,0,1,8-1.1c2.49,0,5,0,7.45-.13a112.84,112.84,0,0,0,29.28-5,95.23,95.23,0,0,0,13.79-5.59l3.29-1.74a28,28,0,0,1,3.59-1.67,22.76,22.76,0,0,1,7.77-1.41,34.07,34.07,0,0,1,15,3.75,63.31,63.31,0,0,1,12.74,8.44,78,78,0,0,1,10.62,10.88,54.13,54.13,0,0,1,4.33,6.27,26.17,26.17,0,0,0,4.48,5.91c3.52,3.54,8.15,5.77,12.85,7.48,2.36.85,4.76,1.6,7.15,2.42a38.25,38.25,0,0,1,6.93,3" style="fill: #be202e"/>
        <path d="M837.74,260.35c6.52,3.62,13,7.69,18,13.4a34.49,34.49,0,0,1,6,9.59,36.14,36.14,0,0,1,2.53,11.09c.14,1.92.18,3.78.21,5.64s.13,3.72.27,5.58a71.31,71.31,0,0,0,1.45,11,26.68,26.68,0,0,0,4.15,9.83,18,18,0,0,0,3.62,3.73c.73.47,1.45,1,2.2,1.39s1.56.81,2.39,1.1l2.56.89c.92.34,1.87.58,2.77,1a25.51,25.51,0,0,1,5.19,2.91,20.71,20.71,0,0,1,7.36,9.53,24.32,24.32,0,0,1,1.11,12c-.07.49-.09,1-.2,1.48l-.33,1.45a23.11,23.11,0,0,1-.75,2.86l-.91,2.8-1.14,2.69c-.19.45-.37.9-.57,1.34l-.66,1.29-1.33,2.59L889,380.39l-5.35,9.85-10.7,19.69,0,.08a2.88,2.88,0,1,1-5.06-2.75l.05-.08,11.37-19.41,5.68-9.7,2.84-4.85,1.31-2.37.66-1.18c.2-.4.38-.82.57-1.22l1.12-2.45.91-2.51a19.38,19.38,0,0,0,.75-2.54l.34-1.28c.12-.43.14-.86.22-1.29a20.65,20.65,0,0,0-.59-10.17,17.33,17.33,0,0,0-5.91-8.15,22.3,22.3,0,0,0-4.49-2.7c-.78-.41-1.64-.66-2.46-1l-2.72-1c-.92-.35-1.78-.89-2.67-1.33s-1.67-1.11-2.48-1.69a20.56,20.56,0,0,1-4-4.41,29,29,0,0,1-4.2-10.84c-1.45-7.52-1.17-15.15-1.26-22.54a34.83,34.83,0,0,0-2.09-10.77,33.52,33.52,0,0,0-5.57-9.52c-4.73-5.76-11-10-17.42-13.87" style="fill: #be202e"/>
        <path d="M866.84,255.85a31.61,31.61,0,0,0-3.43,4.41,47.33,47.33,0,0,0-2.67,4.9,59.11,59.11,0,0,0-3.68,10.49v0a.37.37,0,0,1-.44.26.36.36,0,0,1-.26-.43h0A59,59,0,0,1,860.42,265a47.85,47.85,0,0,1,2.84-4.84,32.11,32.11,0,0,1,3.58-4.31" style="fill: #be202e"/>
        <path d="M996.49,255.85c.12,6.75.34,13.51-.18,20.28a56.54,56.54,0,0,1-1.62,10.06,28.52,28.52,0,0,1-4.26,9.38c-.48.73-1.11,1.35-1.66,2s-1.14,1.23-1.71,1.85c-1.11,1.24-2.19,2.51-3.23,3.83-2.07,2.62-4,5.37-6,8.13A125.53,125.53,0,0,1,965,327.3c-4.62,4.83-9,9.92-13.39,15.05s-8.56,10.37-12.65,15.7-8,10.75-11.65,16.34c-1.8,2.79-3.52,5.62-5,8.5a33.19,33.19,0,0,0-3.38,8.58l0,.11a2.88,2.88,0,1,1-5.66-1.08l0-.12a37.32,37.32,0,0,1,4.3-10.08c1.74-3,3.63-5.91,5.6-8.72,3.92-5.62,8.13-11,12.45-16.21S944.4,345,949,340s9.18-10,14.06-14.73a123.35,123.35,0,0,0,13.13-15.13c2.05-2.68,4.09-5.39,6.3-8,1.1-1.31,2.25-2.57,3.44-3.8.59-.6,1.23-1.21,1.79-1.81s1.14-1.16,1.61-1.82a27.18,27.18,0,0,0,4.37-8.82,55.18,55.18,0,0,0,2-9.83c.75-6.69.77-13.46.89-20.21" style="fill: #be202e"/>
        <path d="M1019.47,307.8c.11,3.56.57,7.17-.09,10.74a17.45,17.45,0,0,1-4.83,9.57,28,28,0,0,1-9.07,5.93l-2.5,1a23.21,23.21,0,0,0-2.38,1.09,24.53,24.53,0,0,0-4.35,2.89,38.91,38.91,0,0,0-7.07,7.75,65.91,65.91,0,0,0-5.34,9.12,100.6,100.6,0,0,0-7.14,19.9v.06a1.44,1.44,0,1,1-2.8-.68v0a103.25,103.25,0,0,1,8-20.21,68.24,68.24,0,0,1,5.82-9.2,40.66,40.66,0,0,1,7.63-7.82A26.43,26.43,0,0,1,1000,335a25.66,25.66,0,0,1,2.54-1.06l2.49-.93a27.28,27.28,0,0,0,9-5.45,16.93,16.93,0,0,0,5-9.12c.76-3.49.44-7.11.44-10.68" style="fill: #be202e"/>
        <path d="M1028.16,314.29c-.47.81-.92,1.63-1.41,2.44s-1,1.6-1.54,2.35a44.2,44.2,0,0,1-3.54,4.42,35.56,35.56,0,0,1-4.2,3.84,22.66,22.66,0,0,1-5,3,.72.72,0,0,1-.94-.39.7.7,0,0,1,.38-.94l0,0,.06,0a21.56,21.56,0,0,0,4.8-2.5,34.17,34.17,0,0,0,4.31-3.48,40.93,40.93,0,0,0,3.77-4.12c.6-.72,1.12-1.49,1.68-2.24s1-1.56,1.56-2.34" style="fill: #be202e"/>
        <path d="M1102.38,336.76a7.3,7.3,0,0,1-2.44-3.31c-.57-1.27-1-2.58-1.54-3.87a35.77,35.77,0,0,0-1.63-3.81,8.07,8.07,0,0,0-2.56-3.12,3.9,3.9,0,0,0-1.87-.55,5.27,5.27,0,0,0-1.95.4,13.16,13.16,0,0,0-3.43,2.17c-1.07.88-2,1.88-3,2.84a20.77,20.77,0,0,1-3.38,2.52,21.92,21.92,0,0,1-8,2.72,53.69,53.69,0,0,1-8.39.44c-2.78,0-5.54-.08-8.26.17a25.1,25.1,0,0,0-4,.7,17.19,17.19,0,0,0-3.68,1.52,15.89,15.89,0,0,0-3.11,2.43,18.75,18.75,0,0,0-2.44,3.16c-1.39,2.31-2.72,4.81-4.08,7.21-2.72,4.85-5.47,9.69-8.45,14.42a96.07,96.07,0,0,1-10,13.56,35.32,35.32,0,0,1-6.46,5.7,16,16,0,0,1-8.52,2.94,1.44,1.44,0,0,1-.06-2.88h.06a13.3,13.3,0,0,0,7-2.32,33.39,33.39,0,0,0,6.1-5.16,93.57,93.57,0,0,0,10-13c3-4.6,5.88-9.36,8.7-14.14,1.43-2.39,2.75-4.78,4.28-7.19a20.73,20.73,0,0,1,2.72-3.36,16.77,16.77,0,0,1,3.49-2.6,18,18,0,0,1,4-1.57,25.5,25.5,0,0,1,4.22-.65,83.85,83.85,0,0,1,8.39,0,52.56,52.56,0,0,0,8.24-.25,21.17,21.17,0,0,0,7.75-2.45,19.85,19.85,0,0,0,3.32-2.37c1-.89,2-1.92,3.11-2.79a14,14,0,0,1,3.62-2.17,5.46,5.46,0,0,1,2.12-.39,4.25,4.25,0,0,1,2.05.66,8.23,8.23,0,0,1,2.61,3.3,34,34,0,0,1,1.56,3.87c.47,1.3.91,2.62,1.45,3.9a7.24,7.24,0,0,0,2.36,3.34" style="fill: #be202e"/>
        <path d="M1131.66,390.92a8.89,8.89,0,0,0-4.44,1.52,25,25,0,0,0-3.72,2.94c-2.32,2.16-4.44,4.52-6.58,6.85a174.55,174.55,0,0,1-13.33,13.6,79.09,79.09,0,0,1-15.53,11,67.47,67.47,0,0,1-8.73,3.89c-3,1.06-6.06,1.93-9.09,2.86-12.12,3.71-24.25,7.47-36.64,10.35-6.2,1.41-12.46,2.59-18.78,3.41a124.51,124.51,0,0,1-19.12.86l-4.79-.31c-1.59-.17-3.17-.4-4.76-.6s-3.16-.57-4.73-.86l-4.64-.95a39,39,0,0,0-18.35,1,66.79,66.79,0,0,0-16.86,8c-2.65,1.67-5.25,3.45-7.87,5.25s-5.24,3.61-8.08,5.22A25.11,25.11,0,0,1,921,467a9,9,0,0,1-5.45.15,13.13,13.13,0,0,1-4.6-2.56,16.93,16.93,0,0,1-3.27-4c-1.74-2.85-2.79-6-4.44-8.25a4.79,4.79,0,0,0-2.94-2.08,6,6,0,0,0-1.9,0l-2.27.4a45.85,45.85,0,0,1-9.83.35c-3.22-.19-6.41-.52-9.58-.94-6.35-.87-12.61-2-18.87-3.41a1.69,1.69,0,1,1,.73-3.29h0c6.1,1.44,12.31,2.64,18.52,3.56,3.11.44,6.22.8,9.33,1a44.05,44.05,0,0,0,9.14-.2l1.09-.18c.45-.07.87-.18,1.33-.23a9.41,9.41,0,0,1,2.84.09,7.08,7.08,0,0,1,2.71,1.22,9,9,0,0,1,2,2,28.71,28.71,0,0,1,2.41,4.4,45.25,45.25,0,0,0,2.08,4.12,14.31,14.31,0,0,0,2.69,3.38,10.37,10.37,0,0,0,3.64,2.07,6.34,6.34,0,0,0,3.91-.12,23.24,23.24,0,0,0,4.1-1.78c2.69-1.49,5.31-3.25,7.94-5s5.28-3.55,8-5.22a68.88,68.88,0,0,1,17.5-8.06,41.28,41.28,0,0,1,19.29-.82l4.67,1c1.53.31,3.05.73,4.61.9s3.11.45,4.66.64l4.7.35a122.58,122.58,0,0,0,18.86-.64c6.27-.74,12.5-1.84,18.68-3.17,12.36-2.73,24.51-6.35,36.68-9.93,3-.89,6.11-1.74,9.09-2.74a68,68,0,0,0,8.67-3.76,79.07,79.07,0,0,0,15.56-10.76,175.43,175.43,0,0,0,13.44-13.42c2.17-2.31,4.32-4.65,6.67-6.78a25.18,25.18,0,0,1,3.76-2.91,8.88,8.88,0,0,1,4.47-1.48" style="fill: #be202e"/>
        <path d="M992.71,885.11a1.68,1.68,0,0,1-1.67-1.5c-.18-1.59-17.42-159.68-17.42-190.4,0-5.46.07-11.54.15-18,.24-19.54.5-41.68-1.41-49.49-2.41-9.82-15.56-51.48-31.27-60.55-3.83-2.21-7-3.76-9.78-5.12-9.14-4.48-13.32-6.52-15.77-20-1-5.36-2.15-15.23-3.51-26.67-2.73-23-6.46-54.43-10.53-62.73a1.68,1.68,0,1,1,3-1.49c4.33,8.82,8,39.32,10.86,63.82,1.35,11.38,2.52,21.21,3.48,26.47,2.14,11.76,5.12,13.21,13.93,17.53,2.7,1.32,6.06,3,10,5.23C959.68,572,973,614.19,975.63,625c2,8.22,1.76,29.63,1.51,50.33-.08,6.42-.15,12.49-.15,17.93,0,30.54,17.23,188.44,17.4,190a1.69,1.69,0,0,1-1.49,1.86h-.19" style="fill: #be202e"/>
        <g style="clip-path: url(#clip-path-6)">
          <polygon points="828.61 406.1 849.17 411.09 847.94 416.15 828.61 416.15 828.61 406.1" style="fill: #b5282b"/>
          <polygon points="828.61 405.72 849.25 410.73 849.17 411.09 828.61 406.1 828.61 405.72" style="fill: #b5282b"/>
          <polygon points="828.61 405.33 849.34 410.37 849.25 410.73 828.61 405.72 828.61 405.33" style="fill: #b42729"/>
          <polygon points="828.61 404.95 849.43 410 849.34 410.37 828.61 405.33 828.61 404.95" style="fill: #b32628"/>
          <polygon points="828.61 404.56 849.43 409.62 849.43 410 849.43 410 828.61 404.95 828.61 404.56" style="fill: #b12426"/>
          <polygon points="828.61 404.18 849.43 409.24 849.43 409.62 828.61 404.56 828.61 404.18" style="fill: #b02325"/>
          <polygon points="828.61 403.79 849.43 408.85 849.43 409.24 828.61 404.18 828.61 403.79" style="fill: #af2224"/>
          <polygon points="828.61 403.41 849.43 408.47 849.43 408.85 828.61 403.79 828.61 403.41" style="fill: #ae2122"/>
          <polygon points="828.61 403.02 849.43 408.08 849.43 408.47 828.61 403.41 828.61 403.02" style="fill: #ad2021"/>
          <polygon points="828.61 402.64 849.43 407.7 849.43 408.08 828.61 403.02 828.61 402.64" style="fill: #ac1f1f"/>
          <polygon points="828.61 402.25 849.43 407.31 849.43 407.7 828.61 402.64 828.61 402.25" style="fill: #ab1d1e"/>
          <polygon points="828.61 401.87 849.43 406.93 849.43 407.31 828.61 402.25 828.61 401.87" style="fill: #aa1c1d"/>
          <polygon points="828.61 401.49 849.43 406.54 849.43 406.93 828.61 401.87 828.61 401.49" style="fill: #a91b1b"/>
          <polygon points="828.61 401.1 849.43 406.16 849.43 406.54 828.61 401.49 828.61 401.1" style="fill: #a81a1a"/>
          <polygon points="828.61 400.72 849.43 405.77 849.43 406.16 828.61 401.1 828.61 400.72" style="fill: #a71919"/>
          <polygon points="828.61 400.33 849.43 405.39 849.43 405.77 828.61 400.72 828.61 400.33" style="fill: #a61817"/>
          <polygon points="828.61 399.95 849.43 405 849.43 405.39 828.61 400.33 828.61 399.95" style="fill: #a51716"/>
          <polygon points="828.61 399.56 849.43 404.62 849.43 405 828.61 399.95 828.61 399.56" style="fill: #a41615"/>
          <polygon points="828.61 399.18 849.43 404.23 849.43 404.62 828.61 399.56 828.61 399.18" style="fill: #a31514"/>
          <polygon points="828.61 398.79 849.43 403.85 849.43 404.23 828.61 399.18 828.61 398.79" style="fill: #a21413"/>
          <polygon points="828.61 398.41 849.43 403.46 849.43 403.85 828.61 398.79 828.61 398.41" style="fill: #a11412"/>
          <polygon points="828.61 398.02 849.43 403.08 849.43 403.46 828.61 398.41 828.61 398.02" style="fill: #a01310"/>
          <polygon points="828.61 397.64 849.43 402.69 849.43 403.08 828.61 398.02 828.61 397.64" style="fill: #9f120f"/>
          <polygon points="828.61 397.25 849.43 402.31 849.43 402.69 828.61 397.64 828.61 397.25" style="fill: #9f110e"/>
          <polygon points="828.61 396.87 849.43 401.93 849.43 402.31 828.61 397.25 828.61 396.87" style="fill: #9e100d"/>
          <polygon points="828.61 396.49 849.43 401.54 849.43 401.93 828.61 396.87 828.61 396.49" style="fill: #9d0f0c"/>
          <polygon points="828.61 396.1 849.43 401.16 849.43 401.54 828.61 396.49 828.61 396.1" style="fill: #9c0f0b"/>
          <polygon points="828.61 395.71 849.43 400.77 849.43 401.16 828.61 396.1 828.61 395.71" style="fill: #9c0e0a"/>
          <polygon points="828.61 395.33 849.43 400.39 849.43 400.77 828.61 395.71 828.61 395.33" style="fill: #9b0d0a"/>
          <polygon points="828.61 394.95 849.43 400 849.43 400.39 828.61 395.33 828.61 394.95" style="fill: #9a0c09"/>
          <polygon points="828.61 394.56 849.43 399.62 849.43 400 828.61 394.95 828.61 394.56" style="fill: #9a0c08"/>
          <polygon points="828.61 394.18 849.43 399.23 849.43 399.62 828.61 394.56 828.61 394.18" style="fill: #990b07"/>
          <polygon points="828.61 393.79 849.43 398.85 849.43 399.23 828.61 394.18 828.61 393.79" style="fill: #980b06"/>
          <polygon points="828.61 393.41 849.43 398.46 849.43 398.85 828.61 393.79 828.61 393.41" style="fill: #980a06"/>
          <polygon points="828.61 393.02 849.43 398.08 849.43 398.46 828.61 393.41 828.61 393.02" style="fill: #970905"/>
          <polygon points="828.61 392.64 849.43 397.69 849.43 398.08 828.61 393.02 828.61 392.64" style="fill: #970904"/>
          <polygon points="828.61 392.25 849.43 397.31 849.43 397.69 828.61 392.64 828.61 392.25" style="fill: #960804"/>
          <polygon points="828.61 391.87 849.43 396.92 849.43 397.31 828.61 392.25 828.61 391.87" style="fill: #960803"/>
          <polygon points="828.61 391.48 849.43 396.54 849.43 396.92 828.61 391.87 828.61 391.48" style="fill: #960803"/>
          <polygon points="828.61 391.1 849.43 396.15 849.43 396.54 828.61 391.48 828.61 391.1" style="fill: #950702"/>
          <polygon points="828.61 390.71 849.43 395.77 849.43 396.15 828.61 391.1 828.61 390.71" style="fill: #950702"/>
          <polygon points="828.61 390.33 849.43 395.38 849.43 395.77 828.61 390.71 828.61 390.33" style="fill: #950702"/>
          <polygon points="849.43 395.38 828.61 390.33 828.61 388.65 849.43 388.65 849.43 395.38" style="fill: #950702"/>
        </g>
        <g>
          <path d="M1059.78,232.91C961,183.67,822,199.85,750.58,247.45s-75.44,146.82-66.22,162.78,15.15,46.55,39.9,60.84c18,10.42,44.75,16.68,60.83,16.85a19.36,19.36,0,0,1,17.64,12.25c11,27.14,33.19,64.44,55.42,70l149.78,26.54q3.71.1,7.29.11c35.85,0,72.06-18.26,94.94-41.14s73.56-39.78,73.56-99.75S1158.59,282.16,1059.78,232.91Zm-223,248.14a71.6,71.6,0,1,1,71.6-71.6A71.6,71.6,0,0,1,836.82,481.05Z" style="fill: #f2dcbd;opacity: 0.61"/>
          <path d="M1007.93,596.71q3.71.1,7.29.11c35.85,0,72.06-18.26,94.94-41.14s73.56-39.78,73.56-99.75-25.13-173.77-123.94-223S822,199.85,750.58,247.45s-75.44,146.82-66.22,162.79,15.15,46.54,39.9,60.83c18,10.42,44.75,16.68,60.83,16.85a19.36,19.36,0,0,1,17.64,12.25c11,27.14,33.19,64.44,55.42,70" style="fill: none;stroke: #f2dcbd;stroke-miterlimit: 10;stroke-width: 12px"/>
        </g>
        <path d="M803.56,466.18c-3.35.07-6.77.12-10.23.14a71.26,71.26,0,0,0,11.95,7.43c-.35-1.24-.68-2.49-1-3.76s-.54-2.52-.75-3.81" style="fill: #ddd"/>
        <path d="M803.57,466.18h0c.21,1.29.47,2.56.75,3.81s.62,2.52,1,3.76l.44.22a77.52,77.52,0,0,1-2.15-7.79" style="fill: #e58e87"/>
        <path d="M855.53,523.42c1.69.49,3.4.89,5.11,1.22q-2.58-.51-5.11-1.22m-.07,0v0h0m56.78-8.19c-4.29,1.94-8.6,3.79-13,5.39a117.56,117.56,0,0,0,12.89-5.29l1.54,12c-.46-3.67-1-7.77-1.47-12.12" style="fill: #ddd"/>
        <path d="M912.23,515.15c-4.84,2.2-9.72,4.28-14.65,6l1.7-.57c4.36-1.6,8.67-3.45,13-5.39v-.06" style="fill: #f0968c"/>
        <path d="M849.54,521.44l.08,0h0l-.08,0m-34.32-26.93a55.23,55.23,0,0,0,12.67,14.26c2,1.52,3.77,2.83,5.44,4a74.9,74.9,0,0,1-18.11-18.24" style="fill: #ddd"/>
        <path d="M920.33,865.74a5,5,0,0,1-4.42,5,4.58,4.58,0,0,1-.64,0,5,5,0,0,1-2.45-.64,5,5,0,0,0,2.45.64,4.58,4.58,0,0,0,.64,0,5,5,0,0,0,4.42-5M909.48,747.12q.63,6.57,1.22,13.12l1.55,17.48-1.55-17.48q-.59-6.56-1.22-13.12m-4.54-39.43h0c.85,5.54,1.56,11.11,2.2,16.68-.64-5.57-1.35-11.14-2.2-16.68h0m-12.23-24.31c1.37,8.56,2.81,17,4,25.51-1.16-8.48-2.6-16.95-4-25.51M888.39,637c0,2,.06,4,.12,6-.06-2-.12-4-.12-6m7.41-4.55v.79l.06,3.25c0,2.16.1,4.32.19,6.48.17,4.32.5,8.62.89,12.92l.15,1.61-.15-1.61c-.39-4.3-.72-8.6-.89-12.92-.09-2.16-.18-4.32-.19-6.48l-.06-3.25v-.79m2.39-27.57c-1.08,8.46-2.13,16.9-2.36,25.19.23-8.29,1.28-16.73,2.36-25.19m3.45-29.73v0m-9.27-28.35a21.44,21.44,0,0,1,2,5.44,54.09,54.09,0,0,1,1.1,11.72,54.09,54.09,0,0,0-1.1-11.72,21.44,21.44,0,0,0-2-5.44m-11.44-11.95h0m.72,0h0m0,0h0c.5,0,1.14,0,1.69,0s1.27.1,1.9.19A16.64,16.64,0,0,1,898,543.82a27.87,27.87,0,0,1,2.64,6.93,60.86,60.86,0,0,1,1.44,13.82c0,3.54-.15,7-.4,10.52.25-3.48.41-7,.4-10.52a60.86,60.86,0,0,0-1.44-13.82,27.87,27.87,0,0,0-2.64-6.93,16.64,16.64,0,0,0-12.72-8.73c-.63-.09-1.27-.14-1.9-.19s-1.19,0-1.69,0m-15.75-1.36h0a59.66,59.66,0,0,0,12.41,1.34h0a59.66,59.66,0,0,1-12.41-1.34h0m-13.83-2.38a15.64,15.64,0,0,0,5.51,5.4,15.64,15.64,0,0,1-5.51-5.4m7.3-.43a11.1,11.1,0,0,0,1.19.78c-.34-.21-.72-.46-1.13-.74l-.06,0m-8.71-2.62a11,11,0,0,0,1.14,2.58,15.48,15.48,0,0,1-1.14-2.58m4.88-4.05a11.61,11.61,0,0,0,1.39,4,8.3,8.3,0,0,0,1,1.44,11.86,11.86,0,0,1-2.44-5.41" style="fill: #ddd"/>
        <path d="M994.4,883.44a1.68,1.68,0,0,1-1.5,1.66h0a1.68,1.68,0,0,0,1.5-1.66M973.64,695.36c.71,35.29,17.23,186.69,17.4,188.25a1.68,1.68,0,0,0,1.61,1.5,1.68,1.68,0,0,1-1.61-1.5c-.17-1.56-16.69-153-17.4-188.25m3.57-51.59c.2,9.32.06,20.51-.07,31.51-.08,6.42-.15,12.49-.15,17.93,0-5.44.07-11.51.15-17.93.13-11,.27-22.19.07-31.51m0-.37c0,.12,0,.24,0,.37,0-.13,0-.25,0-.37m0-.12v0m0-.12v0m0-.13h0m-35.09-77.2c15.26,10.22,27.9,50.31,30.26,59.92,1.26,5.14,1.57,16.49,1.58,29.22,0-12.73-.32-24.08-1.58-29.22-2.36-9.61-15-49.7-30.26-59.92m2.19-2.58h0m-.18-.13h0M944,563h0m-.06,0h0m-.13-.09,0,0,0,0m-.12-.07h0m-.08-.06,0,0,0,0m-.11-.07,0,0,0,0m-.11-.07.07.05-.07-.05m-.09,0,.05,0-.05,0m-.1-.07,0,0,0,0m-.11-.06.07,0-.07,0m-.1-.06.07,0-.07,0m-.1-.06.08,0-.08,0m-.11-.06h0l.09.05-.09-.05h0m-28.65-31.76,0,.21c.5,3.83,1,7,1.4,9.39,2.45,13.44,6.63,15.48,15.77,20,2.79,1.37,6,2.91,9.78,5.12-3.83-2.21-7-3.76-9.78-5.12-9.14-4.48-13.32-6.52-15.77-20-.44-2.39-.91-5.68-1.42-9.6" style="fill: #ddd"/>
        <path d="M888.56,459.38H786.92V357.73H888.56Zm-98.2-3.45h94.76V361.18H790.36Z" style="fill: #ffe100"/>
        <path d="M885.14,360.42,707.75,54.89a6.24,6.24,0,1,1,10.8-6.27l.07.13L888.54,358.49a2,2,0,0,1-3.4,1.93Z" style="fill: #ffe100"/>
        <path d="M788.22,459.46,397.35,370.31a6.24,6.24,0,1,1,2.7-12.19l-3.29,2,392.3,95.74a1.85,1.85,0,0,1-.84,3.61Z" style="fill: #ffe100"/>
        <path d="M521.31,177.23l-9.26,3.28a1.87,1.87,0,0,1-.61.11,1.85,1.85,0,0,1-.62-3.58l11.23-4A35.84,35.84,0,0,1,521.31,177.23Z" style="fill: #c7ccd1"/>
        <g style="clip-path: url(#clip-path-7)">
          <g style="clip-path: url(#clip-path-8)">
            <path d="M296.5,557.77c-120,2.52-1.85-558,20.91-643.4C340.53-172.4,792.83-277.08,797.71-245S2146.57,769,2054.42,757c-93.65-12.18-191.36-23.92-281.09,10.14-30.1,11.43-58.7,27.85-89.7,35.81-85.42,21.94-170.87-23-257.59-33.09C1218.08,745.74,1031.87,921,824,955.32,592.24,993.58,349.23,825.12,294.16,584,281,526.24,278.4,461.82,306.22,409.38,337,351.31,398,319.83,440.84,271.11c51.61-58.66,76.45-141.8,135.37-192C676.43-6.2,827.4,39.07,942.28-21,974.68-38,1005.36-63.69,1041.14-65c22.84-.83,44.66,8.6,67.3,11.29,106.39,12.63,216.6-120.23,307.17-60.88" style="fill: #e64c3c"/>
            <g style="clip-path: url(#clip-path-9)">
              <polygon points="277.81 176.94 1030.71 -174.03 1454.53 -174.03 1876.64 900.68 1677.55 993.49 277.81 993.49 277.81 176.94" style="fill: #d33f33"/>
            </g>
            <path d="M708.22,145.82c-2.17.09-4.25.28-6.26.45l-4.27.39-3.34.38c-8.28.93-16.93,2.19-26.43,3.85-2.53.43-4.6.8-6.5,1.16L655,153.26l-3.43.68c-3.07.61-6.25,1.23-9.34,1.89-15.24,3.17-31.29,6.87-50.5,11.66-16,4-32.8,8.45-49.81,13.17-8.34,2.31-16.67,4.67-24.8,7,0,0-9.48,2.85-17.33,5.25a11.52,11.52,0,0,1-12.61-4.16c-6-8-12.17-16.64-18.34-25.65-12.24-17.89-24.55-37.29-38.74-61.06-2.81-4.7-5.85-9.83-9.28-15.67l-2.32-4L416,78.29l-2.5-4.06-2.51-4c-3.6-5.62-7.26-11.17-10.92-16.65v57.88l3.55,6.15c14.24,24.52,26.63,44.59,39,63.17a652.3,652.3,0,0,0,44.84,60.25c9,10.57,17.48,19.72,26,28a270.87,270.87,0,0,0,29.68,25.28,176.35,176.35,0,0,0,35,20.16,130.77,130.77,0,0,0,20,6.64,110.16,110.16,0,0,0,21.47,3l6.71.2c.33,0,.65,0,1,.07l.7.06.79.06c.32,0,.64,0,.92.08l2.64.36.78.15,1.69.33a28.72,28.72,0,0,1,10.34,4.32,19.08,19.08,0,0,1,3.47,3.2,17.38,17.38,0,0,1,2.4,3.87,21,21,0,0,1,1.58,4.86,33.1,33.1,0,0,1,.6,5.81,44.21,44.21,0,0,1-.44,6.41,57.84,57.84,0,0,1-1.41,6.67c-.09.31-.19.6-.28.91h36.3c.16-1,.3-1.93.42-2.88a78.52,78.52,0,0,0,.64-11.86A69.43,69.43,0,0,0,687,334.39a56.94,56.94,0,0,0-4.27-12.49,52,52,0,0,0-7.43-11.47,53.53,53.53,0,0,0-10.06-9.09,56.73,56.73,0,0,0-11.46-6.16l-2.85-1.09-.24-.08-3.21-1c-.37-.12-.75-.24-1.16-.34l-2.12-.53c-.71-.17-1.42-.34-2.13-.49l-2.89-.53-1.37-.24-.19,0-1.38-.18-2.75-.33c-.66-.07-1.32-.12-2-.16l-1.75-.12c-.66-.05-1.32-.09-2-.11l-7-.13a84.09,84.09,0,0,1-29.62-6.63,144,144,0,0,1-28.52-16c-4-2.85-12.5-10.12-23.23-20a11.51,11.51,0,0,1,4.36-19.48c4.5-1.4,8.49-2.64,10.83-3.35,16.56-5,32.84-9.74,48.38-14,18.51-5.09,33.93-9,48.54-12.43,2.89-.69,5.85-1.35,8.71-2l3.35-.74,6.1-1.29c1.75-.38,3.59-.75,6-1.22,8.66-1.73,16.47-3.07,23.87-4.08l2.93-.41,5.89-.66h.15V145.8Z" style="fill: #be202e"/>
            <path d="M683.32,361.49h8.06c.13-.8.24-1.58.34-2.36a84.33,84.33,0,0,0,.67-12.47,72.91,72.91,0,0,0-1.56-13.11,61,61,0,0,0-4.56-13.34,56.19,56.19,0,0,0-8-12.37,58,58,0,0,0-10.78-9.74,60.16,60.16,0,0,0-12.24-6.58l-.19-.08-2.75-1.06-.47-.16-2.76-.86-.1,0-.38-.11c-.42-.13-.85-.26-1.27-.37l-.1,0-1.38-.34-.78-.19c-.73-.18-1.47-.35-2.2-.51l-.26,0-2.74-.5-1.41-.25c-.13,0-.26,0-.39-.06l-1.35-.17L634,286.4h-.08c-.78-.09-1.51-.14-2.15-.18l-.8-.06h-.14l-.81,0c-.64-.05-1.36-.1-2.12-.12h-.07l-2.64-.05-4.35-.08a80.21,80.21,0,0,1-28.18-6.33,140.53,140.53,0,0,1-27.73-15.58c-3.84-2.72-12.38-10.05-22.84-19.63a7.55,7.55,0,0,1,2.86-12.77c5.08-1.58,8.71-2.71,10.8-3.34,16.51-5,32.76-9.72,48.29-14,18.47-5.08,33.83-9,48.35-12.39,2.91-.69,5.86-1.35,8.7-2l3.39-.75,6-1.27c1.79-.39,3.66-.77,5.94-1.21h0c8.57-1.71,16.29-3,23.62-4l2.88-.4,2.85-.32,2.71-.31v-8l-.65.06-2.94.34-2.94.32-3,.42c-8,1.09-16,2.5-24.11,4.12-2,.39-4,.79-6.07,1.23l-6.08,1.28c-4.05.91-8.11,1.79-12.17,2.76-16.23,3.77-32.46,8-48.66,12.46s-32.36,9.17-48.48,14.06c-2.34.71-6.35,2-10.86,3.36a15.48,15.48,0,0,0-5.86,26.2c9.07,8.31,18.82,16.87,23.62,20.26a147.83,147.83,0,0,0,29.31,16.45,88.23,88.23,0,0,0,31,6.92l4.35.08,2.65.05c.88,0,1.78.1,2.67.16s1.79.11,2.69.21l2.71.33,1.36.17,1.37.24,2.74.5c.92.2,1.84.43,2.76.65l1.38.34c.45.12.92.28,1.38.41l2.76.87,2.75,1.05a53.11,53.11,0,0,1,10.68,5.73,50.71,50.71,0,0,1,9.35,8.43,48.85,48.85,0,0,1,6.86,10.61,53.24,53.24,0,0,1,4,11.6,65,65,0,0,1,1.38,11.65,74.75,74.75,0,0,1-.61,11.26C683.7,359.26,683.52,360.38,683.32,361.49Z" style="fill: #8e1922"/>
            <path d="M410.13,76.35l2.47,4L415,84.46l2.31,3.94q4.62,7.88,9.29,15.69c12.45,20.85,25.27,41.38,38.88,61.27q9,13.11,18.43,25.79a15.56,15.56,0,0,0,12.44,6.25,15.28,15.28,0,0,0,4.51-.68c7.85-2.39,17.32-5.24,17.32-5.24q12.35-3.57,24.71-7,24.75-6.85,49.72-13.14c16.66-4.15,33.39-8.1,50.34-11.62,4.22-.9,8.49-1.72,12.74-2.57l6.41-1.19q3.21-.61,6.45-1.15c8.6-1.51,17.3-2.83,26.21-3.83l3.34-.38,3.39-.3c2.27-.2,4.52-.42,6.86-.52h.1v-7.95l-.5,0c-2.24.1-4.35.29-6.39.47l-.77.07-3.4.3-.19,0-3.34.38c-8.35.94-17.08,2.22-26.68,3.9-2.52.42-4.62.8-6.56,1.17l-6.39,1.19-.09,0-3.37.66c-3.11.62-6.32,1.25-9.48,1.93-15.24,3.16-31.33,6.88-50.6,11.68-16.08,4-32.87,8.46-49.92,13.19-8.37,2.32-16.72,4.68-24.8,7l-.08,0s-9.49,2.86-17.35,5.26a7.41,7.41,0,0,1-2.19.33,7.63,7.63,0,0,1-6.08-3.07c-6-8-12.11-16.56-18.24-25.51-12.19-17.81-24.46-37.15-38.62-60.86-2.85-4.77-5.87-9.89-9.25-15.64l-2.31-3.94,0,0-2.43-4.08-.07-.1-2.47-4-.05-.08-2.5-4c-3.27-5.1-6.58-10.14-9.88-15.1h-4.41v7.73q3.81,5.75,7.57,11.61Z" style="fill: #8e1922"/>
            <path d="M647.5,359.57c-.19.65-.4,1.28-.6,1.92h8.3a60.34,60.34,0,0,0,1.48-7,47,47,0,0,0,.48-7,36.82,36.82,0,0,0-.67-6.52,26,26,0,0,0-1.86-5.73,21.37,21.37,0,0,0-3-4.78,23.3,23.3,0,0,0-4.17-3.86,33,33,0,0,0-11.86-5l-1.77-.34L633,321l-.91-.12-1.83-.25c-.61-.08-1.25-.11-1.88-.17s-1.25-.12-1.89-.14l-1.94-.06-4.8-.14a106,106,0,0,1-20.66-2.9,125.71,125.71,0,0,1-19.37-6.44,173.09,173.09,0,0,1-34.25-19.71,269.33,269.33,0,0,1-29.24-24.92c-9.1-8.85-17.61-18.16-25.72-27.71a647.14,647.14,0,0,1-44.57-59.89c-13.73-20.6-26.53-41.7-38.87-62.95q-3.53-6.08-7-12.16v15.93l.12.21c14.28,24.59,26.71,44.73,39.13,63.38a655.57,655.57,0,0,0,45.12,60.61c9.07,10.68,17.66,19.92,26.25,28.27a274.53,274.53,0,0,0,30.11,25.65,180.19,180.19,0,0,0,35.82,20.61A134.72,134.72,0,0,0,597.2,325a113.49,113.49,0,0,0,22.2,3.11h.08l4.8.14,1.92.06.73.05.77.07.78.06.72.06,1.78.25.7.09.62.12h.06l1.61.31a25.15,25.15,0,0,1,8.86,3.67,15.57,15.57,0,0,1,2.75,2.53,13.45,13.45,0,0,1,1.84,3,18.28,18.28,0,0,1,1.28,3.92,30.5,30.5,0,0,1,.53,5.15,40.72,40.72,0,0,1-.42,5.82A51.91,51.91,0,0,1,647.5,359.57Z" style="fill: #8e1922"/>
            <g style="clip-path: url(#clip-path-10)">
              <polygon points="581.1 83.98 507.18 82.8 507.18 74.83 581.1 74.83 581.1 83.98" style="fill: #85161f"/>
              <polygon points="581.1 85.63 507.18 84.45 507.18 82.8 581.1 83.98 581.1 85.63" style="fill: #85161f"/>
              <polygon points="581.1 87.28 507.18 86.1 507.18 84.45 581.1 85.63 581.1 87.28" style="fill: #86161f"/>
              <polygon points="581.1 88.93 507.18 87.75 507.18 86.1 581.1 87.28 581.1 88.93" style="fill: #871620"/>
              <polygon points="581.1 90.58 507.18 89.4 507.18 87.75 581.1 88.93 581.1 90.58" style="fill: #881720"/>
              <polygon points="581.1 92.23 507.18 91.05 507.18 89.4 581.1 90.58 581.1 92.23" style="fill: #891720"/>
              <polygon points="581.1 93.88 507.18 92.7 507.18 91.05 581.1 92.23 581.1 93.88" style="fill: #8a1720"/>
              <polygon points="581.1 95.53 507.18 94.36 507.18 92.7 581.1 93.88 581.1 95.53" style="fill: #8b1721"/>
              <polygon points="581.1 97.19 507.18 96.01 507.18 94.36 581.1 95.53 581.1 97.19" style="fill: #8c1721"/>
              <polygon points="581.1 98.84 507.18 97.66 507.18 96.01 581.1 97.19 581.1 98.84" style="fill: #8d1721"/>
              <polygon points="581.1 100.49 507.18 99.31 507.18 97.66 581.1 98.84 581.1 100.49" style="fill: #8e1821"/>
              <polygon points="581.1 102.14 507.18 100.96 507.18 99.31 581.1 100.49 581.1 102.14" style="fill: #8f1822"/>
              <polygon points="581.1 103.79 507.18 102.61 507.18 100.96 581.1 102.14 581.1 103.79" style="fill: #901822"/>
              <polygon points="581.1 105.44 507.18 104.26 507.18 102.61 581.1 103.79 581.1 105.44" style="fill: #911822"/>
              <polygon points="581.1 107.09 507.18 105.91 507.18 104.26 581.1 105.44 581.1 107.09" style="fill: #931823"/>
              <polygon points="581.1 108.74 507.18 107.56 507.18 105.91 581.1 107.09 581.1 108.74" style="fill: #941923"/>
              <polygon points="581.1 110.39 507.18 109.21 507.18 107.56 581.1 108.74 581.1 110.39" style="fill: #951923"/>
              <polygon points="581.1 112.04 507.18 110.86 507.18 109.21 581.1 110.39 581.1 112.04" style="fill: #961923"/>
              <polygon points="581.1 113.69 507.18 112.51 507.18 110.86 581.1 112.04 581.1 113.69" style="fill: #971924"/>
              <polygon points="581.1 115.34 507.18 114.16 507.18 112.51 581.1 113.69 581.1 115.34" style="fill: #981924"/>
              <polygon points="581.1 116.99 507.18 115.81 507.18 114.16 581.1 115.34 581.1 116.99" style="fill: #991924"/>
              <polygon points="581.1 118.64 507.18 117.47 507.18 115.81 581.1 116.99 581.1 118.64" style="fill: #9a1a24"/>
              <polygon points="581.1 120.3 507.18 119.12 507.18 117.47 581.1 118.64 581.1 120.3" style="fill: #9b1a25"/>
              <polygon points="581.1 121.95 507.18 120.77 507.18 119.12 581.1 120.3 581.1 121.95" style="fill: #9c1a25"/>
              <polygon points="581.1 123.6 507.18 122.42 507.18 120.77 581.1 121.95 581.1 123.6" style="fill: #9d1a25"/>
              <polygon points="581.1 125.25 507.18 124.07 507.18 122.42 581.1 123.6 581.1 125.25" style="fill: #9e1a26"/>
              <polygon points="581.1 126.9 507.18 125.72 507.18 124.07 581.1 125.25 581.1 126.9" style="fill: #9f1b26"/>
              <polygon points="581.1 128.55 507.18 127.37 507.18 125.72 581.1 126.9 581.1 128.55" style="fill: #a01b26"/>
              <polygon points="581.1 130.2 507.18 129.02 507.18 127.37 581.1 128.55 581.1 130.2" style="fill: #a11b26"/>
              <polygon points="581.1 131.85 507.18 130.67 507.18 129.02 581.1 130.2 581.1 131.85" style="fill: #a21b27"/>
              <polygon points="581.1 133.5 507.18 132.32 507.18 130.67 581.1 131.85 581.1 133.5" style="fill: #a31b27"/>
              <polygon points="581.1 135.15 507.18 133.97 507.18 132.32 581.1 133.5 581.1 135.15" style="fill: #a41b27"/>
              <polygon points="581.1 136.8 507.18 135.62 507.18 133.97 581.1 135.15 581.1 136.8" style="fill: #a51c27"/>
              <polygon points="581.1 138.45 507.18 137.27 507.18 135.62 581.1 136.8 581.1 138.45" style="fill: #a61c28"/>
              <polygon points="581.1 140.1 507.18 138.92 507.18 137.27 581.1 138.45 581.1 140.1" style="fill: #a71c28"/>
              <polygon points="581.1 141.75 507.18 140.57 507.18 138.92 581.1 140.1 581.1 141.75" style="fill: #a81c28"/>
              <polygon points="581.1 143.41 507.18 142.22 507.18 140.57 581.1 141.75 581.1 143.41" style="fill: #a91c29"/>
              <polygon points="581.1 145.06 507.18 143.88 507.18 142.22 581.1 143.41 581.1 145.06" style="fill: #aa1d29"/>
              <polygon points="581.1 146.71 507.18 145.53 507.18 143.88 581.1 145.06 581.1 146.71" style="fill: #ab1d29"/>
              <polygon points="581.1 148.36 507.18 147.18 507.18 145.53 581.1 146.71 581.1 148.36" style="fill: #ac1d29"/>
              <polygon points="581.1 150.01 507.18 148.83 507.18 147.18 581.1 148.36 581.1 150.01" style="fill: #ad1d2a"/>
              <polygon points="581.1 151.66 507.18 150.48 507.18 148.83 581.1 150.01 581.1 151.66" style="fill: #ae1d2a"/>
              <polygon points="581.1 153.31 507.18 152.13 507.18 150.48 581.1 151.66 581.1 153.31" style="fill: #af1d2a"/>
              <polygon points="581.1 154.96 507.18 153.78 507.18 152.13 581.1 153.31 581.1 154.96" style="fill: #b01e2a"/>
              <polygon points="581.1 156.61 507.18 155.43 507.18 153.78 581.1 154.96 581.1 156.61" style="fill: #b11e2b"/>
              <polygon points="581.1 158.26 507.18 157.08 507.18 155.43 581.1 156.61 581.1 158.26" style="fill: #b21e2b"/>
              <polygon points="581.1 159.91 507.18 158.73 507.18 157.08 581.1 158.26 581.1 159.91" style="fill: #b31e2b"/>
              <polygon points="581.1 161.56 507.18 160.38 507.18 158.73 581.1 159.91 581.1 161.56" style="fill: #b41e2b"/>
              <polygon points="581.1 163.21 507.18 162.03 507.18 160.38 581.1 161.56 581.1 163.21" style="fill: #b51e2c"/>
              <polygon points="581.1 164.86 507.18 163.68 507.18 162.03 581.1 163.21 581.1 164.86" style="fill: #b61f2c"/>
              <polygon points="581.1 166.51 507.18 165.34 507.18 163.68 581.1 164.86 581.1 166.51" style="fill: #b71f2c"/>
              <polygon points="581.1 168.16 507.18 166.99 507.18 165.34 581.1 166.51 581.1 168.16" style="fill: #b81f2c"/>
              <polygon points="581.1 169.82 507.18 168.64 507.18 166.99 581.1 168.16 581.1 169.82" style="fill: #b91f2d"/>
              <polygon points="581.1 171.47 507.18 170.29 507.18 168.64 581.1 169.82 581.1 171.47" style="fill: #ba1f2d"/>
              <polygon points="581.1 173.12 507.18 171.94 507.18 170.29 581.1 171.47 581.1 173.12" style="fill: #bb202d"/>
              <polygon points="581.1 174.77 507.18 173.59 507.18 171.94 581.1 173.12 581.1 174.77" style="fill: #bc202e"/>
              <polygon points="581.1 176.42 507.18 175.24 507.18 173.59 581.1 174.77 581.1 176.42" style="fill: #bd202e"/>
              <polygon points="581.1 178.07 507.18 176.89 507.18 175.24 581.1 176.42 581.1 178.07" style="fill: #be202e"/>
              <polygon points="507.18 176.89 581.1 178.07 581.1 187.43 507.18 187.43 507.18 176.89" style="fill: #be202e"/>
            </g>
            <g style="clip-path: url(#clip-path-11)">
              <rect x="506.34" y="167.81" width="75.75" height="22.39" style="fill: #8d1721"/>
              <rect x="506.34" y="166.07" width="75.75" height="1.73" style="fill: #8d1721"/>
              <rect x="506.34" y="164.34" width="75.75" height="1.73" style="fill: #8c1721"/>
              <rect x="506.34" y="162.61" width="75.75" height="1.73" style="fill: #8b1720"/>
              <rect x="506.34" y="160.88" width="75.75" height="1.73" style="fill: #8a1620"/>
              <rect x="506.34" y="159.15" width="75.75" height="1.73" style="fill: #891620"/>
              <rect x="506.34" y="157.42" width="75.75" height="1.73" style="fill: #881620"/>
              <rect x="506.34" y="155.69" width="75.75" height="1.73" style="fill: #87161f"/>
              <rect x="506.34" y="153.96" width="75.75" height="1.73" style="fill: #86151f"/>
              <rect x="506.34" y="152.23" width="75.75" height="1.73" style="fill: #85151f"/>
              <rect x="506.34" y="150.5" width="75.75" height="1.73" style="fill: #84151e"/>
              <rect x="506.34" y="148.77" width="75.75" height="1.73" style="fill: #83151e"/>
              <rect x="506.34" y="147.04" width="75.75" height="1.73" style="fill: #82151e"/>
              <rect x="506.34" y="145.31" width="75.75" height="1.73" style="fill: #81141d"/>
              <rect x="506.34" y="143.58" width="75.75" height="1.73" style="fill: #80141d"/>
              <rect x="506.34" y="141.85" width="75.75" height="1.73" style="fill: #7f141d"/>
              <rect x="506.34" y="140.12" width="75.75" height="1.73" style="fill: #7e141c"/>
              <rect x="506.34" y="138.39" width="75.75" height="1.73" style="fill: #7d131c"/>
              <rect x="506.34" y="136.66" width="75.75" height="1.73" style="fill: #7c131c"/>
              <rect x="506.34" y="134.93" width="75.75" height="1.73" style="fill: #7b131c"/>
              <rect x="506.34" y="133.2" width="75.75" height="1.73" style="fill: #7a131b"/>
              <rect x="506.34" y="131.47" width="75.75" height="1.73" style="fill: #79131b"/>
              <rect x="506.34" y="129.74" width="75.75" height="1.73" style="fill: #78121b"/>
              <rect x="506.34" y="128.01" width="75.75" height="1.73" style="fill: #77121a"/>
              <rect x="506.34" y="126.27" width="75.75" height="1.73" style="fill: #76121a"/>
              <rect x="506.34" y="124.54" width="75.75" height="1.73" style="fill: #75121a"/>
              <rect x="506.34" y="122.81" width="75.75" height="1.73" style="fill: #741119"/>
              <rect x="506.34" y="121.08" width="75.75" height="1.73" style="fill: #731119"/>
              <rect x="506.34" y="119.35" width="75.75" height="1.73" style="fill: #721119"/>
              <rect x="506.34" y="117.62" width="75.75" height="1.73" style="fill: #711118"/>
              <rect x="506.34" y="115.89" width="75.75" height="1.73" style="fill: #701018"/>
              <rect x="506.34" y="114.16" width="75.75" height="1.73" style="fill: #6f1018"/>
              <rect x="506.34" y="112.43" width="75.75" height="1.73" style="fill: #6e1017"/>
              <rect x="506.34" y="110.7" width="75.75" height="1.73" style="fill: #6d1017"/>
              <rect x="506.34" y="108.97" width="75.75" height="1.73" style="fill: #6c1017"/>
              <rect x="506.34" y="107.24" width="75.75" height="1.73" style="fill: #6b0f16"/>
              <rect x="506.34" y="105.51" width="75.75" height="1.73" style="fill: #6a0f16"/>
              <rect x="506.34" y="103.78" width="75.75" height="1.73" style="fill: #690f16"/>
              <rect x="506.34" y="102.05" width="75.75" height="1.73" style="fill: #670f16"/>
              <rect x="506.34" y="100.32" width="75.75" height="1.73" style="fill: #660e15"/>
              <rect x="506.34" y="98.59" width="75.75" height="1.73" style="fill: #650e15"/>
              <rect x="506.34" y="96.86" width="75.75" height="1.73" style="fill: #640e15"/>
              <rect x="506.34" y="95.13" width="75.75" height="1.73" style="fill: #630e14"/>
              <rect x="506.34" y="93.4" width="75.75" height="1.73" style="fill: #620d14"/>
              <rect x="506.34" y="91.67" width="75.75" height="1.73" style="fill: #610d14"/>
              <rect x="506.34" y="89.94" width="75.75" height="1.73" style="fill: #600d13"/>
              <rect x="506.34" y="88.21" width="75.75" height="1.73" style="fill: #5f0d13"/>
              <rect x="506.34" y="86.48" width="75.75" height="1.73" style="fill: #5e0c13"/>
              <rect x="506.34" y="84.74" width="75.75" height="1.73" style="fill: #5d0c12"/>
              <rect x="506.34" y="83.01" width="75.75" height="1.73" style="fill: #5c0c12"/>
              <rect x="506.34" y="73.86" width="75.75" height="9.15" style="fill: #5c0c12"/>
            </g>
            <path d="M523.61,185.46s-3,5.91-11.71,8.54,66.18-18.4,54.67-15.93-12.84,2-17,.62" style="fill: #be202e"/>
            <path d="M552.71,162.2l7.43-2.64a1.84,1.84,0,0,1,1.23,3.47l-11.3,4A40,40,0,0,1,552.71,162.2Z" style="fill: #c7ccd1"/>
            <path d="M596.27,127.53a7.91,7.91,0,0,1-3.15-15.17l150.17-65a7.92,7.92,0,1,1,6.29,14.53l-150.17,65A7.92,7.92,0,0,1,596.27,127.53Z" style="fill: #c7ccd1"/>
            <path d="M622.57,187.91A7.92,7.92,0,0,1,620,172.49L735.1,133.72a7.91,7.91,0,0,1,5,15L625.09,187.49A7.93,7.93,0,0,1,622.57,187.91Z" style="fill: #c7ccd1"/>
            <path d="M574.87,175.57a15.94,15.94,0,0,1-14.28-23,15.93,15.93,0,0,1,29.38,2,16,16,0,0,1-10,20.18h0A16,16,0,0,1,574.87,175.57Zm4.47-2.57h0Zm-4.47-25.65a12.27,12.27,0,1,0,3.89,23.9h0a12.27,12.27,0,0,0-3.89-23.9Z" style="fill: #c7ccd1"/>
            <path d="M513,187a1.84,1.84,0,0,1-.64-3.56l49.41-18.18a1.84,1.84,0,0,1,1.27,3.45l-49.41,18.18A1.74,1.74,0,0,1,513,187Z" style="fill: #c7ccd1"/>
            <line x1="599.31" y1="152.19" x2="734.17" y2="106.95" style="fill: #58595b"/>
            <path d="M599.3,158.65a6.46,6.46,0,0,1-2-12.59l134.86-45.24a6.46,6.46,0,1,1,4.12,12.25L601.36,158.31A6.4,6.4,0,0,1,599.3,158.65Z" style="fill: #58595b"/>
            <path d="M603.18,150.87a29.86,29.86,0,0,0-24.53-20.12l0,.09c-.09.21-.21.42-.31.63-.27.58-.56,1.16-.87,1.73s-.67,1.16-1,1.73-.78,1.16-1.19,1.73-.88,1.16-1.34,1.73l-.29.36c-.39.47-.8.92-1.22,1.37s-1.08,1.15-1.64,1.71a19,19,0,1,1,.92,37.25,5.44,5.44,0,1,0-1.86,10.71,29.64,29.64,0,0,0,5.06.44,29.86,29.86,0,0,0,28.34-39.36Z" style="fill: #58595b"/>
            <polygon points="570.71 141.85 570.72 141.83 570.66 141.85 570.71 141.85" style="fill: #7e141c"/>
            <path d="M579.06,129.74h-2.58l0,.08c-.11.24-.25.47-.38.71.87,0,1.73.11,2.59.22C578.79,130.41,578.92,130.07,579.06,129.74Z" style="fill: #78121b"/>
          </g>
        </g>
        <path d="M708.49,53.05V361.49H400.05V53.05H708.49m8-8H392.05V369.49H716.49V45.05Z" style="fill: #ffe100"/>
        <polyline points="861.79 388.89 959.71 343.49 990.66 287.58" style="fill: none;stroke: #c7ccd1;stroke-linecap: round;stroke-miterlimit: 10;stroke-width: 6.10142326354981px"/>
        <polyline points="871.59 412.98 966.32 378.79 1021.53 386.52" style="fill: none;stroke: #c7ccd1;stroke-linecap: round;stroke-miterlimit: 10;stroke-width: 6.10142326354981px"/>
        <path d="M844.35,406.36l4-1.5a.71.71,0,1,1,.51,1.32l-6.52,2.48Z" style="fill: #c7ccd1"/>
        <path d="M834.4,411.66l-3.95,1.5-.25,0a.69.69,0,0,1-.66-.45.71.71,0,0,1,.41-.92l4.23-1.6Z" style="fill: #c7ccd1"/>
        <path d="M855.49,410.19a5.18,5.18,0,0,1-6.65-3.55,5.73,5.73,0,0,1,3.31-7.12,5.18,5.18,0,0,1,6.65,3.54A5.74,5.74,0,0,1,855.49,410.19Z" style="fill: none;stroke: #c7ccd1;stroke-linecap: round;stroke-linejoin: round;stroke-width: 1.41760468482971px"/>
        <line x1="830.79" y1="415.05" x2="849.19" y2="407.8" style="fill: none;stroke: #c7ccd1;stroke-linecap: round;stroke-linejoin: round;stroke-width: 1.41760468482971px"/>
        <path d="M853.82,417a10.42,10.42,0,0,1-1.93-.18,2.1,2.1,0,0,1,.77-4.12,6.37,6.37,0,0,0,3.35-.27,7.83,7.83,0,0,0,4.44-9.75,7.37,7.37,0,0,0-3.73-4.49,6.46,6.46,0,0,0-5.08-.3,6.94,6.94,0,0,0-2.88,2,2,2,0,0,1-.85.59,5.11,5.11,0,0,0-.67-4.88,11.09,11.09,0,0,1,3-1.63,10.61,10.61,0,0,1,8.37.49,11.56,11.56,0,0,1,5.86,7c1.93,6.15-1.22,12.85-7,14.94A10.68,10.68,0,0,1,853.82,417Z" style="fill: #58595b"/>
        <polyline points="862.93 401.88 999.27 352.9 1028.98 376.11 1108.13 347.67 1113.62 365.18 1035.13 393.38 999.27 352.9" style="fill: #58595b"/>
        <path d="M862.93,404.38a2.49,2.49,0,0,1-.85-4.84l136.29-49a2.44,2.44,0,0,1,.91-.17h.19a2.46,2.46,0,0,1,1.37.55l28.59,22.33,77.86-28a2.54,2.54,0,0,1,2,.12,2.47,2.47,0,0,1,1.27,1.49l5.48,17.51a2.49,2.49,0,0,1-1.53,3.09L1036,395.73a2.5,2.5,0,0,1-2.71-.7l-34.74-39.21L863.77,404.23A2.48,2.48,0,0,1,862.93,404.38Zm156.24-32.78,16.7,18.87,74.65-26.82-4-12.76-76.71,27.56a2.49,2.49,0,0,1-2.38-.38Z" style="fill: #58595b"/>
        <circle cx="836.82" cy="409.45" r="71.6" transform="translate(276.5 1153.74) rotate(-79.1)" style="fill: none;stroke: #fff;stroke-miterlimit: 10;stroke-width: 2px;stroke-dasharray: 12,12"/>
      </g>
      <text transform="translate(57.66 288.48)" style="font-size: 36.86349868774414px;font-family: Roboto-Medium, Roboto;font-weight: 500">Surgical <tspan x="145.4" y="0" style="letter-spacing: -0.041498642578887975em">T</tspan><tspan x="165.2" y="0">ools</tspan></text>
      <text transform="translate(57.66 191.82)" style="font-size: 36.86349868774414px;font-family: Roboto-Medium, Roboto;font-weight: 500">Clip on Aneu<tspan x="208.58" y="0" style="letter-spacing: 0.010742227619367427em">r</tspan><tspan x="221.74" y="0">ysm</tspan></text>
      <g>
        <line x1="514.57" y1="182" x2="360.72" y2="182" style="fill: none;stroke: #000;stroke-linecap: round;stroke-miterlimit: 10;stroke-width: 4px"/>
        <path d="M514.57,174.48a7.52,7.52,0,1,1-7.52,7.52A7.52,7.52,0,0,1,514.57,174.48Z"/>
      </g>
      <g>
        <polyline points="299.7 280.78 514.57 280.78 574.75 194.62" style="fill: none;stroke: #000;stroke-linecap: round;stroke-miterlimit: 10;stroke-width: 4px"/>
        <path d="M580.91,198.93a7.52,7.52,0,1,0-10.47,1.85A7.52,7.52,0,0,0,580.91,198.93Z"/>
      </g>
      <text transform="translate(57.66 513.9)" style="font-size: 36.86349868774414px;font-family: Roboto-Medium, Roboto;font-weight: 500">Opening in Skull</text>
      <g>
        <polyline points="331.29 506.19 514.57 506.19 765.12 413.84" style="fill: none;stroke: #000;stroke-linecap: round;stroke-miterlimit: 10;stroke-width: 4px"/>
        <path d="M767.72,420.9a7.52,7.52,0,1,0-9.66-4.46A7.53,7.53,0,0,0,767.72,420.9Z"/>
      </g>
    </g>
  </g>
</svg>
