<svg id="Layer_1" data-name="Layer 1" xmlns="http://www.w3.org/2000/svg" xmlns:xlink="http://www.w3.org/1999/xlink" viewBox="0 0 580.48 398.76">
  <defs>
    <clipPath id="clip-path">
      <path d="M580.48,398.62H225.32c63.37-21.25,99.93-52.65,98.32-110.14,0,0-9.59-19.65-19.83-47.47-11.77,6.79-22.19-4.35-22.19-12.3s-6.88-7.92-15.68-35.77c-8.66-27.44,2.25-50.44,15.11-38.56-.77-6.08-1.3-12.08-1.52-17.94C278.1,98.53,289.72,0,395.59,0s120,76.43,120,133.61a192.12,192.12,0,0,1-1.36,21.46l0-.17c13.11-13.11,24.47,10.19,15.68,38s-15.68,27.83-15.68,35.77-7.61,20.38-19.37,13.59c-7.89,26.68-15,46.18-15,46.18C478.29,346,517.11,377.37,580.48,398.62Z" style="fill: none"/>
    </clipPath>
    <radialGradient id="radial-gradient" cx="5531.55" cy="-217.04" r="4.07" gradientTransform="matrix(1.04, 0.7, -0.56, 0.83, -5512.76, -3522.77)" gradientUnits="userSpaceOnUse">
      <stop offset="0" stop-color="#950702"/>
      <stop offset="0.29" stop-color="#9b0b09"/>
      <stop offset="0.69" stop-color="#ad151b"/>
      <stop offset="1" stop-color="#be202e"/>
    </radialGradient>
  </defs>
  <title>Artboard 1 copy 9</title>
  <g>
    <g style="clip-path: url(#clip-path)">
      <g>
        <path d="M281.62,154.9c-13.11-13.11-24.47,10.19-15.68,38s15.68,27.83,15.68,35.77S292,247.8,303.81,241" style="fill: #c7ccd1"/>
        <path d="M516.29,154.9c13.11-13.11,24.47,10.19,15.68,38s-15.68,27.83-15.68,35.77-7.61,20.38-19.37,13.59" style="fill: #c7ccd1"/>
        <path d="M225.32,398.62c63.37-21.25,99.93-52.65,98.32-110.14,0,0-41.58-85.24-44.11-152C278.1,98.53,289.72,0,395.59,0s120,76.43,120,133.61-35.7,154.87-35.7,154.87c-1.61,57.49,37.21,88.89,100.58,110.14" style="fill: #c7ccd1"/>
        <g>
          <g>
            <path d="M443.61,142.36c16.29,9.31,31.7,12.45,30,32.67-1,11.5-27.86,34.93-51.39,32.67S403.43,202,398.68,202v-45C398.68,149.15,427.32,133.05,443.61,142.36Z" style="fill: #a84038"/>
            <path d="M353.71,142.36c16.28-9.31,44.93,6.79,44.93,14.71v45c-4.75,0,0,3.39-23.52,5.66S324.7,186.53,323.72,175C322,154.81,337.42,151.67,353.71,142.36Z" style="fill: #a84038"/>
          </g>
          <g>
            <path d="M434.22,152.27c10,.91,16.95-8.46,23.95-12.46s29.21-13.55,32.55-7.82,2.39,10.83,0,13.2c0,5.09,1.12,4.9-2,10.26,0,6.14-10,10.67-12.85,10.67-2.3,7.63-7.14,13.29-11.71,13.29-4.42,4.39-18.8,15.6-26.55,7.92s-4.57-6.64-4.57-6.64c-10-3.26-17.18-5-15.13-16.27S424.25,151.36,434.22,152.27Z" style="fill: #d33f33"/>
            <path d="M306.59,132c3.34-5.73,25.55,3.82,32.55,7.82s14,13.37,23.95,12.46,14.27.91,16.31,12.15-5.14,13-15.13,16.27c0,0,3.18-1-4.57,6.64s-22.13-3.53-26.56-7.92c-4.57,0-9.4-5.66-11.7-13.29-2.86,0-12.85-4.53-12.85-10.67-3.12-5.36-2-5.17-2-10.26C304.19,142.82,303.25,137.72,306.59,132Z" style="fill: #d33f33"/>
          </g>
          <path d="M376.47,152.68l22.18-9.75,22.21,9.75a24.78,24.78,0,0,0-2.65,19c2,6.85,2.06,8.16-.63,10.81s-4,4-2.68,9.51.88,7.85-3.81,21.32-4.63,23.31-4.63,32.44c0,0-2.28,37.57-2.28,65.47s2.28,87.24,2.28,87.24H390.87s2.29-117,2.29-87.24-2.29-65.47-2.29-65.47c0-9.13.06-19-4.63-32.44s-5.13-15.84-3.81-21.32,0-6.85-2.68-9.51-2.63-4-.63-10.81A24.78,24.78,0,0,0,376.47,152.68Z" style="fill: #ff5d0a"/>
          <path d="M302.73,104.46c-2.7-4.64,0-16.68,5-25.27,0-15.08,4.38-17.35,12.75-25.64,0-11.69,13.23-15.09,18.5-18.1,3.66-6.27,32.9-19.24,43.22-19.24s15.57,4.15,15.57,9.81c0,2.24.53,19,0,20.82,0,0,.9,16.11.9,24.7h0c0-8.59.9-24.7.9-24.7-.77-1.77,0-18.58,0-20.82,0-5.66,5.24-9.81,15.56-9.81s39.57,13,43.23,19.24c5.27,3,18.5,6.41,18.5,18.1,8.37,8.29,12.75,10.56,12.75,25.64,5,8.59,7.71,20.63,5,25.27,2.91,5,5.46,29-5,27.53a39.7,39.7,0,0,0-33.28,11.54c-10,9.89-34.68,10.26-39.25,8s-19.5-4.86-17.51-12c-.67-2.5-.9-7.83-.9-13.83h0c0,6-.23,11.33-.9,13.83,2,7.17-12.95,9.81-17.51,12s-29.26,1.86-39.25-8A39.7,39.7,0,0,0,307.74,132C297.27,133.5,299.82,109.46,302.73,104.46Z" style="fill: #e64c3c"/>
        </g>
        <g>
          <path d="M406.12,54.39c-.26,8.31-.42,16.65-.44,25,0,4.16,0,8.32.13,12.47.06,2.07.14,4.14.28,6.2a38.92,38.92,0,0,0,.74,6,5.45,5.45,0,0,0,.18.6c0,.14.22.3,0,.09a3.69,3.69,0,0,1,1.4,1.76,11.34,11.34,0,0,1,.7,3.4,33.16,33.16,0,0,1-.25,6.47,42.48,42.48,0,0,1-1.27,6.29,28,28,0,0,1-1.05,3.08,24.93,24.93,0,0,1-1.44,2.88,9.35,9.35,0,0,0-1.24,5.35c.21,1.8,1.19,3.46,2.24,5.36a8.58,8.58,0,0,1,.87,3.45,19.2,19.2,0,0,1-.05,3.31,37.15,37.15,0,0,1-1.17,6.35l-.31-1.14a2.72,2.72,0,0,0,.56.36,4.22,4.22,0,0,0,.7.27,4.35,4.35,0,0,0,1.53.11,6.65,6.65,0,0,0,3-1.34,12.57,12.57,0,0,0,1.38-1.17c.48-.44,1-.95,1.49-1.39a14.23,14.23,0,0,1,3.51-2.4,8.17,8.17,0,0,1,4.43-.76,10.22,10.22,0,0,1,4.13,1.44,28.53,28.53,0,0,1,6.28,5.28l1.36,1.41-1.93.46a70.59,70.59,0,0,0-7.27,2.17,35.23,35.23,0,0,0-3.45,1.44,11.94,11.94,0,0,0-2.95,1.88,16.71,16.71,0,0,0-2.19,2.86c-.67,1.05-1.31,2.14-1.91,3.26-1.21,2.23-2.34,4.54-3.39,6.84l-.17.39-.38.18-10.9,5.1.65-1-.12,31.68-.08-.42a56,56,0,0,0,6.1,10.85c.3.42.61.84.93,1.24s.64.81,1,1.19.67.79,1,1.15.7.73,1.1,1.18a21.68,21.68,0,0,1,3.62,5.64,43,43,0,0,1,3.34,12.63c0,.29.05.51.08.86l0,.83,0,1.59.07,3.19.13,6.38c.34,17,.59,34,.6,51,0,8.51-.07,17-.34,25.55,0,1.08-.08,2.14,0,3.13a20.23,20.23,0,0,0,.32,3,23,23,0,0,0,1.82,5.73c.42.92.92,1.75,1.46,2.69l1.59,2.77,3.19,5.52c8.48,14.74,17,29.44,25.42,44.24l-1.06.63c-8.88-14.51-17.6-29.11-26.38-43.68l-3.29-5.46-1.65-2.73a30.64,30.64,0,0,1-1.59-2.9,23,23,0,0,1-1.92-6.42,25.05,25.05,0,0,1-.25-3.35c0-1.14.06-2.2.1-3.25.31-8.47.34-17,.35-25.47,0-17-.26-34-.59-51l-.13-6.38-.08-3.18c0-1.06,0-2.17-.12-3.09a41,41,0,0,0-3.15-11.94A19.44,19.44,0,0,0,408.2,225c-.31-.35-.69-.76-1.07-1.16s-.75-.8-1.1-1.22-.71-.84-1-1.27-.67-.86-1-1.31a57.89,57.89,0,0,1-6.37-11.34l-.08-.19v-.23l.12-31.69v-.72l.65-.3,10.9-5.1-.56.57c1.08-2.39,2.22-4.71,3.47-7,.62-1.15,1.28-2.29,2-3.41a18.65,18.65,0,0,1,2.51-3.25,13.9,13.9,0,0,1,3.53-2.29,37.72,37.72,0,0,1,3.68-1.54,72.38,72.38,0,0,1,7.53-2.24l-.57,1.88a26.52,26.52,0,0,0-5.75-4.86,6.61,6.61,0,0,0-6.49-.59,12.4,12.4,0,0,0-3,2c-.48.4-.9.86-1.39,1.31a16.72,16.72,0,0,1-1.63,1.38,8.91,8.91,0,0,1-4.12,1.76,6.6,6.6,0,0,1-2.38-.18,6.06,6.06,0,0,1-1.14-.43,4.89,4.89,0,0,1-1.08-.73l-.51-.43.19-.71a34.89,34.89,0,0,0,1.1-5.92,17,17,0,0,0,0-2.94,6.48,6.48,0,0,0-.61-2.57c-.95-1.73-2.21-3.74-2.48-6.14a9.61,9.61,0,0,1,.24-3.51,15.74,15.74,0,0,1,1.23-3.15,23.56,23.56,0,0,0,1.36-2.7,27.07,27.07,0,0,0,1-2.84,41.38,41.38,0,0,0,1.2-6,30.4,30.4,0,0,0,.24-6,9.18,9.18,0,0,0-.53-2.7,1.61,1.61,0,0,0-.46-.68,2.51,2.51,0,0,1-.42-.35,3.55,3.55,0,0,1-.23-.31,3.15,3.15,0,0,1-.26-.52,8.3,8.3,0,0,1-.29-.89,40.53,40.53,0,0,1-.8-6.41c-.14-2.1-.22-4.19-.28-6.29-.12-4.18-.14-8.36-.14-12.54q0-12.52.44-25Z" style="fill: #be202e"/>
          <path d="M393.63,54.31q.38,12.52.44,25c0,4.18,0,8.36-.14,12.54-.06,2.1-.14,4.19-.28,6.29a40.53,40.53,0,0,1-.8,6.41,8.3,8.3,0,0,1-.29.89,3.15,3.15,0,0,1-.26.52,3.55,3.55,0,0,1-.23.31,2.51,2.51,0,0,1-.42.35,1.61,1.61,0,0,0-.46.68,9.18,9.18,0,0,0-.53,2.7,31.18,31.18,0,0,0,.24,6,41.38,41.38,0,0,0,1.2,6,27.07,27.07,0,0,0,1,2.84,23.56,23.56,0,0,0,1.36,2.7,15.16,15.16,0,0,1,1.23,3.15,9.61,9.61,0,0,1,.24,3.51c-.27,2.4-1.53,4.41-2.48,6.14a6.48,6.48,0,0,0-.61,2.57,17,17,0,0,0,0,2.94,34.89,34.89,0,0,0,1.1,5.92l.19.71-.51.43a4.89,4.89,0,0,1-1.08.73,5.72,5.72,0,0,1-1.13.43,6.68,6.68,0,0,1-2.39.18,8.91,8.91,0,0,1-4.12-1.76,16.72,16.72,0,0,1-1.63-1.38c-.48-.45-.91-.91-1.39-1.31a12.4,12.4,0,0,0-3-2,6.61,6.61,0,0,0-6.49.59,26.52,26.52,0,0,0-5.75,4.86l-.57-1.88a73.29,73.29,0,0,1,7.54,2.24,38.61,38.61,0,0,1,3.67,1.54,13.9,13.9,0,0,1,3.53,2.29,18.65,18.65,0,0,1,2.51,3.25c.72,1.12,1.38,2.26,2,3.41,1.25,2.3,2.39,4.62,3.47,7l-.56-.57,10.9,5.1.65.3v.72l.12,31.69v.23l-.08.19A58.68,58.68,0,0,1,393.58,220a44.86,44.86,0,0,1-4.16,4.92,18.72,18.72,0,0,0-3.25,4.94A40.46,40.46,0,0,0,383,241.58a13.22,13.22,0,0,0-.14,1.47l0,1.56-.07,3.15-.14,6.3c-.33,16.79-.58,33.58-.6,50.37q0,6.3,0,12.59l.09,6.29c0,2.08.1,4.21,0,6.37a54.65,54.65,0,0,1-1.85,12.71,56.73,56.73,0,0,1-4.86,11.87c-7.79,14.88-15.51,29.8-23.4,44.64l-1.11-.56c7.39-15.1,14.94-30.11,22.42-45.15a57.63,57.63,0,0,0,4.5-11.47,56.61,56.61,0,0,0,2-12.14c.11-2,0-4.11,0-6.23l-.09-6.31q-.06-6.3-.05-12.61c0-16.81.27-33.62.61-50.42l.13-6.3.07-3.15,0-1.59a14.6,14.6,0,0,1,.15-1.67,42.86,42.86,0,0,1,3.41-12.44,20.9,20.9,0,0,1,3.66-5.54,41.66,41.66,0,0,0,4-4.69,56,56,0,0,0,6-10.73l-.08.42-.12-31.68.65,1-10.9-5.1-.38-.18-.17-.39c-1.05-2.3-2.18-4.61-3.39-6.84-.6-1.12-1.24-2.21-1.91-3.26a16.71,16.71,0,0,0-2.19-2.86,11.94,11.94,0,0,0-2.95-1.88,34.23,34.23,0,0,0-3.45-1.44,70.59,70.59,0,0,0-7.27-2.17l-1.93-.46,1.36-1.41a28.53,28.53,0,0,1,6.28-5.28,10.22,10.22,0,0,1,4.13-1.44,8.17,8.17,0,0,1,4.43.76,14.23,14.23,0,0,1,3.51,2.4c.53.44,1,.95,1.49,1.39a12.57,12.57,0,0,0,1.38,1.17,6.69,6.69,0,0,0,3,1.34,4.35,4.35,0,0,0,1.53-.11,4.22,4.22,0,0,0,.7-.27,2.72,2.72,0,0,0,.56-.36l-.31,1.14a37.15,37.15,0,0,1-1.17-6.35,19.2,19.2,0,0,1,0-3.31,8.58,8.58,0,0,1,.87-3.45c1-1.9,2-3.56,2.24-5.36a9.35,9.35,0,0,0-1.24-5.35,24.93,24.93,0,0,1-1.44-2.88,28,28,0,0,1-1.05-3.08,43.8,43.8,0,0,1-1.27-6.29,33.16,33.16,0,0,1-.25-6.47,11.34,11.34,0,0,1,.7-3.4,3.66,3.66,0,0,1,1.41-1.76c-.26.21-.08.05,0-.09s.13-.38.19-.6a40.21,40.21,0,0,0,.73-6c.14-2.06.22-4.13.28-6.2.12-4.15.14-8.31.13-12.47,0-8.32-.18-16.66-.44-25Z" style="fill: #be202e"/>
          <path d="M431.55,180.31a53,53,0,0,0-5.42-2.33c-1.84-.7-3.7-1.34-5.57-2-3.73-1.23-7.52-2.36-11.29-3.41l.7-2.15c3.71,1.42,7.37,2.91,11,4.5,1.81.8,3.61,1.62,5.38,2.5A54.42,54.42,0,0,1,431.55,180.31Z" style="fill: #be202e"/>
          <path d="M423.2,184a20,20,0,0,0-3.06-1.28,16.3,16.3,0,0,0-3.22-.66,16.89,16.89,0,0,0-6.45.6,25.1,25.1,0,0,0-5.91,2.65,41,41,0,0,0-5.26,3.82l-1.4-1.78a43.9,43.9,0,0,1,5.85-3.53,25.82,25.82,0,0,1,6.46-2.26,17.63,17.63,0,0,1,6.79-.06,17.22,17.22,0,0,1,3.24.95A21.34,21.34,0,0,1,423.2,184Z" style="fill: #be202e"/>
          <path d="M408.77,214.28a4.29,4.29,0,0,0-.59-3.47,6.68,6.68,0,0,0-2.7-2.21,13.54,13.54,0,0,0-6.88-1.12h0a1.14,1.14,0,1,1-.15-2.27h.17a15.28,15.28,0,0,1,7.46,2.4,7.64,7.64,0,0,1,2.62,2.91A4.63,4.63,0,0,1,408.77,214.28Z" style="fill: #be202e"/>
          <path d="M419,397.72c2.31-13.66,5-27.21,7.9-40.73,1.39-6.77,2.91-13.51,4.36-20.26l4.52-20.22q4.61-20.19,9-40.42c2.85-13.49,5.72-27,8-40.5.56-3.38,1.09-6.76,1.52-10.13.2-1.67.42-3.36.56-5,.06-.83.17-1.67.19-2.48s.09-1.59.09-2.49c.08-3.5.24-6.93.17-10.24s-.36-6.55-1.47-9.1a8,8,0,0,0-2.32-3.12,6.64,6.64,0,0,0-.79-.57l-1.15-.72c-.77-.5-1.53-1-2.27-1.58a23.61,23.61,0,0,1-7.53-8.62,13.42,13.42,0,0,1-1.28-6.08,11.51,11.51,0,0,1,.58-3.16,10.24,10.24,0,0,1,.66-1.53l.11-.19s.11-.2,0,0a1.5,1.5,0,0,0-.14.6.91.91,0,0,0,.1.5,2.14,2.14,0,0,0-.41-.49,10.24,10.24,0,0,0-.82-.71c-.6-.48-1.28-1-2-1.43-1.38-.95-2.84-1.87-4.3-2.83s-2.92-1.95-4.37-3.07a24,24,0,0,1-2.14-1.85,8.25,8.25,0,0,1-1.94-2.79,3.84,3.84,0,0,1-.08-2.48,3.73,3.73,0,0,1,.26-.61l.23-.38a6.24,6.24,0,0,1,.53-.71,8.76,8.76,0,0,1,2.52-2,18.62,18.62,0,0,1,5.4-1.82,36.6,36.6,0,0,1,5.38-.6c.89,0,1.79-.06,2.68,0h.58c.17,0,.35,0,.52,0a8.65,8.65,0,0,0,1.09-.2,19.43,19.43,0,0,0,4.44-1.86,44.5,44.5,0,0,0,4.24-2.7q2.06-1.48,4-3.14c.64-.56,1.26-1.12,1.88-1.71a17.19,17.19,0,0,1,2.2-1.69,44.54,44.54,0,0,1,9.58-4.46,27.51,27.51,0,0,1,5.17-1.27c1-.08,1.73,0,2.61-.13s1.7-.16,2.55-.27c3.42-.43,6.83-1,10.23-1.56a.29.29,0,0,1,.11.56c-3.38.74-6.76,1.45-10.18,2-.86.15-1.72.29-2.59.4s-1.85.15-2.56.25a27.81,27.81,0,0,0-4.81,1.44,42.66,42.66,0,0,0-9,4.65,14.7,14.7,0,0,0-1.84,1.54c-.61.63-1.24,1.25-1.89,1.85-1.28,1.21-2.62,2.35-4,3.44a44.83,44.83,0,0,1-4.37,3,21.49,21.49,0,0,1-5,2.33,11.32,11.32,0,0,1-1.45.33c-.25,0-.5.08-.77.09l-.71,0c-.83,0-1.67.07-2.5.15a32.64,32.64,0,0,0-4.88.76,15.41,15.41,0,0,0-4.33,1.65,5.59,5.59,0,0,0-1.47,1.25,2.54,2.54,0,0,0-.23.34l-.1.17s0,0,0,0,0-.09.05.06a5.08,5.08,0,0,0,1.11,1.36,18.54,18.54,0,0,0,1.82,1.48c1.31,1,2.74,1.86,4.19,2.76s2.95,1.78,4.44,2.74c.75.48,1.51,1,2.27,1.55.38.29.77.6,1.16,1a6.24,6.24,0,0,1,1.25,1.49,3.31,3.31,0,0,1,.47,1.72,2.8,2.8,0,0,1-.29,1.22l-.17.35a6.7,6.7,0,0,0-.34.86,7.26,7.26,0,0,0-.28,1.93,8.64,8.64,0,0,0,1,3.93,18.85,18.85,0,0,0,6.24,6.58c.66.46,1.34.89,2,1.31l1.06.63a13,13,0,0,1,1.35.88,13.47,13.47,0,0,1,4,5,21.59,21.59,0,0,1,1.74,5.65A44.26,44.26,0,0,1,461,205c.2,3.6.15,7.08.21,10.49.1,7.25-.85,14.2-1.74,21.1-1.9,13.81-4.29,27.45-6.82,41.07s-5.22,27.19-7.95,40.75l-4.22,20.31C439,345.48,437.53,352.24,436,359c-3,13.48-6.21,26.92-9.65,40.3a3.77,3.77,0,0,1-7.36-1.56Z" style="fill: #be202e"/>
          <path d="M431.55,180.31a53,53,0,0,0-5.42-2.33c-1.84-.7-3.7-1.34-5.57-2-3.73-1.23-7.52-2.36-11.29-3.41l.7-2.15c3.71,1.42,7.37,2.91,11,4.5,1.81.8,3.61,1.62,5.38,2.5A54.42,54.42,0,0,1,431.55,180.31Z" style="fill: #be202e"/>
          <path d="M423.2,184a20,20,0,0,0-3.06-1.28,16.3,16.3,0,0,0-3.22-.66,16.89,16.89,0,0,0-6.45.6,25.1,25.1,0,0,0-5.91,2.65,41,41,0,0,0-5.26,3.82l-1.4-1.78a43.9,43.9,0,0,1,5.85-3.53,25.82,25.82,0,0,1,6.46-2.26,17.63,17.63,0,0,1,6.79-.06,17.22,17.22,0,0,1,3.24.95A21.34,21.34,0,0,1,423.2,184Z" style="fill: #be202e"/>
          <path d="M408.77,214.28a4.29,4.29,0,0,0-.59-3.47,6.68,6.68,0,0,0-2.7-2.21,13.54,13.54,0,0,0-6.88-1.12h0a1.14,1.14,0,1,1-.15-2.27h.17a15.28,15.28,0,0,1,7.46,2.4,7.64,7.64,0,0,1,2.62,2.91A4.63,4.63,0,0,1,408.77,214.28Z" style="fill: #be202e"/>
          <path d="M361.73,399.55c-.79-6.85-1.56-13.7-2.41-20.54l-2.65-20.51c-1.84-13.66-3.72-27.32-5.91-40.91-1.09-6.8-2.22-13.59-3.43-20.36-.62-3.38-1.24-6.75-1.9-10.12L343.38,277C340.68,263.37,338,249.78,336,236c-.49-3.45-.94-6.92-1.27-10.43l-.22-2.64-.13-2.68c0-.9,0-1.84,0-2.72l.07-2.63a78.61,78.61,0,0,1,1-10.63A31.06,31.06,0,0,1,339,193.74a14.1,14.1,0,0,1,5.26-5.32l1.07-.62c.7-.43,1.39-.87,2.05-1.34a19.33,19.33,0,0,0,6.38-6.78,9.11,9.11,0,0,0,1-4.17,7.15,7.15,0,0,0-.32-2.06,5.46,5.46,0,0,0-.37-.93c0-.09,0,0-.22-.47a2.3,2.3,0,0,1-.16-1,2.93,2.93,0,0,1,.45-1.37,6.11,6.11,0,0,1,1.15-1.33c.38-.35.76-.64,1.13-.92.75-.56,1.49-1,2.23-1.52,1.49-.95,3-1.84,4.43-2.74s2.89-1.8,4.23-2.78a22.24,22.24,0,0,0,1.86-1.52,5.07,5.07,0,0,0,1.19-1.54.66.66,0,0,0,.06-.37.25.25,0,0,0,0-.09l-.11-.2a3.48,3.48,0,0,0-.28-.39,5.91,5.91,0,0,0-1.62-1.35,15.89,15.89,0,0,0-4.47-1.66,33.94,33.94,0,0,0-4.95-.73c-.84-.07-1.68-.11-2.52-.13a10.66,10.66,0,0,1-1.44-.11,10.41,10.41,0,0,1-1.39-.32,21.52,21.52,0,0,1-4.93-2.27,44.11,44.11,0,0,1-4.35-3c-1.39-1.08-2.72-2.21-4-3.4-.64-.59-1.28-1.21-1.88-1.83a16.28,16.28,0,0,0-1.9-1.56,43.07,43.07,0,0,0-9-4.61,26.82,26.82,0,0,0-4.86-1.4c-.74-.09-1.72-.1-2.56-.22s-1.73-.24-2.58-.38c-3.42-.56-6.81-1.24-10.19-1.95a.29.29,0,0,1,.11-.56c3.39.62,6.79,1.2,10.2,1.66.85.11,1.71.22,2.56.3s1.62.06,2.59.15a27.05,27.05,0,0,1,5.12,1.3,44.17,44.17,0,0,1,9.51,4.49,17.42,17.42,0,0,1,2.15,1.66c.62.6,1.23,1.17,1.88,1.73q1.92,1.68,4,3.18a42.74,42.74,0,0,0,4.25,2.75,19.46,19.46,0,0,0,4.51,1.93,7.81,7.81,0,0,0,1.13.23,8.4,8.4,0,0,0,1.15.05c.89,0,1.77,0,2.65,0a36.94,36.94,0,0,1,5.31.62,18.8,18.8,0,0,1,5.26,1.78,8.77,8.77,0,0,1,2.38,1.89,8,8,0,0,1,.5.65l.21.36a3,3,0,0,1,.23.5,3.21,3.21,0,0,1,0,2.17,7.48,7.48,0,0,1-1.8,2.63,25,25,0,0,1-2.09,1.82c-1.43,1.1-2.89,2.08-4.34,3s-2.91,1.88-4.31,2.83c-.69.48-1.38,1-2,1.45a11,11,0,0,0-.86.75,2.66,2.66,0,0,0-.53.62s0,0,0-.16-.24-.76,0-.28a9.18,9.18,0,0,1,.64,1.44,10.91,10.91,0,0,1,.58,3,12.69,12.69,0,0,1-1.2,5.86,23,23,0,0,1-7.34,8.45c-.73.54-1.48,1.06-2.24,1.56l-1.15.72a10.17,10.17,0,0,0-.86.6,10.8,10.8,0,0,0-2.73,3.33,26.77,26.77,0,0,0-2.68,9.1,75,75,0,0,0-.62,10l0,2.55c0,.84.06,1.63.09,2.45l.21,2.49.29,2.51c.43,3.36,1,6.73,1.56,10.1,2.43,13.48,5.49,26.93,8.61,40.35,1.55,6.69,3.24,13.44,4.76,20.22s2.95,13.56,4.35,20.35c2.75,13.58,5.44,27.16,7.94,40.78L371,377.24l3.64,20.45A6.52,6.52,0,0,1,361.79,400l-.06-.38Z" style="fill: #be202e"/>
          <path d="M374,184a21.46,21.46,0,0,1,3-1.55,17,17,0,0,1,3.24-.95,17.63,17.63,0,0,1,6.79.06,26.1,26.1,0,0,1,6.46,2.26,43.9,43.9,0,0,1,5.85,3.53l-1.4,1.78a41.71,41.71,0,0,0-5.26-3.82,25.1,25.1,0,0,0-5.91-2.65,16.89,16.89,0,0,0-6.45-.6,16.3,16.3,0,0,0-3.22.66A20.52,20.52,0,0,0,374,184Z" style="fill: #be202e"/>
          <path d="M388.43,214.28a4.59,4.59,0,0,1,.09-3.75,7.56,7.56,0,0,1,2.62-2.91,15.21,15.21,0,0,1,7.46-2.4,1.13,1.13,0,0,1,.19,2.26h-.19a13.6,13.6,0,0,0-6.89,1.12,6.68,6.68,0,0,0-2.7,2.21A4.33,4.33,0,0,0,388.43,214.28Z" style="fill: #be202e"/>
          <path d="M388.43,214.28a4.59,4.59,0,0,1,.09-3.75,7.56,7.56,0,0,1,2.62-2.91,15.21,15.21,0,0,1,7.46-2.4,1.13,1.13,0,0,1,.19,2.26h-.19a13.6,13.6,0,0,0-6.89,1.12,6.68,6.68,0,0,0-2.7,2.21A4.33,4.33,0,0,0,388.43,214.28Z" style="fill: #be202e"/>
          <path d="M404.55,152.1a11.26,11.26,0,0,0-11.9,0" style="fill: none;stroke: #be202e;stroke-miterlimit: 10;stroke-width: 2.26449789763032px"/>
          <path d="M426.2,157.6a19.18,19.18,0,0,0,5.27-.51,32.79,32.79,0,0,0,5.15-1.79,38,38,0,0,1,5.27-1.91,14.75,14.75,0,0,1,5.57-.31,14.39,14.39,0,0,0-5.42.79,37.06,37.06,0,0,0-5,2.34,34.83,34.83,0,0,1-5.16,2.32,21.05,21.05,0,0,1-5.69,1.07,1,1,0,0,1-1.06-.95,1,1,0,0,1,.95-1.05h.11Z" style="fill: #be202e"/>
          <path d="M426.2,157.6a19.18,19.18,0,0,0,5.27-.51,32.79,32.79,0,0,0,5.15-1.79,38,38,0,0,1,5.27-1.91,14.75,14.75,0,0,1,5.57-.31,14.39,14.39,0,0,0-5.42.79,37.06,37.06,0,0,0-5,2.34,34.83,34.83,0,0,1-5.16,2.32,21.05,21.05,0,0,1-5.69,1.07,1,1,0,0,1-1.06-.95,1,1,0,0,1,.95-1.05h.11Z" style="fill: #be202e"/>
          <path d="M370.25,159.6a21.05,21.05,0,0,1-5.69-1.07,34.37,34.37,0,0,1-5.16-2.32,37.64,37.64,0,0,0-5-2.34,14.44,14.44,0,0,0-5.43-.79,14.75,14.75,0,0,1,5.57.31,37.55,37.55,0,0,1,5.27,1.91,32.79,32.79,0,0,0,5.15,1.79,19.25,19.25,0,0,0,5.28.51h0a1,1,0,0,1,1,1,1,1,0,0,1-1,1A.27.27,0,0,1,370.25,159.6Z" style="fill: #be202e"/>
        </g>
        <path d="M514.29,154.9c13.11-13.11,24.47,10.19,15.68,38s-15.68,27.83-15.68,35.77-7.61,20.38-19.37,13.59" style="fill: #c7ccd1"/>
        <path d="M384.1,165.14c.88-2.8-.17-3.29-.27-5.92s1.56-2.89,3.21-3.37,5.41,2.88,5.49,4.94-3.54,3.4-5,3.93a2.09,2.09,0,0,0-1.17,2.25A7.28,7.28,0,0,1,384.1,165.14Z" style="fill: url(#radial-gradient)"/>
      </g>
      <path d="M323.64,288.48c12.44,21.56,54.88,47.21,77.73,47.21S467.46,310,479.9,288.48" style="fill: none;stroke: #fff;stroke-linecap: round;stroke-linejoin: round"/>
    </g>
    <path d="M365.72,180.39a53.28,53.28,0,0,1,5.19-2.85c1.78-.88,3.58-1.7,5.39-2.5,3.63-1.59,7.28-3.08,11-4.5l.69,2.15c-3.77,1.05-7.55,2.18-11.28,3.41q-2.81.92-5.57,2A53,53,0,0,0,365.72,180.39Z" style="fill: #be202e"/>
    <g style="opacity: 0.39">
      <g>
        <path d="M329.4,158c9.45-9.31,20-17,39.32,1.19" style="fill: none;stroke: #fff;stroke-linecap: round;stroke-linejoin: round"/>
        <path d="M329.4,158c2.83,1.61,22.91,19.58,39.32,1.19" style="fill: none;stroke: #fff;stroke-linecap: round;stroke-linejoin: round"/>
        <path d="M468.23,158c-9.44-9.31-20-17-39.31,1.19" style="fill: none;stroke: #fff;stroke-linecap: round;stroke-linejoin: round"/>
        <path d="M468.23,158c-2.83,1.61-22.9,19.58-39.31,1.19" style="fill: none;stroke: #fff;stroke-linecap: round;stroke-linejoin: round"/>
      </g>
      <path d="M405.35,233.54c12.85,5.66,18.84-4.13,13.12-19.09" style="fill: none;stroke: #fff;stroke-linecap: round;stroke-linejoin: round"/>
      <path d="M390.18,233.64c1.05,1.71,2.87,3.2,7.49,3.2,4.38,0,6.41-1.5,7.68-3.3" style="fill: none;stroke: #fff;stroke-linecap: round;stroke-linejoin: round"/>
      <path d="M376.86,214.45c-7.06,12.22.47,24.85,13.32,19.19" style="fill: none;stroke: #fff;stroke-linecap: round;stroke-linejoin: round"/>
      <path d="M436.17,260.52c-11,3-15.23-5.95-29.56-5.34-3,.13-5.84,2.19-8.94,2.19-2.73,0-5.65-2.05-8.31-2.15-14.48-.53-18.82,8.49-30,5.47" style="fill: none;stroke: #fff;stroke-linecap: round;stroke-linejoin: round"/>
      <path d="M423.41,270.92a72.22,72.22,0,0,1-50.83.14" style="fill: none;stroke: #fff;stroke-linecap: round;stroke-linejoin: round;stroke-width: 0.817483723163605px"/>
    </g>
  </g>
  <text transform="translate(140.19 292.29)" style="font-size: 12px;font-family: Roboto-Regular, Roboto">Basilar A.</text>
  <text transform="translate(81.74 82.49)" style="font-size: 12px;font-family: Roboto-Regular, Roboto">Anterior Ce<tspan x="60.08" y="0" style="letter-spacing: -0.00927734375em">r</tspan><tspan x="64.08" y="0">ebral A.</tspan><tspan x="73.8" y="14.4">(ACA)</tspan></text>
  <text transform="translate(85.34 157.2)" style="font-size: 12px;font-family: Roboto-Regular, Roboto">Middle Ce<tspan x="53.5" y="0" style="letter-spacing: -0.00927734375em">r</tspan><tspan x="57.5" y="0">ebral A. </tspan><tspan x="67.44" y="14.4">(MCA)</tspan></text>
  <text transform="translate(75.62 254.92)" style="font-size: 12px;font-family: Roboto-Regular, Roboto"><tspan style="letter-spacing: -0.00634765625em">P</tspan><tspan x="7.61" y="0">osterior Ce</tspan><tspan x="66.2" y="0" style="letter-spacing: -0.00927734375em">r</tspan><tspan x="70.2" y="0">ebral A.</tspan><tspan x="80" y="14.4">(PCA)</tspan></text>
  <text transform="translate(89.48 315.26)" style="font-size: 12px;font-family: Roboto-Regular, Roboto">Internal Ca<tspan x="58.44" y="0" style="letter-spacing: -0.009765625em">r</tspan><tspan x="62.44" y="0">otid A.</tspan><tspan x="70.45" y="14.4">(ICA)</tspan></text>
  <text transform="translate(124.84 352.64)" style="font-size: 12px;font-family: Roboto-Regular, Roboto"><tspan style="letter-spacing: -0.021484375em">V</tspan><tspan x="7.33" y="0">e</tspan><tspan x="13.68" y="0" style="letter-spacing: 0.00830078125em">r</tspan><tspan x="17.89" y="0">tebal As</tspan><tspan x="31.69" y="14.4" style="letter-spacing: 0.009765625em">(</tspan><tspan x="35.79" y="14.4" style="letter-spacing: -0.021484375em">V</tspan><tspan x="43.12" y="14.4">e</tspan><tspan x="49.46" y="14.4" style="letter-spacing: 0.00830078125em">r</tspan><tspan x="53.68" y="14.4">t)</tspan></text>
  <text transform="translate(34.37 217.54)" style="font-size: 12px;fill: #e64c3c;font-family: Roboto-Bold, Roboto;font-weight: 700"><tspan style="letter-spacing: -0.00732421875em">P</tspan><tspan x="7.73" y="0">osterior Communicating A.</tspan><tspan x="100.95" y="14.4">(PComm)</tspan></text>
  <text transform="translate(40.75 119.82)" style="font-size: 12px;font-family: Roboto-Regular, Roboto">Anterior Communicating A.<tspan x="94.77" y="14.4">(AComm)</tspan></text>
  <text transform="translate(110.66 194.57)" style="font-size: 12px;font-family: Roboto-Regular, Roboto">Opthalamic A.</text>
  <g>
    <line x1="193.21" y1="79.16" x2="391.16" y2="79.16" style="fill: none;stroke: #000;stroke-miterlimit: 10"/>
    <circle cx="391.06" cy="79.16" r="1.88"/>
  </g>
  <g>
    <polyline points="193.21 117.17 328.37 117.17 397.05 149.72" style="fill: none;stroke: #000;stroke-miterlimit: 10"/>
    <path d="M396.16,151.38a1.88,1.88,0,1,0-.9-2.5A1.89,1.89,0,0,0,396.16,151.38Z"/>
  </g>
  <g>
    <polyline points="193.21 155.52 288.55 155.52 339.36 144.01" style="fill: none;stroke: #000;stroke-miterlimit: 10"/>
    <path d="M339.69,145.87a1.88,1.88,0,1,0-.83-3.67,1.88,1.88,0,0,0,.83,3.67Z"/>
  </g>
  <g>
    <polyline points="193.21 187.67 288.55 187.67 358.04 157.9" style="fill: none;stroke: #000;stroke-miterlimit: 10"/>
    <path d="M358.69,159.66a1.88,1.88,0,1,0-2.46-1A1.87,1.87,0,0,0,358.69,159.66Z"/>
  </g>
  <g>
    <polyline points="193.21 214.62 288.55 214.62 382.68 165.22" style="fill: none;stroke: #000;stroke-miterlimit: 10"/>
    <path d="M383.47,166.93a1.88,1.88,0,1,0-2.54-.8A1.89,1.89,0,0,0,383.47,166.93Z"/>
  </g>
  <g>
    <polyline points="191.12 249.86 286.45 249.86 372.78 178.24" style="fill: none;stroke: #000;stroke-miterlimit: 10"/>
    <path d="M373.9,179.75a1.88,1.88,0,1,0-2.64-.25A1.89,1.89,0,0,0,373.9,179.75Z"/>
  </g>
  <g>
    <polyline points="191.12 286.24 286.45 286.24 397.31 203.18" style="fill: none;stroke: #000;stroke-miterlimit: 10"/>
    <path d="M398.36,204.74a1.88,1.88,0,1,0-2.63-.38A1.87,1.87,0,0,0,398.36,204.74Z"/>
  </g>
  <g>
    <polyline points="191.12 312.65 286.45 312.65 342.6 263.58" style="fill: none;stroke: #000;stroke-miterlimit: 10"/>
    <path d="M343.76,265.05a1.88,1.88,0,1,0-2.65-.17A1.88,1.88,0,0,0,343.76,265.05Z"/>
  </g>
  <g>
    <polyline points="191.12 347.63 286.45 347.63 379.62 281.77" style="fill: none;stroke: #000;stroke-miterlimit: 10"/>
    <path d="M380.63,283.36a1.88,1.88,0,1,0-2.62-.45A1.88,1.88,0,0,0,380.63,283.36Z"/>
  </g>
</svg>
